<?xml version="1.0" encoding="UTF-8" standalone="no"?>
<!DOCTYPE svg PUBLIC "-//W3C//DTD SVG 1.1//EN"
 "http://www.w3.org/Graphics/SVG/1.1/DTD/svg11.dtd">
<!-- Generated by graphviz version 2.43.0 (0)
 -->
<!-- Title: basic2TThermo.C Pages: 1 -->
<svg width="1878pt" height="148pt"
 viewBox="0.00 0.00 1877.50 148.00" xmlns="http://www.w3.org/2000/svg" xmlns:xlink="http://www.w3.org/1999/xlink">
<g id="graph0" class="graph" transform="scale(1 1) rotate(0) translate(4 144)">
<title>basic2TThermo.C</title>
<!-- Node1 -->
<g id="Node000001" class="node">
<title>Node1</title>
<g id="a_Node000001"><a xlink:title=" ">
<polygon fill="#999999" stroke="#666666" points="958,-140 857,-140 857,-121 958,-121 958,-140"/>
<text text-anchor="middle" x="907.5" y="-128" font-family="Helvetica,sans-Serif" font-size="10.00">basic2TThermo.C</text>
</a>
</g>
</g>
<!-- Node2 -->
<g id="Node000002" class="node">
<title>Node2</title>
<g id="a_Node000002"><a xlink:href="basic2TThermo_2basic2TThermo_8H.html" target="_top" xlink:title=" ">
<polygon fill="white" stroke="#666666" points="315.5,-79.5 213.5,-79.5 213.5,-60.5 315.5,-60.5 315.5,-79.5"/>
<text text-anchor="middle" x="264.5" y="-67.5" font-family="Helvetica,sans-Serif" font-size="10.00">basic2TThermo.H</text>
</a>
</g>
</g>
<!-- Node1&#45;&gt;Node2 -->
<g id="edge1_Node000001_Node000002" class="edge">
<title>Node1&#45;&gt;Node2</title>
<g id="a_edge1_Node000001_Node000002"><a xlink:title=" ">
<path fill="none" stroke="#63b8ff" d="M856.96,-126.58C759.94,-120.7 540.93,-106.2 357.5,-85 347.18,-83.81 336.23,-82.34 325.62,-80.81"/>
<polygon fill="#63b8ff" stroke="#63b8ff" points="325.98,-77.33 315.58,-79.33 324.96,-84.25 325.98,-77.33"/>
</a>
</g>
</g>
<!-- Node7 -->
<g id="Node000007" class="node">
<title>Node7</title>
<g id="a_Node000007"><a xlink:title=" ">
<polygon fill="#e0e0e0" stroke="#999999" points="439,-19 360,-19 360,0 439,0 439,-19"/>
<text text-anchor="middle" x="399.5" y="-7" font-family="Helvetica,sans-Serif" font-size="10.00">wordIOList.H</text>
</a>
</g>
</g>
<!-- Node1&#45;&gt;Node7 -->
<g id="edge8_Node000001_Node000007" class="edge">
<title>Node1&#45;&gt;Node7</title>
<g id="a_edge8_Node000001_Node000007"><a xlink:title=" ">
<path fill="none" stroke="#63b8ff" d="M856.93,-128.94C732.94,-127.05 421.64,-118.94 390.5,-85 376.64,-69.9 383.22,-45.22 390.35,-28.44"/>
<polygon fill="#63b8ff" stroke="#63b8ff" points="393.61,-29.71 394.68,-19.17 387.27,-26.74 393.61,-29.71"/>
</a>
</g>
</g>
<!-- Node8 -->
<g id="Node000008" class="node">
<title>Node8</title>
<g id="a_Node000008"><a xlink:title=" ">
<polygon fill="#e0e0e0" stroke="#999999" points="473.5,-79.5 399.5,-79.5 399.5,-60.5 473.5,-60.5 473.5,-79.5"/>
<text text-anchor="middle" x="436.5" y="-67.5" font-family="Helvetica,sans-Serif" font-size="10.00">stringOps.H</text>
</a>
</g>
</g>
<!-- Node1&#45;&gt;Node8 -->
<g id="edge7_Node000001_Node000008" class="edge">
<title>Node1&#45;&gt;Node8</title>
<g id="a_edge7_Node000001_Node000008"><a xlink:title=" ">
<path fill="none" stroke="#63b8ff" d="M856.79,-127.21C776.79,-122.92 616.69,-111.59 483.5,-85 479.77,-84.26 475.92,-83.35 472.09,-82.35"/>
<polygon fill="#63b8ff" stroke="#63b8ff" points="472.71,-78.89 462.14,-79.57 470.83,-85.63 472.71,-78.89"/>
</a>
</g>
</g>
<!-- Node9 -->
<g id="Node000009" class="node">
<title>Node9</title>
<g id="a_Node000009"><a xlink:title=" ">
<polygon fill="#e0e0e0" stroke="#999999" points="649,-79.5 492,-79.5 492,-60.5 649,-60.5 649,-79.5"/>
<text text-anchor="middle" x="570.5" y="-67.5" font-family="Helvetica,sans-Serif" font-size="10.00">zeroGradientFvPatchFields.H</text>
</a>
</g>
</g>
<!-- Node1&#45;&gt;Node9 -->
<g id="edge9_Node000001_Node000009" class="edge">
<title>Node1&#45;&gt;Node9</title>
<g id="a_edge9_Node000001_Node000009"><a xlink:title=" ">
<path fill="none" stroke="#63b8ff" d="M858.5,-120.99C797.85,-110.47 694.65,-92.55 629.65,-81.27"/>
<polygon fill="#63b8ff" stroke="#63b8ff" points="630.01,-77.78 619.56,-79.52 628.82,-84.68 630.01,-77.78"/>
</a>
</g>
</g>
<!-- Node10 -->
<g id="Node000010" class="node">
<title>Node10</title>
<g id="a_Node000010"><a xlink:title=" ">
<polygon fill="#e0e0e0" stroke="#999999" points="809.5,-85 667.5,-85 667.5,-55 809.5,-55 809.5,-85"/>
<text text-anchor="start" x="675.5" y="-73" font-family="Helvetica,sans-Serif" font-size="10.00">fixedEnergyFvPatchScalar</text>
<text text-anchor="middle" x="738.5" y="-62" font-family="Helvetica,sans-Serif" font-size="10.00">Field.H</text>
</a>
</g>
</g>
<!-- Node1&#45;&gt;Node10 -->
<g id="edge10_Node000001_Node000010" class="edge">
<title>Node1&#45;&gt;Node10</title>
<g id="a_edge10_Node000001_Node000010"><a xlink:title=" ">
<path fill="none" stroke="#63b8ff" d="M882.93,-120.99C858.39,-112.5 819.97,-99.2 788.92,-88.45"/>
<polygon fill="#63b8ff" stroke="#63b8ff" points="789.72,-85.03 779.13,-85.06 787.44,-91.64 789.72,-85.03"/>
</a>
</g>
</g>
<!-- Node11 -->
<g id="Node000011" class="node">
<title>Node11</title>
<g id="a_Node000011"><a xlink:title=" ">
<polygon fill="#e0e0e0" stroke="#999999" points="987,-85 828,-85 828,-55 987,-55 987,-85"/>
<text text-anchor="start" x="836" y="-73" font-family="Helvetica,sans-Serif" font-size="10.00">gradientEnergyFvPatchScalar</text>
<text text-anchor="middle" x="907.5" y="-62" font-family="Helvetica,sans-Serif" font-size="10.00">Field.H</text>
</a>
</g>
</g>
<!-- Node1&#45;&gt;Node11 -->
<g id="edge11_Node000001_Node000011" class="edge">
<title>Node1&#45;&gt;Node11</title>
<g id="a_edge11_Node000001_Node000011"><a xlink:title=" ">
<path fill="none" stroke="#63b8ff" d="M907.5,-120.87C907.5,-114.11 907.5,-104.35 907.5,-95.26"/>
<polygon fill="#63b8ff" stroke="#63b8ff" points="911,-95.11 907.5,-85.11 904,-95.11 911,-95.11"/>
</a>
</g>
</g>
<!-- Node12 -->
<g id="Node000012" class="node">
<title>Node12</title>
<g id="a_Node000012"><a xlink:title=" ">
<polygon fill="#e0e0e0" stroke="#999999" points="1154,-85 1005,-85 1005,-55 1154,-55 1154,-85"/>
<text text-anchor="start" x="1013" y="-73" font-family="Helvetica,sans-Serif" font-size="10.00">mixedEnergyFvPatchScalar</text>
<text text-anchor="middle" x="1079.5" y="-62" font-family="Helvetica,sans-Serif" font-size="10.00">Field.H</text>
</a>
</g>
</g>
<!-- Node1&#45;&gt;Node12 -->
<g id="edge12_Node000001_Node000012" class="edge">
<title>Node1&#45;&gt;Node12</title>
<g id="a_edge12_Node000001_Node000012"><a xlink:title=" ">
<path fill="none" stroke="#63b8ff" d="M932.51,-120.99C957.59,-112.46 996.92,-99.09 1028.59,-88.32"/>
<polygon fill="#63b8ff" stroke="#63b8ff" points="1029.81,-91.6 1038.15,-85.06 1027.55,-84.97 1029.81,-91.6"/>
</a>
</g>
</g>
<!-- Node13 -->
<g id="Node000013" class="node">
<title>Node13</title>
<g id="a_Node000013"><a xlink:title=" ">
<polygon fill="#e0e0e0" stroke="#999999" points="1314.5,-79.5 1172.5,-79.5 1172.5,-60.5 1314.5,-60.5 1314.5,-79.5"/>
<text text-anchor="middle" x="1243.5" y="-67.5" font-family="Helvetica,sans-Serif" font-size="10.00">fixedJumpFvPatchFields.H</text>
</a>
</g>
</g>
<!-- Node1&#45;&gt;Node13 -->
<g id="edge13_Node000001_Node000013" class="edge">
<title>Node1&#45;&gt;Node13</title>
<g id="a_edge13_Node000001_Node000013"><a xlink:title=" ">
<path fill="none" stroke="#63b8ff" d="M956.58,-120.99C1008.11,-112.04 1091.51,-97.56 1163.5,-85 1170.31,-83.81 1177.45,-82.56 1184.54,-81.33"/>
<polygon fill="#63b8ff" stroke="#63b8ff" points="1185.6,-84.69 1194.85,-79.52 1184.4,-77.8 1185.6,-84.69"/>
</a>
</g>
</g>
<!-- Node14 -->
<g id="Node000014" class="node">
<title>Node14</title>
<g id="a_Node000014"><a xlink:title=" ">
<polygon fill="#e0e0e0" stroke="#999999" points="1494,-79.5 1333,-79.5 1333,-60.5 1494,-60.5 1494,-79.5"/>
<text text-anchor="middle" x="1413.5" y="-67.5" font-family="Helvetica,sans-Serif" font-size="10.00">fixedJumpAMIFvPatchFields.H</text>
</a>
</g>
</g>
<!-- Node1&#45;&gt;Node14 -->
<g id="edge14_Node000001_Node000014" class="edge">
<title>Node1&#45;&gt;Node14</title>
<g id="a_edge14_Node000001_Node000014"><a xlink:title=" ">
<path fill="none" stroke="#63b8ff" d="M958.18,-124.87C1036.61,-117.52 1192.07,-102.24 1323.5,-85 1332.48,-83.82 1341.95,-82.47 1351.24,-81.08"/>
<polygon fill="#63b8ff" stroke="#63b8ff" points="1351.85,-84.53 1361.21,-79.57 1350.8,-77.61 1351.85,-84.53"/>
</a>
</g>
</g>
<!-- Node15 -->
<g id="Node000015" class="node">
<title>Node15</title>
<g id="a_Node000015"><a xlink:title=" ">
<polygon fill="#e0e0e0" stroke="#999999" points="1689,-79.5 1512,-79.5 1512,-60.5 1689,-60.5 1689,-79.5"/>
<text text-anchor="middle" x="1600.5" y="-67.5" font-family="Helvetica,sans-Serif" font-size="10.00">energyJumpFvPatchScalarField.H</text>
</a>
</g>
</g>
<!-- Node1&#45;&gt;Node15 -->
<g id="edge15_Node000001_Node000015" class="edge">
<title>Node1&#45;&gt;Node15</title>
<g id="a_edge15_Node000001_Node000015"><a xlink:title=" ">
<path fill="none" stroke="#63b8ff" d="M958.24,-126.89C1061.22,-121.34 1302.11,-107.03 1503.5,-85 1514.12,-83.84 1525.36,-82.4 1536.29,-80.9"/>
<polygon fill="#63b8ff" stroke="#63b8ff" points="1536.79,-84.37 1546.2,-79.51 1535.81,-77.43 1536.79,-84.37"/>
</a>
</g>
</g>
<!-- Node16 -->
<g id="Node000016" class="node">
<title>Node16</title>
<g id="a_Node000016"><a xlink:title=" ">
<polygon fill="#e0e0e0" stroke="#999999" points="1869.5,-85 1707.5,-85 1707.5,-55 1869.5,-55 1869.5,-85"/>
<text text-anchor="start" x="1715.5" y="-73" font-family="Helvetica,sans-Serif" font-size="10.00">energyJumpAMIFvPatchScalar</text>
<text text-anchor="middle" x="1788.5" y="-62" font-family="Helvetica,sans-Serif" font-size="10.00">Field.H</text>
</a>
</g>
</g>
<!-- Node1&#45;&gt;Node16 -->
<g id="edge16_Node000001_Node000016" class="edge">
<title>Node1&#45;&gt;Node16</title>
<g id="a_edge16_Node000001_Node000016"><a xlink:title=" ">
<path fill="none" stroke="#63b8ff" d="M958.07,-128.38C1082.2,-125.24 1411.96,-114.7 1696.99,-85.09"/>
<polygon fill="#63b8ff" stroke="#63b8ff" points="1697.53,-88.55 1707.11,-84.03 1696.8,-81.59 1697.53,-88.55"/>
</a>
</g>
</g>
<!-- Node3 -->
<g id="Node000003" class="node">
<title>Node3</title>
<g id="a_Node000003"><a xlink:title=" ">
<polygon fill="#e0e0e0" stroke="#999999" points="71,-19 0,-19 0,0 71,0 71,-19"/>
<text text-anchor="middle" x="35.5" y="-7" font-family="Helvetica,sans-Serif" font-size="10.00">volFields.H</text>
</a>
</g>
</g>
<!-- Node2&#45;&gt;Node3 -->
<g id="edge2_Node000002_Node000003" class="edge">
<title>Node2&#45;&gt;Node3</title>
<g id="a_edge2_Node000002_Node000003"><a xlink:title=" ">
<path fill="none" stroke="#63b8ff" d="M231.2,-60.49C190.92,-50.2 123.02,-32.86 78.73,-21.54"/>
<polygon fill="#63b8ff" stroke="#63b8ff" points="79.39,-18.1 68.84,-19.02 77.66,-24.88 79.39,-18.1"/>
</a>
</g>
</g>
<!-- Node4 -->
<g id="Node000004" class="node">
<title>Node4</title>
<g id="a_Node000004"><a xlink:title=" ">
<polygon fill="#e0e0e0" stroke="#999999" points="157.5,-19 89.5,-19 89.5,0 157.5,0 157.5,-19"/>
<text text-anchor="middle" x="123.5" y="-7" font-family="Helvetica,sans-Serif" font-size="10.00">typeInfo.H</text>
</a>
</g>
</g>
<!-- Node2&#45;&gt;Node4 -->
<g id="edge3_Node000002_Node000004" class="edge">
<title>Node2&#45;&gt;Node4</title>
<g id="a_edge3_Node000002_Node000004"><a xlink:title=" ">
<path fill="none" stroke="#63b8ff" d="M244,-60.49C220.19,-50.62 180.71,-34.23 153.46,-22.93"/>
<polygon fill="#63b8ff" stroke="#63b8ff" points="154.61,-19.62 144.03,-19.02 151.92,-26.08 154.61,-19.62"/>
</a>
</g>
</g>
<!-- Node5 -->
<g id="Node000005" class="node">
<title>Node5</title>
<g id="a_Node000005"><a xlink:title=" ">
<polygon fill="#e0e0e0" stroke="#999999" points="261,-19 176,-19 176,0 261,0 261,-19"/>
<text text-anchor="middle" x="218.5" y="-7" font-family="Helvetica,sans-Serif" font-size="10.00">IOdictionary.H</text>
</a>
</g>
</g>
<!-- Node2&#45;&gt;Node5 -->
<g id="edge4_Node000002_Node000005" class="edge">
<title>Node2&#45;&gt;Node5</title>
<g id="a_edge4_Node000002_Node000005"><a xlink:title=" ">
<path fill="none" stroke="#63b8ff" d="M257.71,-60.37C250.85,-51.64 240.07,-37.93 231.55,-27.09"/>
<polygon fill="#63b8ff" stroke="#63b8ff" points="234.25,-24.86 225.32,-19.17 228.75,-29.19 234.25,-24.86"/>
</a>
</g>
</g>
<!-- Node6 -->
<g id="Node000006" class="node">
<title>Node6</title>
<g id="a_Node000006"><a xlink:title=" ">
<polygon fill="#e0e0e0" stroke="#999999" points="341.5,-19 279.5,-19 279.5,0 341.5,0 341.5,-19"/>
<text text-anchor="middle" x="310.5" y="-7" font-family="Helvetica,sans-Serif" font-size="10.00">autoPtr.H</text>
</a>
</g>
</g>
<!-- Node2&#45;&gt;Node6 -->
<g id="edge5_Node000002_Node000006" class="edge">
<title>Node2&#45;&gt;Node6</title>
<g id="a_edge5_Node000002_Node000006"><a xlink:title=" ">
<path fill="none" stroke="#63b8ff" d="M271.29,-60.37C278.15,-51.64 288.93,-37.93 297.45,-27.09"/>
<polygon fill="#63b8ff" stroke="#63b8ff" points="300.25,-29.19 303.68,-19.17 294.75,-24.86 300.25,-29.19"/>
</a>
</g>
</g>
<!-- Node2&#45;&gt;Node7 -->
<g id="edge6_Node000002_Node000007" class="edge">
<title>Node2&#45;&gt;Node7</title>
<g id="a_edge6_Node000002_Node000007"><a xlink:title=" ">
<path fill="none" stroke="#63b8ff" d="M284.13,-60.49C306.83,-50.66 344.4,-34.38 370.47,-23.08"/>
<polygon fill="#63b8ff" stroke="#63b8ff" points="372.06,-26.2 379.85,-19.02 369.28,-19.78 372.06,-26.2"/>
</a>
</g>
</g>
</g>
</svg>
