<?xml version="1.0" encoding="UTF-8" standalone="no"?>
<!DOCTYPE svg PUBLIC "-//W3C//DTD SVG 1.1//EN"
 "http://www.w3.org/Graphics/SVG/1.1/DTD/svg11.dtd">
<!-- Generated by graphviz version 2.43.0 (0)
 -->
<!-- Title: Foam::he2TThermo&lt; Basic2TThermo, MixtureType &gt; Pages: 1 -->
<!--zoomable 845 -->

<svg id="main" version="1.1" xmlns="http://www.w3.org/2000/svg" xmlns:xlink="http://www.w3.org/1999/xlink" xml:space="preserve" onload="init(evt)">
<style type="text/css"><![CDATA[
.node, .edge {opacity: 0.7;}
.node.selected, .edge.selected {opacity: 1;}
.edge:hover path { stroke: red; }
.edge:hover polygon { stroke: red; fill: red; }
]]></style>

<defs>
  <circle id="rim" cx="0" cy="0" r="7"/>
  <circle id="rim2" cx="0" cy="0" r="3.5"/>
  <g id="zoomPlus">
    <use xlink:href="#rim" fill="#404040"><set attributeName="fill" to="#808080" begin="zoomplus.mouseover" end="zoomplus.mouseout"/></use>
    <path d="M-4,0h8M0,-4v8" fill="none" stroke="white" stroke-width="1.5" pointer-events="none"/>
  </g>
  <g id="zoomMin">
    <use xlink:href="#rim" fill="#404040"><set attributeName="fill" to="#808080" begin="zoomminus.mouseover" end="zoomminus.mouseout"/></use>
    <path d="M-4,0h8" fill="none" stroke="white" stroke-width="1.5" pointer-events="none"/>
  </g>
  <g id="arrowUp" transform="translate(30 24)">
    <use xlink:href="#rim"/>
    <path pointer-events="none" fill="none" stroke="white" stroke-width="1.5" d="M0,-3.0v7 M-2.5,-0.5L0,-3.0L2.5,-0.5"/>
  </g>
  <g id="arrowRight" transform="rotate(90) translate(36 -43)">
    <use xlink:href="#rim"/>
    <path pointer-events="none" fill="none" stroke="white" stroke-width="1.5" d="M0,-3.0v7 M-2.5,-0.5L0,-3.0L2.5,-0.5"/>
  </g>
  <g id="arrowDown" transform="rotate(180) translate(-30 -48)">
    <use xlink:href="#rim"/>
    <path pointer-events="none" fill="none" stroke="white" stroke-width="1.5" d="M0,-3.0v7 M-2.5,-0.5L0,-3.0L2.5,-0.5"/>
  </g>
  <g id="arrowLeft" transform="rotate(270) translate(-36 17)">
    <use xlink:href="#rim"/>
    <path pointer-events="none" fill="none" stroke="white" stroke-width="1.5" d="M0,-3.0v7 M-2.5,-0.5L0,-3.0L2.5,-0.5"/>
  </g>
  <g id="resetDef">
    <use xlink:href="#rim2" fill="#404040"><set attributeName="fill" to="#808080" begin="reset.mouseover" end="reset.mouseout"/></use>
  </g>
</defs>
<script type="application/ecmascript">
var viewWidth = 206;
var viewHeight = 845;
var sectionId = 'dynsection-0';
</script>
<script type="application/ecmascript" xlink:href="svg.min.js"/>
<svg id="graph" class="graph">
<g id="viewport">
<title>Foam::he2TThermo&lt; Basic2TThermo, MixtureType &gt;</title>
<!-- Node1 -->
<g id="Node000001" class="node">
<title>Node1</title>
<g id="a_Node000001"><a xlink:title=" ">
<polygon fill="#999999" stroke="transparent" points="165.5,-751 16.5,-751 16.5,-511 165.5,-511 165.5,-751"/>
<text text-anchor="start" x="22" y="-739" font-family="Helvetica,sans-Serif" font-size="10.00">Foam::he2TThermo&lt; Basic2</text>
<text text-anchor="start" x="31" y="-728" font-family="Helvetica,sans-Serif" font-size="10.00">TThermo, MixtureType &gt;</text>
<text text-anchor="start" x="23.5" y="-713" font-family="Helvetica,sans-Serif" font-size="10.00">#</text>
<text text-anchor="start" x="39" y="-713" font-family="Helvetica,sans-Serif" font-size="10.00">he_</text>
<text text-anchor="start" x="23.5" y="-698" font-family="Helvetica,sans-Serif" font-size="10.00">+</text>
<text text-anchor="start" x="39" y="-698" font-family="Helvetica,sans-Serif" font-size="10.00">he2TThermo()</text>
<text text-anchor="start" x="23.5" y="-683" font-family="Helvetica,sans-Serif" font-size="10.00">+</text>
<text text-anchor="start" x="39" y="-683" font-family="Helvetica,sans-Serif" font-size="10.00">he2TThermo()</text>
<text text-anchor="start" x="23.5" y="-668" font-family="Helvetica,sans-Serif" font-size="10.00">+</text>
<text text-anchor="start" x="39" y="-668" font-family="Helvetica,sans-Serif" font-size="10.00">he2TThermo()</text>
<text text-anchor="start" x="23.5" y="-653" font-family="Helvetica,sans-Serif" font-size="10.00">+</text>
<text text-anchor="start" x="39" y="-653" font-family="Helvetica,sans-Serif" font-size="10.00">~he2TThermo()</text>
<text text-anchor="start" x="23.5" y="-638" font-family="Helvetica,sans-Serif" font-size="10.00">+</text>
<text text-anchor="start" x="39" y="-638" font-family="Helvetica,sans-Serif" font-size="10.00">composition()</text>
<text text-anchor="start" x="23.5" y="-623" font-family="Helvetica,sans-Serif" font-size="10.00">+</text>
<text text-anchor="start" x="39" y="-623" font-family="Helvetica,sans-Serif" font-size="10.00">composition()</text>
<text text-anchor="start" x="23.5" y="-608" font-family="Helvetica,sans-Serif" font-size="10.00">+</text>
<text text-anchor="start" x="39" y="-608" font-family="Helvetica,sans-Serif" font-size="10.00">thermoName()</text>
<text text-anchor="start" x="23.5" y="-593" font-family="Helvetica,sans-Serif" font-size="10.00">+</text>
<text text-anchor="start" x="39" y="-593" font-family="Helvetica,sans-Serif" font-size="10.00">incompressible()</text>
<text text-anchor="start" x="23.5" y="-578" font-family="Helvetica,sans-Serif" font-size="10.00">+</text>
<text text-anchor="start" x="39" y="-578" font-family="Helvetica,sans-Serif" font-size="10.00">isochoric()</text>
<text text-anchor="start" x="23.5" y="-563" font-family="Helvetica,sans-Serif" font-size="10.00">+</text>
<text text-anchor="start" x="39" y="-563" font-family="Helvetica,sans-Serif" font-size="10.00">he()</text>
<text text-anchor="start" x="39" y="-548" font-family="Helvetica,sans-Serif" font-size="10.00">and 84 more...</text>
<text text-anchor="start" x="23.5" y="-533" font-family="Helvetica,sans-Serif" font-size="10.00">#</text>
<text text-anchor="start" x="39" y="-533" font-family="Helvetica,sans-Serif" font-size="10.00">heBoundaryCorrection()</text>
<text text-anchor="start" x="23.5" y="-518" font-family="Helvetica,sans-Serif" font-size="10.00">#</text>
<text text-anchor="start" x="39" y="-518" font-family="Helvetica,sans-Serif" font-size="10.00">heBoundaryCorrection()</text>
<polygon fill="#666666" stroke="#666666" points="17,-723 17,-723 166,-723 166,-723 17,-723"/>
<polygon fill="#666666" stroke="#666666" points="17,-708 17,-708 37,-708 37,-708 17,-708"/>
<polygon fill="#666666" stroke="#666666" points="37,-708 37,-708 166,-708 166,-708 37,-708"/>
<polygon fill="none" stroke="#666666" points="16.5,-511 16.5,-751 165.5,-751 165.5,-511 16.5,-511"/>
</a>
</g>
</g>
<!-- Node4 -->
<g id="Node000004" class="node">
<title>Node4</title>
<g id="a_Node000004"><a xlink:href="classFoam_1_1he2TThermo.html" target="_top" xlink:title=" ">
<polygon fill="white" stroke="transparent" points="172,-453 10,-453 10,-213 172,-213 172,-453"/>
<text text-anchor="start" x="15" y="-441" font-family="Helvetica,sans-Serif" font-size="10.00">Foam::he2TThermo&lt; BasicNe2</text>
<text text-anchor="start" x="30.5" y="-430" font-family="Helvetica,sans-Serif" font-size="10.00">TThermo, MixtureType &gt;</text>
<text text-anchor="start" x="20" y="-415" font-family="Helvetica,sans-Serif" font-size="10.00">#</text>
<text text-anchor="start" x="39" y="-415" font-family="Helvetica,sans-Serif" font-size="10.00">he_</text>
<text text-anchor="start" x="20" y="-400" font-family="Helvetica,sans-Serif" font-size="10.00">+</text>
<text text-anchor="start" x="39" y="-400" font-family="Helvetica,sans-Serif" font-size="10.00">he2TThermo()</text>
<text text-anchor="start" x="20" y="-385" font-family="Helvetica,sans-Serif" font-size="10.00">+</text>
<text text-anchor="start" x="39" y="-385" font-family="Helvetica,sans-Serif" font-size="10.00">he2TThermo()</text>
<text text-anchor="start" x="20" y="-370" font-family="Helvetica,sans-Serif" font-size="10.00">+</text>
<text text-anchor="start" x="39" y="-370" font-family="Helvetica,sans-Serif" font-size="10.00">he2TThermo()</text>
<text text-anchor="start" x="20" y="-355" font-family="Helvetica,sans-Serif" font-size="10.00">+</text>
<text text-anchor="start" x="39" y="-355" font-family="Helvetica,sans-Serif" font-size="10.00">he2TThermo()</text>
<text text-anchor="start" x="20" y="-340" font-family="Helvetica,sans-Serif" font-size="10.00">+</text>
<text text-anchor="start" x="39" y="-340" font-family="Helvetica,sans-Serif" font-size="10.00">he2TThermo()</text>
<text text-anchor="start" x="20" y="-325" font-family="Helvetica,sans-Serif" font-size="10.00">+</text>
<text text-anchor="start" x="39" y="-325" font-family="Helvetica,sans-Serif" font-size="10.00">he2TThermo()</text>
<text text-anchor="start" x="20" y="-310" font-family="Helvetica,sans-Serif" font-size="10.00">+</text>
<text text-anchor="start" x="39" y="-310" font-family="Helvetica,sans-Serif" font-size="10.00">~he2TThermo()</text>
<text text-anchor="start" x="20" y="-295" font-family="Helvetica,sans-Serif" font-size="10.00">+</text>
<text text-anchor="start" x="39" y="-295" font-family="Helvetica,sans-Serif" font-size="10.00">~he2TThermo()</text>
<text text-anchor="start" x="20" y="-280" font-family="Helvetica,sans-Serif" font-size="10.00">+</text>
<text text-anchor="start" x="39" y="-280" font-family="Helvetica,sans-Serif" font-size="10.00">composition()</text>
<text text-anchor="start" x="20" y="-265" font-family="Helvetica,sans-Serif" font-size="10.00">+</text>
<text text-anchor="start" x="39" y="-265" font-family="Helvetica,sans-Serif" font-size="10.00">composition()</text>
<text text-anchor="start" x="39" y="-250" font-family="Helvetica,sans-Serif" font-size="10.00">and 84 more...</text>
<text text-anchor="start" x="20" y="-235" font-family="Helvetica,sans-Serif" font-size="10.00">#</text>
<text text-anchor="start" x="39" y="-235" font-family="Helvetica,sans-Serif" font-size="10.00">heBoundaryCorrection()</text>
<text text-anchor="start" x="20" y="-220" font-family="Helvetica,sans-Serif" font-size="10.00">#</text>
<text text-anchor="start" x="39" y="-220" font-family="Helvetica,sans-Serif" font-size="10.00">heBoundaryCorrection()</text>
<polygon fill="#666666" stroke="#666666" points="10,-425 10,-425 172,-425 172,-425 10,-425"/>
<polygon fill="#666666" stroke="#666666" points="10,-410 10,-410 37,-410 37,-410 10,-410"/>
<polygon fill="#666666" stroke="#666666" points="37,-410 37,-410 172,-410 172,-410 37,-410"/>
<polygon fill="none" stroke="#666666" points="10,-213 10,-453 172,-453 172,-213 10,-213"/>
</a>
</g>
</g>
<!-- Node1&#45;&gt;Node4 -->
<g id="edge5_Node000001_Node000004" class="edge">
<title>Node1&#45;&gt;Node4</title>
<g id="a_edge5_Node000001_Node000004"><a xlink:title=" ">
<path fill="none" stroke="orange" d="M91,-500.61C91,-484.9 91,-468.91 91,-453.35"/>
<polygon fill="orange" stroke="orange" points="87.5,-500.88 91,-510.88 94.5,-500.88 87.5,-500.88"/>
</a>
</g>
<text text-anchor="start" x="91" y="-485" font-family="Helvetica,sans-Serif" font-size="10.00" fill="grey"> &lt; BasicNe2TThermo,</text>
<text text-anchor="middle" x="144.5" y="-474" font-family="Helvetica,sans-Serif" font-size="10.00" fill="grey"> MixtureType &gt;</text>
</g>
<!-- Node2 -->
<g id="Node000002" class="node">
<title>Node2</title>
<g id="a_Node000002"><a xlink:title=" ">
<polygon fill="white" stroke="transparent" points="86,-837 0,-837 0,-788 86,-788 86,-837"/>
<text text-anchor="start" x="5" y="-824.5" font-family="Helvetica,sans-Serif" font-size="10.00">Basic2TThermo</text>
<text text-anchor="start" x="41" y="-809.5" font-family="Helvetica,sans-Serif" font-size="10.00"> </text>
<text text-anchor="start" x="41" y="-794.5" font-family="Helvetica,sans-Serif" font-size="10.00"> </text>
<polygon fill="#666666" stroke="#666666" points="0,-819.5 0,-819.5 86,-819.5 86,-819.5 0,-819.5"/>
<polygon fill="#666666" stroke="#666666" points="0,-804.5 0,-804.5 86,-804.5 86,-804.5 0,-804.5"/>
<polygon fill="none" stroke="#666666" points="0,-788 0,-837 86,-837 86,-788 0,-788"/>
</a>
</g>
</g>
<!-- Node2&#45;&gt;Node1 -->
<g id="edge1_Node000001_Node000002" class="edge">
<title>Node2&#45;&gt;Node1</title>
<g id="a_edge1_Node000001_Node000002"><a xlink:title=" ">
<path fill="none" stroke="#63b8ff" d="M46.61,-777.77C48.3,-769.78 50.37,-760.81 52.67,-751.34"/>
<polygon fill="none" stroke="#63b8ff" points="43.16,-777.17 44.61,-787.66 50.02,-778.55 43.16,-777.17"/>
</a>
</g>
</g>
<!-- Node2&#45;&gt;Node1 -->
<g id="edge3_Node000001_Node000002" class="edge">
<title>Node2&#45;&gt;Node1</title>
<g id="a_edge3_Node000001_Node000002"><a xlink:title=" ">
<path fill="none" stroke="#63b8ff" d="M57.34,-778.04C59.95,-769.99 62.71,-760.92 65.5,-751.34"/>
<polygon fill="none" stroke="#63b8ff" points="53.98,-777.07 54.13,-787.66 60.62,-779.28 53.98,-777.07"/>
</a>
</g>
</g>
<!-- Node3 -->
<g id="Node000003" class="node">
<title>Node3</title>
<g id="a_Node000003"><a xlink:title=" ">
<polygon fill="white" stroke="transparent" points="175.5,-837 104.5,-837 104.5,-788 175.5,-788 175.5,-837"/>
<text text-anchor="start" x="110" y="-824.5" font-family="Helvetica,sans-Serif" font-size="10.00">MixtureType</text>
<text text-anchor="start" x="138.5" y="-809.5" font-family="Helvetica,sans-Serif" font-size="10.00"> </text>
<text text-anchor="start" x="138.5" y="-794.5" font-family="Helvetica,sans-Serif" font-size="10.00"> </text>
<polygon fill="#666666" stroke="#666666" points="105,-819.5 105,-819.5 176,-819.5 176,-819.5 105,-819.5"/>
<polygon fill="#666666" stroke="#666666" points="105,-804.5 105,-804.5 176,-804.5 176,-804.5 105,-804.5"/>
<polygon fill="none" stroke="#666666" points="104.5,-788 104.5,-837 175.5,-837 175.5,-788 104.5,-788"/>
</a>
</g>
</g>
<!-- Node3&#45;&gt;Node1 -->
<g id="edge2_Node000001_Node000003" class="edge">
<title>Node3&#45;&gt;Node1</title>
<g id="a_edge2_Node000001_Node000003"><a xlink:title=" ">
<path fill="none" stroke="#63b8ff" d="M125.47,-778.04C122.82,-769.99 120,-760.92 117.17,-751.34"/>
<polygon fill="none" stroke="#63b8ff" points="122.21,-779.32 128.73,-787.66 128.84,-777.07 122.21,-779.32"/>
</a>
</g>
</g>
<!-- Node3&#45;&gt;Node1 -->
<g id="edge4_Node000001_Node000003" class="edge">
<title>Node3&#45;&gt;Node1</title>
<g id="a_edge4_Node000001_Node000003"><a xlink:title=" ">
<path fill="none" stroke="#63b8ff" d="M136.2,-777.77C134.47,-769.78 132.35,-760.81 129.99,-751.34"/>
<polygon fill="none" stroke="#63b8ff" points="132.8,-778.58 138.25,-787.66 139.65,-777.16 132.8,-778.58"/>
</a>
</g>
</g>
<!-- Node5 -->
<g id="Node000005" class="node">
<title>Node5</title>
<g id="a_Node000005"><a xlink:href="classFoam_1_1heNe2TThermo.html" target="_top" xlink:title=" ">
<polygon fill="white" stroke="transparent" points="168.5,-176 13.5,-176 13.5,0 168.5,0 168.5,-176"/>
<text text-anchor="start" x="19" y="-164" font-family="Helvetica,sans-Serif" font-size="10.00">Foam::heNe2TThermo</text>
<text text-anchor="start" x="19" y="-153" font-family="Helvetica,sans-Serif" font-size="10.00">&lt; BasicNe2TThermo, Mixture</text>
<text text-anchor="start" x="74.5" y="-142" font-family="Helvetica,sans-Serif" font-size="10.00">Type &gt;</text>
<text text-anchor="start" x="89.5" y="-127" font-family="Helvetica,sans-Serif" font-size="10.00"> </text>
<text text-anchor="start" x="28.5" y="-112" font-family="Helvetica,sans-Serif" font-size="10.00">+</text>
<text text-anchor="start" x="52" y="-112" font-family="Helvetica,sans-Serif" font-size="10.00">heNe2TThermo()</text>
<text text-anchor="start" x="28.5" y="-97" font-family="Helvetica,sans-Serif" font-size="10.00">+</text>
<text text-anchor="start" x="52" y="-97" font-family="Helvetica,sans-Serif" font-size="10.00">heNe2TThermo()</text>
<text text-anchor="start" x="28.5" y="-82" font-family="Helvetica,sans-Serif" font-size="10.00">+</text>
<text text-anchor="start" x="52" y="-82" font-family="Helvetica,sans-Serif" font-size="10.00">~heNe2TThermo()</text>
<text text-anchor="start" x="28.5" y="-67" font-family="Helvetica,sans-Serif" font-size="10.00">+</text>
<text text-anchor="start" x="52" y="-67" font-family="Helvetica,sans-Serif" font-size="10.00">correct()</text>
<text text-anchor="start" x="28.5" y="-52" font-family="Helvetica,sans-Serif" font-size="10.00">+</text>
<text text-anchor="start" x="52" y="-52" font-family="Helvetica,sans-Serif" font-size="10.00">heNe2TThermo()</text>
<text text-anchor="start" x="28.5" y="-37" font-family="Helvetica,sans-Serif" font-size="10.00">+</text>
<text text-anchor="start" x="52" y="-37" font-family="Helvetica,sans-Serif" font-size="10.00">heNe2TThermo()</text>
<text text-anchor="start" x="28.5" y="-22" font-family="Helvetica,sans-Serif" font-size="10.00">+</text>
<text text-anchor="start" x="52" y="-22" font-family="Helvetica,sans-Serif" font-size="10.00">~heNe2TThermo()</text>
<text text-anchor="start" x="28.5" y="-7" font-family="Helvetica,sans-Serif" font-size="10.00">+</text>
<text text-anchor="start" x="52" y="-7" font-family="Helvetica,sans-Serif" font-size="10.00">correct()</text>
<polygon fill="#666666" stroke="#666666" points="14,-137 14,-137 169,-137 169,-137 14,-137"/>
<polygon fill="#666666" stroke="#666666" points="14,-122 14,-122 169,-122 169,-122 14,-122"/>
<polygon fill="none" stroke="#666666" points="13.5,0 13.5,-176 168.5,-176 168.5,0 13.5,0"/>
</a>
</g>
</g>
<!-- Node4&#45;&gt;Node5 -->
<g id="edge6_Node000004_Node000005" class="edge">
<title>Node4&#45;&gt;Node5</title>
<g id="a_edge6_Node000004_Node000005"><a xlink:title=" ">
<path fill="none" stroke="#63b8ff" d="M84.26,-202.83C84.29,-193.85 84.37,-184.92 84.49,-176.25"/>
<polygon fill="none" stroke="#63b8ff" points="80.76,-202.99 84.25,-212.99 87.76,-203 80.76,-202.99"/>
</a>
</g>
</g>
<!-- Node4&#45;&gt;Node5 -->
<g id="edge7_Node000004_Node000005" class="edge">
<title>Node4&#45;&gt;Node5</title>
<g id="a_edge7_Node000004_Node000005"><a xlink:title=" ">
<path fill="none" stroke="#63b8ff" d="M97.74,-202.83C97.71,-193.85 97.63,-184.92 97.51,-176.25"/>
<polygon fill="none" stroke="#63b8ff" points="94.24,-203 97.75,-212.99 101.24,-202.99 94.24,-203"/>
</a>
</g>
</g>
</g>
</svg>

<g id="navigator" transform="translate(0 0)" fill="#404254">
  <rect fill="#f2f5e9" fill-opacity="0.5" stroke="#606060" stroke-width=".5" x="0" y="0" width="60" height="60"/>
  <use id="zoomplus" xlink:href="#zoomPlus" x="17" y="9" onmousedown="handleZoom(evt,'in')"/>
  <use id="zoomminus" xlink:href="#zoomMin" x="42" y="9" onmousedown="handleZoom(evt,'out')"/>
  <use id="reset" xlink:href="#resetDef" x="30" y="36" onmousedown="handleReset()"/>
   <use id="arrowup" xlink:href="#arrowUp" x="0" y="0" onmousedown="handlePan(0,-1)"/>
  <use id="arrowright" xlink:href="#arrowRight" x="0" y="0" onmousedown="handlePan(1,0)"/>
  <use id="arrowdown" xlink:href="#arrowDown" x="0" y="0" onmousedown="handlePan(0,1)"/>
  <use id="arrowleft" xlink:href="#arrowLeft" x="0" y="0" onmousedown="handlePan(-1,0)"/>
</g>
<svg viewBox="0 0 15 15" width="100%" height="30px" preserveAspectRatio="xMaxYMin meet">
 <g id="arrow_out" transform="scale(0.3 0.3)">
  <a xlink:href="classFoam_1_1he2TThermo__inherit__graph_org.svg" target="_base">
   <rect id="button" ry="5" rx="5" y="6" x="6" height="38" width="38"
        fill="#f2f5e9" fill-opacity="0.5" stroke="#606060" stroke-width="1.0"/>
   <path id="arrow"
     d="M 11.500037,31.436501 C 11.940474,20.09759 22.043105,11.32322 32.158766,21.979434 L 37.068811,17.246167 C 37.068811,17.246167 37.088388,32 37.088388,32 L 22.160133,31.978069 C 22.160133,31.978069 26.997745,27.140456 26.997745,27.140456 C 18.528582,18.264221 13.291696,25.230495 11.500037,31.436501 z"
     style="fill:#404040;"/>
  </a>
 </g>
</svg>

<style type='text/css'>
<![CDATA[
[data-mouse-over-selected='false'] { opacity: 0.7; }
[data-mouse-over-selected='true']  { opacity: 1.0; }
]]>
</style>
<script type="application/ecmascript"><![CDATA[
document.addEventListener('DOMContentLoaded', (event) => {
  highlightEdges();
  highlightAdjacentNodes();
});
]]></script>
</svg>
