<?xml version="1.0" encoding="UTF-8" standalone="no"?>
<!DOCTYPE svg PUBLIC "-//W3C//DTD SVG 1.1//EN"
 "http://www.w3.org/Graphics/SVG/1.1/DTD/svg11.dtd">
<!-- Generated by graphviz version 2.43.0 (0)
 -->
<!-- Title: Foam::blottnerEucken2TTransport::alphah Pages: 1 -->
<svg width="336pt" height="38pt"
 viewBox="0.00 0.00 336.00 38.00" xmlns="http://www.w3.org/2000/svg" xmlns:xlink="http://www.w3.org/1999/xlink">
<g id="graph0" class="graph" transform="scale(1 1) rotate(0) translate(4 34)">
<title>Foam::blottnerEucken2TTransport::alphah</title>
<!-- Node1 -->
<g id="Node000001" class="node">
<title>Node1</title>
<g id="a_Node000001"><a xlink:title=" ">
<polygon fill="#999999" stroke="#666666" points="179,-30 0,-30 0,0 179,0 179,-30"/>
<text text-anchor="start" x="8" y="-18" font-family="Helvetica,sans-Serif" font-size="10.00">Foam::blottnerEucken2TTransport</text>
<text text-anchor="middle" x="89.5" y="-7" font-family="Helvetica,sans-Serif" font-size="10.00">::alphah</text>
</a>
</g>
</g>
<!-- Node2 -->
<g id="Node000002" class="node">
<title>Node2</title>
<g id="a_Node000002"><a xlink:href="lnInclude_2EtoHthermo2T_8H.html#aa0b7c65135f8132343b868a05ac7ff86" target="_top" xlink:title=" ">
<polygon fill="white" stroke="#666666" points="257,-24.5 215,-24.5 215,-5.5 257,-5.5 257,-24.5"/>
<text text-anchor="middle" x="236" y="-12.5" font-family="Helvetica,sans-Serif" font-size="10.00">CpTR</text>
</a>
</g>
</g>
<!-- Node1&#45;&gt;Node2 -->
<g id="edge1_Node000001_Node000002" class="edge">
<title>Node1&#45;&gt;Node2</title>
<g id="a_edge1_Node000001_Node000002"><a xlink:title=" ">
<path fill="none" stroke="#63b8ff" d="M179.13,-15C188.19,-15 196.88,-15 204.6,-15"/>
<polygon fill="#63b8ff" stroke="#63b8ff" points="204.8,-18.5 214.8,-15 204.8,-11.5 204.8,-18.5"/>
</a>
</g>
</g>
<!-- Node3 -->
<g id="Node000003" class="node">
<title>Node3</title>
<g id="a_Node000003"><a xlink:href="lnInclude_2HtoEthermo2T_8H.html#a9aa70b42d27cada92be491a2a1109f97" target="_top" xlink:title=" ">
<polygon fill="white" stroke="#666666" points="328,-24.5 293,-24.5 293,-5.5 328,-5.5 328,-24.5"/>
<text text-anchor="middle" x="310.5" y="-12.5" font-family="Helvetica,sans-Serif" font-size="10.00">CvT</text>
</a>
</g>
</g>
<!-- Node2&#45;&gt;Node3 -->
<g id="edge2_Node000002_Node000003" class="edge">
<title>Node2&#45;&gt;Node3</title>
<g id="a_edge2_Node000002_Node000003"><a xlink:title=" ">
<path fill="none" stroke="#63b8ff" d="M257.2,-8.88C265.09,-8.22 274.26,-8.08 282.69,-8.46"/>
<polygon fill="#63b8ff" stroke="#63b8ff" points="282.6,-11.96 292.84,-9.22 283.12,-4.98 282.6,-11.96"/>
</a>
</g>
</g>
<!-- Node3&#45;&gt;Node2 -->
<g id="edge3_Node000003_Node000002" class="edge">
<title>Node3&#45;&gt;Node2</title>
<g id="a_edge3_Node000003_Node000002"><a xlink:title=" ">
<path fill="none" stroke="#63b8ff" d="M292.84,-20.78C285.29,-21.61 276.14,-21.91 267.44,-21.67"/>
<polygon fill="#63b8ff" stroke="#63b8ff" points="267.37,-18.16 257.2,-21.12 266.99,-25.15 267.37,-18.16"/>
</a>
</g>
</g>
</g>
</svg>
