<?xml version="1.0" encoding="UTF-8" standalone="no"?>
<!DOCTYPE svg PUBLIC "-//W3C//DTD SVG 1.1//EN"
 "http://www.w3.org/Graphics/SVG/1.1/DTD/svg11.dtd">
<!-- Generated by graphviz version 2.43.0 (0)
 -->
<!-- Title: Foam::fluid2TThermo Pages: 1 -->
<svg width="356pt" height="977pt"
 viewBox="0.00 0.00 356.00 977.00" xmlns="http://www.w3.org/2000/svg" xmlns:xlink="http://www.w3.org/1999/xlink">
<g id="graph0" class="graph" transform="scale(1 1) rotate(0) translate(4 973)">
<title>Foam::fluid2TThermo</title>
<!-- Node1 -->
<g id="Node000001" class="node">
<title>Node1</title>
<g id="a_Node000001"><a xlink:title=" ">
<polygon fill="#999999" stroke="transparent" points="270,-259 91,-259 91,0 270,0 270,-259"/>
<text text-anchor="start" x="129" y="-246.5" font-family="Helvetica,sans-Serif" font-size="10.00">Foam::fluid2TThermo</text>
<text text-anchor="start" x="179" y="-231.5" font-family="Helvetica,sans-Serif" font-size="10.00"> </text>
<text text-anchor="start" x="95.5" y="-216.5" font-family="Helvetica,sans-Serif" font-size="10.00">+</text>
<text text-anchor="start" x="108.5" y="-216.5" font-family="Helvetica,sans-Serif" font-size="10.00">declareRunTimeSelectionTable()</text>
<text text-anchor="start" x="95.5" y="-201.5" font-family="Helvetica,sans-Serif" font-size="10.00">+</text>
<text text-anchor="start" x="108.5" y="-201.5" font-family="Helvetica,sans-Serif" font-size="10.00">declareRunTimeSelectionTable()</text>
<text text-anchor="start" x="95.5" y="-186.5" font-family="Helvetica,sans-Serif" font-size="10.00">+</text>
<text text-anchor="start" x="108.5" y="-186.5" font-family="Helvetica,sans-Serif" font-size="10.00">fluid2TThermo()</text>
<text text-anchor="start" x="95.5" y="-171.5" font-family="Helvetica,sans-Serif" font-size="10.00">+</text>
<text text-anchor="start" x="108.5" y="-171.5" font-family="Helvetica,sans-Serif" font-size="10.00">fluid2TThermo()</text>
<text text-anchor="start" x="95.5" y="-156.5" font-family="Helvetica,sans-Serif" font-size="10.00">+</text>
<text text-anchor="start" x="108.5" y="-156.5" font-family="Helvetica,sans-Serif" font-size="10.00">fluid2TThermo()</text>
<text text-anchor="start" x="95.5" y="-141.5" font-family="Helvetica,sans-Serif" font-size="10.00">+</text>
<text text-anchor="start" x="108.5" y="-141.5" font-family="Helvetica,sans-Serif" font-size="10.00">~fluid2TThermo()</text>
<text text-anchor="start" x="95.5" y="-126.5" font-family="Helvetica,sans-Serif" font-size="10.00">+</text>
<text text-anchor="start" x="108.5" y="-126.5" font-family="Helvetica,sans-Serif" font-size="10.00">correctRho()</text>
<text text-anchor="start" x="95.5" y="-111.5" font-family="Helvetica,sans-Serif" font-size="10.00">+</text>
<text text-anchor="start" x="108.5" y="-111.5" font-family="Helvetica,sans-Serif" font-size="10.00">correctRho()</text>
<text text-anchor="start" x="95.5" y="-96.5" font-family="Helvetica,sans-Serif" font-size="10.00">+</text>
<text text-anchor="start" x="108.5" y="-96.5" font-family="Helvetica,sans-Serif" font-size="10.00">psi()</text>
<text text-anchor="start" x="95.5" y="-81.5" font-family="Helvetica,sans-Serif" font-size="10.00">+</text>
<text text-anchor="start" x="108.5" y="-81.5" font-family="Helvetica,sans-Serif" font-size="10.00">mu()</text>
<text text-anchor="start" x="108.5" y="-66.5" font-family="Helvetica,sans-Serif" font-size="10.00">and 16 more...</text>
<text text-anchor="start" x="95.5" y="-51.5" font-family="Helvetica,sans-Serif" font-size="10.00">+</text>
<text text-anchor="start" x="108.5" y="-51.5" font-family="Helvetica,sans-Serif" font-size="10.00">New()</text>
<text text-anchor="start" x="95.5" y="-36.5" font-family="Helvetica,sans-Serif" font-size="10.00">+</text>
<text text-anchor="start" x="108.5" y="-36.5" font-family="Helvetica,sans-Serif" font-size="10.00">New()</text>
<text text-anchor="start" x="95.5" y="-21.5" font-family="Helvetica,sans-Serif" font-size="10.00">+</text>
<text text-anchor="start" x="108.5" y="-21.5" font-family="Helvetica,sans-Serif" font-size="10.00">New()</text>
<text text-anchor="start" x="95.5" y="-6.5" font-family="Helvetica,sans-Serif" font-size="10.00">+</text>
<text text-anchor="start" x="108.5" y="-6.5" font-family="Helvetica,sans-Serif" font-size="10.00">New()</text>
<polygon fill="#666666" stroke="#666666" points="91.5,-241.5 91.5,-241.5 270.5,-241.5 270.5,-241.5 91.5,-241.5"/>
<polygon fill="#666666" stroke="#666666" points="91.5,-226.5 91.5,-226.5 270.5,-226.5 270.5,-226.5 91.5,-226.5"/>
<polygon fill="none" stroke="#666666" points="91,0 91,-259 270,-259 270,0 91,0"/>
</a>
</g>
</g>
<!-- Node2 -->
<g id="Node000002" class="node">
<title>Node2</title>
<g id="a_Node000002"><a xlink:href="classFoam_1_1basic2TThermo.html" target="_top" xlink:title=" ">
<polygon fill="white" stroke="transparent" points="179,-884 0,-884 0,-295 179,-295 179,-884"/>
<text text-anchor="start" x="35.5" y="-871.5" font-family="Helvetica,sans-Serif" font-size="10.00">Foam::basic2TThermo</text>
<text text-anchor="start" x="4.5" y="-856.5" font-family="Helvetica,sans-Serif" font-size="10.00">+</text>
<text text-anchor="start" x="17.5" y="-856.5" font-family="Helvetica,sans-Serif" font-size="10.00">dictName</text>
<text text-anchor="start" x="4.5" y="-841.5" font-family="Helvetica,sans-Serif" font-size="10.00">#</text>
<text text-anchor="start" x="17.5" y="-841.5" font-family="Helvetica,sans-Serif" font-size="10.00">phaseName_</text>
<text text-anchor="start" x="4.5" y="-826.5" font-family="Helvetica,sans-Serif" font-size="10.00">#</text>
<text text-anchor="start" x="17.5" y="-826.5" font-family="Helvetica,sans-Serif" font-size="10.00">pOwner_</text>
<text text-anchor="start" x="4.5" y="-811.5" font-family="Helvetica,sans-Serif" font-size="10.00">#</text>
<text text-anchor="start" x="17.5" y="-811.5" font-family="Helvetica,sans-Serif" font-size="10.00">TOwnerTR_</text>
<text text-anchor="start" x="4.5" y="-796.5" font-family="Helvetica,sans-Serif" font-size="10.00">#</text>
<text text-anchor="start" x="17.5" y="-796.5" font-family="Helvetica,sans-Serif" font-size="10.00">TOwnerVib_</text>
<text text-anchor="start" x="4.5" y="-781.5" font-family="Helvetica,sans-Serif" font-size="10.00">#</text>
<text text-anchor="start" x="17.5" y="-781.5" font-family="Helvetica,sans-Serif" font-size="10.00">dpdt_</text>
<text text-anchor="start" x="4.5" y="-766.5" font-family="Helvetica,sans-Serif" font-size="10.00">#</text>
<text text-anchor="start" x="17.5" y="-766.5" font-family="Helvetica,sans-Serif" font-size="10.00">p_</text>
<text text-anchor="start" x="4.5" y="-751.5" font-family="Helvetica,sans-Serif" font-size="10.00">#</text>
<text text-anchor="start" x="17.5" y="-751.5" font-family="Helvetica,sans-Serif" font-size="10.00">TTR_</text>
<text text-anchor="start" x="4.5" y="-736.5" font-family="Helvetica,sans-Serif" font-size="10.00">#</text>
<text text-anchor="start" x="17.5" y="-736.5" font-family="Helvetica,sans-Serif" font-size="10.00">TVib_</text>
<text text-anchor="start" x="4.5" y="-721.5" font-family="Helvetica,sans-Serif" font-size="10.00">#</text>
<text text-anchor="start" x="17.5" y="-721.5" font-family="Helvetica,sans-Serif" font-size="10.00">alpha_</text>
<text text-anchor="start" x="4.5" y="-706.5" font-family="Helvetica,sans-Serif" font-size="10.00">+</text>
<text text-anchor="start" x="17.5" y="-706.5" font-family="Helvetica,sans-Serif" font-size="10.00">declareRunTimeSelectionTable()</text>
<text text-anchor="start" x="4.5" y="-691.5" font-family="Helvetica,sans-Serif" font-size="10.00">+</text>
<text text-anchor="start" x="17.5" y="-691.5" font-family="Helvetica,sans-Serif" font-size="10.00">declareRunTimeSelectionTable()</text>
<text text-anchor="start" x="4.5" y="-676.5" font-family="Helvetica,sans-Serif" font-size="10.00">+</text>
<text text-anchor="start" x="17.5" y="-676.5" font-family="Helvetica,sans-Serif" font-size="10.00">basic2TThermo()</text>
<text text-anchor="start" x="4.5" y="-661.5" font-family="Helvetica,sans-Serif" font-size="10.00">+</text>
<text text-anchor="start" x="17.5" y="-661.5" font-family="Helvetica,sans-Serif" font-size="10.00">basic2TThermo()</text>
<text text-anchor="start" x="4.5" y="-646.5" font-family="Helvetica,sans-Serif" font-size="10.00">+</text>
<text text-anchor="start" x="17.5" y="-646.5" font-family="Helvetica,sans-Serif" font-size="10.00">basic2TThermo()</text>
<text text-anchor="start" x="4.5" y="-631.5" font-family="Helvetica,sans-Serif" font-size="10.00">+</text>
<text text-anchor="start" x="17.5" y="-631.5" font-family="Helvetica,sans-Serif" font-size="10.00">~basic2TThermo()</text>
<text text-anchor="start" x="4.5" y="-616.5" font-family="Helvetica,sans-Serif" font-size="10.00">+</text>
<text text-anchor="start" x="17.5" y="-616.5" font-family="Helvetica,sans-Serif" font-size="10.00">phasePropertyName()</text>
<text text-anchor="start" x="4.5" y="-601.5" font-family="Helvetica,sans-Serif" font-size="10.00">+</text>
<text text-anchor="start" x="17.5" y="-601.5" font-family="Helvetica,sans-Serif" font-size="10.00">phaseScopedName()</text>
<text text-anchor="start" x="4.5" y="-586.5" font-family="Helvetica,sans-Serif" font-size="10.00">+</text>
<text text-anchor="start" x="17.5" y="-586.5" font-family="Helvetica,sans-Serif" font-size="10.00">validate()</text>
<text text-anchor="start" x="4.5" y="-571.5" font-family="Helvetica,sans-Serif" font-size="10.00">+</text>
<text text-anchor="start" x="17.5" y="-571.5" font-family="Helvetica,sans-Serif" font-size="10.00">validate()</text>
<text text-anchor="start" x="17.5" y="-556.5" font-family="Helvetica,sans-Serif" font-size="10.00">and 127 more...</text>
<text text-anchor="start" x="4.5" y="-541.5" font-family="Helvetica,sans-Serif" font-size="10.00">+</text>
<text text-anchor="start" x="17.5" y="-541.5" font-family="Helvetica,sans-Serif" font-size="10.00">New()</text>
<text text-anchor="start" x="4.5" y="-526.5" font-family="Helvetica,sans-Serif" font-size="10.00">+</text>
<text text-anchor="start" x="17.5" y="-526.5" font-family="Helvetica,sans-Serif" font-size="10.00">New()</text>
<text text-anchor="start" x="4.5" y="-511.5" font-family="Helvetica,sans-Serif" font-size="10.00">+</text>
<text text-anchor="start" x="17.5" y="-511.5" font-family="Helvetica,sans-Serif" font-size="10.00">New()</text>
<text text-anchor="start" x="4.5" y="-496.5" font-family="Helvetica,sans-Serif" font-size="10.00">+</text>
<text text-anchor="start" x="17.5" y="-496.5" font-family="Helvetica,sans-Serif" font-size="10.00">New()</text>
<text text-anchor="start" x="4.5" y="-481.5" font-family="Helvetica,sans-Serif" font-size="10.00">+</text>
<text text-anchor="start" x="17.5" y="-481.5" font-family="Helvetica,sans-Serif" font-size="10.00">phasePropertyName()</text>
<text text-anchor="start" x="4.5" y="-466.5" font-family="Helvetica,sans-Serif" font-size="10.00">+</text>
<text text-anchor="start" x="17.5" y="-466.5" font-family="Helvetica,sans-Serif" font-size="10.00">lookupThermo()</text>
<text text-anchor="start" x="4.5" y="-451.5" font-family="Helvetica,sans-Serif" font-size="10.00">+</text>
<text text-anchor="start" x="17.5" y="-451.5" font-family="Helvetica,sans-Serif" font-size="10.00">printThermoNames()</text>
<text text-anchor="start" x="4.5" y="-436.5" font-family="Helvetica,sans-Serif" font-size="10.00">+</text>
<text text-anchor="start" x="17.5" y="-436.5" font-family="Helvetica,sans-Serif" font-size="10.00">splitThermoName()</text>
<text text-anchor="start" x="4.5" y="-421.5" font-family="Helvetica,sans-Serif" font-size="10.00">+</text>
<text text-anchor="start" x="17.5" y="-421.5" font-family="Helvetica,sans-Serif" font-size="10.00">New()</text>
<text text-anchor="start" x="4.5" y="-406.5" font-family="Helvetica,sans-Serif" font-size="10.00">+</text>
<text text-anchor="start" x="17.5" y="-406.5" font-family="Helvetica,sans-Serif" font-size="10.00">New()</text>
<text text-anchor="start" x="17.5" y="-391.5" font-family="Helvetica,sans-Serif" font-size="10.00">and 6 more...</text>
<text text-anchor="start" x="4.5" y="-376.5" font-family="Helvetica,sans-Serif" font-size="10.00">#</text>
<text text-anchor="start" x="17.5" y="-376.5" font-family="Helvetica,sans-Serif" font-size="10.00">heBoundaryTypes()</text>
<text text-anchor="start" x="4.5" y="-361.5" font-family="Helvetica,sans-Serif" font-size="10.00">#</text>
<text text-anchor="start" x="17.5" y="-361.5" font-family="Helvetica,sans-Serif" font-size="10.00">heBoundaryBaseTypes()</text>
<text text-anchor="start" x="4.5" y="-346.5" font-family="Helvetica,sans-Serif" font-size="10.00">#</text>
<text text-anchor="start" x="17.5" y="-346.5" font-family="Helvetica,sans-Serif" font-size="10.00">basic2TThermo()</text>
<text text-anchor="start" x="4.5" y="-331.5" font-family="Helvetica,sans-Serif" font-size="10.00">#</text>
<text text-anchor="start" x="17.5" y="-331.5" font-family="Helvetica,sans-Serif" font-size="10.00">heBoundaryTypes()</text>
<text text-anchor="start" x="4.5" y="-316.5" font-family="Helvetica,sans-Serif" font-size="10.00">#</text>
<text text-anchor="start" x="17.5" y="-316.5" font-family="Helvetica,sans-Serif" font-size="10.00">heBoundaryBaseTypes()</text>
<text text-anchor="start" x="4.5" y="-301.5" font-family="Helvetica,sans-Serif" font-size="10.00">#</text>
<text text-anchor="start" x="17.5" y="-301.5" font-family="Helvetica,sans-Serif" font-size="10.00">basic2TThermo()</text>
<polygon fill="#666666" stroke="#666666" points="0.5,-866.5 0.5,-866.5 179.5,-866.5 179.5,-866.5 0.5,-866.5"/>
<polygon fill="#666666" stroke="#666666" points="0.5,-716.5 0.5,-716.5 15.5,-716.5 15.5,-716.5 0.5,-716.5"/>
<polygon fill="#666666" stroke="#666666" points="15.5,-716.5 15.5,-716.5 179.5,-716.5 179.5,-716.5 15.5,-716.5"/>
<polygon fill="none" stroke="#666666" points="0,-295 0,-884 179,-884 179,-295 0,-295"/>
</a>
</g>
</g>
<!-- Node2&#45;&gt;Node1 -->
<g id="edge1_Node000001_Node000002" class="edge">
<title>Node2&#45;&gt;Node1</title>
<g id="a_edge1_Node000001_Node000002"><a xlink:title=" ">
<path fill="none" stroke="#63b8ff" d="M143.4,-284.92C145.22,-276.16 147.02,-267.57 148.79,-259.19"/>
<polygon fill="none" stroke="#63b8ff" points="139.94,-284.38 141.33,-294.88 146.79,-285.8 139.94,-284.38"/>
</a>
</g>
</g>
<!-- Node2&#45;&gt;Node1 -->
<g id="edge5_Node000001_Node000002" class="edge">
<title>Node2&#45;&gt;Node1</title>
<g id="a_edge5_Node000001_Node000002"><a xlink:title=" ">
<path fill="none" stroke="#63b8ff" d="M156.24,-284.92C157.9,-276.16 159.51,-267.57 161.07,-259.19"/>
<polygon fill="none" stroke="#63b8ff" points="152.78,-284.4 154.34,-294.88 159.65,-285.71 152.78,-284.4"/>
</a>
</g>
</g>
<!-- Node3 -->
<g id="Node000003" class="node">
<title>Node3</title>
<g id="a_Node000003"><a xlink:title=" ">
<polygon fill="white" stroke="transparent" points="124.5,-969 54.5,-969 54.5,-920 124.5,-920 124.5,-969"/>
<text text-anchor="start" x="59.5" y="-956.5" font-family="Helvetica,sans-Serif" font-size="10.00">IOdictionary</text>
<text text-anchor="start" x="87.5" y="-941.5" font-family="Helvetica,sans-Serif" font-size="10.00"> </text>
<text text-anchor="start" x="87.5" y="-926.5" font-family="Helvetica,sans-Serif" font-size="10.00"> </text>
<polygon fill="#666666" stroke="#666666" points="54.5,-951.5 54.5,-951.5 124.5,-951.5 124.5,-951.5 54.5,-951.5"/>
<polygon fill="#666666" stroke="#666666" points="54.5,-936.5 54.5,-936.5 124.5,-936.5 124.5,-936.5 54.5,-936.5"/>
<polygon fill="none" stroke="#666666" points="54.5,-920 54.5,-969 124.5,-969 124.5,-920 54.5,-920"/>
</a>
</g>
</g>
<!-- Node3&#45;&gt;Node2 -->
<g id="edge2_Node000002_Node000003" class="edge">
<title>Node3&#45;&gt;Node2</title>
<g id="a_edge2_Node000002_Node000003"><a xlink:title=" ">
<path fill="none" stroke="#63b8ff" d="M85.32,-909.57C84.94,-902.08 84.6,-893.57 84.3,-884.26"/>
<polygon fill="none" stroke="#63b8ff" points="81.84,-910.01 85.9,-919.79 88.82,-909.61 81.84,-910.01"/>
</a>
</g>
</g>
<!-- Node3&#45;&gt;Node2 -->
<g id="edge3_Node000002_Node000003" class="edge">
<title>Node3&#45;&gt;Node2</title>
<g id="a_edge3_Node000002_Node000003"><a xlink:title=" ">
<path fill="none" stroke="#63b8ff" d="M93.68,-909.57C94.06,-902.08 94.4,-893.57 94.7,-884.26"/>
<polygon fill="none" stroke="#63b8ff" points="90.18,-909.61 93.1,-919.79 97.16,-910.01 90.18,-909.61"/>
</a>
</g>
</g>
<!-- Node4 -->
<g id="Node000004" class="node">
<title>Node4</title>
<g id="a_Node000004"><a xlink:title=" ">
<polygon fill="white" stroke="transparent" points="348,-614 197,-614 197,-565 348,-565 348,-614"/>
<text text-anchor="start" x="202.5" y="-601.5" font-family="Helvetica,sans-Serif" font-size="10.00">compressibleTransportModel</text>
<text text-anchor="start" x="271" y="-586.5" font-family="Helvetica,sans-Serif" font-size="10.00"> </text>
<text text-anchor="start" x="271" y="-571.5" font-family="Helvetica,sans-Serif" font-size="10.00"> </text>
<polygon fill="#666666" stroke="#666666" points="197.5,-596.5 197.5,-596.5 348.5,-596.5 348.5,-596.5 197.5,-596.5"/>
<polygon fill="#666666" stroke="#666666" points="197.5,-581.5 197.5,-581.5 348.5,-581.5 348.5,-581.5 197.5,-581.5"/>
<polygon fill="none" stroke="#666666" points="197,-565 197,-614 348,-614 348,-565 197,-565"/>
</a>
</g>
</g>
<!-- Node4&#45;&gt;Node1 -->
<g id="edge4_Node000001_Node000004" class="edge">
<title>Node4&#45;&gt;Node1</title>
<g id="a_edge4_Node000001_Node000004"><a xlink:title=" ">
<path fill="none" stroke="#63b8ff" d="M262.02,-554.93C246.77,-493.52 219.18,-360.16 200.22,-259.21"/>
<polygon fill="none" stroke="#63b8ff" points="258.69,-556.01 264.54,-564.84 265.47,-554.29 258.69,-556.01"/>
</a>
</g>
</g>
<!-- Node4&#45;&gt;Node1 -->
<g id="edge6_Node000001_Node000004" class="edge">
<title>Node4&#45;&gt;Node1</title>
<g id="a_edge6_Node000001_Node000004"><a xlink:title=" ">
<path fill="none" stroke="#63b8ff" d="M269.49,-554.93C260.07,-493.52 234.09,-360.16 212.49,-259.21"/>
<polygon fill="none" stroke="#63b8ff" points="266.03,-555.46 270.95,-564.84 272.95,-554.44 266.03,-555.46"/>
</a>
</g>
</g>
</g>
</svg>
