<?xml version="1.0" encoding="UTF-8" standalone="no"?>
<!DOCTYPE svg PUBLIC "-//W3C//DTD SVG 1.1//EN"
 "http://www.w3.org/Graphics/SVG/1.1/DTD/svg11.dtd">
<!-- Generated by graphviz version 2.43.0 (0)
 -->
<!-- Title: Foam::basic2TThermo Pages: 1 -->
<!--zoomable 682 -->

<svg id="main" version="1.1" xmlns="http://www.w3.org/2000/svg" xmlns:xlink="http://www.w3.org/1999/xlink" xml:space="preserve" onload="init(evt)">
<style type="text/css"><![CDATA[
.node, .edge {opacity: 0.7;}
.node.selected, .edge.selected {opacity: 1;}
.edge:hover path { stroke: red; }
.edge:hover polygon { stroke: red; fill: red; }
]]></style>

<defs>
  <circle id="rim" cx="0" cy="0" r="7"/>
  <circle id="rim2" cx="0" cy="0" r="3.5"/>
  <g id="zoomPlus">
    <use xlink:href="#rim" fill="#404040"><set attributeName="fill" to="#808080" begin="zoomplus.mouseover" end="zoomplus.mouseout"/></use>
    <path d="M-4,0h8M0,-4v8" fill="none" stroke="white" stroke-width="1.5" pointer-events="none"/>
  </g>
  <g id="zoomMin">
    <use xlink:href="#rim" fill="#404040"><set attributeName="fill" to="#808080" begin="zoomminus.mouseover" end="zoomminus.mouseout"/></use>
    <path d="M-4,0h8" fill="none" stroke="white" stroke-width="1.5" pointer-events="none"/>
  </g>
  <g id="arrowUp" transform="translate(30 24)">
    <use xlink:href="#rim"/>
    <path pointer-events="none" fill="none" stroke="white" stroke-width="1.5" d="M0,-3.0v7 M-2.5,-0.5L0,-3.0L2.5,-0.5"/>
  </g>
  <g id="arrowRight" transform="rotate(90) translate(36 -43)">
    <use xlink:href="#rim"/>
    <path pointer-events="none" fill="none" stroke="white" stroke-width="1.5" d="M0,-3.0v7 M-2.5,-0.5L0,-3.0L2.5,-0.5"/>
  </g>
  <g id="arrowDown" transform="rotate(180) translate(-30 -48)">
    <use xlink:href="#rim"/>
    <path pointer-events="none" fill="none" stroke="white" stroke-width="1.5" d="M0,-3.0v7 M-2.5,-0.5L0,-3.0L2.5,-0.5"/>
  </g>
  <g id="arrowLeft" transform="rotate(270) translate(-36 17)">
    <use xlink:href="#rim"/>
    <path pointer-events="none" fill="none" stroke="white" stroke-width="1.5" d="M0,-3.0v7 M-2.5,-0.5L0,-3.0L2.5,-0.5"/>
  </g>
  <g id="resetDef">
    <use xlink:href="#rim2" fill="#404040"><set attributeName="fill" to="#808080" begin="reset.mouseover" end="reset.mouseout"/></use>
  </g>
</defs>
<script type="application/ecmascript">
var viewWidth = 187;
var viewHeight = 682;
var sectionId = 'dynsection-1';
</script>
<script type="application/ecmascript" xlink:href="svg.min.js"/>
<svg id="graph" class="graph">
<g id="viewport">
<title>Foam::basic2TThermo</title>
<!-- Node1 -->
<g id="Node000001" class="node">
<title>Node1</title>
<g id="a_Node000001"><a xlink:title=" ">
<polygon fill="#999999" stroke="transparent" points="179,-589 0,-589 0,0 179,0 179,-589"/>
<text text-anchor="start" x="35.5" y="-576.5" font-family="Helvetica,sans-Serif" font-size="10.00">Foam::basic2TThermo</text>
<text text-anchor="start" x="4.5" y="-561.5" font-family="Helvetica,sans-Serif" font-size="10.00">+</text>
<text text-anchor="start" x="17.5" y="-561.5" font-family="Helvetica,sans-Serif" font-size="10.00">dictName</text>
<text text-anchor="start" x="4.5" y="-546.5" font-family="Helvetica,sans-Serif" font-size="10.00">#</text>
<text text-anchor="start" x="17.5" y="-546.5" font-family="Helvetica,sans-Serif" font-size="10.00">phaseName_</text>
<text text-anchor="start" x="4.5" y="-531.5" font-family="Helvetica,sans-Serif" font-size="10.00">#</text>
<text text-anchor="start" x="17.5" y="-531.5" font-family="Helvetica,sans-Serif" font-size="10.00">pOwner_</text>
<text text-anchor="start" x="4.5" y="-516.5" font-family="Helvetica,sans-Serif" font-size="10.00">#</text>
<text text-anchor="start" x="17.5" y="-516.5" font-family="Helvetica,sans-Serif" font-size="10.00">TOwnerTR_</text>
<text text-anchor="start" x="4.5" y="-501.5" font-family="Helvetica,sans-Serif" font-size="10.00">#</text>
<text text-anchor="start" x="17.5" y="-501.5" font-family="Helvetica,sans-Serif" font-size="10.00">TOwnerVib_</text>
<text text-anchor="start" x="4.5" y="-486.5" font-family="Helvetica,sans-Serif" font-size="10.00">#</text>
<text text-anchor="start" x="17.5" y="-486.5" font-family="Helvetica,sans-Serif" font-size="10.00">dpdt_</text>
<text text-anchor="start" x="4.5" y="-471.5" font-family="Helvetica,sans-Serif" font-size="10.00">#</text>
<text text-anchor="start" x="17.5" y="-471.5" font-family="Helvetica,sans-Serif" font-size="10.00">p_</text>
<text text-anchor="start" x="4.5" y="-456.5" font-family="Helvetica,sans-Serif" font-size="10.00">#</text>
<text text-anchor="start" x="17.5" y="-456.5" font-family="Helvetica,sans-Serif" font-size="10.00">TTR_</text>
<text text-anchor="start" x="4.5" y="-441.5" font-family="Helvetica,sans-Serif" font-size="10.00">#</text>
<text text-anchor="start" x="17.5" y="-441.5" font-family="Helvetica,sans-Serif" font-size="10.00">TVib_</text>
<text text-anchor="start" x="4.5" y="-426.5" font-family="Helvetica,sans-Serif" font-size="10.00">#</text>
<text text-anchor="start" x="17.5" y="-426.5" font-family="Helvetica,sans-Serif" font-size="10.00">alpha_</text>
<text text-anchor="start" x="4.5" y="-411.5" font-family="Helvetica,sans-Serif" font-size="10.00">+</text>
<text text-anchor="start" x="17.5" y="-411.5" font-family="Helvetica,sans-Serif" font-size="10.00">declareRunTimeSelectionTable()</text>
<text text-anchor="start" x="4.5" y="-396.5" font-family="Helvetica,sans-Serif" font-size="10.00">+</text>
<text text-anchor="start" x="17.5" y="-396.5" font-family="Helvetica,sans-Serif" font-size="10.00">declareRunTimeSelectionTable()</text>
<text text-anchor="start" x="4.5" y="-381.5" font-family="Helvetica,sans-Serif" font-size="10.00">+</text>
<text text-anchor="start" x="17.5" y="-381.5" font-family="Helvetica,sans-Serif" font-size="10.00">basic2TThermo()</text>
<text text-anchor="start" x="4.5" y="-366.5" font-family="Helvetica,sans-Serif" font-size="10.00">+</text>
<text text-anchor="start" x="17.5" y="-366.5" font-family="Helvetica,sans-Serif" font-size="10.00">basic2TThermo()</text>
<text text-anchor="start" x="4.5" y="-351.5" font-family="Helvetica,sans-Serif" font-size="10.00">+</text>
<text text-anchor="start" x="17.5" y="-351.5" font-family="Helvetica,sans-Serif" font-size="10.00">basic2TThermo()</text>
<text text-anchor="start" x="4.5" y="-336.5" font-family="Helvetica,sans-Serif" font-size="10.00">+</text>
<text text-anchor="start" x="17.5" y="-336.5" font-family="Helvetica,sans-Serif" font-size="10.00">~basic2TThermo()</text>
<text text-anchor="start" x="4.5" y="-321.5" font-family="Helvetica,sans-Serif" font-size="10.00">+</text>
<text text-anchor="start" x="17.5" y="-321.5" font-family="Helvetica,sans-Serif" font-size="10.00">phasePropertyName()</text>
<text text-anchor="start" x="4.5" y="-306.5" font-family="Helvetica,sans-Serif" font-size="10.00">+</text>
<text text-anchor="start" x="17.5" y="-306.5" font-family="Helvetica,sans-Serif" font-size="10.00">phaseScopedName()</text>
<text text-anchor="start" x="4.5" y="-291.5" font-family="Helvetica,sans-Serif" font-size="10.00">+</text>
<text text-anchor="start" x="17.5" y="-291.5" font-family="Helvetica,sans-Serif" font-size="10.00">validate()</text>
<text text-anchor="start" x="4.5" y="-276.5" font-family="Helvetica,sans-Serif" font-size="10.00">+</text>
<text text-anchor="start" x="17.5" y="-276.5" font-family="Helvetica,sans-Serif" font-size="10.00">validate()</text>
<text text-anchor="start" x="17.5" y="-261.5" font-family="Helvetica,sans-Serif" font-size="10.00">and 127 more...</text>
<text text-anchor="start" x="4.5" y="-246.5" font-family="Helvetica,sans-Serif" font-size="10.00">+</text>
<text text-anchor="start" x="17.5" y="-246.5" font-family="Helvetica,sans-Serif" font-size="10.00">New()</text>
<text text-anchor="start" x="4.5" y="-231.5" font-family="Helvetica,sans-Serif" font-size="10.00">+</text>
<text text-anchor="start" x="17.5" y="-231.5" font-family="Helvetica,sans-Serif" font-size="10.00">New()</text>
<text text-anchor="start" x="4.5" y="-216.5" font-family="Helvetica,sans-Serif" font-size="10.00">+</text>
<text text-anchor="start" x="17.5" y="-216.5" font-family="Helvetica,sans-Serif" font-size="10.00">New()</text>
<text text-anchor="start" x="4.5" y="-201.5" font-family="Helvetica,sans-Serif" font-size="10.00">+</text>
<text text-anchor="start" x="17.5" y="-201.5" font-family="Helvetica,sans-Serif" font-size="10.00">New()</text>
<text text-anchor="start" x="4.5" y="-186.5" font-family="Helvetica,sans-Serif" font-size="10.00">+</text>
<text text-anchor="start" x="17.5" y="-186.5" font-family="Helvetica,sans-Serif" font-size="10.00">phasePropertyName()</text>
<text text-anchor="start" x="4.5" y="-171.5" font-family="Helvetica,sans-Serif" font-size="10.00">+</text>
<text text-anchor="start" x="17.5" y="-171.5" font-family="Helvetica,sans-Serif" font-size="10.00">lookupThermo()</text>
<text text-anchor="start" x="4.5" y="-156.5" font-family="Helvetica,sans-Serif" font-size="10.00">+</text>
<text text-anchor="start" x="17.5" y="-156.5" font-family="Helvetica,sans-Serif" font-size="10.00">printThermoNames()</text>
<text text-anchor="start" x="4.5" y="-141.5" font-family="Helvetica,sans-Serif" font-size="10.00">+</text>
<text text-anchor="start" x="17.5" y="-141.5" font-family="Helvetica,sans-Serif" font-size="10.00">splitThermoName()</text>
<text text-anchor="start" x="4.5" y="-126.5" font-family="Helvetica,sans-Serif" font-size="10.00">+</text>
<text text-anchor="start" x="17.5" y="-126.5" font-family="Helvetica,sans-Serif" font-size="10.00">New()</text>
<text text-anchor="start" x="4.5" y="-111.5" font-family="Helvetica,sans-Serif" font-size="10.00">+</text>
<text text-anchor="start" x="17.5" y="-111.5" font-family="Helvetica,sans-Serif" font-size="10.00">New()</text>
<text text-anchor="start" x="17.5" y="-96.5" font-family="Helvetica,sans-Serif" font-size="10.00">and 6 more...</text>
<text text-anchor="start" x="4.5" y="-81.5" font-family="Helvetica,sans-Serif" font-size="10.00">#</text>
<text text-anchor="start" x="17.5" y="-81.5" font-family="Helvetica,sans-Serif" font-size="10.00">heBoundaryTypes()</text>
<text text-anchor="start" x="4.5" y="-66.5" font-family="Helvetica,sans-Serif" font-size="10.00">#</text>
<text text-anchor="start" x="17.5" y="-66.5" font-family="Helvetica,sans-Serif" font-size="10.00">heBoundaryBaseTypes()</text>
<text text-anchor="start" x="4.5" y="-51.5" font-family="Helvetica,sans-Serif" font-size="10.00">#</text>
<text text-anchor="start" x="17.5" y="-51.5" font-family="Helvetica,sans-Serif" font-size="10.00">basic2TThermo()</text>
<text text-anchor="start" x="4.5" y="-36.5" font-family="Helvetica,sans-Serif" font-size="10.00">#</text>
<text text-anchor="start" x="17.5" y="-36.5" font-family="Helvetica,sans-Serif" font-size="10.00">heBoundaryTypes()</text>
<text text-anchor="start" x="4.5" y="-21.5" font-family="Helvetica,sans-Serif" font-size="10.00">#</text>
<text text-anchor="start" x="17.5" y="-21.5" font-family="Helvetica,sans-Serif" font-size="10.00">heBoundaryBaseTypes()</text>
<text text-anchor="start" x="4.5" y="-6.5" font-family="Helvetica,sans-Serif" font-size="10.00">#</text>
<text text-anchor="start" x="17.5" y="-6.5" font-family="Helvetica,sans-Serif" font-size="10.00">basic2TThermo()</text>
<polygon fill="#666666" stroke="#666666" points="0.5,-571.5 0.5,-571.5 179.5,-571.5 179.5,-571.5 0.5,-571.5"/>
<polygon fill="#666666" stroke="#666666" points="0.5,-421.5 0.5,-421.5 15.5,-421.5 15.5,-421.5 0.5,-421.5"/>
<polygon fill="#666666" stroke="#666666" points="15.5,-421.5 15.5,-421.5 179.5,-421.5 179.5,-421.5 15.5,-421.5"/>
<polygon fill="none" stroke="#666666" points="0,0 0,-589 179,-589 179,0 0,0"/>
</a>
</g>
</g>
<!-- Node2 -->
<g id="Node000002" class="node">
<title>Node2</title>
<g id="a_Node000002"><a xlink:title=" ">
<polygon fill="white" stroke="transparent" points="124.5,-674 54.5,-674 54.5,-625 124.5,-625 124.5,-674"/>
<text text-anchor="start" x="59.5" y="-661.5" font-family="Helvetica,sans-Serif" font-size="10.00">IOdictionary</text>
<text text-anchor="start" x="87.5" y="-646.5" font-family="Helvetica,sans-Serif" font-size="10.00"> </text>
<text text-anchor="start" x="87.5" y="-631.5" font-family="Helvetica,sans-Serif" font-size="10.00"> </text>
<polygon fill="#666666" stroke="#666666" points="54.5,-656.5 54.5,-656.5 124.5,-656.5 124.5,-656.5 54.5,-656.5"/>
<polygon fill="#666666" stroke="#666666" points="54.5,-641.5 54.5,-641.5 124.5,-641.5 124.5,-641.5 54.5,-641.5"/>
<polygon fill="none" stroke="#666666" points="54.5,-625 54.5,-674 124.5,-674 124.5,-625 54.5,-625"/>
</a>
</g>
</g>
<!-- Node2&#45;&gt;Node1 -->
<g id="edge1_Node000001_Node000002" class="edge">
<title>Node2&#45;&gt;Node1</title>
<g id="a_edge1_Node000001_Node000002"><a xlink:title=" ">
<path fill="none" stroke="#63b8ff" d="M85.32,-614.57C84.94,-607.08 84.6,-598.57 84.3,-589.26"/>
<polygon fill="none" stroke="#63b8ff" points="81.84,-615.01 85.9,-624.79 88.82,-614.61 81.84,-615.01"/>
</a>
</g>
</g>
<!-- Node2&#45;&gt;Node1 -->
<g id="edge2_Node000001_Node000002" class="edge">
<title>Node2&#45;&gt;Node1</title>
<g id="a_edge2_Node000001_Node000002"><a xlink:title=" ">
<path fill="none" stroke="#63b8ff" d="M93.68,-614.57C94.06,-607.08 94.4,-598.57 94.7,-589.26"/>
<polygon fill="none" stroke="#63b8ff" points="90.18,-614.61 93.1,-624.79 97.16,-615.01 90.18,-614.61"/>
</a>
</g>
</g>
</g>
</svg>

<g id="navigator" transform="translate(0 0)" fill="#404254">
  <rect fill="#f2f5e9" fill-opacity="0.5" stroke="#606060" stroke-width=".5" x="0" y="0" width="60" height="60"/>
  <use id="zoomplus" xlink:href="#zoomPlus" x="17" y="9" onmousedown="handleZoom(evt,'in')"/>
  <use id="zoomminus" xlink:href="#zoomMin" x="42" y="9" onmousedown="handleZoom(evt,'out')"/>
  <use id="reset" xlink:href="#resetDef" x="30" y="36" onmousedown="handleReset()"/>
   <use id="arrowup" xlink:href="#arrowUp" x="0" y="0" onmousedown="handlePan(0,-1)"/>
  <use id="arrowright" xlink:href="#arrowRight" x="0" y="0" onmousedown="handlePan(1,0)"/>
  <use id="arrowdown" xlink:href="#arrowDown" x="0" y="0" onmousedown="handlePan(0,1)"/>
  <use id="arrowleft" xlink:href="#arrowLeft" x="0" y="0" onmousedown="handlePan(-1,0)"/>
</g>
<svg viewBox="0 0 15 15" width="100%" height="30px" preserveAspectRatio="xMaxYMin meet">
 <g id="arrow_out" transform="scale(0.3 0.3)">
  <a xlink:href="classFoam_1_1basic2TThermo__coll__graph_org.svg" target="_base">
   <rect id="button" ry="5" rx="5" y="6" x="6" height="38" width="38"
        fill="#f2f5e9" fill-opacity="0.5" stroke="#606060" stroke-width="1.0"/>
   <path id="arrow"
     d="M 11.500037,31.436501 C 11.940474,20.09759 22.043105,11.32322 32.158766,21.979434 L 37.068811,17.246167 C 37.068811,17.246167 37.088388,32 37.088388,32 L 22.160133,31.978069 C 22.160133,31.978069 26.997745,27.140456 26.997745,27.140456 C 18.528582,18.264221 13.291696,25.230495 11.500037,31.436501 z"
     style="fill:#404040;"/>
  </a>
 </g>
</svg>

<style type='text/css'>
<![CDATA[
[data-mouse-over-selected='false'] { opacity: 0.7; }
[data-mouse-over-selected='true']  { opacity: 1.0; }
]]>
</style>
<script type="application/ecmascript"><![CDATA[
document.addEventListener('DOMContentLoaded', (event) => {
  highlightEdges();
  highlightAdjacentNodes();
});
]]></script>
</svg>
