<?xml version="1.0" encoding="UTF-8" standalone="no"?>
<!DOCTYPE svg PUBLIC "-//W3C//DTD SVG 1.1//EN"
 "http://www.w3.org/Graphics/SVG/1.1/DTD/svg11.dtd">
<!-- Generated by graphviz version 2.43.0 (0)
 -->
<!-- Title: Foam::janaf2TThermo&lt; EquationOfState &gt; Pages: 1 -->
<svg width="126pt" height="333pt"
 viewBox="0.00 0.00 126.00 333.00" xmlns="http://www.w3.org/2000/svg" xmlns:xlink="http://www.w3.org/1999/xlink">
<g id="graph0" class="graph" transform="scale(1 1) rotate(0) translate(4 329)">
<title>Foam::janaf2TThermo&lt; EquationOfState &gt;</title>
<!-- Node1 -->
<g id="Node000001" class="node">
<title>Node1</title>
<g id="a_Node000001"><a xlink:title=" ">
<polygon fill="#999999" stroke="transparent" points="118,-240 0,-240 0,0 118,0 118,-240"/>
<text text-anchor="start" x="5" y="-228" font-family="Helvetica,sans-Serif" font-size="10.00">Foam::janaf2TThermo</text>
<text text-anchor="start" x="7.5" y="-217" font-family="Helvetica,sans-Serif" font-size="10.00">&lt; EquationOfState &gt;</text>
<text text-anchor="start" x="7.5" y="-202" font-family="Helvetica,sans-Serif" font-size="10.00">+</text>
<text text-anchor="start" x="24" y="-202" font-family="Helvetica,sans-Serif" font-size="10.00">nCoeffs_</text>
<text text-anchor="start" x="7.5" y="-187" font-family="Helvetica,sans-Serif" font-size="10.00">+</text>
<text text-anchor="start" x="24" y="-187" font-family="Helvetica,sans-Serif" font-size="10.00">janaf2TThermo()</text>
<text text-anchor="start" x="7.5" y="-172" font-family="Helvetica,sans-Serif" font-size="10.00">+</text>
<text text-anchor="start" x="24" y="-172" font-family="Helvetica,sans-Serif" font-size="10.00">janaf2TThermo()</text>
<text text-anchor="start" x="7.5" y="-157" font-family="Helvetica,sans-Serif" font-size="10.00">+</text>
<text text-anchor="start" x="24" y="-157" font-family="Helvetica,sans-Serif" font-size="10.00">janaf2TThermo()</text>
<text text-anchor="start" x="7.5" y="-142" font-family="Helvetica,sans-Serif" font-size="10.00">+</text>
<text text-anchor="start" x="24" y="-142" font-family="Helvetica,sans-Serif" font-size="10.00">limit()</text>
<text text-anchor="start" x="7.5" y="-127" font-family="Helvetica,sans-Serif" font-size="10.00">+</text>
<text text-anchor="start" x="24" y="-127" font-family="Helvetica,sans-Serif" font-size="10.00">Tlow()</text>
<text text-anchor="start" x="7.5" y="-112" font-family="Helvetica,sans-Serif" font-size="10.00">+</text>
<text text-anchor="start" x="24" y="-112" font-family="Helvetica,sans-Serif" font-size="10.00">Thigh()</text>
<text text-anchor="start" x="7.5" y="-97" font-family="Helvetica,sans-Serif" font-size="10.00">+</text>
<text text-anchor="start" x="24" y="-97" font-family="Helvetica,sans-Serif" font-size="10.00">Tcommon()</text>
<text text-anchor="start" x="7.5" y="-82" font-family="Helvetica,sans-Serif" font-size="10.00">+</text>
<text text-anchor="start" x="24" y="-82" font-family="Helvetica,sans-Serif" font-size="10.00">ThetaVib()</text>
<text text-anchor="start" x="7.5" y="-67" font-family="Helvetica,sans-Serif" font-size="10.00">+</text>
<text text-anchor="start" x="24" y="-67" font-family="Helvetica,sans-Serif" font-size="10.00">highCpCoeffs()</text>
<text text-anchor="start" x="7.5" y="-52" font-family="Helvetica,sans-Serif" font-size="10.00">+</text>
<text text-anchor="start" x="24" y="-52" font-family="Helvetica,sans-Serif" font-size="10.00">lowCpCoeffs()</text>
<text text-anchor="start" x="24" y="-37" font-family="Helvetica,sans-Serif" font-size="10.00">and 28 more...</text>
<text text-anchor="start" x="7.5" y="-22" font-family="Helvetica,sans-Serif" font-size="10.00">+</text>
<text text-anchor="start" x="24" y="-22" font-family="Helvetica,sans-Serif" font-size="10.00">typeName()</text>
<text text-anchor="start" x="7.5" y="-7" font-family="Helvetica,sans-Serif" font-size="10.00">+</text>
<text text-anchor="start" x="24" y="-7" font-family="Helvetica,sans-Serif" font-size="10.00">typeName()</text>
<polygon fill="#666666" stroke="#666666" points="0,-212 0,-212 118,-212 118,-212 0,-212"/>
<polygon fill="#666666" stroke="#666666" points="0,-197 0,-197 22,-197 22,-197 0,-197"/>
<polygon fill="#666666" stroke="#666666" points="22,-197 22,-197 118,-197 118,-197 22,-197"/>
<polygon fill="none" stroke="#666666" points="0,0 0,-240 118,-240 118,0 0,0"/>
</a>
</g>
</g>
<!-- Node2 -->
<g id="Node000002" class="node">
<title>Node2</title>
<g id="a_Node000002"><a xlink:title=" ">
<polygon fill="white" stroke="transparent" points="104,-325 14,-325 14,-276 104,-276 104,-325"/>
<text text-anchor="start" x="19" y="-312.5" font-family="Helvetica,sans-Serif" font-size="10.00">EquationOfState</text>
<text text-anchor="start" x="57" y="-297.5" font-family="Helvetica,sans-Serif" font-size="10.00"> </text>
<text text-anchor="start" x="57" y="-282.5" font-family="Helvetica,sans-Serif" font-size="10.00"> </text>
<polygon fill="#666666" stroke="#666666" points="14,-307.5 14,-307.5 104,-307.5 104,-307.5 14,-307.5"/>
<polygon fill="#666666" stroke="#666666" points="14,-292.5 14,-292.5 104,-292.5 104,-292.5 14,-292.5"/>
<polygon fill="none" stroke="#666666" points="14,-276 14,-325 104,-325 104,-276 14,-276"/>
</a>
</g>
</g>
<!-- Node2&#45;&gt;Node1 -->
<g id="edge1_Node000001_Node000002" class="edge">
<title>Node2&#45;&gt;Node1</title>
<g id="a_edge1_Node000001_Node000002"><a xlink:title=" ">
<path fill="none" stroke="#63b8ff" d="M53.58,-265.79C53.15,-258 52.82,-249.27 52.6,-240.06"/>
<polygon fill="none" stroke="#63b8ff" points="50.09,-266.05 54.24,-275.8 57.08,-265.59 50.09,-266.05"/>
</a>
</g>
</g>
<!-- Node2&#45;&gt;Node1 -->
<g id="edge2_Node000001_Node000002" class="edge">
<title>Node2&#45;&gt;Node1</title>
<g id="a_edge2_Node000001_Node000002"><a xlink:title=" ">
<path fill="none" stroke="#63b8ff" d="M64.42,-265.79C64.85,-258 65.18,-249.27 65.4,-240.06"/>
<polygon fill="none" stroke="#63b8ff" points="60.92,-265.59 63.76,-275.8 67.91,-266.05 60.92,-265.59"/>
</a>
</g>
</g>
</g>
</svg>
