<?xml version="1.0" encoding="UTF-8" standalone="no"?>
<!DOCTYPE svg PUBLIC "-//W3C//DTD SVG 1.1//EN"
 "http://www.w3.org/Graphics/SVG/1.1/DTD/svg11.dtd">
<!-- Generated by graphviz version 2.43.0 (0)
 -->
<!-- Title: Foam::heNe2TThermo&lt; BasicNe2TThermo, MixtureType &gt; Pages: 1 -->
<!--zoomable 845 -->

<svg id="main" version="1.1" xmlns="http://www.w3.org/2000/svg" xmlns:xlink="http://www.w3.org/1999/xlink" xml:space="preserve" onload="init(evt)">
<style type="text/css"><![CDATA[
.node, .edge {opacity: 0.7;}
.node.selected, .edge.selected {opacity: 1;}
.edge:hover path { stroke: red; }
.edge:hover polygon { stroke: red; fill: red; }
]]></style>

<defs>
  <circle id="rim" cx="0" cy="0" r="7"/>
  <circle id="rim2" cx="0" cy="0" r="3.5"/>
  <g id="zoomPlus">
    <use xlink:href="#rim" fill="#404040"><set attributeName="fill" to="#808080" begin="zoomplus.mouseover" end="zoomplus.mouseout"/></use>
    <path d="M-4,0h8M0,-4v8" fill="none" stroke="white" stroke-width="1.5" pointer-events="none"/>
  </g>
  <g id="zoomMin">
    <use xlink:href="#rim" fill="#404040"><set attributeName="fill" to="#808080" begin="zoomminus.mouseover" end="zoomminus.mouseout"/></use>
    <path d="M-4,0h8" fill="none" stroke="white" stroke-width="1.5" pointer-events="none"/>
  </g>
  <g id="arrowUp" transform="translate(30 24)">
    <use xlink:href="#rim"/>
    <path pointer-events="none" fill="none" stroke="white" stroke-width="1.5" d="M0,-3.0v7 M-2.5,-0.5L0,-3.0L2.5,-0.5"/>
  </g>
  <g id="arrowRight" transform="rotate(90) translate(36 -43)">
    <use xlink:href="#rim"/>
    <path pointer-events="none" fill="none" stroke="white" stroke-width="1.5" d="M0,-3.0v7 M-2.5,-0.5L0,-3.0L2.5,-0.5"/>
  </g>
  <g id="arrowDown" transform="rotate(180) translate(-30 -48)">
    <use xlink:href="#rim"/>
    <path pointer-events="none" fill="none" stroke="white" stroke-width="1.5" d="M0,-3.0v7 M-2.5,-0.5L0,-3.0L2.5,-0.5"/>
  </g>
  <g id="arrowLeft" transform="rotate(270) translate(-36 17)">
    <use xlink:href="#rim"/>
    <path pointer-events="none" fill="none" stroke="white" stroke-width="1.5" d="M0,-3.0v7 M-2.5,-0.5L0,-3.0L2.5,-0.5"/>
  </g>
  <g id="resetDef">
    <use xlink:href="#rim2" fill="#404040"><set attributeName="fill" to="#808080" begin="reset.mouseover" end="reset.mouseout"/></use>
  </g>
</defs>
<script type="application/ecmascript">
var viewWidth = 331;
var viewHeight = 845;
var sectionId = 'dynsection-1';
</script>
<script type="application/ecmascript" xlink:href="svg.min.js"/>
<svg id="graph" class="graph">
<g id="viewport">
<title>Foam::heNe2TThermo&lt; BasicNe2TThermo, MixtureType &gt;</title>
<!-- Node1 -->
<g id="Node000001" class="node">
<title>Node1</title>
<g id="a_Node000001"><a xlink:title=" ">
<polygon fill="#999999" stroke="transparent" points="214.5,-176 59.5,-176 59.5,0 214.5,0 214.5,-176"/>
<text text-anchor="start" x="65" y="-164" font-family="Helvetica,sans-Serif" font-size="10.00">Foam::heNe2TThermo</text>
<text text-anchor="start" x="65" y="-153" font-family="Helvetica,sans-Serif" font-size="10.00">&lt; BasicNe2TThermo, Mixture</text>
<text text-anchor="start" x="120.5" y="-142" font-family="Helvetica,sans-Serif" font-size="10.00">Type &gt;</text>
<text text-anchor="start" x="135.5" y="-127" font-family="Helvetica,sans-Serif" font-size="10.00"> </text>
<text text-anchor="start" x="74.5" y="-112" font-family="Helvetica,sans-Serif" font-size="10.00">+</text>
<text text-anchor="start" x="98" y="-112" font-family="Helvetica,sans-Serif" font-size="10.00">heNe2TThermo()</text>
<text text-anchor="start" x="74.5" y="-97" font-family="Helvetica,sans-Serif" font-size="10.00">+</text>
<text text-anchor="start" x="98" y="-97" font-family="Helvetica,sans-Serif" font-size="10.00">heNe2TThermo()</text>
<text text-anchor="start" x="74.5" y="-82" font-family="Helvetica,sans-Serif" font-size="10.00">+</text>
<text text-anchor="start" x="98" y="-82" font-family="Helvetica,sans-Serif" font-size="10.00">~heNe2TThermo()</text>
<text text-anchor="start" x="74.5" y="-67" font-family="Helvetica,sans-Serif" font-size="10.00">+</text>
<text text-anchor="start" x="98" y="-67" font-family="Helvetica,sans-Serif" font-size="10.00">correct()</text>
<text text-anchor="start" x="74.5" y="-52" font-family="Helvetica,sans-Serif" font-size="10.00">+</text>
<text text-anchor="start" x="98" y="-52" font-family="Helvetica,sans-Serif" font-size="10.00">heNe2TThermo()</text>
<text text-anchor="start" x="74.5" y="-37" font-family="Helvetica,sans-Serif" font-size="10.00">+</text>
<text text-anchor="start" x="98" y="-37" font-family="Helvetica,sans-Serif" font-size="10.00">heNe2TThermo()</text>
<text text-anchor="start" x="74.5" y="-22" font-family="Helvetica,sans-Serif" font-size="10.00">+</text>
<text text-anchor="start" x="98" y="-22" font-family="Helvetica,sans-Serif" font-size="10.00">~heNe2TThermo()</text>
<text text-anchor="start" x="74.5" y="-7" font-family="Helvetica,sans-Serif" font-size="10.00">+</text>
<text text-anchor="start" x="98" y="-7" font-family="Helvetica,sans-Serif" font-size="10.00">correct()</text>
<polygon fill="#666666" stroke="#666666" points="60,-137 60,-137 215,-137 215,-137 60,-137"/>
<polygon fill="#666666" stroke="#666666" points="60,-122 60,-122 215,-122 215,-122 60,-122"/>
<polygon fill="none" stroke="#666666" points="59.5,0 59.5,-176 214.5,-176 214.5,0 59.5,0"/>
</a>
</g>
</g>
<!-- Node2 -->
<g id="Node000002" class="node">
<title>Node2</title>
<g id="a_Node000002"><a xlink:href="classFoam_1_1he2TThermo.html" target="_top" xlink:title=" ">
<polygon fill="white" stroke="transparent" points="218,-453 56,-453 56,-213 218,-213 218,-453"/>
<text text-anchor="start" x="61" y="-441" font-family="Helvetica,sans-Serif" font-size="10.00">Foam::he2TThermo&lt; BasicNe2</text>
<text text-anchor="start" x="76.5" y="-430" font-family="Helvetica,sans-Serif" font-size="10.00">TThermo, MixtureType &gt;</text>
<text text-anchor="start" x="66" y="-415" font-family="Helvetica,sans-Serif" font-size="10.00">#</text>
<text text-anchor="start" x="85" y="-415" font-family="Helvetica,sans-Serif" font-size="10.00">he_</text>
<text text-anchor="start" x="66" y="-400" font-family="Helvetica,sans-Serif" font-size="10.00">+</text>
<text text-anchor="start" x="85" y="-400" font-family="Helvetica,sans-Serif" font-size="10.00">he2TThermo()</text>
<text text-anchor="start" x="66" y="-385" font-family="Helvetica,sans-Serif" font-size="10.00">+</text>
<text text-anchor="start" x="85" y="-385" font-family="Helvetica,sans-Serif" font-size="10.00">he2TThermo()</text>
<text text-anchor="start" x="66" y="-370" font-family="Helvetica,sans-Serif" font-size="10.00">+</text>
<text text-anchor="start" x="85" y="-370" font-family="Helvetica,sans-Serif" font-size="10.00">he2TThermo()</text>
<text text-anchor="start" x="66" y="-355" font-family="Helvetica,sans-Serif" font-size="10.00">+</text>
<text text-anchor="start" x="85" y="-355" font-family="Helvetica,sans-Serif" font-size="10.00">he2TThermo()</text>
<text text-anchor="start" x="66" y="-340" font-family="Helvetica,sans-Serif" font-size="10.00">+</text>
<text text-anchor="start" x="85" y="-340" font-family="Helvetica,sans-Serif" font-size="10.00">he2TThermo()</text>
<text text-anchor="start" x="66" y="-325" font-family="Helvetica,sans-Serif" font-size="10.00">+</text>
<text text-anchor="start" x="85" y="-325" font-family="Helvetica,sans-Serif" font-size="10.00">he2TThermo()</text>
<text text-anchor="start" x="66" y="-310" font-family="Helvetica,sans-Serif" font-size="10.00">+</text>
<text text-anchor="start" x="85" y="-310" font-family="Helvetica,sans-Serif" font-size="10.00">~he2TThermo()</text>
<text text-anchor="start" x="66" y="-295" font-family="Helvetica,sans-Serif" font-size="10.00">+</text>
<text text-anchor="start" x="85" y="-295" font-family="Helvetica,sans-Serif" font-size="10.00">~he2TThermo()</text>
<text text-anchor="start" x="66" y="-280" font-family="Helvetica,sans-Serif" font-size="10.00">+</text>
<text text-anchor="start" x="85" y="-280" font-family="Helvetica,sans-Serif" font-size="10.00">composition()</text>
<text text-anchor="start" x="66" y="-265" font-family="Helvetica,sans-Serif" font-size="10.00">+</text>
<text text-anchor="start" x="85" y="-265" font-family="Helvetica,sans-Serif" font-size="10.00">composition()</text>
<text text-anchor="start" x="85" y="-250" font-family="Helvetica,sans-Serif" font-size="10.00">and 84 more...</text>
<text text-anchor="start" x="66" y="-235" font-family="Helvetica,sans-Serif" font-size="10.00">#</text>
<text text-anchor="start" x="85" y="-235" font-family="Helvetica,sans-Serif" font-size="10.00">heBoundaryCorrection()</text>
<text text-anchor="start" x="66" y="-220" font-family="Helvetica,sans-Serif" font-size="10.00">#</text>
<text text-anchor="start" x="85" y="-220" font-family="Helvetica,sans-Serif" font-size="10.00">heBoundaryCorrection()</text>
<polygon fill="#666666" stroke="#666666" points="56,-425 56,-425 218,-425 218,-425 56,-425"/>
<polygon fill="#666666" stroke="#666666" points="56,-410 56,-410 83,-410 83,-410 56,-410"/>
<polygon fill="#666666" stroke="#666666" points="83,-410 83,-410 218,-410 218,-410 83,-410"/>
<polygon fill="none" stroke="#666666" points="56,-213 56,-453 218,-453 218,-213 56,-213"/>
</a>
</g>
</g>
<!-- Node2&#45;&gt;Node1 -->
<g id="edge1_Node000001_Node000002" class="edge">
<title>Node2&#45;&gt;Node1</title>
<g id="a_edge1_Node000001_Node000002"><a xlink:title=" ">
<path fill="none" stroke="#63b8ff" d="M130.26,-202.83C130.29,-193.85 130.37,-184.92 130.49,-176.25"/>
<polygon fill="none" stroke="#63b8ff" points="126.76,-202.99 130.25,-212.99 133.76,-203 126.76,-202.99"/>
</a>
</g>
</g>
<!-- Node2&#45;&gt;Node1 -->
<g id="edge11_Node000001_Node000002" class="edge">
<title>Node2&#45;&gt;Node1</title>
<g id="a_edge11_Node000001_Node000002"><a xlink:title=" ">
<path fill="none" stroke="#63b8ff" d="M143.74,-202.83C143.71,-193.85 143.63,-184.92 143.51,-176.25"/>
<polygon fill="none" stroke="#63b8ff" points="140.24,-203 143.75,-212.99 147.24,-202.99 140.24,-203"/>
</a>
</g>
</g>
<!-- Node3 -->
<g id="Node000003" class="node">
<title>Node3</title>
<g id="a_Node000003"><a xlink:title=" ">
<polygon fill="white" stroke="transparent" points="100,-655.5 0,-655.5 0,-606.5 100,-606.5 100,-655.5"/>
<text text-anchor="start" x="5" y="-643" font-family="Helvetica,sans-Serif" font-size="10.00">BasicNe2TThermo</text>
<text text-anchor="start" x="48" y="-628" font-family="Helvetica,sans-Serif" font-size="10.00"> </text>
<text text-anchor="start" x="48" y="-613" font-family="Helvetica,sans-Serif" font-size="10.00"> </text>
<polygon fill="#666666" stroke="#666666" points="0,-638 0,-638 100,-638 100,-638 0,-638"/>
<polygon fill="#666666" stroke="#666666" points="0,-623 0,-623 100,-623 100,-623 0,-623"/>
<polygon fill="none" stroke="#666666" points="0,-606.5 0,-655.5 100,-655.5 100,-606.5 0,-606.5"/>
</a>
</g>
</g>
<!-- Node3&#45;&gt;Node2 -->
<g id="edge2_Node000002_Node000003" class="edge">
<title>Node3&#45;&gt;Node2</title>
<g id="a_edge2_Node000002_Node000003"><a xlink:title=" ">
<path fill="none" stroke="#63b8ff" d="M55.46,-596.17C63.86,-561.28 79.74,-504.84 95.32,-453.25"/>
<polygon fill="none" stroke="#63b8ff" points="51.96,-595.74 53.09,-606.28 58.78,-597.34 51.96,-595.74"/>
</a>
</g>
</g>
<!-- Node3&#45;&gt;Node2 -->
<g id="edge4_Node000002_Node000003" class="edge">
<title>Node3&#45;&gt;Node2</title>
<g id="a_edge4_Node000002_Node000003"><a xlink:title=" ">
<path fill="none" stroke="#63b8ff" d="M64.27,-596.62C76.38,-561.77 93.77,-505.06 108.59,-453.25"/>
<polygon fill="none" stroke="#63b8ff" points="60.89,-595.68 60.85,-606.28 67.49,-598.02 60.89,-595.68"/>
</a>
</g>
</g>
<!-- Node4 -->
<g id="Node000004" class="node">
<title>Node4</title>
<g id="a_Node000004"><a xlink:title=" ">
<polygon fill="white" stroke="transparent" points="179.5,-837 108.5,-837 108.5,-788 179.5,-788 179.5,-837"/>
<text text-anchor="start" x="114" y="-824.5" font-family="Helvetica,sans-Serif" font-size="10.00">MixtureType</text>
<text text-anchor="start" x="142.5" y="-809.5" font-family="Helvetica,sans-Serif" font-size="10.00"> </text>
<text text-anchor="start" x="142.5" y="-794.5" font-family="Helvetica,sans-Serif" font-size="10.00"> </text>
<polygon fill="#666666" stroke="#666666" points="109,-819.5 109,-819.5 180,-819.5 180,-819.5 109,-819.5"/>
<polygon fill="#666666" stroke="#666666" points="109,-804.5 109,-804.5 180,-804.5 180,-804.5 109,-804.5"/>
<polygon fill="none" stroke="#666666" points="108.5,-788 108.5,-837 179.5,-837 179.5,-788 108.5,-788"/>
</a>
</g>
</g>
<!-- Node4&#45;&gt;Node2 -->
<g id="edge3_Node000002_Node000004" class="edge">
<title>Node4&#45;&gt;Node2</title>
<g id="a_edge3_Node000002_Node000004"><a xlink:title=" ">
<path fill="none" stroke="#63b8ff" d="M139.81,-777.5C135.74,-710.9 132.79,-560.43 132.81,-453.25"/>
<polygon fill="none" stroke="#63b8ff" points="136.35,-778.08 140.5,-787.82 143.33,-777.61 136.35,-778.08"/>
</a>
</g>
</g>
<!-- Node4&#45;&gt;Node2 -->
<g id="edge5_Node000002_Node000004" class="edge">
<title>Node4&#45;&gt;Node2</title>
<g id="a_edge5_Node000002_Node000004"><a xlink:title=" ">
<path fill="none" stroke="#63b8ff" d="M147.19,-777.5C149.31,-710.9 147.85,-560.43 144.68,-453.25"/>
<polygon fill="none" stroke="#63b8ff" points="143.68,-777.7 146.8,-787.82 150.67,-777.96 143.68,-777.7"/>
</a>
</g>
</g>
<!-- Node5 -->
<g id="Node000005" class="node">
<title>Node5</title>
<g id="a_Node000005"><a xlink:href="classFoam_1_1he2TThermo.html" target="_top" xlink:title=" ">
<polygon fill="white" stroke="transparent" points="322.5,-751 173.5,-751 173.5,-511 322.5,-511 322.5,-751"/>
<text text-anchor="start" x="179" y="-739" font-family="Helvetica,sans-Serif" font-size="10.00">Foam::he2TThermo&lt; Basic2</text>
<text text-anchor="start" x="188" y="-728" font-family="Helvetica,sans-Serif" font-size="10.00">TThermo, MixtureType &gt;</text>
<text text-anchor="start" x="180.5" y="-713" font-family="Helvetica,sans-Serif" font-size="10.00">#</text>
<text text-anchor="start" x="196" y="-713" font-family="Helvetica,sans-Serif" font-size="10.00">he_</text>
<text text-anchor="start" x="180.5" y="-698" font-family="Helvetica,sans-Serif" font-size="10.00">+</text>
<text text-anchor="start" x="196" y="-698" font-family="Helvetica,sans-Serif" font-size="10.00">he2TThermo()</text>
<text text-anchor="start" x="180.5" y="-683" font-family="Helvetica,sans-Serif" font-size="10.00">+</text>
<text text-anchor="start" x="196" y="-683" font-family="Helvetica,sans-Serif" font-size="10.00">he2TThermo()</text>
<text text-anchor="start" x="180.5" y="-668" font-family="Helvetica,sans-Serif" font-size="10.00">+</text>
<text text-anchor="start" x="196" y="-668" font-family="Helvetica,sans-Serif" font-size="10.00">he2TThermo()</text>
<text text-anchor="start" x="180.5" y="-653" font-family="Helvetica,sans-Serif" font-size="10.00">+</text>
<text text-anchor="start" x="196" y="-653" font-family="Helvetica,sans-Serif" font-size="10.00">~he2TThermo()</text>
<text text-anchor="start" x="180.5" y="-638" font-family="Helvetica,sans-Serif" font-size="10.00">+</text>
<text text-anchor="start" x="196" y="-638" font-family="Helvetica,sans-Serif" font-size="10.00">composition()</text>
<text text-anchor="start" x="180.5" y="-623" font-family="Helvetica,sans-Serif" font-size="10.00">+</text>
<text text-anchor="start" x="196" y="-623" font-family="Helvetica,sans-Serif" font-size="10.00">composition()</text>
<text text-anchor="start" x="180.5" y="-608" font-family="Helvetica,sans-Serif" font-size="10.00">+</text>
<text text-anchor="start" x="196" y="-608" font-family="Helvetica,sans-Serif" font-size="10.00">thermoName()</text>
<text text-anchor="start" x="180.5" y="-593" font-family="Helvetica,sans-Serif" font-size="10.00">+</text>
<text text-anchor="start" x="196" y="-593" font-family="Helvetica,sans-Serif" font-size="10.00">incompressible()</text>
<text text-anchor="start" x="180.5" y="-578" font-family="Helvetica,sans-Serif" font-size="10.00">+</text>
<text text-anchor="start" x="196" y="-578" font-family="Helvetica,sans-Serif" font-size="10.00">isochoric()</text>
<text text-anchor="start" x="180.5" y="-563" font-family="Helvetica,sans-Serif" font-size="10.00">+</text>
<text text-anchor="start" x="196" y="-563" font-family="Helvetica,sans-Serif" font-size="10.00">he()</text>
<text text-anchor="start" x="196" y="-548" font-family="Helvetica,sans-Serif" font-size="10.00">and 84 more...</text>
<text text-anchor="start" x="180.5" y="-533" font-family="Helvetica,sans-Serif" font-size="10.00">#</text>
<text text-anchor="start" x="196" y="-533" font-family="Helvetica,sans-Serif" font-size="10.00">heBoundaryCorrection()</text>
<text text-anchor="start" x="180.5" y="-518" font-family="Helvetica,sans-Serif" font-size="10.00">#</text>
<text text-anchor="start" x="196" y="-518" font-family="Helvetica,sans-Serif" font-size="10.00">heBoundaryCorrection()</text>
<polygon fill="#666666" stroke="#666666" points="174,-723 174,-723 323,-723 323,-723 174,-723"/>
<polygon fill="#666666" stroke="#666666" points="174,-708 174,-708 194,-708 194,-708 174,-708"/>
<polygon fill="#666666" stroke="#666666" points="194,-708 194,-708 323,-708 323,-708 194,-708"/>
<polygon fill="none" stroke="#666666" points="173.5,-511 173.5,-751 322.5,-751 322.5,-511 173.5,-511"/>
</a>
</g>
</g>
<!-- Node4&#45;&gt;Node5 -->
<g id="edge8_Node000005_Node000004" class="edge">
<title>Node4&#45;&gt;Node5</title>
<g id="a_edge8_Node000005_Node000004"><a xlink:title=" ">
<path fill="none" stroke="#63b8ff" d="M157.76,-778.49C162.25,-769.89 167.55,-760.12 173.3,-749.79"/>
<polygon fill="none" stroke="#63b8ff" points="154.5,-777.17 153.05,-787.66 160.73,-780.36 154.5,-777.17"/>
</a>
</g>
</g>
<!-- Node4&#45;&gt;Node5 -->
<g id="edge10_Node000005_Node000004" class="edge">
<title>Node4&#45;&gt;Node5</title>
<g id="a_edge10_Node000005_Node000004"><a xlink:title=" ">
<path fill="none" stroke="#63b8ff" d="M168.1,-779.11C173.4,-770.79 179.24,-761.34 185.27,-751.34"/>
<polygon fill="none" stroke="#63b8ff" points="165.06,-777.37 162.57,-787.66 170.94,-781.17 165.06,-777.37"/>
</a>
</g>
</g>
<!-- Node5&#45;&gt;Node2 -->
<g id="edge6_Node000002_Node000005" class="edge">
<title>Node5&#45;&gt;Node2</title>
<g id="a_edge6_Node000002_Node000005"><a xlink:title=" ">
<path fill="none" stroke="orange" d="M199.82,-501.51C193.82,-485.51 187.7,-469.2 181.76,-453.35"/>
<polygon fill="orange" stroke="orange" points="196.54,-502.75 203.33,-510.88 203.1,-500.29 196.54,-502.75"/>
</a>
</g>
<text text-anchor="start" x="196" y="-485" font-family="Helvetica,sans-Serif" font-size="10.00" fill="grey"> &lt; BasicNe2TThermo,</text>
<text text-anchor="middle" x="249.5" y="-474" font-family="Helvetica,sans-Serif" font-size="10.00" fill="grey"> MixtureType &gt;</text>
</g>
<!-- Node6 -->
<g id="Node000006" class="node">
<title>Node6</title>
<g id="a_Node000006"><a xlink:title=" ">
<polygon fill="white" stroke="transparent" points="291,-837 205,-837 205,-788 291,-788 291,-837"/>
<text text-anchor="start" x="210" y="-824.5" font-family="Helvetica,sans-Serif" font-size="10.00">Basic2TThermo</text>
<text text-anchor="start" x="246" y="-809.5" font-family="Helvetica,sans-Serif" font-size="10.00"> </text>
<text text-anchor="start" x="246" y="-794.5" font-family="Helvetica,sans-Serif" font-size="10.00"> </text>
<polygon fill="#666666" stroke="#666666" points="205,-819.5 205,-819.5 291,-819.5 291,-819.5 205,-819.5"/>
<polygon fill="#666666" stroke="#666666" points="205,-804.5 205,-804.5 291,-804.5 291,-804.5 205,-804.5"/>
<polygon fill="none" stroke="#666666" points="205,-788 205,-837 291,-837 291,-788 205,-788"/>
</a>
</g>
</g>
<!-- Node6&#45;&gt;Node5 -->
<g id="edge7_Node000005_Node000006" class="edge">
<title>Node6&#45;&gt;Node5</title>
<g id="a_edge7_Node000005_Node000006"><a xlink:title=" ">
<path fill="none" stroke="#63b8ff" d="M242.58,-777.5C242.14,-769.58 241.81,-760.7 241.59,-751.34"/>
<polygon fill="none" stroke="#63b8ff" points="239.09,-777.91 243.24,-787.66 246.08,-777.46 239.09,-777.91"/>
</a>
</g>
</g>
<!-- Node6&#45;&gt;Node5 -->
<g id="edge9_Node000005_Node000006" class="edge">
<title>Node6&#45;&gt;Node5</title>
<g id="a_edge9_Node000005_Node000006"><a xlink:title=" ">
<path fill="none" stroke="#63b8ff" d="M253.42,-777.5C253.86,-769.58 254.19,-760.7 254.41,-751.34"/>
<polygon fill="none" stroke="#63b8ff" points="249.92,-777.46 252.76,-787.66 256.91,-777.91 249.92,-777.46"/>
</a>
</g>
</g>
</g>
</svg>

<g id="navigator" transform="translate(0 0)" fill="#404254">
  <rect fill="#f2f5e9" fill-opacity="0.5" stroke="#606060" stroke-width=".5" x="0" y="0" width="60" height="60"/>
  <use id="zoomplus" xlink:href="#zoomPlus" x="17" y="9" onmousedown="handleZoom(evt,'in')"/>
  <use id="zoomminus" xlink:href="#zoomMin" x="42" y="9" onmousedown="handleZoom(evt,'out')"/>
  <use id="reset" xlink:href="#resetDef" x="30" y="36" onmousedown="handleReset()"/>
   <use id="arrowup" xlink:href="#arrowUp" x="0" y="0" onmousedown="handlePan(0,-1)"/>
  <use id="arrowright" xlink:href="#arrowRight" x="0" y="0" onmousedown="handlePan(1,0)"/>
  <use id="arrowdown" xlink:href="#arrowDown" x="0" y="0" onmousedown="handlePan(0,1)"/>
  <use id="arrowleft" xlink:href="#arrowLeft" x="0" y="0" onmousedown="handlePan(-1,0)"/>
</g>
<svg viewBox="0 0 15 15" width="100%" height="30px" preserveAspectRatio="xMaxYMin meet">
 <g id="arrow_out" transform="scale(0.3 0.3)">
  <a xlink:href="classFoam_1_1heNe2TThermo__coll__graph_org.svg" target="_base">
   <rect id="button" ry="5" rx="5" y="6" x="6" height="38" width="38"
        fill="#f2f5e9" fill-opacity="0.5" stroke="#606060" stroke-width="1.0"/>
   <path id="arrow"
     d="M 11.500037,31.436501 C 11.940474,20.09759 22.043105,11.32322 32.158766,21.979434 L 37.068811,17.246167 C 37.068811,17.246167 37.088388,32 37.088388,32 L 22.160133,31.978069 C 22.160133,31.978069 26.997745,27.140456 26.997745,27.140456 C 18.528582,18.264221 13.291696,25.230495 11.500037,31.436501 z"
     style="fill:#404040;"/>
  </a>
 </g>
</svg>

<style type='text/css'>
<![CDATA[
[data-mouse-over-selected='false'] { opacity: 0.7; }
[data-mouse-over-selected='true']  { opacity: 1.0; }
]]>
</style>
<script type="application/ecmascript"><![CDATA[
document.addEventListener('DOMContentLoaded', (event) => {
  highlightEdges();
  highlightAdjacentNodes();
});
]]></script>
</svg>
