<?xml version="1.0" encoding="UTF-8" standalone="no"?>
<!DOCTYPE svg PUBLIC "-//W3C//DTD SVG 1.1//EN"
 "http://www.w3.org/Graphics/SVG/1.1/DTD/svg11.dtd">
<!-- Generated by graphviz version 2.43.0 (0)
 -->
<!-- Title: Foam::basic2TThermo::New Pages: 1 -->
<svg width="344pt" height="283pt"
 viewBox="0.00 0.00 344.00 282.50" xmlns="http://www.w3.org/2000/svg" xmlns:xlink="http://www.w3.org/1999/xlink">
<g id="graph0" class="graph" transform="scale(1 1) rotate(0) translate(4 278.5)">
<title>Foam::basic2TThermo::New</title>
<!-- Node1 -->
<g id="Node000001" class="node">
<title>Node1</title>
<g id="a_Node000001"><a xlink:title=" ">
<polygon fill="#999999" stroke="#666666" points="336,-163.5 184,-163.5 184,-144.5 336,-144.5 336,-163.5"/>
<text text-anchor="middle" x="260" y="-151.5" font-family="Helvetica,sans-Serif" font-size="10.00">Foam::basic2TThermo::New</text>
</a>
</g>
</g>
<!-- Node2 -->
<g id="Node000002" class="node">
<title>Node2</title>
<g id="a_Node000002"><a xlink:href="classFoam_1_1ne2TThermo.html#a460d626d19f698d5db900c1f83906829" target="_top" xlink:title=" ">
<polygon fill="white" stroke="#666666" points="143.5,-274.5 4.5,-274.5 4.5,-255.5 143.5,-255.5 143.5,-274.5"/>
<text text-anchor="middle" x="74" y="-262.5" font-family="Helvetica,sans-Serif" font-size="10.00">Foam::ne2TThermo::New</text>
</a>
</g>
</g>
<!-- Node1&#45;&gt;Node2 -->
<g id="edge1_Node000001_Node000002" class="edge">
<title>Node1&#45;&gt;Node2</title>
<g id="a_edge1_Node000001_Node000002"><a xlink:title=" ">
<path fill="none" stroke="#63b8ff" d="M243.5,-171.09C223.48,-192.12 186.59,-227.42 148,-247 141.37,-250.37 134.07,-253.13 126.73,-255.38"/>
<polygon fill="#63b8ff" stroke="#63b8ff" points="246.28,-173.24 250.54,-163.55 241.16,-168.47 246.28,-173.24"/>
</a>
</g>
</g>
<!-- Node3 -->
<g id="Node000003" class="node">
<title>Node3</title>
<g id="a_Node000003"><a xlink:href="classFoam_1_1fluid2TThermo.html#a7faa58655a4bd17b437559cea5a043c0" target="_top" xlink:title=" ">
<polygon fill="white" stroke="#666666" points="148,-237.5 0,-237.5 0,-218.5 148,-218.5 148,-237.5"/>
<text text-anchor="middle" x="74" y="-225.5" font-family="Helvetica,sans-Serif" font-size="10.00">Foam::fluid2TThermo::New</text>
</a>
</g>
</g>
<!-- Node1&#45;&gt;Node3 -->
<g id="edge2_Node000001_Node000003" class="edge">
<title>Node1&#45;&gt;Node3</title>
<g id="a_edge2_Node000001_Node000003"><a xlink:title=" ">
<path fill="none" stroke="#63b8ff" d="M234.27,-168.52C212.24,-180.95 178.82,-198.59 148,-210 139.31,-213.22 129.82,-216.03 120.65,-218.43"/>
<polygon fill="#63b8ff" stroke="#63b8ff" points="236.03,-171.54 242.97,-163.54 232.55,-165.47 236.03,-171.54"/>
</a>
</g>
</g>
<!-- Node4 -->
<g id="Node000004" class="node">
<title>Node4</title>
<g id="a_Node000004"><a xlink:href="classFoam_1_1fluid2TThermo.html#a513c653123c1bcbc2cee39cfeaf9bd94" target="_top" xlink:title=" ">
<polygon fill="white" stroke="#666666" points="148,-200.5 0,-200.5 0,-181.5 148,-181.5 148,-200.5"/>
<text text-anchor="middle" x="74" y="-188.5" font-family="Helvetica,sans-Serif" font-size="10.00">Foam::fluid2TThermo::New</text>
</a>
</g>
</g>
<!-- Node1&#45;&gt;Node4 -->
<g id="edge3_Node000001_Node000004" class="edge">
<title>Node1&#45;&gt;Node4</title>
<g id="a_edge3_Node000001_Node000004"><a xlink:title=" ">
<path fill="none" stroke="#63b8ff" d="M201.73,-165.52C176.3,-170.63 146.73,-176.58 122.54,-181.44"/>
<polygon fill="#63b8ff" stroke="#63b8ff" points="202.5,-168.93 211.62,-163.53 201.12,-162.07 202.5,-168.93"/>
</a>
</g>
</g>
<!-- Node5 -->
<g id="Node000005" class="node">
<title>Node5</title>
<g id="a_Node000005"><a xlink:href="classFoam_1_1ne2TThermo.html#ae02e017099286cb1dbe8aac02a7a97b6" target="_top" xlink:title=" ">
<polygon fill="white" stroke="#666666" points="143.5,-163.5 4.5,-163.5 4.5,-144.5 143.5,-144.5 143.5,-163.5"/>
<text text-anchor="middle" x="74" y="-151.5" font-family="Helvetica,sans-Serif" font-size="10.00">Foam::ne2TThermo::New</text>
</a>
</g>
</g>
<!-- Node1&#45;&gt;Node5 -->
<g id="edge4_Node000001_Node000005" class="edge">
<title>Node1&#45;&gt;Node5</title>
<g id="a_edge4_Node000001_Node000005"><a xlink:title=" ">
<path fill="none" stroke="#63b8ff" d="M173.83,-154C163.72,-154 153.49,-154 143.65,-154"/>
<polygon fill="#63b8ff" stroke="#63b8ff" points="173.89,-157.5 183.89,-154 173.89,-150.5 173.89,-157.5"/>
</a>
</g>
</g>
<!-- Node6 -->
<g id="Node000006" class="node">
<title>Node6</title>
<g id="a_Node000006"><a xlink:href="classFoam_1_1basic2TThermo.html#a9092ee8e78a3f0fe467d18f6dfb5a2df" target="_top" xlink:title=" ">
<polygon fill="white" stroke="#666666" points="136.5,-126 11.5,-126 11.5,-96 136.5,-96 136.5,-126"/>
<text text-anchor="start" x="19.5" y="-114" font-family="Helvetica,sans-Serif" font-size="10.00">Foam::basic2TThermo</text>
<text text-anchor="middle" x="74" y="-103" font-family="Helvetica,sans-Serif" font-size="10.00">::phasePropertyName</text>
</a>
</g>
</g>
<!-- Node1&#45;&gt;Node6 -->
<g id="edge5_Node000001_Node000006" class="edge">
<title>Node1&#45;&gt;Node6</title>
<g id="a_edge5_Node000001_Node000006"><a xlink:title=" ">
<path fill="none" stroke="#63b8ff" d="M208.3,-142.15C186.15,-136.98 159.98,-130.86 136.71,-125.42"/>
<polygon fill="#63b8ff" stroke="#63b8ff" points="207.63,-145.59 218.16,-144.46 209.22,-138.77 207.63,-145.59"/>
</a>
</g>
</g>
<!-- Node7 -->
<g id="Node000007" class="node">
<title>Node7</title>
<g id="a_Node000007"><a xlink:href="classFoam_1_1basic2TThermo.html#a9be25cb66ba05bd5068e70ae344d29d2" target="_top" xlink:title=" ">
<polygon fill="white" stroke="#666666" points="136.5,-78 11.5,-78 11.5,-48 136.5,-48 136.5,-78"/>
<text text-anchor="start" x="19.5" y="-66" font-family="Helvetica,sans-Serif" font-size="10.00">Foam::basic2TThermo</text>
<text text-anchor="middle" x="74" y="-55" font-family="Helvetica,sans-Serif" font-size="10.00">::phasePropertyName</text>
</a>
</g>
</g>
<!-- Node1&#45;&gt;Node7 -->
<g id="edge6_Node000001_Node000007" class="edge">
<title>Node1&#45;&gt;Node7</title>
<g id="a_edge6_Node000001_Node000007"><a xlink:title=" ">
<path fill="none" stroke="#63b8ff" d="M237.02,-138.69C215.19,-123.99 180.4,-101.87 148,-87 140.97,-83.77 133.37,-80.77 125.84,-78.07"/>
<polygon fill="#63b8ff" stroke="#63b8ff" points="235.3,-141.75 245.53,-144.49 239.24,-135.97 235.3,-141.75"/>
</a>
</g>
</g>
<!-- Node8 -->
<g id="Node000008" class="node">
<title>Node8</title>
<g id="a_Node000008"><a xlink:href="classFoam_1_1basic2TThermo.html#acc426105b6f3249a111ebf3bb48f8081" target="_top" xlink:title=" ">
<polygon fill="white" stroke="#666666" points="136.5,-30 11.5,-30 11.5,0 136.5,0 136.5,-30"/>
<text text-anchor="start" x="19.5" y="-18" font-family="Helvetica,sans-Serif" font-size="10.00">Foam::basic2TThermo</text>
<text text-anchor="middle" x="74" y="-7" font-family="Helvetica,sans-Serif" font-size="10.00">::phaseScopedName</text>
</a>
</g>
</g>
<!-- Node1&#45;&gt;Node8 -->
<g id="edge7_Node000001_Node000008" class="edge">
<title>Node1&#45;&gt;Node8</title>
<g id="a_edge7_Node000001_Node000008"><a xlink:title=" ">
<path fill="none" stroke="#63b8ff" d="M246.34,-136.22C227.58,-111.11 190.08,-65.4 148,-39 142.58,-35.6 136.62,-32.63 130.52,-30.04"/>
<polygon fill="#63b8ff" stroke="#63b8ff" points="243.64,-138.46 252.37,-144.46 249.29,-134.32 243.64,-138.46"/>
</a>
</g>
</g>
</g>
</svg>
