<?xml version="1.0" encoding="UTF-8" standalone="no"?>
<!DOCTYPE svg PUBLIC "-//W3C//DTD SVG 1.1//EN"
 "http://www.w3.org/Graphics/SVG/1.1/DTD/svg11.dtd">
<!-- Generated by graphviz version 2.43.0 (0)
 -->
<!-- Title: Foam::blottnerEucken2TTransport::kappaTR Pages: 1 -->
<svg width="336pt" height="38pt"
 viewBox="0.00 0.00 336.00 38.00" xmlns="http://www.w3.org/2000/svg" xmlns:xlink="http://www.w3.org/1999/xlink">
<g id="graph0" class="graph" transform="scale(1 1) rotate(0) translate(4 34)">
<title>Foam::blottnerEucken2TTransport::kappaTR</title>
<!-- Node1 -->
<g id="Node000001" class="node">
<title>Node1</title>
<g id="a_Node000001"><a xlink:title=" ">
<polygon fill="#999999" stroke="#666666" points="179,-30 0,-30 0,0 179,0 179,-30"/>
<text text-anchor="start" x="8" y="-18" font-family="Helvetica,sans-Serif" font-size="10.00">Foam::blottnerEucken2TTransport</text>
<text text-anchor="middle" x="89.5" y="-7" font-family="Helvetica,sans-Serif" font-size="10.00">::kappaTR</text>
</a>
</g>
</g>
<!-- Node2 -->
<g id="Node000002" class="node">
<title>Node2</title>
<g id="a_Node000002"><a xlink:href="lnInclude_2HtoEthermo2T_8H.html#a9aa70b42d27cada92be491a2a1109f97" target="_top" xlink:title=" ">
<polygon fill="white" stroke="#666666" points="250,-24.5 215,-24.5 215,-5.5 250,-5.5 250,-24.5"/>
<text text-anchor="middle" x="232.5" y="-12.5" font-family="Helvetica,sans-Serif" font-size="10.00">CvT</text>
</a>
</g>
</g>
<!-- Node1&#45;&gt;Node2 -->
<g id="edge1_Node000001_Node000002" class="edge">
<title>Node1&#45;&gt;Node2</title>
<g id="a_edge1_Node000001_Node000002"><a xlink:title=" ">
<path fill="none" stroke="#63b8ff" d="M179.4,-15C188.41,-15 197,-15 204.5,-15"/>
<polygon fill="#63b8ff" stroke="#63b8ff" points="204.65,-18.5 214.65,-15 204.65,-11.5 204.65,-18.5"/>
</a>
</g>
</g>
<!-- Node3 -->
<g id="Node000003" class="node">
<title>Node3</title>
<g id="a_Node000003"><a xlink:href="lnInclude_2EtoHthermo2T_8H.html#aa0b7c65135f8132343b868a05ac7ff86" target="_top" xlink:title=" ">
<polygon fill="white" stroke="#666666" points="328,-24.5 286,-24.5 286,-5.5 328,-5.5 328,-24.5"/>
<text text-anchor="middle" x="307" y="-12.5" font-family="Helvetica,sans-Serif" font-size="10.00">CpTR</text>
</a>
</g>
</g>
<!-- Node2&#45;&gt;Node3 -->
<g id="edge2_Node000002_Node000003" class="edge">
<title>Node2&#45;&gt;Node3</title>
<g id="a_edge2_Node000002_Node000003"><a xlink:title=" ">
<path fill="none" stroke="#63b8ff" d="M250.32,-9.2C257.87,-8.38 267.02,-8.09 275.7,-8.33"/>
<polygon fill="#63b8ff" stroke="#63b8ff" points="275.75,-11.84 285.93,-8.89 276.13,-4.85 275.75,-11.84"/>
</a>
</g>
</g>
<!-- Node3&#45;&gt;Node2 -->
<g id="edge3_Node000003_Node000002" class="edge">
<title>Node3&#45;&gt;Node2</title>
<g id="a_edge3_Node000003_Node000002"><a xlink:title=" ">
<path fill="none" stroke="#63b8ff" d="M285.93,-21.11C278.05,-21.78 268.9,-21.92 260.46,-21.55"/>
<polygon fill="#63b8ff" stroke="#63b8ff" points="260.55,-18.05 250.32,-20.8 260.03,-25.03 260.55,-18.05"/>
</a>
</g>
</g>
</g>
</svg>
