<?xml version="1.0" encoding="UTF-8" standalone="no"?>
<!DOCTYPE svg PUBLIC "-//W3C//DTD SVG 1.1//EN"
 "http://www.w3.org/Graphics/SVG/1.1/DTD/svg11.dtd">
<!-- Generated by graphviz version 2.43.0 (0)
 -->
<!-- Title: Foam::he2TThermo::kappaVib Pages: 1 -->
<svg width="319pt" height="27pt"
 viewBox="0.00 0.00 319.00 27.00" xmlns="http://www.w3.org/2000/svg" xmlns:xlink="http://www.w3.org/1999/xlink">
<g id="graph0" class="graph" transform="scale(1 1) rotate(0) translate(4 23)">
<title>Foam::he2TThermo::kappaVib</title>
<!-- Node1 -->
<g id="Node000001" class="node">
<title>Node1</title>
<g id="a_Node000001"><a xlink:title=" ">
<polygon fill="#999999" stroke="#666666" points="162,-19 0,-19 0,0 162,0 162,-19"/>
<text text-anchor="middle" x="81" y="-7" font-family="Helvetica,sans-Serif" font-size="10.00">Foam::he2TThermo::kappaVib</text>
</a>
</g>
</g>
<!-- Node2 -->
<g id="Node000002" class="node">
<title>Node2</title>
<g id="a_Node000002"><a xlink:href="lnInclude_2EtoHthermo2T_8H.html#aa0b7c65135f8132343b868a05ac7ff86" target="_top" xlink:title=" ">
<polygon fill="white" stroke="#666666" points="240,-19 198,-19 198,0 240,0 240,-19"/>
<text text-anchor="middle" x="219" y="-7" font-family="Helvetica,sans-Serif" font-size="10.00">CpTR</text>
</a>
</g>
</g>
<!-- Node1&#45;&gt;Node2 -->
<g id="edge1_Node000001_Node000002" class="edge">
<title>Node1&#45;&gt;Node2</title>
<g id="a_edge1_Node000001_Node000002"><a xlink:title=" ">
<path fill="none" stroke="#63b8ff" d="M162.29,-9.5C171.28,-9.5 179.98,-9.5 187.72,-9.5"/>
<polygon fill="#63b8ff" stroke="#63b8ff" points="187.95,-13 197.95,-9.5 187.95,-6 187.95,-13"/>
</a>
</g>
</g>
<!-- Node3 -->
<g id="Node000003" class="node">
<title>Node3</title>
<g id="a_Node000003"><a xlink:href="lnInclude_2HtoEthermo2T_8H.html#a9aa70b42d27cada92be491a2a1109f97" target="_top" xlink:title=" ">
<polygon fill="white" stroke="#666666" points="311,-19 276,-19 276,0 311,0 311,-19"/>
<text text-anchor="middle" x="293.5" y="-7" font-family="Helvetica,sans-Serif" font-size="10.00">CvT</text>
</a>
</g>
</g>
<!-- Node2&#45;&gt;Node3 -->
<g id="edge2_Node000002_Node000003" class="edge">
<title>Node2&#45;&gt;Node3</title>
<g id="a_edge2_Node000002_Node000003"><a xlink:title=" ">
<path fill="none" stroke="#63b8ff" d="M240.2,-3.38C248.09,-2.72 257.26,-2.58 265.69,-2.96"/>
<polygon fill="#63b8ff" stroke="#63b8ff" points="265.6,-6.46 275.84,-3.72 266.12,0.52 265.6,-6.46"/>
</a>
</g>
</g>
<!-- Node3&#45;&gt;Node2 -->
<g id="edge3_Node000003_Node000002" class="edge">
<title>Node3&#45;&gt;Node2</title>
<g id="a_edge3_Node000003_Node000002"><a xlink:title=" ">
<path fill="none" stroke="#63b8ff" d="M275.84,-15.28C268.29,-16.11 259.14,-16.41 250.44,-16.17"/>
<polygon fill="#63b8ff" stroke="#63b8ff" points="250.37,-12.66 240.2,-15.62 249.99,-19.65 250.37,-12.66"/>
</a>
</g>
</g>
</g>
</svg>
