<?xml version="1.0" encoding="UTF-8" standalone="no"?>
<!DOCTYPE svg PUBLIC "-//W3C//DTD SVG 1.1//EN"
 "http://www.w3.org/Graphics/SVG/1.1/DTD/svg11.dtd">
<!-- Generated by graphviz version 2.43.0 (0)
 -->
<!-- Title: Foam::species::thermo2T&lt; Thermo2T, Type &gt; Pages: 1 -->
<svg width="242pt" height="374pt"
 viewBox="0.00 0.00 241.50 374.00" xmlns="http://www.w3.org/2000/svg" xmlns:xlink="http://www.w3.org/1999/xlink">

<svg id="main" version="1.1" xmlns="http://www.w3.org/2000/svg" xmlns:xlink="http://www.w3.org/1999/xlink" xml:space="preserve" onload="init(evt)">
<style type="text/css"><![CDATA[
.node, .edge {opacity: 0.7;}
.node.selected, .edge.selected {opacity: 1;}
.edge:hover path { stroke: red; }
.edge:hover polygon { stroke: red; fill: red; }
]]></style>
<script type="application/ecmascript" xlink:href="svg.min.js"/>
<svg id="graph" class="graph">
<g id="graph0" class="graph" transform="scale(1 1) rotate(0) translate(4 370)">
<title>Foam::species::thermo2T&lt; Thermo2T, Type &gt;</title>
<!-- Node1 -->
<g id="Node000001" class="node">
<title>Node1</title>
<g id="a_Node000001"><a xlink:title=" ">
<polygon fill="#999999" stroke="transparent" points="160,-270 26,-270 26,0 160,0 160,-270"/>
<text text-anchor="start" x="31" y="-258" font-family="Helvetica,sans-Serif" font-size="10.00">Foam::species::thermo2T</text>
<text text-anchor="start" x="42.5" y="-247" font-family="Helvetica,sans-Serif" font-size="10.00">&lt; Thermo2T, Type &gt;</text>
<text text-anchor="start" x="91" y="-232" font-family="Helvetica,sans-Serif" font-size="10.00"> </text>
<text text-anchor="start" x="40.5" y="-217" font-family="Helvetica,sans-Serif" font-size="10.00">+</text>
<text text-anchor="start" x="64" y="-217" font-family="Helvetica,sans-Serif" font-size="10.00">thermo2T()</text>
<text text-anchor="start" x="40.5" y="-202" font-family="Helvetica,sans-Serif" font-size="10.00">+</text>
<text text-anchor="start" x="64" y="-202" font-family="Helvetica,sans-Serif" font-size="10.00">thermo2T()</text>
<text text-anchor="start" x="40.5" y="-187" font-family="Helvetica,sans-Serif" font-size="10.00">+</text>
<text text-anchor="start" x="64" y="-187" font-family="Helvetica,sans-Serif" font-size="10.00">thermo2T()</text>
<text text-anchor="start" x="40.5" y="-172" font-family="Helvetica,sans-Serif" font-size="10.00">+</text>
<text text-anchor="start" x="64" y="-172" font-family="Helvetica,sans-Serif" font-size="10.00">CpvTR()</text>
<text text-anchor="start" x="40.5" y="-157" font-family="Helvetica,sans-Serif" font-size="10.00">+</text>
<text text-anchor="start" x="64" y="-157" font-family="Helvetica,sans-Serif" font-size="10.00">gamma()</text>
<text text-anchor="start" x="40.5" y="-142" font-family="Helvetica,sans-Serif" font-size="10.00">+</text>
<text text-anchor="start" x="64" y="-142" font-family="Helvetica,sans-Serif" font-size="10.00">CpByCpvTR()</text>
<text text-anchor="start" x="40.5" y="-127" font-family="Helvetica,sans-Serif" font-size="10.00">+</text>
<text text-anchor="start" x="64" y="-127" font-family="Helvetica,sans-Serif" font-size="10.00">HE()</text>
<text text-anchor="start" x="40.5" y="-112" font-family="Helvetica,sans-Serif" font-size="10.00">+</text>
<text text-anchor="start" x="64" y="-112" font-family="Helvetica,sans-Serif" font-size="10.00">G()</text>
<text text-anchor="start" x="40.5" y="-97" font-family="Helvetica,sans-Serif" font-size="10.00">+</text>
<text text-anchor="start" x="64" y="-97" font-family="Helvetica,sans-Serif" font-size="10.00">A()</text>
<text text-anchor="start" x="40.5" y="-82" font-family="Helvetica,sans-Serif" font-size="10.00">+</text>
<text text-anchor="start" x="64" y="-82" font-family="Helvetica,sans-Serif" font-size="10.00">cpTR()</text>
<text text-anchor="start" x="64" y="-67" font-family="Helvetica,sans-Serif" font-size="10.00">and 72 more...</text>
<text text-anchor="start" x="40.5" y="-52" font-family="Helvetica,sans-Serif" font-size="10.00">+</text>
<text text-anchor="start" x="64" y="-52" font-family="Helvetica,sans-Serif" font-size="10.00">typeName()</text>
<text text-anchor="start" x="40.5" y="-37" font-family="Helvetica,sans-Serif" font-size="10.00">+</text>
<text text-anchor="start" x="64" y="-37" font-family="Helvetica,sans-Serif" font-size="10.00">heName()</text>
<text text-anchor="start" x="40.5" y="-22" font-family="Helvetica,sans-Serif" font-size="10.00">+</text>
<text text-anchor="start" x="64" y="-22" font-family="Helvetica,sans-Serif" font-size="10.00">typeName()</text>
<text text-anchor="start" x="40.5" y="-7" font-family="Helvetica,sans-Serif" font-size="10.00">+</text>
<text text-anchor="start" x="64" y="-7" font-family="Helvetica,sans-Serif" font-size="10.00">heName()</text>
<polygon fill="#666666" stroke="#666666" points="26,-242 26,-242 160,-242 160,-242 26,-242"/>
<polygon fill="#666666" stroke="#666666" points="26,-227 26,-227 160,-227 160,-227 26,-227"/>
<polygon fill="none" stroke="#666666" points="26,0 26,-270 160,-270 160,0 26,0"/>
</a>
</g>
</g>
<!-- Node2 -->
<g id="Node000002" class="node">
<title>Node2</title>
<g id="a_Node000002"><a xlink:title=" ">
<polygon fill="white" stroke="transparent" points="60,-360.5 0,-360.5 0,-311.5 60,-311.5 60,-360.5"/>
<text text-anchor="start" x="5" y="-348" font-family="Helvetica,sans-Serif" font-size="10.00">Thermo2T</text>
<text text-anchor="start" x="28" y="-333" font-family="Helvetica,sans-Serif" font-size="10.00"> </text>
<text text-anchor="start" x="28" y="-318" font-family="Helvetica,sans-Serif" font-size="10.00"> </text>
<polygon fill="#666666" stroke="#666666" points="0,-343 0,-343 60,-343 60,-343 0,-343"/>
<polygon fill="#666666" stroke="#666666" points="0,-328 0,-328 60,-328 60,-328 0,-328"/>
<polygon fill="none" stroke="#666666" points="0,-311.5 0,-360.5 60,-360.5 60,-311.5 0,-311.5"/>
</a>
</g>
</g>
<!-- Node2&#45;&gt;Node1 -->
<g id="edge1_Node000001_Node000002" class="edge">
<title>Node2&#45;&gt;Node1</title>
<g id="a_edge1_Node000001_Node000002"><a xlink:title=" ">
<path fill="none" stroke="#63b8ff" d="M35.4,-301.51C37.82,-292.2 40.83,-281.48 44.18,-270.07"/>
<polygon fill="none" stroke="#63b8ff" points="31.96,-300.84 32.92,-311.39 38.75,-302.54 31.96,-300.84"/>
</a>
</g>
</g>
<!-- Node2&#45;&gt;Node1 -->
<g id="edge3_Node000001_Node000002" class="edge">
<title>Node2&#45;&gt;Node1</title>
<g id="a_edge3_Node000001_Node000002"><a xlink:title=" ">
<path fill="none" stroke="#63b8ff" d="M45.69,-301.81C49.19,-292.43 53.02,-281.6 56.93,-270.07"/>
<polygon fill="none" stroke="#63b8ff" points="42.33,-300.8 42.03,-311.39 48.87,-303.3 42.33,-300.8"/>
</a>
</g>
</g>
<!-- Node3 -->
<g id="Node000003" class="node">
<title>Node3</title>
<g id="a_Node000003"><a xlink:title=" ">
<polygon fill="white" stroke="transparent" points="233.5,-366 78.5,-366 78.5,-306 233.5,-306 233.5,-366"/>
<text text-anchor="start" x="84" y="-354" font-family="Helvetica,sans-Serif" font-size="10.00">Type&lt; thermo2T&lt; Thermo2T,</text>
<text text-anchor="start" x="132" y="-343" font-family="Helvetica,sans-Serif" font-size="10.00"> Type &gt; &gt;</text>
<text text-anchor="start" x="154.5" y="-328" font-family="Helvetica,sans-Serif" font-size="10.00"> </text>
<text text-anchor="start" x="154.5" y="-313" font-family="Helvetica,sans-Serif" font-size="10.00"> </text>
<polygon fill="#666666" stroke="#666666" points="79,-338 79,-338 234,-338 234,-338 79,-338"/>
<polygon fill="#666666" stroke="#666666" points="79,-323 79,-323 234,-323 234,-323 79,-323"/>
<polygon fill="none" stroke="#666666" points="78.5,-306 78.5,-366 233.5,-366 233.5,-306 78.5,-306"/>
</a>
</g>
</g>
<!-- Node3&#45;&gt;Node1 -->
<g id="edge2_Node000001_Node000003" class="edge">
<title>Node3&#45;&gt;Node1</title>
<g id="a_edge2_Node000001_Node000003"><a xlink:title=" ">
<path fill="none" stroke="#63b8ff" d="M138.2,-296.09C135.31,-288.18 132.25,-279.45 129.14,-270.26"/>
<polygon fill="none" stroke="#63b8ff" points="134.98,-297.48 141.75,-305.64 141.54,-295.04 134.98,-297.48"/>
</a>
</g>
</g>
<!-- Node3&#45;&gt;Node1 -->
<g id="edge4_Node000001_Node000003" class="edge">
<title>Node3&#45;&gt;Node1</title>
<g id="a_edge4_Node000001_Node000003"><a xlink:title=" ">
<path fill="none" stroke="#63b8ff" d="M149.09,-295.82C146.99,-287.99 144.54,-279.34 141.87,-270.26"/>
<polygon fill="none" stroke="#63b8ff" points="145.74,-296.85 151.66,-305.64 152.52,-295.08 145.74,-296.85"/>
</a>
</g>
</g>
</g>
</svg>
</svg>

<style type='text/css'>
<![CDATA[
[data-mouse-over-selected='false'] { opacity: 0.7; }
[data-mouse-over-selected='true']  { opacity: 1.0; }
]]>
</style>
<script type="application/ecmascript"><![CDATA[
document.addEventListener('DOMContentLoaded', (event) => {
  highlightEdges();
  highlightAdjacentNodes();
});
]]></script>
</svg>
