<?xml version="1.0" encoding="UTF-8" standalone="no"?>
<!DOCTYPE svg PUBLIC "-//W3C//DTD SVG 1.1//EN"
 "http://www.w3.org/Graphics/SVG/1.1/DTD/svg11.dtd">
<!-- Generated by graphviz version 2.43.0 (0)
 -->
<!-- Title: Foam::ne2TThermo Pages: 1 -->
<svg width="356pt" height="1317pt"
 viewBox="0.00 0.00 356.00 1317.00" xmlns="http://www.w3.org/2000/svg" xmlns:xlink="http://www.w3.org/1999/xlink">
<g id="graph0" class="graph" transform="scale(1 1) rotate(0) translate(4 1313)">
<title>Foam::ne2TThermo</title>
<!-- Node1 -->
<g id="Node000001" class="node">
<title>Node1</title>
<g id="a_Node000001"><a xlink:title=" ">
<polygon fill="#999999" stroke="transparent" points="270,-304 91,-304 91,0 270,0 270,-304"/>
<text text-anchor="start" x="133.5" y="-292" font-family="Helvetica,sans-Serif" font-size="10.00">Foam::ne2TThermo</text>
<text text-anchor="start" x="95.5" y="-277" font-family="Helvetica,sans-Serif" font-size="10.00">#</text>
<text text-anchor="start" x="108.5" y="-277" font-family="Helvetica,sans-Serif" font-size="10.00">psi_</text>
<text text-anchor="start" x="95.5" y="-262" font-family="Helvetica,sans-Serif" font-size="10.00">#</text>
<text text-anchor="start" x="108.5" y="-262" font-family="Helvetica,sans-Serif" font-size="10.00">mu_</text>
<text text-anchor="start" x="95.5" y="-247" font-family="Helvetica,sans-Serif" font-size="10.00">+</text>
<text text-anchor="start" x="108.5" y="-247" font-family="Helvetica,sans-Serif" font-size="10.00">declareRunTimeSelectionTable()</text>
<text text-anchor="start" x="95.5" y="-232" font-family="Helvetica,sans-Serif" font-size="10.00">+</text>
<text text-anchor="start" x="108.5" y="-232" font-family="Helvetica,sans-Serif" font-size="10.00">declareRunTimeSelectionTable()</text>
<text text-anchor="start" x="95.5" y="-217" font-family="Helvetica,sans-Serif" font-size="10.00">+</text>
<text text-anchor="start" x="108.5" y="-217" font-family="Helvetica,sans-Serif" font-size="10.00">ne2TThermo()</text>
<text text-anchor="start" x="95.5" y="-202" font-family="Helvetica,sans-Serif" font-size="10.00">+</text>
<text text-anchor="start" x="108.5" y="-202" font-family="Helvetica,sans-Serif" font-size="10.00">ne2TThermo()</text>
<text text-anchor="start" x="95.5" y="-187" font-family="Helvetica,sans-Serif" font-size="10.00">+</text>
<text text-anchor="start" x="108.5" y="-187" font-family="Helvetica,sans-Serif" font-size="10.00">~ne2TThermo()</text>
<text text-anchor="start" x="95.5" y="-172" font-family="Helvetica,sans-Serif" font-size="10.00">+</text>
<text text-anchor="start" x="108.5" y="-172" font-family="Helvetica,sans-Serif" font-size="10.00">correctRho()</text>
<text text-anchor="start" x="95.5" y="-157" font-family="Helvetica,sans-Serif" font-size="10.00">+</text>
<text text-anchor="start" x="108.5" y="-157" font-family="Helvetica,sans-Serif" font-size="10.00">correctRho()</text>
<text text-anchor="start" x="95.5" y="-142" font-family="Helvetica,sans-Serif" font-size="10.00">+</text>
<text text-anchor="start" x="108.5" y="-142" font-family="Helvetica,sans-Serif" font-size="10.00">rho()</text>
<text text-anchor="start" x="95.5" y="-127" font-family="Helvetica,sans-Serif" font-size="10.00">+</text>
<text text-anchor="start" x="108.5" y="-127" font-family="Helvetica,sans-Serif" font-size="10.00">rho()</text>
<text text-anchor="start" x="95.5" y="-112" font-family="Helvetica,sans-Serif" font-size="10.00">+</text>
<text text-anchor="start" x="108.5" y="-112" font-family="Helvetica,sans-Serif" font-size="10.00">psi()</text>
<text text-anchor="start" x="108.5" y="-97" font-family="Helvetica,sans-Serif" font-size="10.00">and 14 more...</text>
<text text-anchor="start" x="95.5" y="-82" font-family="Helvetica,sans-Serif" font-size="10.00">+</text>
<text text-anchor="start" x="108.5" y="-82" font-family="Helvetica,sans-Serif" font-size="10.00">New()</text>
<text text-anchor="start" x="95.5" y="-67" font-family="Helvetica,sans-Serif" font-size="10.00">+</text>
<text text-anchor="start" x="108.5" y="-67" font-family="Helvetica,sans-Serif" font-size="10.00">New()</text>
<text text-anchor="start" x="95.5" y="-52" font-family="Helvetica,sans-Serif" font-size="10.00">+</text>
<text text-anchor="start" x="108.5" y="-52" font-family="Helvetica,sans-Serif" font-size="10.00">New()</text>
<text text-anchor="start" x="95.5" y="-37" font-family="Helvetica,sans-Serif" font-size="10.00">+</text>
<text text-anchor="start" x="108.5" y="-37" font-family="Helvetica,sans-Serif" font-size="10.00">New()</text>
<text text-anchor="start" x="95.5" y="-22" font-family="Helvetica,sans-Serif" font-size="10.00">#</text>
<text text-anchor="start" x="108.5" y="-22" font-family="Helvetica,sans-Serif" font-size="10.00">ne2TThermo()</text>
<text text-anchor="start" x="95.5" y="-7" font-family="Helvetica,sans-Serif" font-size="10.00">#</text>
<text text-anchor="start" x="108.5" y="-7" font-family="Helvetica,sans-Serif" font-size="10.00">ne2TThermo()</text>
<polygon fill="#666666" stroke="#666666" points="91.5,-287 91.5,-287 270.5,-287 270.5,-287 91.5,-287"/>
<polygon fill="#666666" stroke="#666666" points="91.5,-257 91.5,-257 106.5,-257 106.5,-257 91.5,-257"/>
<polygon fill="#666666" stroke="#666666" points="106.5,-257 106.5,-257 270.5,-257 270.5,-257 106.5,-257"/>
<polygon fill="none" stroke="#666666" points="91,0 91,-304 270,-304 270,0 91,0"/>
</a>
</g>
</g>
<!-- Node2 -->
<g id="Node000002" class="node">
<title>Node2</title>
<g id="a_Node000002"><a xlink:href="classFoam_1_1fluid2TThermo.html" target="_top" xlink:title=" ">
<polygon fill="white" stroke="transparent" points="270,-599 91,-599 91,-340 270,-340 270,-599"/>
<text text-anchor="start" x="129" y="-586.5" font-family="Helvetica,sans-Serif" font-size="10.00">Foam::fluid2TThermo</text>
<text text-anchor="start" x="179" y="-571.5" font-family="Helvetica,sans-Serif" font-size="10.00"> </text>
<text text-anchor="start" x="95.5" y="-556.5" font-family="Helvetica,sans-Serif" font-size="10.00">+</text>
<text text-anchor="start" x="108.5" y="-556.5" font-family="Helvetica,sans-Serif" font-size="10.00">declareRunTimeSelectionTable()</text>
<text text-anchor="start" x="95.5" y="-541.5" font-family="Helvetica,sans-Serif" font-size="10.00">+</text>
<text text-anchor="start" x="108.5" y="-541.5" font-family="Helvetica,sans-Serif" font-size="10.00">declareRunTimeSelectionTable()</text>
<text text-anchor="start" x="95.5" y="-526.5" font-family="Helvetica,sans-Serif" font-size="10.00">+</text>
<text text-anchor="start" x="108.5" y="-526.5" font-family="Helvetica,sans-Serif" font-size="10.00">fluid2TThermo()</text>
<text text-anchor="start" x="95.5" y="-511.5" font-family="Helvetica,sans-Serif" font-size="10.00">+</text>
<text text-anchor="start" x="108.5" y="-511.5" font-family="Helvetica,sans-Serif" font-size="10.00">fluid2TThermo()</text>
<text text-anchor="start" x="95.5" y="-496.5" font-family="Helvetica,sans-Serif" font-size="10.00">+</text>
<text text-anchor="start" x="108.5" y="-496.5" font-family="Helvetica,sans-Serif" font-size="10.00">fluid2TThermo()</text>
<text text-anchor="start" x="95.5" y="-481.5" font-family="Helvetica,sans-Serif" font-size="10.00">+</text>
<text text-anchor="start" x="108.5" y="-481.5" font-family="Helvetica,sans-Serif" font-size="10.00">~fluid2TThermo()</text>
<text text-anchor="start" x="95.5" y="-466.5" font-family="Helvetica,sans-Serif" font-size="10.00">+</text>
<text text-anchor="start" x="108.5" y="-466.5" font-family="Helvetica,sans-Serif" font-size="10.00">correctRho()</text>
<text text-anchor="start" x="95.5" y="-451.5" font-family="Helvetica,sans-Serif" font-size="10.00">+</text>
<text text-anchor="start" x="108.5" y="-451.5" font-family="Helvetica,sans-Serif" font-size="10.00">correctRho()</text>
<text text-anchor="start" x="95.5" y="-436.5" font-family="Helvetica,sans-Serif" font-size="10.00">+</text>
<text text-anchor="start" x="108.5" y="-436.5" font-family="Helvetica,sans-Serif" font-size="10.00">psi()</text>
<text text-anchor="start" x="95.5" y="-421.5" font-family="Helvetica,sans-Serif" font-size="10.00">+</text>
<text text-anchor="start" x="108.5" y="-421.5" font-family="Helvetica,sans-Serif" font-size="10.00">mu()</text>
<text text-anchor="start" x="108.5" y="-406.5" font-family="Helvetica,sans-Serif" font-size="10.00">and 16 more...</text>
<text text-anchor="start" x="95.5" y="-391.5" font-family="Helvetica,sans-Serif" font-size="10.00">+</text>
<text text-anchor="start" x="108.5" y="-391.5" font-family="Helvetica,sans-Serif" font-size="10.00">New()</text>
<text text-anchor="start" x="95.5" y="-376.5" font-family="Helvetica,sans-Serif" font-size="10.00">+</text>
<text text-anchor="start" x="108.5" y="-376.5" font-family="Helvetica,sans-Serif" font-size="10.00">New()</text>
<text text-anchor="start" x="95.5" y="-361.5" font-family="Helvetica,sans-Serif" font-size="10.00">+</text>
<text text-anchor="start" x="108.5" y="-361.5" font-family="Helvetica,sans-Serif" font-size="10.00">New()</text>
<text text-anchor="start" x="95.5" y="-346.5" font-family="Helvetica,sans-Serif" font-size="10.00">+</text>
<text text-anchor="start" x="108.5" y="-346.5" font-family="Helvetica,sans-Serif" font-size="10.00">New()</text>
<polygon fill="#666666" stroke="#666666" points="91.5,-581.5 91.5,-581.5 270.5,-581.5 270.5,-581.5 91.5,-581.5"/>
<polygon fill="#666666" stroke="#666666" points="91.5,-566.5 91.5,-566.5 270.5,-566.5 270.5,-566.5 91.5,-566.5"/>
<polygon fill="none" stroke="#666666" points="91,-340 91,-599 270,-599 270,-340 91,-340"/>
</a>
</g>
</g>
<!-- Node2&#45;&gt;Node1 -->
<g id="edge1_Node000001_Node000002" class="edge">
<title>Node2&#45;&gt;Node1</title>
<g id="a_edge1_Node000001_Node000002"><a xlink:title=" ">
<path fill="none" stroke="#63b8ff" d="M173.79,-329.47C173.75,-321.04 173.74,-312.54 173.76,-304.06"/>
<polygon fill="none" stroke="#63b8ff" points="170.29,-329.74 173.85,-339.72 177.29,-329.7 170.29,-329.74"/>
</a>
</g>
</g>
<!-- Node2&#45;&gt;Node1 -->
<g id="edge8_Node000001_Node000002" class="edge">
<title>Node2&#45;&gt;Node1</title>
<g id="a_edge8_Node000001_Node000002"><a xlink:title=" ">
<path fill="none" stroke="#63b8ff" d="M187.21,-329.47C187.25,-321.04 187.26,-312.54 187.24,-304.06"/>
<polygon fill="none" stroke="#63b8ff" points="183.71,-329.7 187.15,-339.72 190.71,-329.74 183.71,-329.7"/>
</a>
</g>
</g>
<!-- Node3 -->
<g id="Node000003" class="node">
<title>Node3</title>
<g id="a_Node000003"><a xlink:href="classFoam_1_1basic2TThermo.html" target="_top" xlink:title=" ">
<polygon fill="white" stroke="transparent" points="179,-1224 0,-1224 0,-635 179,-635 179,-1224"/>
<text text-anchor="start" x="35.5" y="-1211.5" font-family="Helvetica,sans-Serif" font-size="10.00">Foam::basic2TThermo</text>
<text text-anchor="start" x="4.5" y="-1196.5" font-family="Helvetica,sans-Serif" font-size="10.00">+</text>
<text text-anchor="start" x="17.5" y="-1196.5" font-family="Helvetica,sans-Serif" font-size="10.00">dictName</text>
<text text-anchor="start" x="4.5" y="-1181.5" font-family="Helvetica,sans-Serif" font-size="10.00">#</text>
<text text-anchor="start" x="17.5" y="-1181.5" font-family="Helvetica,sans-Serif" font-size="10.00">phaseName_</text>
<text text-anchor="start" x="4.5" y="-1166.5" font-family="Helvetica,sans-Serif" font-size="10.00">#</text>
<text text-anchor="start" x="17.5" y="-1166.5" font-family="Helvetica,sans-Serif" font-size="10.00">pOwner_</text>
<text text-anchor="start" x="4.5" y="-1151.5" font-family="Helvetica,sans-Serif" font-size="10.00">#</text>
<text text-anchor="start" x="17.5" y="-1151.5" font-family="Helvetica,sans-Serif" font-size="10.00">TOwnerTR_</text>
<text text-anchor="start" x="4.5" y="-1136.5" font-family="Helvetica,sans-Serif" font-size="10.00">#</text>
<text text-anchor="start" x="17.5" y="-1136.5" font-family="Helvetica,sans-Serif" font-size="10.00">TOwnerVib_</text>
<text text-anchor="start" x="4.5" y="-1121.5" font-family="Helvetica,sans-Serif" font-size="10.00">#</text>
<text text-anchor="start" x="17.5" y="-1121.5" font-family="Helvetica,sans-Serif" font-size="10.00">dpdt_</text>
<text text-anchor="start" x="4.5" y="-1106.5" font-family="Helvetica,sans-Serif" font-size="10.00">#</text>
<text text-anchor="start" x="17.5" y="-1106.5" font-family="Helvetica,sans-Serif" font-size="10.00">p_</text>
<text text-anchor="start" x="4.5" y="-1091.5" font-family="Helvetica,sans-Serif" font-size="10.00">#</text>
<text text-anchor="start" x="17.5" y="-1091.5" font-family="Helvetica,sans-Serif" font-size="10.00">TTR_</text>
<text text-anchor="start" x="4.5" y="-1076.5" font-family="Helvetica,sans-Serif" font-size="10.00">#</text>
<text text-anchor="start" x="17.5" y="-1076.5" font-family="Helvetica,sans-Serif" font-size="10.00">TVib_</text>
<text text-anchor="start" x="4.5" y="-1061.5" font-family="Helvetica,sans-Serif" font-size="10.00">#</text>
<text text-anchor="start" x="17.5" y="-1061.5" font-family="Helvetica,sans-Serif" font-size="10.00">alpha_</text>
<text text-anchor="start" x="4.5" y="-1046.5" font-family="Helvetica,sans-Serif" font-size="10.00">+</text>
<text text-anchor="start" x="17.5" y="-1046.5" font-family="Helvetica,sans-Serif" font-size="10.00">declareRunTimeSelectionTable()</text>
<text text-anchor="start" x="4.5" y="-1031.5" font-family="Helvetica,sans-Serif" font-size="10.00">+</text>
<text text-anchor="start" x="17.5" y="-1031.5" font-family="Helvetica,sans-Serif" font-size="10.00">declareRunTimeSelectionTable()</text>
<text text-anchor="start" x="4.5" y="-1016.5" font-family="Helvetica,sans-Serif" font-size="10.00">+</text>
<text text-anchor="start" x="17.5" y="-1016.5" font-family="Helvetica,sans-Serif" font-size="10.00">basic2TThermo()</text>
<text text-anchor="start" x="4.5" y="-1001.5" font-family="Helvetica,sans-Serif" font-size="10.00">+</text>
<text text-anchor="start" x="17.5" y="-1001.5" font-family="Helvetica,sans-Serif" font-size="10.00">basic2TThermo()</text>
<text text-anchor="start" x="4.5" y="-986.5" font-family="Helvetica,sans-Serif" font-size="10.00">+</text>
<text text-anchor="start" x="17.5" y="-986.5" font-family="Helvetica,sans-Serif" font-size="10.00">basic2TThermo()</text>
<text text-anchor="start" x="4.5" y="-971.5" font-family="Helvetica,sans-Serif" font-size="10.00">+</text>
<text text-anchor="start" x="17.5" y="-971.5" font-family="Helvetica,sans-Serif" font-size="10.00">~basic2TThermo()</text>
<text text-anchor="start" x="4.5" y="-956.5" font-family="Helvetica,sans-Serif" font-size="10.00">+</text>
<text text-anchor="start" x="17.5" y="-956.5" font-family="Helvetica,sans-Serif" font-size="10.00">phasePropertyName()</text>
<text text-anchor="start" x="4.5" y="-941.5" font-family="Helvetica,sans-Serif" font-size="10.00">+</text>
<text text-anchor="start" x="17.5" y="-941.5" font-family="Helvetica,sans-Serif" font-size="10.00">phaseScopedName()</text>
<text text-anchor="start" x="4.5" y="-926.5" font-family="Helvetica,sans-Serif" font-size="10.00">+</text>
<text text-anchor="start" x="17.5" y="-926.5" font-family="Helvetica,sans-Serif" font-size="10.00">validate()</text>
<text text-anchor="start" x="4.5" y="-911.5" font-family="Helvetica,sans-Serif" font-size="10.00">+</text>
<text text-anchor="start" x="17.5" y="-911.5" font-family="Helvetica,sans-Serif" font-size="10.00">validate()</text>
<text text-anchor="start" x="17.5" y="-896.5" font-family="Helvetica,sans-Serif" font-size="10.00">and 127 more...</text>
<text text-anchor="start" x="4.5" y="-881.5" font-family="Helvetica,sans-Serif" font-size="10.00">+</text>
<text text-anchor="start" x="17.5" y="-881.5" font-family="Helvetica,sans-Serif" font-size="10.00">New()</text>
<text text-anchor="start" x="4.5" y="-866.5" font-family="Helvetica,sans-Serif" font-size="10.00">+</text>
<text text-anchor="start" x="17.5" y="-866.5" font-family="Helvetica,sans-Serif" font-size="10.00">New()</text>
<text text-anchor="start" x="4.5" y="-851.5" font-family="Helvetica,sans-Serif" font-size="10.00">+</text>
<text text-anchor="start" x="17.5" y="-851.5" font-family="Helvetica,sans-Serif" font-size="10.00">New()</text>
<text text-anchor="start" x="4.5" y="-836.5" font-family="Helvetica,sans-Serif" font-size="10.00">+</text>
<text text-anchor="start" x="17.5" y="-836.5" font-family="Helvetica,sans-Serif" font-size="10.00">New()</text>
<text text-anchor="start" x="4.5" y="-821.5" font-family="Helvetica,sans-Serif" font-size="10.00">+</text>
<text text-anchor="start" x="17.5" y="-821.5" font-family="Helvetica,sans-Serif" font-size="10.00">phasePropertyName()</text>
<text text-anchor="start" x="4.5" y="-806.5" font-family="Helvetica,sans-Serif" font-size="10.00">+</text>
<text text-anchor="start" x="17.5" y="-806.5" font-family="Helvetica,sans-Serif" font-size="10.00">lookupThermo()</text>
<text text-anchor="start" x="4.5" y="-791.5" font-family="Helvetica,sans-Serif" font-size="10.00">+</text>
<text text-anchor="start" x="17.5" y="-791.5" font-family="Helvetica,sans-Serif" font-size="10.00">printThermoNames()</text>
<text text-anchor="start" x="4.5" y="-776.5" font-family="Helvetica,sans-Serif" font-size="10.00">+</text>
<text text-anchor="start" x="17.5" y="-776.5" font-family="Helvetica,sans-Serif" font-size="10.00">splitThermoName()</text>
<text text-anchor="start" x="4.5" y="-761.5" font-family="Helvetica,sans-Serif" font-size="10.00">+</text>
<text text-anchor="start" x="17.5" y="-761.5" font-family="Helvetica,sans-Serif" font-size="10.00">New()</text>
<text text-anchor="start" x="4.5" y="-746.5" font-family="Helvetica,sans-Serif" font-size="10.00">+</text>
<text text-anchor="start" x="17.5" y="-746.5" font-family="Helvetica,sans-Serif" font-size="10.00">New()</text>
<text text-anchor="start" x="17.5" y="-731.5" font-family="Helvetica,sans-Serif" font-size="10.00">and 6 more...</text>
<text text-anchor="start" x="4.5" y="-716.5" font-family="Helvetica,sans-Serif" font-size="10.00">#</text>
<text text-anchor="start" x="17.5" y="-716.5" font-family="Helvetica,sans-Serif" font-size="10.00">heBoundaryTypes()</text>
<text text-anchor="start" x="4.5" y="-701.5" font-family="Helvetica,sans-Serif" font-size="10.00">#</text>
<text text-anchor="start" x="17.5" y="-701.5" font-family="Helvetica,sans-Serif" font-size="10.00">heBoundaryBaseTypes()</text>
<text text-anchor="start" x="4.5" y="-686.5" font-family="Helvetica,sans-Serif" font-size="10.00">#</text>
<text text-anchor="start" x="17.5" y="-686.5" font-family="Helvetica,sans-Serif" font-size="10.00">basic2TThermo()</text>
<text text-anchor="start" x="4.5" y="-671.5" font-family="Helvetica,sans-Serif" font-size="10.00">#</text>
<text text-anchor="start" x="17.5" y="-671.5" font-family="Helvetica,sans-Serif" font-size="10.00">heBoundaryTypes()</text>
<text text-anchor="start" x="4.5" y="-656.5" font-family="Helvetica,sans-Serif" font-size="10.00">#</text>
<text text-anchor="start" x="17.5" y="-656.5" font-family="Helvetica,sans-Serif" font-size="10.00">heBoundaryBaseTypes()</text>
<text text-anchor="start" x="4.5" y="-641.5" font-family="Helvetica,sans-Serif" font-size="10.00">#</text>
<text text-anchor="start" x="17.5" y="-641.5" font-family="Helvetica,sans-Serif" font-size="10.00">basic2TThermo()</text>
<polygon fill="#666666" stroke="#666666" points="0.5,-1206.5 0.5,-1206.5 179.5,-1206.5 179.5,-1206.5 0.5,-1206.5"/>
<polygon fill="#666666" stroke="#666666" points="0.5,-1056.5 0.5,-1056.5 15.5,-1056.5 15.5,-1056.5 0.5,-1056.5"/>
<polygon fill="#666666" stroke="#666666" points="15.5,-1056.5 15.5,-1056.5 179.5,-1056.5 179.5,-1056.5 15.5,-1056.5"/>
<polygon fill="none" stroke="#666666" points="0,-635 0,-1224 179,-1224 179,-635 0,-635"/>
</a>
</g>
</g>
<!-- Node3&#45;&gt;Node2 -->
<g id="edge2_Node000002_Node000003" class="edge">
<title>Node3&#45;&gt;Node2</title>
<g id="a_edge2_Node000002_Node000003"><a xlink:title=" ">
<path fill="none" stroke="#63b8ff" d="M143.4,-624.92C145.22,-616.16 147.02,-607.57 148.79,-599.19"/>
<polygon fill="none" stroke="#63b8ff" points="139.94,-624.38 141.33,-634.88 146.79,-625.8 139.94,-624.38"/>
</a>
</g>
</g>
<!-- Node3&#45;&gt;Node2 -->
<g id="edge6_Node000002_Node000003" class="edge">
<title>Node3&#45;&gt;Node2</title>
<g id="a_edge6_Node000002_Node000003"><a xlink:title=" ">
<path fill="none" stroke="#63b8ff" d="M156.24,-624.92C157.9,-616.16 159.51,-607.57 161.07,-599.19"/>
<polygon fill="none" stroke="#63b8ff" points="152.78,-624.4 154.34,-634.88 159.65,-625.71 152.78,-624.4"/>
</a>
</g>
</g>
<!-- Node4 -->
<g id="Node000004" class="node">
<title>Node4</title>
<g id="a_Node000004"><a xlink:title=" ">
<polygon fill="white" stroke="transparent" points="124.5,-1309 54.5,-1309 54.5,-1260 124.5,-1260 124.5,-1309"/>
<text text-anchor="start" x="59.5" y="-1296.5" font-family="Helvetica,sans-Serif" font-size="10.00">IOdictionary</text>
<text text-anchor="start" x="87.5" y="-1281.5" font-family="Helvetica,sans-Serif" font-size="10.00"> </text>
<text text-anchor="start" x="87.5" y="-1266.5" font-family="Helvetica,sans-Serif" font-size="10.00"> </text>
<polygon fill="#666666" stroke="#666666" points="54.5,-1291.5 54.5,-1291.5 124.5,-1291.5 124.5,-1291.5 54.5,-1291.5"/>
<polygon fill="#666666" stroke="#666666" points="54.5,-1276.5 54.5,-1276.5 124.5,-1276.5 124.5,-1276.5 54.5,-1276.5"/>
<polygon fill="none" stroke="#666666" points="54.5,-1260 54.5,-1309 124.5,-1309 124.5,-1260 54.5,-1260"/>
</a>
</g>
</g>
<!-- Node4&#45;&gt;Node3 -->
<g id="edge3_Node000003_Node000004" class="edge">
<title>Node4&#45;&gt;Node3</title>
<g id="a_edge3_Node000003_Node000004"><a xlink:title=" ">
<path fill="none" stroke="#63b8ff" d="M85.32,-1249.57C84.94,-1242.08 84.6,-1233.57 84.3,-1224.26"/>
<polygon fill="none" stroke="#63b8ff" points="81.84,-1250.01 85.9,-1259.79 88.82,-1249.61 81.84,-1250.01"/>
</a>
</g>
</g>
<!-- Node4&#45;&gt;Node3 -->
<g id="edge4_Node000003_Node000004" class="edge">
<title>Node4&#45;&gt;Node3</title>
<g id="a_edge4_Node000003_Node000004"><a xlink:title=" ">
<path fill="none" stroke="#63b8ff" d="M93.68,-1249.57C94.06,-1242.08 94.4,-1233.57 94.7,-1224.26"/>
<polygon fill="none" stroke="#63b8ff" points="90.18,-1249.61 93.1,-1259.79 97.16,-1250.01 90.18,-1249.61"/>
</a>
</g>
</g>
<!-- Node5 -->
<g id="Node000005" class="node">
<title>Node5</title>
<g id="a_Node000005"><a xlink:title=" ">
<polygon fill="white" stroke="transparent" points="348,-954 197,-954 197,-905 348,-905 348,-954"/>
<text text-anchor="start" x="202.5" y="-941.5" font-family="Helvetica,sans-Serif" font-size="10.00">compressibleTransportModel</text>
<text text-anchor="start" x="271" y="-926.5" font-family="Helvetica,sans-Serif" font-size="10.00"> </text>
<text text-anchor="start" x="271" y="-911.5" font-family="Helvetica,sans-Serif" font-size="10.00"> </text>
<polygon fill="#666666" stroke="#666666" points="197.5,-936.5 197.5,-936.5 348.5,-936.5 348.5,-936.5 197.5,-936.5"/>
<polygon fill="#666666" stroke="#666666" points="197.5,-921.5 197.5,-921.5 348.5,-921.5 348.5,-921.5 197.5,-921.5"/>
<polygon fill="none" stroke="#666666" points="197,-905 197,-954 348,-954 348,-905 197,-905"/>
</a>
</g>
</g>
<!-- Node5&#45;&gt;Node2 -->
<g id="edge5_Node000002_Node000005" class="edge">
<title>Node5&#45;&gt;Node2</title>
<g id="a_edge5_Node000002_Node000005"><a xlink:title=" ">
<path fill="none" stroke="#63b8ff" d="M262.02,-894.93C246.77,-833.52 219.18,-700.16 200.22,-599.21"/>
<polygon fill="none" stroke="#63b8ff" points="258.69,-896.01 264.54,-904.84 265.47,-894.29 258.69,-896.01"/>
</a>
</g>
</g>
<!-- Node5&#45;&gt;Node2 -->
<g id="edge7_Node000002_Node000005" class="edge">
<title>Node5&#45;&gt;Node2</title>
<g id="a_edge7_Node000002_Node000005"><a xlink:title=" ">
<path fill="none" stroke="#63b8ff" d="M269.49,-894.93C260.07,-833.52 234.09,-700.16 212.49,-599.21"/>
<polygon fill="none" stroke="#63b8ff" points="266.03,-895.46 270.95,-904.84 272.95,-894.44 266.03,-895.46"/>
</a>
</g>
</g>
</g>
</svg>
