<?xml version="1.0" encoding="UTF-8" standalone="no"?>
<!DOCTYPE svg PUBLIC "-//W3C//DTD SVG 1.1//EN"
 "http://www.w3.org/Graphics/SVG/1.1/DTD/svg11.dtd">
<!-- Generated by graphviz version 2.43.0 (0)
 -->
<!-- Title: Foam::basic2TThermo Pages: 1 -->
<svg width="187pt" height="682pt"
 viewBox="0.00 0.00 187.00 682.00" xmlns="http://www.w3.org/2000/svg" xmlns:xlink="http://www.w3.org/1999/xlink">
<g id="graph0" class="graph" transform="scale(1 1) rotate(0) translate(4 678)">
<title>Foam::basic2TThermo</title>
<!-- Node1 -->
<g id="Node000001" class="node">
<title>Node1</title>
<g id="a_Node000001"><a xlink:title=" ">
<polygon fill="#999999" stroke="transparent" points="179,-589 0,-589 0,0 179,0 179,-589"/>
<text text-anchor="start" x="35.5" y="-576.5" font-family="Helvetica,sans-Serif" font-size="10.00">Foam::basic2TThermo</text>
<text text-anchor="start" x="4.5" y="-561.5" font-family="Helvetica,sans-Serif" font-size="10.00">+</text>
<text text-anchor="start" x="17.5" y="-561.5" font-family="Helvetica,sans-Serif" font-size="10.00">dictName</text>
<text text-anchor="start" x="4.5" y="-546.5" font-family="Helvetica,sans-Serif" font-size="10.00">#</text>
<text text-anchor="start" x="17.5" y="-546.5" font-family="Helvetica,sans-Serif" font-size="10.00">phaseName_</text>
<text text-anchor="start" x="4.5" y="-531.5" font-family="Helvetica,sans-Serif" font-size="10.00">#</text>
<text text-anchor="start" x="17.5" y="-531.5" font-family="Helvetica,sans-Serif" font-size="10.00">pOwner_</text>
<text text-anchor="start" x="4.5" y="-516.5" font-family="Helvetica,sans-Serif" font-size="10.00">#</text>
<text text-anchor="start" x="17.5" y="-516.5" font-family="Helvetica,sans-Serif" font-size="10.00">TOwnerTR_</text>
<text text-anchor="start" x="4.5" y="-501.5" font-family="Helvetica,sans-Serif" font-size="10.00">#</text>
<text text-anchor="start" x="17.5" y="-501.5" font-family="Helvetica,sans-Serif" font-size="10.00">TOwnerVib_</text>
<text text-anchor="start" x="4.5" y="-486.5" font-family="Helvetica,sans-Serif" font-size="10.00">#</text>
<text text-anchor="start" x="17.5" y="-486.5" font-family="Helvetica,sans-Serif" font-size="10.00">dpdt_</text>
<text text-anchor="start" x="4.5" y="-471.5" font-family="Helvetica,sans-Serif" font-size="10.00">#</text>
<text text-anchor="start" x="17.5" y="-471.5" font-family="Helvetica,sans-Serif" font-size="10.00">p_</text>
<text text-anchor="start" x="4.5" y="-456.5" font-family="Helvetica,sans-Serif" font-size="10.00">#</text>
<text text-anchor="start" x="17.5" y="-456.5" font-family="Helvetica,sans-Serif" font-size="10.00">TTR_</text>
<text text-anchor="start" x="4.5" y="-441.5" font-family="Helvetica,sans-Serif" font-size="10.00">#</text>
<text text-anchor="start" x="17.5" y="-441.5" font-family="Helvetica,sans-Serif" font-size="10.00">TVib_</text>
<text text-anchor="start" x="4.5" y="-426.5" font-family="Helvetica,sans-Serif" font-size="10.00">#</text>
<text text-anchor="start" x="17.5" y="-426.5" font-family="Helvetica,sans-Serif" font-size="10.00">alpha_</text>
<text text-anchor="start" x="4.5" y="-411.5" font-family="Helvetica,sans-Serif" font-size="10.00">+</text>
<text text-anchor="start" x="17.5" y="-411.5" font-family="Helvetica,sans-Serif" font-size="10.00">declareRunTimeSelectionTable()</text>
<text text-anchor="start" x="4.5" y="-396.5" font-family="Helvetica,sans-Serif" font-size="10.00">+</text>
<text text-anchor="start" x="17.5" y="-396.5" font-family="Helvetica,sans-Serif" font-size="10.00">declareRunTimeSelectionTable()</text>
<text text-anchor="start" x="4.5" y="-381.5" font-family="Helvetica,sans-Serif" font-size="10.00">+</text>
<text text-anchor="start" x="17.5" y="-381.5" font-family="Helvetica,sans-Serif" font-size="10.00">basic2TThermo()</text>
<text text-anchor="start" x="4.5" y="-366.5" font-family="Helvetica,sans-Serif" font-size="10.00">+</text>
<text text-anchor="start" x="17.5" y="-366.5" font-family="Helvetica,sans-Serif" font-size="10.00">basic2TThermo()</text>
<text text-anchor="start" x="4.5" y="-351.5" font-family="Helvetica,sans-Serif" font-size="10.00">+</text>
<text text-anchor="start" x="17.5" y="-351.5" font-family="Helvetica,sans-Serif" font-size="10.00">basic2TThermo()</text>
<text text-anchor="start" x="4.5" y="-336.5" font-family="Helvetica,sans-Serif" font-size="10.00">+</text>
<text text-anchor="start" x="17.5" y="-336.5" font-family="Helvetica,sans-Serif" font-size="10.00">~basic2TThermo()</text>
<text text-anchor="start" x="4.5" y="-321.5" font-family="Helvetica,sans-Serif" font-size="10.00">+</text>
<text text-anchor="start" x="17.5" y="-321.5" font-family="Helvetica,sans-Serif" font-size="10.00">phasePropertyName()</text>
<text text-anchor="start" x="4.5" y="-306.5" font-family="Helvetica,sans-Serif" font-size="10.00">+</text>
<text text-anchor="start" x="17.5" y="-306.5" font-family="Helvetica,sans-Serif" font-size="10.00">phaseScopedName()</text>
<text text-anchor="start" x="4.5" y="-291.5" font-family="Helvetica,sans-Serif" font-size="10.00">+</text>
<text text-anchor="start" x="17.5" y="-291.5" font-family="Helvetica,sans-Serif" font-size="10.00">validate()</text>
<text text-anchor="start" x="4.5" y="-276.5" font-family="Helvetica,sans-Serif" font-size="10.00">+</text>
<text text-anchor="start" x="17.5" y="-276.5" font-family="Helvetica,sans-Serif" font-size="10.00">validate()</text>
<text text-anchor="start" x="17.5" y="-261.5" font-family="Helvetica,sans-Serif" font-size="10.00">and 127 more...</text>
<text text-anchor="start" x="4.5" y="-246.5" font-family="Helvetica,sans-Serif" font-size="10.00">+</text>
<text text-anchor="start" x="17.5" y="-246.5" font-family="Helvetica,sans-Serif" font-size="10.00">New()</text>
<text text-anchor="start" x="4.5" y="-231.5" font-family="Helvetica,sans-Serif" font-size="10.00">+</text>
<text text-anchor="start" x="17.5" y="-231.5" font-family="Helvetica,sans-Serif" font-size="10.00">New()</text>
<text text-anchor="start" x="4.5" y="-216.5" font-family="Helvetica,sans-Serif" font-size="10.00">+</text>
<text text-anchor="start" x="17.5" y="-216.5" font-family="Helvetica,sans-Serif" font-size="10.00">New()</text>
<text text-anchor="start" x="4.5" y="-201.5" font-family="Helvetica,sans-Serif" font-size="10.00">+</text>
<text text-anchor="start" x="17.5" y="-201.5" font-family="Helvetica,sans-Serif" font-size="10.00">New()</text>
<text text-anchor="start" x="4.5" y="-186.5" font-family="Helvetica,sans-Serif" font-size="10.00">+</text>
<text text-anchor="start" x="17.5" y="-186.5" font-family="Helvetica,sans-Serif" font-size="10.00">phasePropertyName()</text>
<text text-anchor="start" x="4.5" y="-171.5" font-family="Helvetica,sans-Serif" font-size="10.00">+</text>
<text text-anchor="start" x="17.5" y="-171.5" font-family="Helvetica,sans-Serif" font-size="10.00">lookupThermo()</text>
<text text-anchor="start" x="4.5" y="-156.5" font-family="Helvetica,sans-Serif" font-size="10.00">+</text>
<text text-anchor="start" x="17.5" y="-156.5" font-family="Helvetica,sans-Serif" font-size="10.00">printThermoNames()</text>
<text text-anchor="start" x="4.5" y="-141.5" font-family="Helvetica,sans-Serif" font-size="10.00">+</text>
<text text-anchor="start" x="17.5" y="-141.5" font-family="Helvetica,sans-Serif" font-size="10.00">splitThermoName()</text>
<text text-anchor="start" x="4.5" y="-126.5" font-family="Helvetica,sans-Serif" font-size="10.00">+</text>
<text text-anchor="start" x="17.5" y="-126.5" font-family="Helvetica,sans-Serif" font-size="10.00">New()</text>
<text text-anchor="start" x="4.5" y="-111.5" font-family="Helvetica,sans-Serif" font-size="10.00">+</text>
<text text-anchor="start" x="17.5" y="-111.5" font-family="Helvetica,sans-Serif" font-size="10.00">New()</text>
<text text-anchor="start" x="17.5" y="-96.5" font-family="Helvetica,sans-Serif" font-size="10.00">and 6 more...</text>
<text text-anchor="start" x="4.5" y="-81.5" font-family="Helvetica,sans-Serif" font-size="10.00">#</text>
<text text-anchor="start" x="17.5" y="-81.5" font-family="Helvetica,sans-Serif" font-size="10.00">heBoundaryTypes()</text>
<text text-anchor="start" x="4.5" y="-66.5" font-family="Helvetica,sans-Serif" font-size="10.00">#</text>
<text text-anchor="start" x="17.5" y="-66.5" font-family="Helvetica,sans-Serif" font-size="10.00">heBoundaryBaseTypes()</text>
<text text-anchor="start" x="4.5" y="-51.5" font-family="Helvetica,sans-Serif" font-size="10.00">#</text>
<text text-anchor="start" x="17.5" y="-51.5" font-family="Helvetica,sans-Serif" font-size="10.00">basic2TThermo()</text>
<text text-anchor="start" x="4.5" y="-36.5" font-family="Helvetica,sans-Serif" font-size="10.00">#</text>
<text text-anchor="start" x="17.5" y="-36.5" font-family="Helvetica,sans-Serif" font-size="10.00">heBoundaryTypes()</text>
<text text-anchor="start" x="4.5" y="-21.5" font-family="Helvetica,sans-Serif" font-size="10.00">#</text>
<text text-anchor="start" x="17.5" y="-21.5" font-family="Helvetica,sans-Serif" font-size="10.00">heBoundaryBaseTypes()</text>
<text text-anchor="start" x="4.5" y="-6.5" font-family="Helvetica,sans-Serif" font-size="10.00">#</text>
<text text-anchor="start" x="17.5" y="-6.5" font-family="Helvetica,sans-Serif" font-size="10.00">basic2TThermo()</text>
<polygon fill="#666666" stroke="#666666" points="0.5,-571.5 0.5,-571.5 179.5,-571.5 179.5,-571.5 0.5,-571.5"/>
<polygon fill="#666666" stroke="#666666" points="0.5,-421.5 0.5,-421.5 15.5,-421.5 15.5,-421.5 0.5,-421.5"/>
<polygon fill="#666666" stroke="#666666" points="15.5,-421.5 15.5,-421.5 179.5,-421.5 179.5,-421.5 15.5,-421.5"/>
<polygon fill="none" stroke="#666666" points="0,0 0,-589 179,-589 179,0 0,0"/>
</a>
</g>
</g>
<!-- Node2 -->
<g id="Node000002" class="node">
<title>Node2</title>
<g id="a_Node000002"><a xlink:title=" ">
<polygon fill="white" stroke="transparent" points="124.5,-674 54.5,-674 54.5,-625 124.5,-625 124.5,-674"/>
<text text-anchor="start" x="59.5" y="-661.5" font-family="Helvetica,sans-Serif" font-size="10.00">IOdictionary</text>
<text text-anchor="start" x="87.5" y="-646.5" font-family="Helvetica,sans-Serif" font-size="10.00"> </text>
<text text-anchor="start" x="87.5" y="-631.5" font-family="Helvetica,sans-Serif" font-size="10.00"> </text>
<polygon fill="#666666" stroke="#666666" points="54.5,-656.5 54.5,-656.5 124.5,-656.5 124.5,-656.5 54.5,-656.5"/>
<polygon fill="#666666" stroke="#666666" points="54.5,-641.5 54.5,-641.5 124.5,-641.5 124.5,-641.5 54.5,-641.5"/>
<polygon fill="none" stroke="#666666" points="54.5,-625 54.5,-674 124.5,-674 124.5,-625 54.5,-625"/>
</a>
</g>
</g>
<!-- Node2&#45;&gt;Node1 -->
<g id="edge1_Node000001_Node000002" class="edge">
<title>Node2&#45;&gt;Node1</title>
<g id="a_edge1_Node000001_Node000002"><a xlink:title=" ">
<path fill="none" stroke="#63b8ff" d="M85.32,-614.57C84.94,-607.08 84.6,-598.57 84.3,-589.26"/>
<polygon fill="none" stroke="#63b8ff" points="81.84,-615.01 85.9,-624.79 88.82,-614.61 81.84,-615.01"/>
</a>
</g>
</g>
<!-- Node2&#45;&gt;Node1 -->
<g id="edge2_Node000001_Node000002" class="edge">
<title>Node2&#45;&gt;Node1</title>
<g id="a_edge2_Node000001_Node000002"><a xlink:title=" ">
<path fill="none" stroke="#63b8ff" d="M93.68,-614.57C94.06,-607.08 94.4,-598.57 94.7,-589.26"/>
<polygon fill="none" stroke="#63b8ff" points="90.18,-614.61 93.1,-624.79 97.16,-615.01 90.18,-614.61"/>
</a>
</g>
</g>
</g>
</svg>
