<?xml version="1.0" encoding="UTF-8" standalone="no"?>
<!DOCTYPE svg PUBLIC "-//W3C//DTD SVG 1.1//EN"
 "http://www.w3.org/Graphics/SVG/1.1/DTD/svg11.dtd">
<!-- Generated by graphviz version 2.43.0 (0)
 -->
<!-- Title: Foam::he2TThermo&lt; Basic2TThermo, MixtureType &gt; Pages: 1 -->
<svg width="184pt" height="333pt"
 viewBox="0.00 0.00 183.50 333.00" xmlns="http://www.w3.org/2000/svg" xmlns:xlink="http://www.w3.org/1999/xlink">

<svg id="main" version="1.1" xmlns="http://www.w3.org/2000/svg" xmlns:xlink="http://www.w3.org/1999/xlink" xml:space="preserve" onload="init(evt)">
<style type="text/css"><![CDATA[
.node, .edge {opacity: 0.7;}
.node.selected, .edge.selected {opacity: 1;}
.edge:hover path { stroke: red; }
.edge:hover polygon { stroke: red; fill: red; }
]]></style>
<script type="application/ecmascript" xlink:href="svg.min.js"/>
<svg id="graph" class="graph">
<g id="graph0" class="graph" transform="scale(1 1) rotate(0) translate(4 329)">
<title>Foam::he2TThermo&lt; Basic2TThermo, MixtureType &gt;</title>
<!-- Node1 -->
<g id="Node000001" class="node">
<title>Node1</title>
<g id="a_Node000001"><a xlink:title=" ">
<polygon fill="#999999" stroke="transparent" points="165.5,-240 16.5,-240 16.5,0 165.5,0 165.5,-240"/>
<text text-anchor="start" x="22" y="-228" font-family="Helvetica,sans-Serif" font-size="10.00">Foam::he2TThermo&lt; Basic2</text>
<text text-anchor="start" x="31" y="-217" font-family="Helvetica,sans-Serif" font-size="10.00">TThermo, MixtureType &gt;</text>
<text text-anchor="start" x="23.5" y="-202" font-family="Helvetica,sans-Serif" font-size="10.00">#</text>
<text text-anchor="start" x="39" y="-202" font-family="Helvetica,sans-Serif" font-size="10.00">he_</text>
<text text-anchor="start" x="23.5" y="-187" font-family="Helvetica,sans-Serif" font-size="10.00">+</text>
<text text-anchor="start" x="39" y="-187" font-family="Helvetica,sans-Serif" font-size="10.00">he2TThermo()</text>
<text text-anchor="start" x="23.5" y="-172" font-family="Helvetica,sans-Serif" font-size="10.00">+</text>
<text text-anchor="start" x="39" y="-172" font-family="Helvetica,sans-Serif" font-size="10.00">he2TThermo()</text>
<text text-anchor="start" x="23.5" y="-157" font-family="Helvetica,sans-Serif" font-size="10.00">+</text>
<text text-anchor="start" x="39" y="-157" font-family="Helvetica,sans-Serif" font-size="10.00">he2TThermo()</text>
<text text-anchor="start" x="23.5" y="-142" font-family="Helvetica,sans-Serif" font-size="10.00">+</text>
<text text-anchor="start" x="39" y="-142" font-family="Helvetica,sans-Serif" font-size="10.00">~he2TThermo()</text>
<text text-anchor="start" x="23.5" y="-127" font-family="Helvetica,sans-Serif" font-size="10.00">+</text>
<text text-anchor="start" x="39" y="-127" font-family="Helvetica,sans-Serif" font-size="10.00">composition()</text>
<text text-anchor="start" x="23.5" y="-112" font-family="Helvetica,sans-Serif" font-size="10.00">+</text>
<text text-anchor="start" x="39" y="-112" font-family="Helvetica,sans-Serif" font-size="10.00">composition()</text>
<text text-anchor="start" x="23.5" y="-97" font-family="Helvetica,sans-Serif" font-size="10.00">+</text>
<text text-anchor="start" x="39" y="-97" font-family="Helvetica,sans-Serif" font-size="10.00">thermoName()</text>
<text text-anchor="start" x="23.5" y="-82" font-family="Helvetica,sans-Serif" font-size="10.00">+</text>
<text text-anchor="start" x="39" y="-82" font-family="Helvetica,sans-Serif" font-size="10.00">incompressible()</text>
<text text-anchor="start" x="23.5" y="-67" font-family="Helvetica,sans-Serif" font-size="10.00">+</text>
<text text-anchor="start" x="39" y="-67" font-family="Helvetica,sans-Serif" font-size="10.00">isochoric()</text>
<text text-anchor="start" x="23.5" y="-52" font-family="Helvetica,sans-Serif" font-size="10.00">+</text>
<text text-anchor="start" x="39" y="-52" font-family="Helvetica,sans-Serif" font-size="10.00">he()</text>
<text text-anchor="start" x="39" y="-37" font-family="Helvetica,sans-Serif" font-size="10.00">and 84 more...</text>
<text text-anchor="start" x="23.5" y="-22" font-family="Helvetica,sans-Serif" font-size="10.00">#</text>
<text text-anchor="start" x="39" y="-22" font-family="Helvetica,sans-Serif" font-size="10.00">heBoundaryCorrection()</text>
<text text-anchor="start" x="23.5" y="-7" font-family="Helvetica,sans-Serif" font-size="10.00">#</text>
<text text-anchor="start" x="39" y="-7" font-family="Helvetica,sans-Serif" font-size="10.00">heBoundaryCorrection()</text>
<polygon fill="#666666" stroke="#666666" points="17,-212 17,-212 166,-212 166,-212 17,-212"/>
<polygon fill="#666666" stroke="#666666" points="17,-197 17,-197 37,-197 37,-197 17,-197"/>
<polygon fill="#666666" stroke="#666666" points="37,-197 37,-197 166,-197 166,-197 37,-197"/>
<polygon fill="none" stroke="#666666" points="16.5,0 16.5,-240 165.5,-240 165.5,0 16.5,0"/>
</a>
</g>
</g>
<!-- Node2 -->
<g id="Node000002" class="node">
<title>Node2</title>
<g id="a_Node000002"><a xlink:title=" ">
<polygon fill="white" stroke="transparent" points="86,-325 0,-325 0,-276 86,-276 86,-325"/>
<text text-anchor="start" x="5" y="-312.5" font-family="Helvetica,sans-Serif" font-size="10.00">Basic2TThermo</text>
<text text-anchor="start" x="41" y="-297.5" font-family="Helvetica,sans-Serif" font-size="10.00"> </text>
<text text-anchor="start" x="41" y="-282.5" font-family="Helvetica,sans-Serif" font-size="10.00"> </text>
<polygon fill="#666666" stroke="#666666" points="0,-307.5 0,-307.5 86,-307.5 86,-307.5 0,-307.5"/>
<polygon fill="#666666" stroke="#666666" points="0,-292.5 0,-292.5 86,-292.5 86,-292.5 0,-292.5"/>
<polygon fill="none" stroke="#666666" points="0,-276 0,-325 86,-325 86,-276 0,-276"/>
</a>
</g>
</g>
<!-- Node2&#45;&gt;Node1 -->
<g id="edge1_Node000001_Node000002" class="edge">
<title>Node2&#45;&gt;Node1</title>
<g id="a_edge1_Node000001_Node000002"><a xlink:title=" ">
<path fill="none" stroke="#63b8ff" d="M46.65,-265.79C48.31,-258 50.33,-249.27 52.58,-240.06"/>
<polygon fill="none" stroke="#63b8ff" points="43.17,-265.3 44.61,-275.8 50.03,-266.69 43.17,-265.3"/>
</a>
</g>
</g>
<!-- Node2&#45;&gt;Node1 -->
<g id="edge3_Node000001_Node000002" class="edge">
<title>Node2&#45;&gt;Node1</title>
<g id="a_edge3_Node000001_Node000002"><a xlink:title=" ">
<path fill="none" stroke="#63b8ff" d="M57.4,-266.06C59.95,-258.2 62.66,-249.37 65.39,-240.06"/>
<polygon fill="none" stroke="#63b8ff" points="53.99,-265.2 54.13,-275.8 60.63,-267.43 53.99,-265.2"/>
</a>
</g>
</g>
<!-- Node3 -->
<g id="Node000003" class="node">
<title>Node3</title>
<g id="a_Node000003"><a xlink:title=" ">
<polygon fill="white" stroke="transparent" points="175.5,-325 104.5,-325 104.5,-276 175.5,-276 175.5,-325"/>
<text text-anchor="start" x="110" y="-312.5" font-family="Helvetica,sans-Serif" font-size="10.00">MixtureType</text>
<text text-anchor="start" x="138.5" y="-297.5" font-family="Helvetica,sans-Serif" font-size="10.00"> </text>
<text text-anchor="start" x="138.5" y="-282.5" font-family="Helvetica,sans-Serif" font-size="10.00"> </text>
<polygon fill="#666666" stroke="#666666" points="105,-307.5 105,-307.5 176,-307.5 176,-307.5 105,-307.5"/>
<polygon fill="#666666" stroke="#666666" points="105,-292.5 105,-292.5 176,-292.5 176,-292.5 105,-292.5"/>
<polygon fill="none" stroke="#666666" points="104.5,-276 104.5,-325 175.5,-325 175.5,-276 104.5,-276"/>
</a>
</g>
</g>
<!-- Node3&#45;&gt;Node1 -->
<g id="edge2_Node000001_Node000003" class="edge">
<title>Node3&#45;&gt;Node1</title>
<g id="a_edge2_Node000001_Node000003"><a xlink:title=" ">
<path fill="none" stroke="#63b8ff" d="M125.5,-266.32C122.88,-258.4 120.09,-249.48 117.28,-240.06"/>
<polygon fill="none" stroke="#63b8ff" points="122.19,-267.46 128.73,-275.8 128.82,-265.2 122.19,-267.46"/>
</a>
</g>
</g>
<!-- Node3&#45;&gt;Node1 -->
<g id="edge4_Node000001_Node000003" class="edge">
<title>Node3&#45;&gt;Node1</title>
<g id="a_edge4_Node000001_Node000003"><a xlink:title=" ">
<path fill="none" stroke="#63b8ff" d="M136.17,-265.79C134.46,-258 132.39,-249.27 130.09,-240.06"/>
<polygon fill="none" stroke="#63b8ff" points="132.78,-266.72 138.25,-275.8 139.64,-265.29 132.78,-266.72"/>
</a>
</g>
</g>
</g>
</svg>
</svg>

<style type='text/css'>
<![CDATA[
[data-mouse-over-selected='false'] { opacity: 0.7; }
[data-mouse-over-selected='true']  { opacity: 1.0; }
]]>
</style>
<script type="application/ecmascript"><![CDATA[
document.addEventListener('DOMContentLoaded', (event) => {
  highlightEdges();
  highlightAdjacentNodes();
});
]]></script>
</svg>
