<?xml version="1.0" encoding="UTF-8" standalone="no"?>
<!DOCTYPE svg PUBLIC "-//W3C//DTD SVG 1.1//EN"
 "http://www.w3.org/Graphics/SVG/1.1/DTD/svg11.dtd">
<!-- Generated by graphviz version 2.43.0 (0)
 -->
<!-- Title: thermoPhysics2TTypes.H Pages: 1 -->
<svg width="1679pt" height="82pt"
 viewBox="0.00 0.00 1679.00 82.00" xmlns="http://www.w3.org/2000/svg" xmlns:xlink="http://www.w3.org/1999/xlink">
<g id="graph0" class="graph" transform="scale(1 1) rotate(0) translate(4 78)">
<title>thermoPhysics2TTypes.H</title>
<!-- Node1 -->
<g id="Node000001" class="node">
<title>Node1</title>
<g id="a_Node000001"><a xlink:title=" ">
<polygon fill="#999999" stroke="#666666" points="885,-74 746,-74 746,-55 885,-55 885,-74"/>
<text text-anchor="middle" x="815.5" y="-62" font-family="Helvetica,sans-Serif" font-size="10.00">thermoPhysics2TTypes.H</text>
</a>
</g>
</g>
<!-- Node2 -->
<g id="Node000002" class="node">
<title>Node2</title>
<g id="a_Node000002"><a xlink:title=" ">
<polygon fill="#e0e0e0" stroke="#999999" points="59,-19 0,-19 0,0 59,0 59,-19"/>
<text text-anchor="middle" x="29.5" y="-7" font-family="Helvetica,sans-Serif" font-size="10.00">specie.H</text>
</a>
</g>
</g>
<!-- Node1&#45;&gt;Node2 -->
<g id="edge1_Node000001_Node000002" class="edge">
<title>Node1&#45;&gt;Node2</title>
<g id="a_edge1_Node000001_Node000002"><a xlink:title=" ">
<path fill="none" stroke="#63b8ff" d="M745.89,-62.95C615.14,-61.13 323.9,-53.35 69.41,-18.87"/>
<polygon fill="#63b8ff" stroke="#63b8ff" points="69.61,-15.37 59.23,-17.48 68.66,-22.3 69.61,-15.37"/>
</a>
</g>
</g>
<!-- Node3 -->
<g id="Node000003" class="node">
<title>Node3</title>
<g id="a_Node000003"><a xlink:title=" ">
<polygon fill="#e0e0e0" stroke="#999999" points="157.5,-19 77.5,-19 77.5,0 157.5,0 157.5,-19"/>
<text text-anchor="middle" x="117.5" y="-7" font-family="Helvetica,sans-Serif" font-size="10.00">perfectGas.H</text>
</a>
</g>
</g>
<!-- Node1&#45;&gt;Node3 -->
<g id="edge2_Node000001_Node000003" class="edge">
<title>Node1&#45;&gt;Node3</title>
<g id="a_edge2_Node000001_Node000003"><a xlink:title=" ">
<path fill="none" stroke="#63b8ff" d="M745.65,-61.08C628.29,-56.49 383.99,-44.7 167.52,-18.99"/>
<polygon fill="#63b8ff" stroke="#63b8ff" points="167.91,-15.51 157.56,-17.8 167.07,-22.46 167.91,-15.51"/>
</a>
</g>
</g>
<!-- Node4 -->
<g id="Node000004" class="node">
<title>Node4</title>
<g id="a_Node000004"><a xlink:title=" ">
<polygon fill="#e0e0e0" stroke="#999999" points="291,-19 176,-19 176,0 291,0 291,-19"/>
<text text-anchor="middle" x="233.5" y="-7" font-family="Helvetica,sans-Serif" font-size="10.00">PengRobinsonGas.H</text>
</a>
</g>
</g>
<!-- Node1&#45;&gt;Node4 -->
<g id="edge3_Node000001_Node000004" class="edge">
<title>Node1&#45;&gt;Node4</title>
<g id="a_edge3_Node000001_Node000004"><a xlink:title=" ">
<path fill="none" stroke="#63b8ff" d="M745.72,-58.42C648.5,-51.13 466.52,-36.73 301.42,-19.17"/>
<polygon fill="#63b8ff" stroke="#63b8ff" points="301.39,-15.64 291.08,-18.06 300.65,-22.6 301.39,-15.64"/>
</a>
</g>
</g>
<!-- Node5 -->
<g id="Node000005" class="node">
<title>Node5</title>
<g id="a_Node000005"><a xlink:title=" ">
<polygon fill="#e0e0e0" stroke="#999999" points="464,-19 309,-19 309,0 464,0 464,-19"/>
<text text-anchor="middle" x="386.5" y="-7" font-family="Helvetica,sans-Serif" font-size="10.00">incompressiblePerfectGas.H</text>
</a>
</g>
</g>
<!-- Node1&#45;&gt;Node5 -->
<g id="edge4_Node000001_Node000005" class="edge">
<title>Node1&#45;&gt;Node5</title>
<g id="a_edge4_Node000001_Node000005"><a xlink:title=" ">
<path fill="none" stroke="#63b8ff" d="M746.57,-54.98C669.91,-45.51 546.29,-30.24 465.71,-20.29"/>
<polygon fill="#63b8ff" stroke="#63b8ff" points="465.96,-16.79 455.61,-19.04 465.11,-23.74 465.96,-16.79"/>
</a>
</g>
</g>
<!-- Node6 -->
<g id="Node000006" class="node">
<title>Node6</title>
<g id="a_Node000006"><a xlink:title=" ">
<polygon fill="#e0e0e0" stroke="#999999" points="568.5,-19 482.5,-19 482.5,0 568.5,0 568.5,-19"/>
<text text-anchor="middle" x="525.5" y="-7" font-family="Helvetica,sans-Serif" font-size="10.00">rPolynomial.H</text>
</a>
</g>
</g>
<!-- Node1&#45;&gt;Node6 -->
<g id="edge5_Node000001_Node000006" class="edge">
<title>Node1&#45;&gt;Node6</title>
<g id="a_edge5_Node000001_Node000006"><a xlink:title=" ">
<path fill="none" stroke="#63b8ff" d="M768.91,-54.98C717.01,-45.5 633.28,-30.2 578.81,-20.24"/>
<polygon fill="#63b8ff" stroke="#63b8ff" points="579.13,-16.74 568.66,-18.39 577.87,-23.63 579.13,-16.74"/>
</a>
</g>
</g>
<!-- Node7 -->
<g id="Node000007" class="node">
<title>Node7</title>
<g id="a_Node000007"><a xlink:title=" ">
<polygon fill="#e0e0e0" stroke="#999999" points="672.5,-19 586.5,-19 586.5,0 672.5,0 672.5,-19"/>
<text text-anchor="middle" x="629.5" y="-7" font-family="Helvetica,sans-Serif" font-size="10.00">perfectFluid.H</text>
</a>
</g>
</g>
<!-- Node1&#45;&gt;Node7 -->
<g id="edge6_Node000001_Node000007" class="edge">
<title>Node1&#45;&gt;Node7</title>
<g id="a_edge6_Node000001_Node000007"><a xlink:title=" ">
<path fill="none" stroke="#63b8ff" d="M785.62,-54.98C754.12,-46.01 704.33,-31.82 669.47,-21.89"/>
<polygon fill="#63b8ff" stroke="#63b8ff" points="670.19,-18.46 659.62,-19.08 668.28,-25.19 670.19,-18.46"/>
</a>
</g>
</g>
<!-- Node8 -->
<g id="Node000008" class="node">
<title>Node8</title>
<g id="a_Node000008"><a xlink:title=" ">
<polygon fill="#e0e0e0" stroke="#999999" points="822,-19 691,-19 691,0 822,0 822,-19"/>
<text text-anchor="middle" x="756.5" y="-7" font-family="Helvetica,sans-Serif" font-size="10.00">adiabaticPerfectFluid.H</text>
</a>
</g>
</g>
<!-- Node1&#45;&gt;Node8 -->
<g id="edge7_Node000001_Node000008" class="edge">
<title>Node1&#45;&gt;Node8</title>
<g id="a_edge7_Node000001_Node000008"><a xlink:title=" ">
<path fill="none" stroke="#63b8ff" d="M806.02,-54.98C797.3,-47.15 784.16,-35.34 773.6,-25.86"/>
<polygon fill="#63b8ff" stroke="#63b8ff" points="775.93,-23.25 766.15,-19.17 771.25,-28.46 775.93,-23.25"/>
</a>
</g>
</g>
<!-- Node9 -->
<g id="Node000009" class="node">
<title>Node9</title>
<g id="a_Node000009"><a xlink:title=" ">
<polygon fill="#e0e0e0" stroke="#999999" points="911,-19 840,-19 840,0 911,0 911,-19"/>
<text text-anchor="middle" x="875.5" y="-7" font-family="Helvetica,sans-Serif" font-size="10.00">rhoConst.H</text>
</a>
</g>
</g>
<!-- Node1&#45;&gt;Node9 -->
<g id="edge8_Node000001_Node000009" class="edge">
<title>Node1&#45;&gt;Node9</title>
<g id="a_edge8_Node000001_Node000009"><a xlink:title=" ">
<path fill="none" stroke="#63b8ff" d="M825.14,-54.98C834.01,-47.15 847.37,-35.34 858.11,-25.86"/>
<polygon fill="#63b8ff" stroke="#63b8ff" points="860.51,-28.41 865.68,-19.17 855.87,-23.17 860.51,-28.41"/>
</a>
</g>
</g>
<!-- Node10 -->
<g id="Node000010" class="node">
<title>Node10</title>
<g id="a_Node000010"><a xlink:title=" ">
<polygon fill="#e0e0e0" stroke="#999999" points="1027.5,-19 929.5,-19 929.5,0 1027.5,0 1027.5,-19"/>
<text text-anchor="middle" x="978.5" y="-7" font-family="Helvetica,sans-Serif" font-size="10.00">hConstThermo.H</text>
</a>
</g>
</g>
<!-- Node1&#45;&gt;Node10 -->
<g id="edge9_Node000001_Node000010" class="edge">
<title>Node1&#45;&gt;Node10</title>
<g id="a_edge9_Node000001_Node000010"><a xlink:title=" ">
<path fill="none" stroke="#63b8ff" d="M841.69,-54.98C868.94,-46.13 911.8,-32.19 942.28,-22.28"/>
<polygon fill="#63b8ff" stroke="#63b8ff" points="943.68,-25.5 952.11,-19.08 941.51,-18.85 943.68,-25.5"/>
</a>
</g>
</g>
<!-- Node11 -->
<g id="Node000011" class="node">
<title>Node11</title>
<g id="a_Node000011"><a xlink:title=" ">
<polygon fill="#e0e0e0" stroke="#999999" points="1143.5,-19 1045.5,-19 1045.5,0 1143.5,0 1143.5,-19"/>
<text text-anchor="middle" x="1094.5" y="-7" font-family="Helvetica,sans-Serif" font-size="10.00">eConstThermo.H</text>
</a>
</g>
</g>
<!-- Node1&#45;&gt;Node11 -->
<g id="edge10_Node000001_Node000011" class="edge">
<title>Node1&#45;&gt;Node11</title>
<g id="a_edge10_Node000001_Node000011"><a xlink:title=" ">
<path fill="none" stroke="#63b8ff" d="M860.33,-54.98C908.99,-45.74 986.76,-30.97 1039.19,-21.01"/>
<polygon fill="#63b8ff" stroke="#63b8ff" points="1040.15,-24.39 1049.32,-19.08 1038.84,-17.51 1040.15,-24.39"/>
</a>
</g>
</g>
<!-- Node12 -->
<g id="Node000012" class="node">
<title>Node12</title>
<g id="a_Node000012"><a xlink:title=" ">
<polygon fill="#e0e0e0" stroke="#999999" points="1263,-19 1162,-19 1162,0 1263,0 1263,-19"/>
<text text-anchor="middle" x="1212.5" y="-7" font-family="Helvetica,sans-Serif" font-size="10.00">janaf2TThermo.H</text>
</a>
</g>
</g>
<!-- Node1&#45;&gt;Node12 -->
<g id="edge11_Node000001_Node000012" class="edge">
<title>Node1&#45;&gt;Node12</title>
<g id="a_edge11_Node000001_Node000012"><a xlink:title=" ">
<path fill="none" stroke="#63b8ff" d="M881.39,-54.99C947.15,-46.45 1051.38,-32.8 1151.75,-19.09"/>
<polygon fill="#63b8ff" stroke="#63b8ff" points="1152.33,-22.54 1161.77,-17.72 1151.38,-15.61 1152.33,-22.54"/>
</a>
</g>
</g>
<!-- Node13 -->
<g id="Node000013" class="node">
<title>Node13</title>
<g id="a_Node000013"><a xlink:title=" ">
<polygon fill="#e0e0e0" stroke="#999999" points="1355.5,-19 1281.5,-19 1281.5,0 1355.5,0 1355.5,-19"/>
<text text-anchor="middle" x="1318.5" y="-7" font-family="Helvetica,sans-Serif" font-size="10.00">thermo2T.H</text>
</a>
</g>
</g>
<!-- Node1&#45;&gt;Node13 -->
<g id="edge12_Node000001_Node000013" class="edge">
<title>Node1&#45;&gt;Node13</title>
<g id="a_edge12_Node000001_Node000013"><a xlink:title=" ">
<path fill="none" stroke="#63b8ff" d="M885.01,-58.59C972.68,-51.99 1128.24,-38.89 1271.12,-19.08"/>
<polygon fill="#63b8ff" stroke="#63b8ff" points="1271.97,-22.49 1281.39,-17.64 1271,-15.56 1271.97,-22.49"/>
</a>
</g>
</g>
<!-- Node14 -->
<g id="Node000014" class="node">
<title>Node14</title>
<g id="a_Node000014"><a xlink:title=" ">
<polygon fill="#e0e0e0" stroke="#999999" points="1495.5,-19 1373.5,-19 1373.5,0 1495.5,0 1495.5,-19"/>
<text text-anchor="middle" x="1434.5" y="-7" font-family="Helvetica,sans-Serif" font-size="10.00">sensibleEnthalpy2T.H</text>
</a>
</g>
</g>
<!-- Node1&#45;&gt;Node14 -->
<g id="edge13_Node000001_Node000014" class="edge">
<title>Node1&#45;&gt;Node14</title>
<g id="a_edge13_Node000001_Node000014"><a xlink:title=" ">
<path fill="none" stroke="#63b8ff" d="M885.35,-58.74C987.78,-51.55 1185.04,-36.96 1363.34,-19.08"/>
<polygon fill="#63b8ff" stroke="#63b8ff" points="1363.83,-22.55 1373.43,-18.06 1363.13,-15.58 1363.83,-22.55"/>
</a>
</g>
</g>
<!-- Node15 -->
<g id="Node000015" class="node">
<title>Node15</title>
<g id="a_Node000015"><a xlink:title=" ">
<polygon fill="#e0e0e0" stroke="#999999" points="1671,-19 1514,-19 1514,0 1671,0 1671,-19"/>
<text text-anchor="middle" x="1592.5" y="-7" font-family="Helvetica,sans-Serif" font-size="10.00">blottnerEucken2TTransport.H</text>
</a>
</g>
</g>
<!-- Node1&#45;&gt;Node15 -->
<g id="edge14_Node000001_Node000015" class="edge">
<title>Node1&#45;&gt;Node15</title>
<g id="a_edge14_Node000001_Node000015"><a xlink:title=" ">
<path fill="none" stroke="#63b8ff" d="M885.48,-59.72C1008.28,-52.92 1270.81,-37.66 1503.81,-19.03"/>
<polygon fill="#63b8ff" stroke="#63b8ff" points="1504.14,-22.51 1513.83,-18.22 1503.58,-15.54 1504.14,-22.51"/>
</a>
</g>
</g>
</g>
</svg>
