<?xml version="1.0" encoding="UTF-8" standalone="no"?>
<!DOCTYPE svg PUBLIC "-//W3C//DTD SVG 1.1//EN"
 "http://www.w3.org/Graphics/SVG/1.1/DTD/svg11.dtd">
<!-- Generated by graphviz version 2.43.0 (0)
 -->
<!-- Title: Graphical Class Hierarchy Pages: 1 -->
<svg width="580pt" height="64pt"
 viewBox="0.00 0.00 580.00 64.00" xmlns="http://www.w3.org/2000/svg" xmlns:xlink="http://www.w3.org/1999/xlink">
<g id="graph0" class="graph" transform="scale(1 1) rotate(0) translate(4 60)">
<title>Graphical Class Hierarchy</title>
<!-- Node0 -->
<g id="Node000000" class="node">
<title>Node0</title>
<g id="a_Node000000"><a xlink:title=" ">
<polygon fill="#e0e0e0" stroke="#999999" points="269,-56 112,-56 112,-37 269,-37 269,-56"/>
<text text-anchor="middle" x="190.5" y="-44" font-family="Helvetica,sans-Serif" font-size="10.00">compressibleTransportModel</text>
</a>
</g>
</g>
<!-- Node1 -->
<g id="Node000001" class="node">
<title>Node1</title>
<g id="a_Node000001"><a xlink:href="classFoam_1_1fluid2TThermo.html" target="_top" xlink:title=" ">
<polygon fill="white" stroke="#666666" points="425,-37 305,-37 305,-18 425,-18 425,-37"/>
<text text-anchor="middle" x="365" y="-25" font-family="Helvetica,sans-Serif" font-size="10.00">Foam::fluid2TThermo</text>
</a>
</g>
</g>
<!-- Node0&#45;&gt;Node1 -->
<g id="edge6_Node000000_Node000001" class="edge">
<title>Node0&#45;&gt;Node1</title>
<g id="a_edge6_Node000000_Node000001"><a xlink:title=" ">
<path fill="none" stroke="#63b8ff" d="M279.31,-36.83C287.96,-35.88 296.59,-34.92 304.85,-34.01"/>
<polygon fill="#63b8ff" stroke="#63b8ff" points="278.73,-33.37 269.17,-37.94 279.49,-40.33 278.73,-33.37"/>
</a>
</g>
</g>
<!-- Node2 -->
<g id="Node000002" class="node">
<title>Node2</title>
<g id="a_Node000002"><a xlink:href="classFoam_1_1ne2TThermo.html" target="_top" xlink:title=" ">
<polygon fill="white" stroke="#666666" points="572,-37 461,-37 461,-18 572,-18 572,-37"/>
<text text-anchor="middle" x="516.5" y="-25" font-family="Helvetica,sans-Serif" font-size="10.00">Foam::ne2TThermo</text>
</a>
</g>
</g>
<!-- Node1&#45;&gt;Node2 -->
<g id="edge7_Node000001_Node000002" class="edge">
<title>Node1&#45;&gt;Node2</title>
<g id="a_edge7_Node000001_Node000002"><a xlink:title=" ">
<path fill="none" stroke="#63b8ff" d="M435.1,-27.5C443.7,-27.5 452.4,-27.5 460.73,-27.5"/>
<polygon fill="#63b8ff" stroke="#63b8ff" points="435.09,-24 425.09,-27.5 435.09,-31 435.09,-24"/>
</a>
</g>
</g>
<!-- Node4 -->
<g id="Node000004" class="node">
<title>Node4</title>
<g id="a_Node000004"><a xlink:title=" ">
<polygon fill="#e0e0e0" stroke="#999999" points="76,-19 0,-19 0,0 76,0 76,-19"/>
<text text-anchor="middle" x="38" y="-7" font-family="Helvetica,sans-Serif" font-size="10.00">IOdictionary</text>
</a>
</g>
</g>
<!-- Node3 -->
<g id="Node000003" class="node">
<title>Node3</title>
<g id="a_Node000003"><a xlink:href="classFoam_1_1basic2TThermo.html" target="_top" xlink:title=" ">
<polygon fill="white" stroke="#666666" points="253,-19 128,-19 128,0 253,0 253,-19"/>
<text text-anchor="middle" x="190.5" y="-7" font-family="Helvetica,sans-Serif" font-size="10.00">Foam::basic2TThermo</text>
</a>
</g>
</g>
<!-- Node4&#45;&gt;Node3 -->
<g id="edge8_Node000004_Node000003" class="edge">
<title>Node4&#45;&gt;Node3</title>
<g id="a_edge8_Node000004_Node000003"><a xlink:title=" ">
<path fill="none" stroke="#63b8ff" d="M86.42,-9.5C99.56,-9.5 114.01,-9.5 127.84,-9.5"/>
<polygon fill="#63b8ff" stroke="#63b8ff" points="86.2,-6 76.2,-9.5 86.2,-13 86.2,-6"/>
</a>
</g>
</g>
<!-- Node3&#45;&gt;Node1 -->
<g id="edge9_Node000003_Node000001" class="edge">
<title>Node3&#45;&gt;Node1</title>
<g id="a_edge9_Node000003_Node000001"><a xlink:title=" ">
<path fill="none" stroke="#63b8ff" d="M263.28,-16.99C277.15,-18.44 291.54,-19.94 304.95,-21.34"/>
<polygon fill="#63b8ff" stroke="#63b8ff" points="263.6,-13.5 253.29,-15.95 262.87,-20.47 263.6,-13.5"/>
</a>
</g>
</g>
</g>
</svg>
