<?xml version="1.0" encoding="UTF-8" standalone="no"?>
<!DOCTYPE svg PUBLIC "-//W3C//DTD SVG 1.1//EN"
 "http://www.w3.org/Graphics/SVG/1.1/DTD/svg11.dtd">
<!-- Generated by graphviz version 2.43.0 (0)
 -->
<!-- Title: Graphical Class Hierarchy Pages: 1 -->
<svg width="515pt" height="101pt"
 viewBox="0.00 0.00 515.00 101.00" xmlns="http://www.w3.org/2000/svg" xmlns:xlink="http://www.w3.org/1999/xlink">
<g id="graph0" class="graph" transform="scale(1 1) rotate(0) translate(4 97)">
<title>Graphical Class Hierarchy</title>
<!-- Node0 -->
<g id="Node000000" class="node">
<title>Node0</title>
<g id="a_Node000000"><a xlink:title=" ">
<polygon fill="#e0e0e0" stroke="#999999" points="99,-93 7,-93 7,-74 99,-74 99,-93"/>
<text text-anchor="middle" x="53" y="-81" font-family="Helvetica,sans-Serif" font-size="10.00">Basic2TThermo</text>
</a>
</g>
</g>
<!-- Node1 -->
<g id="Node000001" class="node">
<title>Node1</title>
<g id="a_Node000001"><a xlink:href="classFoam_1_1he2TThermo.html" target="_top" xlink:title=" ">
<polygon fill="white" stroke="#666666" points="303.5,-91.5 148.5,-91.5 148.5,-61.5 303.5,-61.5 303.5,-91.5"/>
<text text-anchor="start" x="156.5" y="-79.5" font-family="Helvetica,sans-Serif" font-size="10.00">Foam::he2TThermo&lt; Basic2</text>
<text text-anchor="middle" x="226" y="-68.5" font-family="Helvetica,sans-Serif" font-size="10.00">TThermo, MixtureType &gt;</text>
</a>
</g>
</g>
<!-- Node0&#45;&gt;Node1 -->
<g id="edge1_Node000000_Node000001" class="edge">
<title>Node0&#45;&gt;Node1</title>
<g id="a_edge1_Node000000_Node000001"><a xlink:title=" ">
<path fill="none" stroke="#63b8ff" d="M109.53,-81.23C121.91,-80.72 135.26,-80.17 148.32,-79.64"/>
<polygon fill="#63b8ff" stroke="#63b8ff" points="109.22,-77.74 99.38,-81.64 109.51,-84.73 109.22,-77.74"/>
</a>
</g>
</g>
<!-- Node5 -->
<g id="Node000005" class="node">
<title>Node5</title>
<g id="a_Node000005"><a xlink:title=" ">
<polygon fill="#e0e0e0" stroke="#999999" points="106,-19 0,-19 0,0 106,0 106,-19"/>
<text text-anchor="middle" x="53" y="-7" font-family="Helvetica,sans-Serif" font-size="10.00">BasicNe2TThermo</text>
</a>
</g>
</g>
<!-- Node3 -->
<g id="Node000003" class="node">
<title>Node3</title>
<g id="a_Node000003"><a xlink:href="classFoam_1_1he2TThermo.html" target="_top" xlink:title=" ">
<polygon fill="white" stroke="#666666" points="310,-37.5 142,-37.5 142,-7.5 310,-7.5 310,-37.5"/>
<text text-anchor="start" x="150" y="-25.5" font-family="Helvetica,sans-Serif" font-size="10.00">Foam::he2TThermo&lt; BasicNe2</text>
<text text-anchor="middle" x="226" y="-14.5" font-family="Helvetica,sans-Serif" font-size="10.00">TThermo, MixtureType &gt;</text>
</a>
</g>
</g>
<!-- Node5&#45;&gt;Node3 -->
<g id="edge2_Node000005_Node000003" class="edge">
<title>Node5&#45;&gt;Node3</title>
<g id="a_edge2_Node000005_Node000003"><a xlink:title=" ">
<path fill="none" stroke="#63b8ff" d="M116.24,-14.23C124.59,-14.87 133.25,-15.53 141.89,-16.18"/>
<polygon fill="#63b8ff" stroke="#63b8ff" points="116.47,-10.74 106.23,-13.47 115.94,-17.72 116.47,-10.74"/>
</a>
</g>
</g>
<!-- Node4 -->
<g id="Node000004" class="node">
<title>Node4</title>
<g id="a_Node000004"><a xlink:href="classFoam_1_1heNe2TThermo.html" target="_top" xlink:title=" ">
<polygon fill="white" stroke="#666666" points="507,-43 346,-43 346,-2 507,-2 507,-43"/>
<text text-anchor="start" x="354" y="-31" font-family="Helvetica,sans-Serif" font-size="10.00">Foam::heNe2TThermo</text>
<text text-anchor="start" x="354" y="-20" font-family="Helvetica,sans-Serif" font-size="10.00">&lt; BasicNe2TThermo, Mixture</text>
<text text-anchor="middle" x="426.5" y="-9" font-family="Helvetica,sans-Serif" font-size="10.00">Type &gt;</text>
</a>
</g>
</g>
<!-- Node3&#45;&gt;Node4 -->
<g id="edge3_Node000003_Node000004" class="edge">
<title>Node3&#45;&gt;Node4</title>
<g id="a_edge3_Node000003_Node000004"><a xlink:title=" ">
<path fill="none" stroke="#63b8ff" d="M320.13,-22.5C328.77,-22.5 337.48,-22.5 345.98,-22.5"/>
<polygon fill="#63b8ff" stroke="#63b8ff" points="320.03,-19 310.03,-22.5 320.03,-26 320.03,-19"/>
</a>
</g>
</g>
<!-- Node2 -->
<g id="Node000002" class="node">
<title>Node2</title>
<g id="a_Node000002"><a xlink:title=" ">
<polygon fill="#e0e0e0" stroke="#999999" points="91.5,-56 14.5,-56 14.5,-37 91.5,-37 91.5,-56"/>
<text text-anchor="middle" x="53" y="-44" font-family="Helvetica,sans-Serif" font-size="10.00">MixtureType</text>
</a>
</g>
</g>
<!-- Node2&#45;&gt;Node1 -->
<g id="edge5_Node000002_Node000001" class="edge">
<title>Node2&#45;&gt;Node1</title>
<g id="a_edge5_Node000002_Node000001"><a xlink:title=" ">
<path fill="none" stroke="#63b8ff" d="M101.7,-54.87C116.16,-57.4 132.42,-60.26 148.27,-63.04"/>
<polygon fill="#63b8ff" stroke="#63b8ff" points="101.98,-51.36 91.53,-53.08 100.77,-58.26 101.98,-51.36"/>
</a>
</g>
</g>
<!-- Node2&#45;&gt;Node3 -->
<g id="edge4_Node000002_Node000003" class="edge">
<title>Node2&#45;&gt;Node3</title>
<g id="a_edge4_Node000002_Node000003"><a xlink:title=" ">
<path fill="none" stroke="#63b8ff" d="M101.72,-39.8C114.27,-38.04 128.17,-36.09 142,-34.15"/>
<polygon fill="#63b8ff" stroke="#63b8ff" points="100.94,-36.38 91.53,-41.23 101.92,-43.31 100.94,-36.38"/>
</a>
</g>
</g>
</g>
</svg>
