<?xml version="1.0" encoding="UTF-8" standalone="no"?>
<!DOCTYPE svg PUBLIC "-//W3C//DTD SVG 1.1//EN"
 "http://www.w3.org/Graphics/SVG/1.1/DTD/svg11.dtd">
<!-- Generated by graphviz version 2.43.0 (0)
 -->
<!-- Title: Graphical Class Hierarchy Pages: 1 -->
<svg width="289pt" height="86pt"
 viewBox="0.00 0.00 289.00 86.00" xmlns="http://www.w3.org/2000/svg" xmlns:xlink="http://www.w3.org/1999/xlink">
<g id="graph0" class="graph" transform="scale(1 1) rotate(0) translate(4 82)">
<title>Graphical Class Hierarchy</title>
<!-- Node0 -->
<g id="Node000000" class="node">
<title>Node0</title>
<g id="a_Node000000"><a xlink:title=" ">
<polygon fill="#e0e0e0" stroke="#999999" points="66,-66.5 0,-66.5 0,-47.5 66,-47.5 66,-66.5"/>
<text text-anchor="middle" x="33" y="-54.5" font-family="Helvetica,sans-Serif" font-size="10.00">Thermo2T</text>
</a>
</g>
</g>
<!-- Node1 -->
<g id="Node000001" class="node">
<title>Node1</title>
<g id="a_Node000001"><a xlink:href="classFoam_1_1blottnerEucken2TTransport.html" target="_top" xlink:title=" ">
<polygon fill="white" stroke="#666666" points="281,-78 102,-78 102,-48 281,-48 281,-78"/>
<text text-anchor="start" x="110" y="-66" font-family="Helvetica,sans-Serif" font-size="10.00">Foam::blottnerEucken2TTransport</text>
<text text-anchor="middle" x="191.5" y="-55" font-family="Helvetica,sans-Serif" font-size="10.00">&lt; Thermo2T &gt;</text>
</a>
</g>
</g>
<!-- Node0&#45;&gt;Node1 -->
<g id="edge11_Node000000_Node000001" class="edge">
<title>Node0&#45;&gt;Node1</title>
<g id="a_edge11_Node000000_Node000001"><a xlink:title=" ">
<path fill="none" stroke="#63b8ff" d="M76.23,-58.62C84.29,-58.93 93.01,-59.26 101.9,-59.6"/>
<polygon fill="#63b8ff" stroke="#63b8ff" points="76.17,-55.11 66.05,-58.23 75.91,-62.11 76.17,-55.11"/>
</a>
</g>
</g>
<!-- Node2 -->
<g id="Node000002" class="node">
<title>Node2</title>
<g id="a_Node000002"><a xlink:href="classFoam_1_1species_1_1thermo2T.html" target="_top" xlink:title=" ">
<polygon fill="white" stroke="#666666" points="261.5,-30 121.5,-30 121.5,0 261.5,0 261.5,-30"/>
<text text-anchor="start" x="129.5" y="-18" font-family="Helvetica,sans-Serif" font-size="10.00">Foam::species::thermo2T</text>
<text text-anchor="middle" x="191.5" y="-7" font-family="Helvetica,sans-Serif" font-size="10.00">&lt; Thermo2T, Type &gt;</text>
</a>
</g>
</g>
<!-- Node0&#45;&gt;Node2 -->
<g id="edge12_Node000000_Node000002" class="edge">
<title>Node0&#45;&gt;Node2</title>
<g id="a_edge12_Node000000_Node000002"><a xlink:title=" ">
<path fill="none" stroke="#63b8ff" d="M75.93,-45.75C93.9,-40.93 115.14,-35.22 134.43,-30.05"/>
<polygon fill="#63b8ff" stroke="#63b8ff" points="74.8,-42.43 66.05,-48.4 76.61,-49.19 74.8,-42.43"/>
</a>
</g>
</g>
<!-- Node3 -->
<g id="Node000003" class="node">
<title>Node3</title>
<g id="a_Node000003"><a xlink:title=" ">
<polygon fill="#e0e0e0" stroke="#999999" points="52.5,-24.5 13.5,-24.5 13.5,-5.5 52.5,-5.5 52.5,-24.5"/>
<text text-anchor="middle" x="33" y="-12.5" font-family="Helvetica,sans-Serif" font-size="10.00">Type</text>
</a>
</g>
</g>
<!-- Node3&#45;&gt;Node2 -->
<g id="edge13_Node000003_Node000002" class="edge">
<title>Node3&#45;&gt;Node2</title>
<g id="a_edge13_Node000003_Node000002"><a xlink:title=" ">
<path fill="none" stroke="#63b8ff" d="M62.62,-15C79.11,-15 100.6,-15 121.25,-15"/>
<polygon fill="#63b8ff" stroke="#63b8ff" points="62.57,-11.5 52.57,-15 62.57,-18.5 62.57,-11.5"/>
</a>
</g>
</g>
</g>
</svg>
