<?xml version="1.0" encoding="UTF-8" standalone="no"?>
<!DOCTYPE svg PUBLIC "-//W3C//DTD SVG 1.1//EN"
 "http://www.w3.org/Graphics/SVG/1.1/DTD/svg11.dtd">
<!-- Generated by graphviz version 2.43.0 (0)
 -->
<!-- Title: ne2TZoneThermos.C Pages: 1 -->
<svg width="1955pt" height="302pt"
 viewBox="0.00 0.00 1955.00 302.00" xmlns="http://www.w3.org/2000/svg" xmlns:xlink="http://www.w3.org/1999/xlink">
<g id="graph0" class="graph" transform="scale(1 1) rotate(0) translate(4 298)">
<title>ne2TZoneThermos.C</title>
<!-- Node1 -->
<g id="Node000001" class="node">
<title>Node1</title>
<g id="a_Node000001"><a xlink:title=" ">
<polygon fill="#999999" stroke="#666666" points="997.5,-294 879.5,-294 879.5,-275 997.5,-275 997.5,-294"/>
<text text-anchor="middle" x="938.5" y="-282" font-family="Helvetica,sans-Serif" font-size="10.00">ne2TZoneThermos.C</text>
</a>
</g>
</g>
<!-- Node2 -->
<g id="Node000002" class="node">
<title>Node2</title>
<g id="a_Node000002"><a xlink:href="lnInclude_2ne2TThermo_8H.html" target="_top" xlink:title=" ">
<polygon fill="white" stroke="#666666" points="445,-184 356,-184 356,-165 445,-165 445,-184"/>
<text text-anchor="middle" x="400.5" y="-172" font-family="Helvetica,sans-Serif" font-size="10.00">ne2TThermo.H</text>
</a>
</g>
</g>
<!-- Node1&#45;&gt;Node2 -->
<g id="edge1_Node000001_Node000002" class="edge">
<title>Node1&#45;&gt;Node2</title>
<g id="a_edge1_Node000001_Node000002"><a xlink:title=" ">
<path fill="none" stroke="#63b8ff" d="M879.38,-283.59C734.88,-283.19 372.94,-278.23 336.5,-239 319.86,-221.08 347.37,-201.38 371.34,-188.75"/>
<polygon fill="#63b8ff" stroke="#63b8ff" points="373.22,-191.72 380.59,-184.11 370.08,-185.46 373.22,-191.72"/>
</a>
</g>
</g>
<!-- Node12 -->
<g id="Node000012" class="node">
<title>Node12</title>
<g id="a_Node000012"><a xlink:href="lnInclude_2make2TThermo_8H.html" target="_top" xlink:title=" ">
<polygon fill="white" stroke="#666666" points="289.5,-239 185.5,-239 185.5,-220 289.5,-220 289.5,-239"/>
<text text-anchor="middle" x="237.5" y="-227" font-family="Helvetica,sans-Serif" font-size="10.00">make2TThermo.H</text>
</a>
</g>
</g>
<!-- Node1&#45;&gt;Node12 -->
<g id="edge11_Node000001_Node000012" class="edge">
<title>Node1&#45;&gt;Node12</title>
<g id="a_edge11_Node000001_Node000012"><a xlink:title=" ">
<path fill="none" stroke="#63b8ff" d="M879.31,-280.5C766.92,-274.56 514.92,-260 303.5,-239 302.24,-238.87 300.96,-238.74 299.68,-238.61"/>
<polygon fill="#63b8ff" stroke="#63b8ff" points="300.03,-235.13 289.71,-237.51 299.26,-242.09 300.03,-235.13"/>
</a>
</g>
</g>
<!-- Node14 -->
<g id="Node000014" class="node">
<title>Node14</title>
<g id="a_Node000014"><a xlink:title=" ">
<polygon fill="#e0e0e0" stroke="#999999" points="405,-239 346,-239 346,-220 405,-220 405,-239"/>
<text text-anchor="middle" x="375.5" y="-227" font-family="Helvetica,sans-Serif" font-size="10.00">specie.H</text>
</a>
</g>
</g>
<!-- Node1&#45;&gt;Node14 -->
<g id="edge14_Node000001_Node000014" class="edge">
<title>Node1&#45;&gt;Node14</title>
<g id="a_edge14_Node000001_Node000014"><a xlink:title=" ">
<path fill="none" stroke="#63b8ff" d="M879.27,-280.98C783.72,-276.36 589.54,-264.71 415.36,-238.92"/>
<polygon fill="#63b8ff" stroke="#63b8ff" points="415.65,-235.42 405.24,-237.4 414.61,-242.34 415.65,-235.42"/>
</a>
</g>
</g>
<!-- Node15 -->
<g id="Node000015" class="node">
<title>Node15</title>
<g id="a_Node000015"><a xlink:title=" ">
<polygon fill="#e0e0e0" stroke="#999999" points="503.5,-239 423.5,-239 423.5,-220 503.5,-220 503.5,-239"/>
<text text-anchor="middle" x="463.5" y="-227" font-family="Helvetica,sans-Serif" font-size="10.00">perfectGas.H</text>
</a>
</g>
</g>
<!-- Node1&#45;&gt;Node15 -->
<g id="edge15_Node000001_Node000015" class="edge">
<title>Node1&#45;&gt;Node15</title>
<g id="a_edge15_Node000001_Node000015"><a xlink:title=" ">
<path fill="none" stroke="#63b8ff" d="M879.43,-278.6C799.05,-271.66 650.53,-257.82 513.82,-239.09"/>
<polygon fill="#63b8ff" stroke="#63b8ff" points="513.96,-235.58 503.58,-237.68 513,-242.52 513.96,-235.58"/>
</a>
</g>
</g>
<!-- Node16 -->
<g id="Node000016" class="node">
<title>Node16</title>
<g id="a_Node000016"><a xlink:title=" ">
<polygon fill="#e0e0e0" stroke="#999999" points="637,-239 522,-239 522,-220 637,-220 637,-239"/>
<text text-anchor="middle" x="579.5" y="-227" font-family="Helvetica,sans-Serif" font-size="10.00">PengRobinsonGas.H</text>
</a>
</g>
</g>
<!-- Node1&#45;&gt;Node16 -->
<g id="edge16_Node000001_Node000016" class="edge">
<title>Node1&#45;&gt;Node16</title>
<g id="a_edge16_Node000001_Node000016"><a xlink:title=" ">
<path fill="none" stroke="#63b8ff" d="M880.82,-274.98C817.1,-265.58 714.59,-250.44 647.14,-240.49"/>
<polygon fill="#63b8ff" stroke="#63b8ff" points="647.44,-236.99 637.04,-238.99 646.42,-243.92 647.44,-236.99"/>
</a>
</g>
</g>
<!-- Node17 -->
<g id="Node000017" class="node">
<title>Node17</title>
<g id="a_Node000017"><a xlink:title=" ">
<polygon fill="#e0e0e0" stroke="#999999" points="753.5,-239 655.5,-239 655.5,-220 753.5,-220 753.5,-239"/>
<text text-anchor="middle" x="704.5" y="-227" font-family="Helvetica,sans-Serif" font-size="10.00">hConstThermo.H</text>
</a>
</g>
</g>
<!-- Node1&#45;&gt;Node17 -->
<g id="edge17_Node000001_Node000017" class="edge">
<title>Node1&#45;&gt;Node17</title>
<g id="a_edge17_Node000001_Node000017"><a xlink:title=" ">
<path fill="none" stroke="#63b8ff" d="M900.9,-274.98C860.51,-265.84 796.22,-251.27 752.27,-241.32"/>
<polygon fill="#63b8ff" stroke="#63b8ff" points="752.92,-237.88 742.39,-239.08 751.37,-244.7 752.92,-237.88"/>
</a>
</g>
</g>
<!-- Node18 -->
<g id="Node000018" class="node">
<title>Node18</title>
<g id="a_Node000018"><a xlink:title=" ">
<polygon fill="#e0e0e0" stroke="#999999" points="869.5,-239 771.5,-239 771.5,-220 869.5,-220 869.5,-239"/>
<text text-anchor="middle" x="820.5" y="-227" font-family="Helvetica,sans-Serif" font-size="10.00">eConstThermo.H</text>
</a>
</g>
</g>
<!-- Node1&#45;&gt;Node18 -->
<g id="edge18_Node000001_Node000018" class="edge">
<title>Node1&#45;&gt;Node18</title>
<g id="a_edge18_Node000001_Node000018"><a xlink:title=" ">
<path fill="none" stroke="#63b8ff" d="M919.54,-274.98C900.47,-266.42 870.84,-253.11 848.95,-243.28"/>
<polygon fill="#63b8ff" stroke="#63b8ff" points="850.36,-240.07 839.8,-239.17 847.49,-246.46 850.36,-240.07"/>
</a>
</g>
</g>
<!-- Node19 -->
<g id="Node000019" class="node">
<title>Node19</title>
<g id="a_Node000019"><a xlink:title=" ">
<polygon fill="#e0e0e0" stroke="#999999" points="989,-239 888,-239 888,-220 989,-220 989,-239"/>
<text text-anchor="middle" x="938.5" y="-227" font-family="Helvetica,sans-Serif" font-size="10.00">janaf2TThermo.H</text>
</a>
</g>
</g>
<!-- Node1&#45;&gt;Node19 -->
<g id="edge19_Node000001_Node000019" class="edge">
<title>Node1&#45;&gt;Node19</title>
<g id="a_edge19_Node000001_Node000019"><a xlink:title=" ">
<path fill="none" stroke="#63b8ff" d="M938.5,-274.75C938.5,-267.8 938.5,-257.85 938.5,-249.13"/>
<polygon fill="#63b8ff" stroke="#63b8ff" points="942,-249.09 938.5,-239.09 935,-249.09 942,-249.09"/>
</a>
</g>
</g>
<!-- Node20 -->
<g id="Node000020" class="node">
<title>Node20</title>
<g id="a_Node000020"><a xlink:title=" ">
<polygon fill="#e0e0e0" stroke="#999999" points="1129.5,-239 1007.5,-239 1007.5,-220 1129.5,-220 1129.5,-239"/>
<text text-anchor="middle" x="1068.5" y="-227" font-family="Helvetica,sans-Serif" font-size="10.00">sensibleEnthalpy2T.H</text>
</a>
</g>
</g>
<!-- Node1&#45;&gt;Node20 -->
<g id="edge20_Node000001_Node000020" class="edge">
<title>Node1&#45;&gt;Node20</title>
<g id="a_edge20_Node000001_Node000020"><a xlink:title=" ">
<path fill="none" stroke="#63b8ff" d="M959.39,-274.98C980.58,-266.34 1013.63,-252.87 1037.8,-243.02"/>
<polygon fill="#63b8ff" stroke="#63b8ff" points="1039.29,-246.19 1047.23,-239.17 1036.65,-239.7 1039.29,-246.19"/>
</a>
</g>
</g>
<!-- Node21 -->
<g id="Node000021" class="node">
<title>Node21</title>
<g id="a_Node000021"><a xlink:title=" ">
<polygon fill="#e0e0e0" stroke="#999999" points="1221.5,-239 1147.5,-239 1147.5,-220 1221.5,-220 1221.5,-239"/>
<text text-anchor="middle" x="1184.5" y="-227" font-family="Helvetica,sans-Serif" font-size="10.00">thermo2T.H</text>
</a>
</g>
</g>
<!-- Node1&#45;&gt;Node21 -->
<g id="edge21_Node000001_Node000021" class="edge">
<title>Node1&#45;&gt;Node21</title>
<g id="a_edge21_Node000001_Node000021"><a xlink:title=" ">
<path fill="none" stroke="#63b8ff" d="M978.02,-274.98C1021.46,-265.63 1091.19,-250.6 1137.42,-240.64"/>
<polygon fill="#63b8ff" stroke="#63b8ff" points="1138.45,-244 1147.49,-238.47 1136.98,-237.16 1138.45,-244"/>
</a>
</g>
</g>
<!-- Node22 -->
<g id="Node000022" class="node">
<title>Node22</title>
<g id="a_Node000022"><a xlink:title=" ">
<polygon fill="#e0e0e0" stroke="#999999" points="1365,-239 1240,-239 1240,-220 1365,-220 1365,-239"/>
<text text-anchor="middle" x="1302.5" y="-227" font-family="Helvetica,sans-Serif" font-size="10.00">hPolynomialThermo.H</text>
</a>
</g>
</g>
<!-- Node1&#45;&gt;Node22 -->
<g id="edge22_Node000001_Node000022" class="edge">
<title>Node1&#45;&gt;Node22</title>
<g id="a_edge22_Node000001_Node000022"><a xlink:title=" ">
<path fill="none" stroke="#63b8ff" d="M996.98,-274.98C1061.5,-265.59 1165.22,-250.49 1233.62,-240.53"/>
<polygon fill="#63b8ff" stroke="#63b8ff" points="1234.47,-243.94 1243.86,-239.04 1233.46,-237.02 1234.47,-243.94"/>
</a>
</g>
</g>
<!-- Node23 -->
<g id="Node000023" class="node">
<title>Node23</title>
<g id="a_Node000023"><a xlink:href="lnInclude_2heNe2TThermo_8H.html" target="_top" xlink:title=" ">
<polygon fill="white" stroke="#666666" points="1485.5,-239 1383.5,-239 1383.5,-220 1485.5,-220 1485.5,-239"/>
<text text-anchor="middle" x="1434.5" y="-227" font-family="Helvetica,sans-Serif" font-size="10.00">heNe2TThermo.H</text>
</a>
</g>
</g>
<!-- Node1&#45;&gt;Node23 -->
<g id="edge23_Node000001_Node000023" class="edge">
<title>Node1&#45;&gt;Node23</title>
<g id="a_edge23_Node000001_Node000023"><a xlink:title=" ">
<path fill="none" stroke="#63b8ff" d="M997.68,-278.14C1079.48,-270.57 1231.99,-255.91 1373.12,-239"/>
<polygon fill="#63b8ff" stroke="#63b8ff" points="1373.75,-242.45 1383.26,-237.78 1372.92,-235.5 1373.75,-242.45"/>
</a>
</g>
</g>
<!-- Node26 -->
<g id="Node000026" class="node">
<title>Node26</title>
<g id="a_Node000026"><a xlink:title=" ">
<polygon fill="#e0e0e0" stroke="#999999" points="1615,-239 1504,-239 1504,-220 1615,-220 1615,-239"/>
<text text-anchor="middle" x="1559.5" y="-227" font-family="Helvetica,sans-Serif" font-size="10.00">pureZoneMixture.H</text>
</a>
</g>
</g>
<!-- Node1&#45;&gt;Node26 -->
<g id="edge27_Node000001_Node000026" class="edge">
<title>Node1&#45;&gt;Node26</title>
<g id="a_edge27_Node000001_Node000026"><a xlink:title=" ">
<path fill="none" stroke="#63b8ff" d="M997.84,-279.73C1097.82,-273.17 1306.43,-258.55 1493.82,-239.02"/>
<polygon fill="#63b8ff" stroke="#63b8ff" points="1494.27,-242.49 1503.85,-237.96 1493.54,-235.53 1494.27,-242.49"/>
</a>
</g>
</g>
<!-- Node27 -->
<g id="Node000027" class="node">
<title>Node27</title>
<g id="a_Node000027"><a xlink:title=" ">
<polygon fill="#e0e0e0" stroke="#999999" points="1772,-239 1633,-239 1633,-220 1772,-220 1772,-239"/>
<text text-anchor="middle" x="1702.5" y="-227" font-family="Helvetica,sans-Serif" font-size="10.00">thermoPhysics2TTypes.H</text>
</a>
</g>
</g>
<!-- Node1&#45;&gt;Node27 -->
<g id="edge28_Node000001_Node000027" class="edge">
<title>Node1&#45;&gt;Node27</title>
<g id="a_edge28_Node000001_Node000027"><a xlink:title=" ">
<path fill="none" stroke="#63b8ff" d="M997.75,-280.53C1115,-274.47 1385.15,-259.55 1622.56,-239.13"/>
<polygon fill="#63b8ff" stroke="#63b8ff" points="1623.11,-242.6 1632.77,-238.25 1622.51,-235.63 1623.11,-242.6"/>
</a>
</g>
</g>
<!-- Node28 -->
<g id="Node000028" class="node">
<title>Node28</title>
<g id="a_Node000028"><a xlink:title=" ">
<polygon fill="#e0e0e0" stroke="#999999" points="1947,-239 1790,-239 1790,-220 1947,-220 1947,-239"/>
<text text-anchor="middle" x="1868.5" y="-227" font-family="Helvetica,sans-Serif" font-size="10.00">blottnerEucken2TTransport.H</text>
</a>
</g>
</g>
<!-- Node1&#45;&gt;Node28 -->
<g id="edge29_Node000001_Node000028" class="edge">
<title>Node1&#45;&gt;Node28</title>
<g id="a_edge29_Node000001_Node000028"><a xlink:title=" ">
<path fill="none" stroke="#63b8ff" d="M997.58,-281.29C1133.61,-276 1479.68,-261.44 1779.59,-239.11"/>
<polygon fill="#63b8ff" stroke="#63b8ff" points="1780.08,-242.59 1789.79,-238.35 1779.56,-235.61 1780.08,-242.59"/>
</a>
</g>
</g>
<!-- Node3 -->
<g id="Node000003" class="node">
<title>Node3</title>
<g id="a_Node000003"><a xlink:href="lnInclude_2fluid2TThermo_8H.html" target="_top" xlink:title=" ">
<polygon fill="white" stroke="#666666" points="343.5,-129 245.5,-129 245.5,-110 343.5,-110 343.5,-129"/>
<text text-anchor="middle" x="294.5" y="-117" font-family="Helvetica,sans-Serif" font-size="10.00">fluid2TThermo.H</text>
</a>
</g>
</g>
<!-- Node2&#45;&gt;Node3 -->
<g id="edge2_Node000002_Node000003" class="edge">
<title>Node2&#45;&gt;Node3</title>
<g id="a_edge2_Node000002_Node000003"><a xlink:title=" ">
<path fill="none" stroke="#63b8ff" d="M383.47,-164.98C366.57,-156.54 340.44,-143.47 320.86,-133.68"/>
<polygon fill="#63b8ff" stroke="#63b8ff" points="322.35,-130.51 311.84,-129.17 319.22,-136.77 322.35,-130.51"/>
</a>
</g>
</g>
<!-- Node11 -->
<g id="Node000011" class="node">
<title>Node11</title>
<g id="a_Node000011"><a xlink:title=" ">
<polygon fill="#e0e0e0" stroke="#999999" points="505,-129 362,-129 362,-110 505,-110 505,-129"/>
<text text-anchor="middle" x="433.5" y="-117" font-family="Helvetica,sans-Serif" font-size="10.00">runTimeSelectionTables.H</text>
</a>
</g>
</g>
<!-- Node2&#45;&gt;Node11 -->
<g id="edge10_Node000002_Node000011" class="edge">
<title>Node2&#45;&gt;Node11</title>
<g id="a_edge10_Node000002_Node000011"><a xlink:title=" ">
<path fill="none" stroke="#63b8ff" d="M405.95,-164.75C410.51,-157.42 417.17,-146.73 422.79,-137.7"/>
<polygon fill="#63b8ff" stroke="#63b8ff" points="425.84,-139.43 428.15,-129.09 419.9,-135.73 425.84,-139.43"/>
</a>
</g>
</g>
<!-- Node4 -->
<g id="Node000004" class="node">
<title>Node4</title>
<g id="a_Node000004"><a xlink:href="lnInclude_2basic2TThermo_8H.html" target="_top" xlink:title=" ">
<polygon fill="white" stroke="#666666" points="269.5,-74 167.5,-74 167.5,-55 269.5,-55 269.5,-74"/>
<text text-anchor="middle" x="218.5" y="-62" font-family="Helvetica,sans-Serif" font-size="10.00">basic2TThermo.H</text>
</a>
</g>
</g>
<!-- Node3&#45;&gt;Node4 -->
<g id="edge3_Node000003_Node000004" class="edge">
<title>Node3&#45;&gt;Node4</title>
<g id="a_edge3_Node000003_Node000004"><a xlink:title=" ">
<path fill="none" stroke="#63b8ff" d="M282.29,-109.98C270.72,-101.92 253.12,-89.65 239.34,-80.03"/>
<polygon fill="#63b8ff" stroke="#63b8ff" points="241.14,-77.02 230.93,-74.17 237.13,-82.76 241.14,-77.02"/>
</a>
</g>
</g>
<!-- Node10 -->
<g id="Node000010" class="node">
<title>Node10</title>
<g id="a_Node000010"><a xlink:title=" ">
<polygon fill="#e0e0e0" stroke="#999999" points="455,-74 288,-74 288,-55 455,-55 455,-74"/>
<text text-anchor="middle" x="371.5" y="-62" font-family="Helvetica,sans-Serif" font-size="10.00">compressibleTransportModel.H</text>
</a>
</g>
</g>
<!-- Node3&#45;&gt;Node10 -->
<g id="edge9_Node000003_Node000010" class="edge">
<title>Node3&#45;&gt;Node10</title>
<g id="a_edge9_Node000003_Node000010"><a xlink:title=" ">
<path fill="none" stroke="#63b8ff" d="M306.87,-109.98C318.59,-101.92 336.42,-89.65 350.39,-80.03"/>
<polygon fill="#63b8ff" stroke="#63b8ff" points="352.65,-82.72 358.9,-74.17 348.68,-76.96 352.65,-82.72"/>
</a>
</g>
</g>
<!-- Node5 -->
<g id="Node000005" class="node">
<title>Node5</title>
<g id="a_Node000005"><a xlink:title=" ">
<polygon fill="#e0e0e0" stroke="#999999" points="71,-19 0,-19 0,0 71,0 71,-19"/>
<text text-anchor="middle" x="35.5" y="-7" font-family="Helvetica,sans-Serif" font-size="10.00">volFields.H</text>
</a>
</g>
</g>
<!-- Node4&#45;&gt;Node5 -->
<g id="edge4_Node000004_Node000005" class="edge">
<title>Node4&#45;&gt;Node5</title>
<g id="a_edge4_Node000004_Node000005"><a xlink:title=" ">
<path fill="none" stroke="#63b8ff" d="M189.1,-54.98C158.11,-46.01 109.12,-31.82 74.83,-21.89"/>
<polygon fill="#63b8ff" stroke="#63b8ff" points="75.71,-18.5 65.13,-19.08 73.76,-25.23 75.71,-18.5"/>
</a>
</g>
</g>
<!-- Node6 -->
<g id="Node000006" class="node">
<title>Node6</title>
<g id="a_Node000006"><a xlink:title=" ">
<polygon fill="#e0e0e0" stroke="#999999" points="157.5,-19 89.5,-19 89.5,0 157.5,0 157.5,-19"/>
<text text-anchor="middle" x="123.5" y="-7" font-family="Helvetica,sans-Serif" font-size="10.00">typeInfo.H</text>
</a>
</g>
</g>
<!-- Node4&#45;&gt;Node6 -->
<g id="edge5_Node000004_Node000006" class="edge">
<title>Node4&#45;&gt;Node6</title>
<g id="a_edge5_Node000004_Node000006"><a xlink:title=" ">
<path fill="none" stroke="#63b8ff" d="M203.24,-54.98C188.37,-46.69 165.52,-33.94 148.08,-24.22"/>
<polygon fill="#63b8ff" stroke="#63b8ff" points="149.48,-20.99 139.04,-19.17 146.07,-27.1 149.48,-20.99"/>
</a>
</g>
</g>
<!-- Node7 -->
<g id="Node000007" class="node">
<title>Node7</title>
<g id="a_Node000007"><a xlink:title=" ">
<polygon fill="#e0e0e0" stroke="#999999" points="261,-19 176,-19 176,0 261,0 261,-19"/>
<text text-anchor="middle" x="218.5" y="-7" font-family="Helvetica,sans-Serif" font-size="10.00">IOdictionary.H</text>
</a>
</g>
</g>
<!-- Node4&#45;&gt;Node7 -->
<g id="edge6_Node000004_Node000007" class="edge">
<title>Node4&#45;&gt;Node7</title>
<g id="a_edge6_Node000004_Node000007"><a xlink:title=" ">
<path fill="none" stroke="#63b8ff" d="M218.5,-54.75C218.5,-47.8 218.5,-37.85 218.5,-29.13"/>
<polygon fill="#63b8ff" stroke="#63b8ff" points="222,-29.09 218.5,-19.09 215,-29.09 222,-29.09"/>
</a>
</g>
</g>
<!-- Node8 -->
<g id="Node000008" class="node">
<title>Node8</title>
<g id="a_Node000008"><a xlink:title=" ">
<polygon fill="#e0e0e0" stroke="#999999" points="341.5,-19 279.5,-19 279.5,0 341.5,0 341.5,-19"/>
<text text-anchor="middle" x="310.5" y="-7" font-family="Helvetica,sans-Serif" font-size="10.00">autoPtr.H</text>
</a>
</g>
</g>
<!-- Node4&#45;&gt;Node8 -->
<g id="edge7_Node000004_Node000008" class="edge">
<title>Node4&#45;&gt;Node8</title>
<g id="a_edge7_Node000004_Node000008"><a xlink:title=" ">
<path fill="none" stroke="#63b8ff" d="M233.28,-54.98C247.68,-46.69 269.81,-33.94 286.69,-24.22"/>
<polygon fill="#63b8ff" stroke="#63b8ff" points="288.53,-27.19 295.45,-19.17 285.04,-21.13 288.53,-27.19"/>
</a>
</g>
</g>
<!-- Node9 -->
<g id="Node000009" class="node">
<title>Node9</title>
<g id="a_Node000009"><a xlink:title=" ">
<polygon fill="#e0e0e0" stroke="#999999" points="439,-19 360,-19 360,0 439,0 439,-19"/>
<text text-anchor="middle" x="399.5" y="-7" font-family="Helvetica,sans-Serif" font-size="10.00">wordIOList.H</text>
</a>
</g>
</g>
<!-- Node4&#45;&gt;Node9 -->
<g id="edge8_Node000004_Node000009" class="edge">
<title>Node4&#45;&gt;Node9</title>
<g id="a_edge8_Node000004_Node000009"><a xlink:title=" ">
<path fill="none" stroke="#63b8ff" d="M247.58,-54.98C278.1,-46.05 326.26,-31.94 360.16,-22.02"/>
<polygon fill="#63b8ff" stroke="#63b8ff" points="361.58,-25.25 370.19,-19.08 359.61,-18.53 361.58,-25.25"/>
</a>
</g>
</g>
<!-- Node12&#45;&gt;Node3 -->
<g id="edge12_Node000012_Node000003" class="edge">
<title>Node12&#45;&gt;Node3</title>
<g id="a_edge12_Node000012_Node000003"><a xlink:title=" ">
<path fill="none" stroke="#63b8ff" d="M246.89,-219.81C255.47,-211.4 267.92,-197.92 275.5,-184 283.16,-169.93 288.11,-152.38 291.03,-139.3"/>
<polygon fill="#63b8ff" stroke="#63b8ff" points="294.53,-139.65 293.09,-129.16 287.67,-138.26 294.53,-139.65"/>
</a>
</g>
</g>
<!-- Node13 -->
<g id="Node000013" class="node">
<title>Node13</title>
<g id="a_Node000013"><a xlink:title=" ">
<polygon fill="#e0e0e0" stroke="#999999" points="266.5,-184 96.5,-184 96.5,-165 266.5,-165 266.5,-184"/>
<text text-anchor="middle" x="181.5" y="-172" font-family="Helvetica,sans-Serif" font-size="10.00">addToRunTimeSelectionTable.H</text>
</a>
</g>
</g>
<!-- Node12&#45;&gt;Node13 -->
<g id="edge13_Node000012_Node000013" class="edge">
<title>Node12&#45;&gt;Node13</title>
<g id="a_edge13_Node000012_Node000013"><a xlink:title=" ">
<path fill="none" stroke="#63b8ff" d="M228.5,-219.98C220.31,-212.23 207.99,-200.58 198.03,-191.14"/>
<polygon fill="#63b8ff" stroke="#63b8ff" points="200.33,-188.5 190.66,-184.17 195.52,-193.59 200.33,-188.5"/>
</a>
</g>
</g>
<!-- Node23&#45;&gt;Node2 -->
<g id="edge24_Node000023_Node000002" class="edge">
<title>Node23&#45;&gt;Node2</title>
<g id="a_edge24_Node000023_Node000002"><a xlink:title=" ">
<path fill="none" stroke="#63b8ff" d="M1383.29,-221.01C1379.98,-220.64 1376.69,-220.29 1373.5,-220 1024.89,-187.81 603.77,-178.58 455.42,-176.23"/>
<polygon fill="#63b8ff" stroke="#63b8ff" points="455.27,-172.73 445.21,-176.07 455.16,-179.72 455.27,-172.73"/>
</a>
</g>
</g>
<!-- Node24 -->
<g id="Node000024" class="node">
<title>Node24</title>
<g id="a_Node000024"><a xlink:href="lnInclude_2he2TThermo_8H.html" target="_top" xlink:title=" ">
<polygon fill="white" stroke="#666666" points="1479,-184 1390,-184 1390,-165 1479,-165 1479,-184"/>
<text text-anchor="middle" x="1434.5" y="-172" font-family="Helvetica,sans-Serif" font-size="10.00">he2TThermo.H</text>
</a>
</g>
</g>
<!-- Node23&#45;&gt;Node24 -->
<g id="edge25_Node000023_Node000024" class="edge">
<title>Node23&#45;&gt;Node24</title>
<g id="a_edge25_Node000023_Node000024"><a xlink:title=" ">
<path fill="none" stroke="#63b8ff" d="M1434.5,-219.75C1434.5,-212.8 1434.5,-202.85 1434.5,-194.13"/>
<polygon fill="#63b8ff" stroke="#63b8ff" points="1438,-194.09 1434.5,-184.09 1431,-194.09 1438,-194.09"/>
</a>
</g>
</g>
<!-- Node25 -->
<g id="Node000025" class="node">
<title>Node25</title>
<g id="a_Node000025"><a xlink:title=" ">
<polygon fill="#e0e0e0" stroke="#999999" points="1479.5,-129 1389.5,-129 1389.5,-110 1479.5,-110 1479.5,-129"/>
<text text-anchor="middle" x="1434.5" y="-117" font-family="Helvetica,sans-Serif" font-size="10.00">basicMixture.H</text>
</a>
</g>
</g>
<!-- Node24&#45;&gt;Node25 -->
<g id="edge26_Node000024_Node000025" class="edge">
<title>Node24&#45;&gt;Node25</title>
<g id="a_edge26_Node000024_Node000025"><a xlink:title=" ">
<path fill="none" stroke="#63b8ff" d="M1434.5,-164.75C1434.5,-157.8 1434.5,-147.85 1434.5,-139.13"/>
<polygon fill="#63b8ff" stroke="#63b8ff" points="1438,-139.09 1434.5,-129.09 1431,-139.09 1438,-139.09"/>
</a>
</g>
</g>
</g>
</svg>
