<?xml version="1.0" encoding="UTF-8" standalone="no"?>
<!DOCTYPE svg PUBLIC "-//W3C//DTD SVG 1.1//EN"
 "http://www.w3.org/Graphics/SVG/1.1/DTD/svg11.dtd">
<!-- Generated by graphviz version 2.43.0 (0)
 -->
<!-- Title: CvVib Pages: 1 -->
<svg width="235pt" height="76pt"
 viewBox="0.00 0.00 235.00 75.50" xmlns="http://www.w3.org/2000/svg" xmlns:xlink="http://www.w3.org/1999/xlink">
<g id="graph0" class="graph" transform="scale(1 1) rotate(0) translate(4 71.5)">
<title>CvVib</title>
<!-- Node1 -->
<g id="Node000001" class="node">
<title>Node1</title>
<g id="a_Node000001"><a xlink:title=" ">
<polygon fill="#999999" stroke="#666666" points="227,-45.5 182,-45.5 182,-26.5 227,-26.5 227,-45.5"/>
<text text-anchor="middle" x="204.5" y="-33.5" font-family="Helvetica,sans-Serif" font-size="10.00">CvVib</text>
</a>
</g>
</g>
<!-- Node2 -->
<g id="Node000002" class="node">
<title>Node2</title>
<g id="a_Node000002"><a xlink:href="classFoam_1_1he2TThermo.html#a3e471847023347e28667a1bc8ec8747a" target="_top" xlink:title=" ">
<polygon fill="white" stroke="#666666" points="146,-67.5 0,-67.5 0,-48.5 146,-48.5 146,-67.5"/>
<text text-anchor="middle" x="73" y="-55.5" font-family="Helvetica,sans-Serif" font-size="10.00">Foam::he2TThermo::CvVib</text>
</a>
</g>
</g>
<!-- Node1&#45;&gt;Node2 -->
<g id="edge1_Node000001_Node000002" class="edge">
<title>Node1&#45;&gt;Node2</title>
<g id="a_edge1_Node000001_Node000002"><a xlink:title=" ">
<path fill="none" stroke="#63b8ff" d="M171.85,-41.38C159.27,-43.51 144.41,-46.04 130.11,-48.47"/>
<polygon fill="#63b8ff" stroke="#63b8ff" points="172.55,-44.81 181.82,-39.68 171.38,-37.91 172.55,-44.81"/>
</a>
</g>
</g>
<!-- Node3 -->
<g id="Node000003" class="node">
<title>Node3</title>
<g id="a_Node000003"><a xlink:href="classFoam_1_1species_1_1thermo2T.html#abf02af698eaf98dca451dcf0496aa3ce" target="_top" xlink:title=" ">
<polygon fill="white" stroke="#666666" points="143,-30 3,-30 3,0 143,0 143,-30"/>
<text text-anchor="start" x="11" y="-18" font-family="Helvetica,sans-Serif" font-size="10.00">Foam::species::thermo2T</text>
<text text-anchor="middle" x="73" y="-7" font-family="Helvetica,sans-Serif" font-size="10.00">::cvVib</text>
</a>
</g>
</g>
<!-- Node1&#45;&gt;Node3 -->
<g id="edge2_Node000001_Node000003" class="edge">
<title>Node1&#45;&gt;Node3</title>
<g id="a_edge2_Node000001_Node000003"><a xlink:title=" ">
<path fill="none" stroke="#63b8ff" d="M171.72,-30.85C162.93,-29.42 153.04,-27.82 143.01,-26.19"/>
<polygon fill="#63b8ff" stroke="#63b8ff" points="171.39,-34.34 181.82,-32.49 172.51,-27.43 171.39,-34.34"/>
</a>
</g>
</g>
</g>
</svg>
