<?xml version="1.0" encoding="UTF-8" standalone="no"?>
<!DOCTYPE svg PUBLIC "-//W3C//DTD SVG 1.1//EN"
 "http://www.w3.org/Graphics/SVG/1.1/DTD/svg11.dtd">
<!-- Generated by graphviz version 2.43.0 (0)
 -->
<!-- Title: reaction2TTypes.H Pages: 1 -->
<svg width="1653pt" height="247pt"
 viewBox="0.00 0.00 1653.32 247.00" xmlns="http://www.w3.org/2000/svg" xmlns:xlink="http://www.w3.org/1999/xlink">
<g id="graph0" class="graph" transform="scale(1 1) rotate(0) translate(4 243)">
<title>reaction2TTypes.H</title>
<!-- Node1 -->
<g id="Node000001" class="node">
<title>Node1</title>
<g id="a_Node000001"><a xlink:title=" ">
<polygon fill="#999999" stroke="#666666" points="1028.82,-239 921.82,-239 921.82,-220 1028.82,-220 1028.82,-239"/>
<text text-anchor="middle" x="975.32" y="-227" font-family="Helvetica,sans-Serif" font-size="10.00">reaction2TTypes.H</text>
</a>
</g>
</g>
<!-- Node2 -->
<g id="Node000002" class="node">
<title>Node2</title>
<g id="a_Node000002"><a xlink:href="lnInclude_2thermoPhysics2TTypes_8H.html" target="_top" xlink:title=" ">
<polygon fill="white" stroke="#666666" points="820.82,-184 681.82,-184 681.82,-165 820.82,-165 820.82,-184"/>
<text text-anchor="middle" x="751.32" y="-172" font-family="Helvetica,sans-Serif" font-size="10.00">thermoPhysics2TTypes.H</text>
</a>
</g>
</g>
<!-- Node1&#45;&gt;Node2 -->
<g id="edge1_Node000001_Node000002" class="edge">
<title>Node1&#45;&gt;Node2</title>
<g id="a_edge1_Node000001_Node000002"><a xlink:title=" ">
<path fill="none" stroke="#63b8ff" d="M939.33,-219.98C900.83,-210.87 839.64,-196.4 797.58,-186.45"/>
<polygon fill="#63b8ff" stroke="#63b8ff" points="798.13,-182.98 787.59,-184.08 796.52,-189.79 798.13,-182.98"/>
</a>
</g>
</g>
<!-- Node24 -->
<g id="Node000024" class="node">
<title>Node24</title>
<g id="a_Node000024"><a xlink:title=" ">
<polygon fill="#e0e0e0" stroke="#999999" points="909.32,-184 839.32,-184 839.32,-165 909.32,-165 909.32,-184"/>
<text text-anchor="middle" x="874.32" y="-172" font-family="Helvetica,sans-Serif" font-size="10.00">Reaction.H</text>
</a>
</g>
</g>
<!-- Node1&#45;&gt;Node24 -->
<g id="edge27_Node000001_Node000024" class="edge">
<title>Node1&#45;&gt;Node24</title>
<g id="a_edge27_Node000001_Node000024"><a xlink:title=" ">
<path fill="none" stroke="#63b8ff" d="M959.09,-219.98C943.14,-211.61 918.54,-198.7 899.95,-188.95"/>
<polygon fill="#63b8ff" stroke="#63b8ff" points="901.33,-185.72 890.84,-184.17 898.07,-191.92 901.33,-185.72"/>
</a>
</g>
</g>
<!-- Node25 -->
<g id="Node000025" class="node">
<title>Node25</title>
<g id="a_Node000025"><a xlink:title=" ">
<polygon fill="#e0e0e0" stroke="#999999" points="1023.32,-184 927.32,-184 927.32,-165 1023.32,-165 1023.32,-184"/>
<text text-anchor="middle" x="975.32" y="-172" font-family="Helvetica,sans-Serif" font-size="10.00">icoPolynomial.H</text>
</a>
</g>
</g>
<!-- Node1&#45;&gt;Node25 -->
<g id="edge28_Node000001_Node000025" class="edge">
<title>Node1&#45;&gt;Node25</title>
<g id="a_edge28_Node000001_Node000025"><a xlink:title=" ">
<path fill="none" stroke="#63b8ff" d="M975.32,-219.75C975.32,-212.8 975.32,-202.85 975.32,-194.13"/>
<polygon fill="#63b8ff" stroke="#63b8ff" points="978.82,-194.09 975.32,-184.09 971.82,-194.09 978.82,-194.09"/>
</a>
</g>
</g>
<!-- Node26 -->
<g id="Node000026" class="node">
<title>Node26</title>
<g id="a_Node000026"><a xlink:title=" ">
<polygon fill="#e0e0e0" stroke="#999999" points="1166.82,-184 1041.82,-184 1041.82,-165 1166.82,-165 1166.82,-184"/>
<text text-anchor="middle" x="1104.32" y="-172" font-family="Helvetica,sans-Serif" font-size="10.00">hPolynomialThermo.H</text>
</a>
</g>
</g>
<!-- Node1&#45;&gt;Node26 -->
<g id="edge29_Node000001_Node000026" class="edge">
<title>Node1&#45;&gt;Node26</title>
<g id="a_edge29_Node000001_Node000026"><a xlink:title=" ">
<path fill="none" stroke="#63b8ff" d="M996.05,-219.98C1017.08,-211.34 1049.87,-197.87 1073.86,-188.02"/>
<polygon fill="#63b8ff" stroke="#63b8ff" points="1075.3,-191.21 1083.22,-184.17 1072.64,-184.73 1075.3,-191.21"/>
</a>
</g>
</g>
<!-- Node27 -->
<g id="Node000027" class="node">
<title>Node27</title>
<g id="a_Node000027"><a xlink:title=" ">
<polygon fill="#e0e0e0" stroke="#999999" points="1311.82,-184 1184.82,-184 1184.82,-165 1311.82,-165 1311.82,-184"/>
<text text-anchor="middle" x="1248.32" y="-172" font-family="Helvetica,sans-Serif" font-size="10.00">polynomialTransport.H</text>
</a>
</g>
</g>
<!-- Node1&#45;&gt;Node27 -->
<g id="edge30_Node000001_Node000027" class="edge">
<title>Node1&#45;&gt;Node27</title>
<g id="a_edge30_Node000001_Node000027"><a xlink:title=" ">
<path fill="none" stroke="#63b8ff" d="M1019.18,-219.98C1066.8,-210.74 1142.9,-195.97 1194.2,-186.01"/>
<polygon fill="#63b8ff" stroke="#63b8ff" points="1194.97,-189.42 1204.12,-184.08 1193.63,-182.55 1194.97,-189.42"/>
</a>
</g>
</g>
<!-- Node3 -->
<g id="Node000003" class="node">
<title>Node3</title>
<g id="a_Node000003"><a xlink:title=" ">
<polygon fill="#e0e0e0" stroke="#999999" points="1177.82,-19 1118.82,-19 1118.82,0 1177.82,0 1177.82,-19"/>
<text text-anchor="middle" x="1148.32" y="-7" font-family="Helvetica,sans-Serif" font-size="10.00">specie.H</text>
</a>
</g>
</g>
<!-- Node2&#45;&gt;Node3 -->
<g id="edge2_Node000002_Node000003" class="edge">
<title>Node2&#45;&gt;Node3</title>
<g id="a_edge2_Node000002_Node000003"><a xlink:title=" ">
<path fill="none" stroke="#63b8ff" d="M681.57,-171.91C500.41,-167.43 27.35,-153.44 4.32,-129 -1.47,-122.85 -1.38,-116.22 4.32,-110 80.51,-26.9 915.32,-12.97 1108.56,-10.85"/>
<polygon fill="#63b8ff" stroke="#63b8ff" points="1108.6,-14.35 1118.56,-10.75 1108.53,-7.35 1108.6,-14.35"/>
</a>
</g>
</g>
<!-- Node4 -->
<g id="Node000004" class="node">
<title>Node4</title>
<g id="a_Node000004"><a xlink:title=" ">
<polygon fill="#e0e0e0" stroke="#999999" points="93.32,-129 13.32,-129 13.32,-110 93.32,-110 93.32,-129"/>
<text text-anchor="middle" x="53.32" y="-117" font-family="Helvetica,sans-Serif" font-size="10.00">perfectGas.H</text>
</a>
</g>
</g>
<!-- Node2&#45;&gt;Node4 -->
<g id="edge3_Node000002_Node000004" class="edge">
<title>Node2&#45;&gt;Node4</title>
<g id="a_edge3_Node000002_Node000004"><a xlink:title=" ">
<path fill="none" stroke="#63b8ff" d="M681.47,-171.08C564.12,-166.49 319.81,-154.7 103.34,-128.99"/>
<polygon fill="#63b8ff" stroke="#63b8ff" points="103.73,-125.51 93.38,-127.8 102.9,-132.46 103.73,-125.51"/>
</a>
</g>
</g>
<!-- Node5 -->
<g id="Node000005" class="node">
<title>Node5</title>
<g id="a_Node000005"><a xlink:title=" ">
<polygon fill="#e0e0e0" stroke="#999999" points="226.82,-129 111.82,-129 111.82,-110 226.82,-110 226.82,-129"/>
<text text-anchor="middle" x="169.32" y="-117" font-family="Helvetica,sans-Serif" font-size="10.00">PengRobinsonGas.H</text>
</a>
</g>
</g>
<!-- Node2&#45;&gt;Node5 -->
<g id="edge4_Node000002_Node000005" class="edge">
<title>Node2&#45;&gt;Node5</title>
<g id="a_edge4_Node000002_Node000005"><a xlink:title=" ">
<path fill="none" stroke="#63b8ff" d="M681.54,-168.42C584.32,-161.13 402.34,-146.73 237.24,-129.17"/>
<polygon fill="#63b8ff" stroke="#63b8ff" points="237.21,-125.64 226.9,-128.06 236.47,-132.6 237.21,-125.64"/>
</a>
</g>
</g>
<!-- Node6 -->
<g id="Node000006" class="node">
<title>Node6</title>
<g id="a_Node000006"><a xlink:title=" ">
<polygon fill="#e0e0e0" stroke="#999999" points="399.82,-129 244.82,-129 244.82,-110 399.82,-110 399.82,-129"/>
<text text-anchor="middle" x="322.32" y="-117" font-family="Helvetica,sans-Serif" font-size="10.00">incompressiblePerfectGas.H</text>
</a>
</g>
</g>
<!-- Node2&#45;&gt;Node6 -->
<g id="edge5_Node000002_Node000006" class="edge">
<title>Node2&#45;&gt;Node6</title>
<g id="a_edge5_Node000002_Node000006"><a xlink:title=" ">
<path fill="none" stroke="#63b8ff" d="M682.4,-164.98C605.74,-155.51 482.11,-140.24 401.53,-130.29"/>
<polygon fill="#63b8ff" stroke="#63b8ff" points="401.79,-126.79 391.43,-129.04 400.93,-133.74 401.79,-126.79"/>
</a>
</g>
</g>
<!-- Node7 -->
<g id="Node000007" class="node">
<title>Node7</title>
<g id="a_Node000007"><a xlink:title=" ">
<polygon fill="#e0e0e0" stroke="#999999" points="504.32,-129 418.32,-129 418.32,-110 504.32,-110 504.32,-129"/>
<text text-anchor="middle" x="461.32" y="-117" font-family="Helvetica,sans-Serif" font-size="10.00">rPolynomial.H</text>
</a>
</g>
</g>
<!-- Node2&#45;&gt;Node7 -->
<g id="edge6_Node000002_Node000007" class="edge">
<title>Node2&#45;&gt;Node7</title>
<g id="a_edge6_Node000002_Node000007"><a xlink:title=" ">
<path fill="none" stroke="#63b8ff" d="M704.73,-164.98C652.84,-155.5 569.1,-140.2 514.64,-130.24"/>
<polygon fill="#63b8ff" stroke="#63b8ff" points="514.95,-126.74 504.49,-128.39 513.69,-133.63 514.95,-126.74"/>
</a>
</g>
</g>
<!-- Node8 -->
<g id="Node000008" class="node">
<title>Node8</title>
<g id="a_Node000008"><a xlink:title=" ">
<polygon fill="#e0e0e0" stroke="#999999" points="608.32,-129 522.32,-129 522.32,-110 608.32,-110 608.32,-129"/>
<text text-anchor="middle" x="565.32" y="-117" font-family="Helvetica,sans-Serif" font-size="10.00">perfectFluid.H</text>
</a>
</g>
</g>
<!-- Node2&#45;&gt;Node8 -->
<g id="edge7_Node000002_Node000008" class="edge">
<title>Node2&#45;&gt;Node8</title>
<g id="a_edge7_Node000002_Node000008"><a xlink:title=" ">
<path fill="none" stroke="#63b8ff" d="M721.44,-164.98C689.94,-156.01 640.15,-141.82 605.3,-131.89"/>
<polygon fill="#63b8ff" stroke="#63b8ff" points="606.02,-128.46 595.44,-129.08 604.1,-135.19 606.02,-128.46"/>
</a>
</g>
</g>
<!-- Node9 -->
<g id="Node000009" class="node">
<title>Node9</title>
<g id="a_Node000009"><a xlink:title=" ">
<polygon fill="#e0e0e0" stroke="#999999" points="757.82,-129 626.82,-129 626.82,-110 757.82,-110 757.82,-129"/>
<text text-anchor="middle" x="692.32" y="-117" font-family="Helvetica,sans-Serif" font-size="10.00">adiabaticPerfectFluid.H</text>
</a>
</g>
</g>
<!-- Node2&#45;&gt;Node9 -->
<g id="edge8_Node000002_Node000009" class="edge">
<title>Node2&#45;&gt;Node9</title>
<g id="a_edge8_Node000002_Node000009"><a xlink:title=" ">
<path fill="none" stroke="#63b8ff" d="M741.84,-164.98C733.12,-157.15 719.98,-145.34 709.42,-135.86"/>
<polygon fill="#63b8ff" stroke="#63b8ff" points="711.75,-133.25 701.97,-129.17 707.07,-138.46 711.75,-133.25"/>
</a>
</g>
</g>
<!-- Node10 -->
<g id="Node000010" class="node">
<title>Node10</title>
<g id="a_Node000010"><a xlink:title=" ">
<polygon fill="#e0e0e0" stroke="#999999" points="846.82,-129 775.82,-129 775.82,-110 846.82,-110 846.82,-129"/>
<text text-anchor="middle" x="811.32" y="-117" font-family="Helvetica,sans-Serif" font-size="10.00">rhoConst.H</text>
</a>
</g>
</g>
<!-- Node2&#45;&gt;Node10 -->
<g id="edge9_Node000002_Node000010" class="edge">
<title>Node2&#45;&gt;Node10</title>
<g id="a_edge9_Node000002_Node000010"><a xlink:title=" ">
<path fill="none" stroke="#63b8ff" d="M760.96,-164.98C769.83,-157.15 783.2,-145.34 793.93,-135.86"/>
<polygon fill="#63b8ff" stroke="#63b8ff" points="796.33,-138.41 801.51,-129.17 791.69,-133.17 796.33,-138.41"/>
</a>
</g>
</g>
<!-- Node11 -->
<g id="Node000011" class="node">
<title>Node11</title>
<g id="a_Node000011"><a xlink:title=" ">
<polygon fill="#e0e0e0" stroke="#999999" points="963.32,-129 865.32,-129 865.32,-110 963.32,-110 963.32,-129"/>
<text text-anchor="middle" x="914.32" y="-117" font-family="Helvetica,sans-Serif" font-size="10.00">hConstThermo.H</text>
</a>
</g>
</g>
<!-- Node2&#45;&gt;Node11 -->
<g id="edge10_Node000002_Node000011" class="edge">
<title>Node2&#45;&gt;Node11</title>
<g id="a_edge10_Node000002_Node000011"><a xlink:title=" ">
<path fill="none" stroke="#63b8ff" d="M777.51,-164.98C804.76,-156.13 847.62,-142.19 878.11,-132.28"/>
<polygon fill="#63b8ff" stroke="#63b8ff" points="879.5,-135.5 887.93,-129.08 877.34,-128.85 879.5,-135.5"/>
</a>
</g>
</g>
<!-- Node12 -->
<g id="Node000012" class="node">
<title>Node12</title>
<g id="a_Node000012"><a xlink:title=" ">
<polygon fill="#e0e0e0" stroke="#999999" points="1079.32,-129 981.32,-129 981.32,-110 1079.32,-110 1079.32,-129"/>
<text text-anchor="middle" x="1030.32" y="-117" font-family="Helvetica,sans-Serif" font-size="10.00">eConstThermo.H</text>
</a>
</g>
</g>
<!-- Node2&#45;&gt;Node12 -->
<g id="edge11_Node000002_Node000012" class="edge">
<title>Node2&#45;&gt;Node12</title>
<g id="a_edge11_Node000002_Node000012"><a xlink:title=" ">
<path fill="none" stroke="#63b8ff" d="M796.15,-164.98C844.81,-155.74 922.59,-140.97 975.01,-131.01"/>
<polygon fill="#63b8ff" stroke="#63b8ff" points="975.97,-134.39 985.14,-129.08 974.67,-127.51 975.97,-134.39"/>
</a>
</g>
</g>
<!-- Node13 -->
<g id="Node000013" class="node">
<title>Node13</title>
<g id="a_Node000013"><a xlink:href="lnInclude_2janaf2TThermo_8H.html" target="_top" xlink:title=" ">
<polygon fill="white" stroke="#666666" points="1198.82,-129 1097.82,-129 1097.82,-110 1198.82,-110 1198.82,-129"/>
<text text-anchor="middle" x="1148.32" y="-117" font-family="Helvetica,sans-Serif" font-size="10.00">janaf2TThermo.H</text>
</a>
</g>
</g>
<!-- Node2&#45;&gt;Node13 -->
<g id="edge12_Node000002_Node000013" class="edge">
<title>Node2&#45;&gt;Node13</title>
<g id="a_edge12_Node000002_Node000013"><a xlink:title=" ">
<path fill="none" stroke="#63b8ff" d="M817.21,-164.99C882.97,-156.45 987.2,-142.8 1087.57,-129.09"/>
<polygon fill="#63b8ff" stroke="#63b8ff" points="1088.15,-132.54 1097.59,-127.72 1087.21,-125.61 1088.15,-132.54"/>
</a>
</g>
</g>
<!-- Node18 -->
<g id="Node000018" class="node">
<title>Node18</title>
<g id="a_Node000018"><a xlink:href="lnInclude_2thermo2T_8H.html" target="_top" xlink:title=" ">
<polygon fill="white" stroke="#666666" points="1328.32,-129 1254.32,-129 1254.32,-110 1328.32,-110 1328.32,-129"/>
<text text-anchor="middle" x="1291.32" y="-117" font-family="Helvetica,sans-Serif" font-size="10.00">thermo2T.H</text>
</a>
</g>
</g>
<!-- Node2&#45;&gt;Node18 -->
<g id="edge19_Node000002_Node000018" class="edge">
<title>Node2&#45;&gt;Node18</title>
<g id="a_edge19_Node000002_Node000018"><a xlink:title=" ">
<path fill="none" stroke="#63b8ff" d="M821.1,-165.95C824.22,-165.62 827.3,-165.31 830.32,-165 998.22,-147.97 1040.38,-145.6 1208.32,-129 1219.92,-127.85 1232.42,-126.59 1244.12,-125.39"/>
<polygon fill="#63b8ff" stroke="#63b8ff" points="1244.55,-128.87 1254.14,-124.36 1243.84,-121.9 1244.55,-128.87"/>
</a>
</g>
</g>
<!-- Node21 -->
<g id="Node000021" class="node">
<title>Node21</title>
<g id="a_Node000021"><a xlink:href="lnInclude_2sensibleEnthalpy2T_8H.html" target="_top" xlink:title=" ">
<polygon fill="white" stroke="#666666" points="1468.32,-129 1346.32,-129 1346.32,-110 1468.32,-110 1468.32,-129"/>
<text text-anchor="middle" x="1407.32" y="-117" font-family="Helvetica,sans-Serif" font-size="10.00">sensibleEnthalpy2T.H</text>
</a>
</g>
</g>
<!-- Node2&#45;&gt;Node21 -->
<g id="edge23_Node000002_Node000021" class="edge">
<title>Node2&#45;&gt;Node21</title>
<g id="a_edge23_Node000002_Node000021"><a xlink:title=" ">
<path fill="none" stroke="#63b8ff" d="M821.1,-165.85C824.21,-165.56 827.3,-165.27 830.32,-165 1052.03,-145.21 1110.75,-150.46 1336.1,-129.07"/>
<polygon fill="#63b8ff" stroke="#63b8ff" points="1336.64,-132.53 1346.26,-128.1 1335.97,-125.57 1336.64,-132.53"/>
</a>
</g>
</g>
<!-- Node22 -->
<g id="Node000022" class="node">
<title>Node22</title>
<g id="a_Node000022"><a xlink:href="lnInclude_2blottnerEucken2TTransport_8H.html" target="_top" xlink:title=" ">
<polygon fill="white" stroke="#666666" points="1643.82,-129 1486.82,-129 1486.82,-110 1643.82,-110 1643.82,-129"/>
<text text-anchor="middle" x="1565.32" y="-117" font-family="Helvetica,sans-Serif" font-size="10.00">blottnerEucken2TTransport.H</text>
</a>
</g>
</g>
<!-- Node2&#45;&gt;Node22 -->
<g id="edge24_Node000002_Node000022" class="edge">
<title>Node2&#45;&gt;Node22</title>
<g id="a_edge24_Node000002_Node000022"><a xlink:title=" ">
<path fill="none" stroke="#63b8ff" d="M821.09,-165.8C824.21,-165.51 827.3,-165.25 830.32,-165 1114.01,-141.86 1188.42,-150.64 1476.32,-129.04"/>
<polygon fill="#63b8ff" stroke="#63b8ff" points="1476.95,-132.5 1486.65,-128.26 1476.42,-125.52 1476.95,-132.5"/>
</a>
</g>
</g>
<!-- Node14 -->
<g id="Node000014" class="node">
<title>Node14</title>
<g id="a_Node000014"><a xlink:title=" ">
<polygon fill="#e0e0e0" stroke="#999999" points="874.32,-74 818.32,-74 818.32,-55 874.32,-55 874.32,-74"/>
<text text-anchor="middle" x="846.32" y="-62" font-family="Helvetica,sans-Serif" font-size="10.00">scalar.H</text>
</a>
</g>
</g>
<!-- Node13&#45;&gt;Node14 -->
<g id="edge13_Node000013_Node000014" class="edge">
<title>Node13&#45;&gt;Node14</title>
<g id="a_edge13_Node000013_Node000014"><a xlink:title=" ">
<path fill="none" stroke="#63b8ff" d="M1097.36,-110.86C1046.07,-102.97 964.48,-89.86 884.78,-74.19"/>
<polygon fill="#63b8ff" stroke="#63b8ff" points="885.06,-70.68 874.57,-72.17 883.7,-77.55 885.06,-70.68"/>
</a>
</g>
</g>
<!-- Node15 -->
<g id="Node000015" class="node">
<title>Node15</title>
<g id="a_Node000015"><a xlink:title=" ">
<polygon fill="#e0e0e0" stroke="#999999" points="962.32,-74 892.32,-74 892.32,-55 962.32,-55 962.32,-74"/>
<text text-anchor="middle" x="927.32" y="-62" font-family="Helvetica,sans-Serif" font-size="10.00">FixedList.H</text>
</a>
</g>
</g>
<!-- Node13&#45;&gt;Node15 -->
<g id="edge14_Node000013_Node000015" class="edge">
<title>Node13&#45;&gt;Node15</title>
<g id="a_edge14_Node000013_Node000015"><a xlink:title=" ">
<path fill="none" stroke="#63b8ff" d="M1112.81,-109.98C1074.6,-100.82 1013.74,-86.22 972.23,-76.27"/>
<polygon fill="#63b8ff" stroke="#63b8ff" points="972.92,-72.84 962.38,-73.91 971.28,-79.64 972.92,-72.84"/>
</a>
</g>
</g>
<!-- Node16 -->
<g id="Node000016" class="node">
<title>Node16</title>
<g id="a_Node000016"><a xlink:href="lnInclude_2HtoEthermo2T_8H.html" target="_top" xlink:title=" ">
<polygon fill="white" stroke="#666666" points="1077.82,-74 980.82,-74 980.82,-55 1077.82,-55 1077.82,-74"/>
<text text-anchor="middle" x="1029.32" y="-62" font-family="Helvetica,sans-Serif" font-size="10.00">HtoEthermo2T.H</text>
</a>
</g>
</g>
<!-- Node13&#45;&gt;Node16 -->
<g id="edge15_Node000013_Node000016" class="edge">
<title>Node13&#45;&gt;Node16</title>
<g id="a_edge15_Node000013_Node000016"><a xlink:title=" ">
<path fill="none" stroke="#63b8ff" d="M1129.2,-109.98C1109.97,-101.42 1080.09,-88.11 1058.02,-78.28"/>
<polygon fill="#63b8ff" stroke="#63b8ff" points="1059.35,-75.04 1048.79,-74.17 1056.5,-81.44 1059.35,-75.04"/>
</a>
</g>
</g>
<!-- Node17 -->
<g id="Node000017" class="node">
<title>Node17</title>
<g id="a_Node000017"><a xlink:href="lnInclude_2janaf2TThermoI_8H.html" target="_top" xlink:title=" ">
<polygon fill="white" stroke="#666666" points="1200.32,-74 1096.32,-74 1096.32,-55 1200.32,-55 1200.32,-74"/>
<text text-anchor="middle" x="1148.32" y="-62" font-family="Helvetica,sans-Serif" font-size="10.00">janaf2TThermoI.H</text>
</a>
</g>
</g>
<!-- Node13&#45;&gt;Node17 -->
<g id="edge16_Node000013_Node000017" class="edge">
<title>Node13&#45;&gt;Node17</title>
<g id="a_edge16_Node000013_Node000017"><a xlink:title=" ">
<path fill="none" stroke="#63b8ff" d="M1143.16,-109.75C1141.66,-102.8 1141.23,-92.85 1141.84,-84.13"/>
<polygon fill="#63b8ff" stroke="#63b8ff" points="1145.33,-84.47 1143.19,-74.09 1138.39,-83.53 1145.33,-84.47"/>
</a>
</g>
</g>
<!-- Node17&#45;&gt;Node3 -->
<g id="edge18_Node000017_Node000003" class="edge">
<title>Node17&#45;&gt;Node3</title>
<g id="a_edge18_Node000017_Node000003"><a xlink:title=" ">
<path fill="none" stroke="#63b8ff" d="M1148.32,-54.75C1148.32,-47.8 1148.32,-37.85 1148.32,-29.13"/>
<polygon fill="#63b8ff" stroke="#63b8ff" points="1151.82,-29.09 1148.32,-19.09 1144.82,-29.09 1151.82,-29.09"/>
</a>
</g>
</g>
<!-- Node17&#45;&gt;Node13 -->
<g id="edge17_Node000017_Node000013" class="edge">
<title>Node17&#45;&gt;Node13</title>
<g id="a_edge17_Node000017_Node000013"><a xlink:title=" ">
<path fill="none" stroke="#63b8ff" d="M1153.45,-74.09C1154.96,-80.99 1155.42,-90.93 1154.81,-99.66"/>
<polygon fill="#63b8ff" stroke="#63b8ff" points="1151.32,-99.38 1153.49,-109.75 1158.26,-100.29 1151.32,-99.38"/>
</a>
</g>
</g>
<!-- Node19 -->
<g id="Node000019" class="node">
<title>Node19</title>
<g id="a_Node000019"><a xlink:title=" ">
<polygon fill="#e0e0e0" stroke="#999999" points="1371.82,-74 1218.82,-74 1218.82,-55 1371.82,-55 1371.82,-74"/>
<text text-anchor="middle" x="1295.32" y="-62" font-family="Helvetica,sans-Serif" font-size="10.00">thermodynamicConstants.H</text>
</a>
</g>
</g>
<!-- Node18&#45;&gt;Node19 -->
<g id="edge20_Node000018_Node000019" class="edge">
<title>Node18&#45;&gt;Node19</title>
<g id="a_edge20_Node000018_Node000019"><a xlink:title=" ">
<path fill="none" stroke="#63b8ff" d="M1291.98,-109.75C1292.51,-102.8 1293.26,-92.85 1293.92,-84.13"/>
<polygon fill="#63b8ff" stroke="#63b8ff" points="1297.41,-84.32 1294.67,-74.09 1290.43,-83.8 1297.41,-84.32"/>
</a>
</g>
</g>
<!-- Node20 -->
<g id="Node000020" class="node">
<title>Node20</title>
<g id="a_Node000020"><a xlink:href="lnInclude_2thermo2TI_8H.html" target="_top" xlink:title=" ">
<polygon fill="white" stroke="#666666" points="1466.82,-74 1389.82,-74 1389.82,-55 1466.82,-55 1466.82,-74"/>
<text text-anchor="middle" x="1428.32" y="-62" font-family="Helvetica,sans-Serif" font-size="10.00">thermo2TI.H</text>
</a>
</g>
</g>
<!-- Node18&#45;&gt;Node20 -->
<g id="edge21_Node000018_Node000020" class="edge">
<title>Node18&#45;&gt;Node20</title>
<g id="a_edge21_Node000018_Node000020"><a xlink:title=" ">
<path fill="none" stroke="#63b8ff" d="M1308.22,-109.98C1328.92,-101.23 1364.16,-87.51 1391.21,-77.62"/>
<polygon fill="#63b8ff" stroke="#63b8ff" points="1392.55,-80.86 1400.76,-74.17 1390.17,-74.28 1392.55,-80.86"/>
</a>
</g>
</g>
<!-- Node20&#45;&gt;Node18 -->
<g id="edge22_Node000020_Node000018" class="edge">
<title>Node20&#45;&gt;Node18</title>
<g id="a_edge22_Node000020_Node000018"><a xlink:title=" ">
<path fill="none" stroke="#63b8ff" d="M1411.06,-74.17C1390.19,-82.98 1354.91,-96.71 1327.96,-106.55"/>
<polygon fill="#63b8ff" stroke="#63b8ff" points="1326.67,-103.3 1318.45,-109.98 1329.04,-109.88 1326.67,-103.3"/>
</a>
</g>
</g>
<!-- Node23 -->
<g id="Node000023" class="node">
<title>Node23</title>
<g id="a_Node000023"><a xlink:href="lnInclude_2blottnerEucken2TTransportI_8H.html" target="_top" xlink:title=" ">
<polygon fill="white" stroke="#666666" points="1645.32,-74 1485.32,-74 1485.32,-55 1645.32,-55 1645.32,-74"/>
<text text-anchor="middle" x="1565.32" y="-62" font-family="Helvetica,sans-Serif" font-size="10.00">blottnerEucken2TTransportI.H</text>
</a>
</g>
</g>
<!-- Node22&#45;&gt;Node23 -->
<g id="edge25_Node000022_Node000023" class="edge">
<title>Node22&#45;&gt;Node23</title>
<g id="a_edge25_Node000022_Node000023"><a xlink:title=" ">
<path fill="none" stroke="#63b8ff" d="M1565.32,-109.75C1565.32,-102.8 1565.32,-92.85 1565.32,-84.13"/>
<polygon fill="#63b8ff" stroke="#63b8ff" points="1568.82,-84.09 1565.32,-74.09 1561.82,-84.09 1568.82,-84.09"/>
</a>
</g>
</g>
<!-- Node23&#45;&gt;Node3 -->
<g id="edge26_Node000023_Node000003" class="edge">
<title>Node23&#45;&gt;Node3</title>
<g id="a_edge26_Node000023_Node000003"><a xlink:title=" ">
<path fill="none" stroke="#63b8ff" d="M1498.32,-54.98C1410.55,-43.83 1259.43,-24.62 1187.97,-15.54"/>
<polygon fill="#63b8ff" stroke="#63b8ff" points="1188.38,-12.06 1178.02,-14.27 1187.5,-19.01 1188.38,-12.06"/>
</a>
</g>
</g>
</g>
</svg>
