<?xml version="1.0" encoding="UTF-8" standalone="no"?>
<!DOCTYPE svg PUBLIC "-//W3C//DTD SVG 1.1//EN"
 "http://www.w3.org/Graphics/SVG/1.1/DTD/svg11.dtd">
<!-- Generated by graphviz version 2.43.0 (0)
 -->
<!-- Title: janaf2TThermoI.H Pages: 1 -->
<svg width="268pt" height="137pt"
 viewBox="0.00 0.00 267.50 137.00" xmlns="http://www.w3.org/2000/svg" xmlns:xlink="http://www.w3.org/1999/xlink">

<svg id="main" version="1.1" xmlns="http://www.w3.org/2000/svg" xmlns:xlink="http://www.w3.org/1999/xlink" xml:space="preserve" onload="init(evt)">
<style type="text/css"><![CDATA[
.node, .edge {opacity: 0.7;}
.node.selected, .edge.selected {opacity: 1;}
.edge:hover path { stroke: red; }
.edge:hover polygon { stroke: red; fill: red; }
]]></style>
<script type="application/ecmascript" xlink:href="svg.min.js"/>
<svg id="graph" class="graph">
<g id="graph0" class="graph" transform="scale(1 1) rotate(0) translate(4 133)">
<title>janaf2TThermoI.H</title>
<!-- Node1 -->
<g id="Node000001" class="node">
<title>Node1</title>
<g id="a_Node000001"><a xlink:title=" ">
<polygon fill="#999999" stroke="#666666" points="161,-129 57,-129 57,-110 161,-110 161,-129"/>
<text text-anchor="middle" x="109" y="-117" font-family="Helvetica,sans-Serif" font-size="10.00">janaf2TThermoI.H</text>
</a>
</g>
</g>
<!-- Node2 -->
<g id="Node000002" class="node">
<title>Node2</title>
<g id="a_Node000002"><a xlink:href="lnInclude_2janaf2TThermo_8H.html" target="_top" xlink:title=" ">
<polygon fill="white" stroke="#666666" points="159.5,-74 58.5,-74 58.5,-55 159.5,-55 159.5,-74"/>
<text text-anchor="middle" x="109" y="-62" font-family="Helvetica,sans-Serif" font-size="10.00">janaf2TThermo.H</text>
</a>
</g>
</g>
<!-- Node1&#45;&gt;Node2 -->
<g id="edge1_Node000001_Node000002" class="edge">
<title>Node1&#45;&gt;Node2</title>
<g id="a_edge1_Node000001_Node000002"><a xlink:title=" ">
<path fill="none" stroke="#63b8ff" d="M103.83,-109.75C102.34,-102.8 101.9,-92.85 102.52,-84.13"/>
<polygon fill="#63b8ff" stroke="#63b8ff" points="106.01,-84.47 103.87,-74.09 99.07,-83.53 106.01,-84.47"/>
</a>
</g>
</g>
<!-- Node6 -->
<g id="Node000006" class="node">
<title>Node6</title>
<g id="a_Node000006"><a xlink:title=" ">
<polygon fill="#e0e0e0" stroke="#999999" points="236.5,-74 177.5,-74 177.5,-55 236.5,-55 236.5,-74"/>
<text text-anchor="middle" x="207" y="-62" font-family="Helvetica,sans-Serif" font-size="10.00">specie.H</text>
</a>
</g>
</g>
<!-- Node1&#45;&gt;Node6 -->
<g id="edge6_Node000001_Node000006" class="edge">
<title>Node1&#45;&gt;Node6</title>
<g id="a_edge6_Node000001_Node000006"><a xlink:title=" ">
<path fill="none" stroke="#63b8ff" d="M124.75,-109.98C140.23,-101.61 164.09,-88.7 182.14,-78.95"/>
<polygon fill="#63b8ff" stroke="#63b8ff" points="183.84,-82.01 190.97,-74.17 180.51,-75.85 183.84,-82.01"/>
</a>
</g>
</g>
<!-- Node2&#45;&gt;Node1 -->
<g id="edge5_Node000002_Node000001" class="edge">
<title>Node2&#45;&gt;Node1</title>
<g id="a_edge5_Node000002_Node000001"><a xlink:title=" ">
<path fill="none" stroke="#63b8ff" d="M114.13,-74.09C115.64,-80.99 116.09,-90.93 115.49,-99.66"/>
<polygon fill="#63b8ff" stroke="#63b8ff" points="112,-99.38 114.17,-109.75 118.94,-100.29 112,-99.38"/>
</a>
</g>
</g>
<!-- Node3 -->
<g id="Node000003" class="node">
<title>Node3</title>
<g id="a_Node000003"><a xlink:title=" ">
<polygon fill="#e0e0e0" stroke="#999999" points="56,-19 0,-19 0,0 56,0 56,-19"/>
<text text-anchor="middle" x="28" y="-7" font-family="Helvetica,sans-Serif" font-size="10.00">scalar.H</text>
</a>
</g>
</g>
<!-- Node2&#45;&gt;Node3 -->
<g id="edge2_Node000002_Node000003" class="edge">
<title>Node2&#45;&gt;Node3</title>
<g id="a_edge2_Node000002_Node000003"><a xlink:title=" ">
<path fill="none" stroke="#63b8ff" d="M95.99,-54.98C83.54,-46.84 64.54,-34.41 49.79,-24.76"/>
<polygon fill="#63b8ff" stroke="#63b8ff" points="51.54,-21.72 41.25,-19.17 47.7,-27.57 51.54,-21.72"/>
</a>
</g>
</g>
<!-- Node4 -->
<g id="Node000004" class="node">
<title>Node4</title>
<g id="a_Node000004"><a xlink:title=" ">
<polygon fill="#e0e0e0" stroke="#999999" points="144,-19 74,-19 74,0 144,0 144,-19"/>
<text text-anchor="middle" x="109" y="-7" font-family="Helvetica,sans-Serif" font-size="10.00">FixedList.H</text>
</a>
</g>
</g>
<!-- Node2&#45;&gt;Node4 -->
<g id="edge3_Node000002_Node000004" class="edge">
<title>Node2&#45;&gt;Node4</title>
<g id="a_edge3_Node000002_Node000004"><a xlink:title=" ">
<path fill="none" stroke="#63b8ff" d="M109,-54.75C109,-47.8 109,-37.85 109,-29.13"/>
<polygon fill="#63b8ff" stroke="#63b8ff" points="112.5,-29.09 109,-19.09 105.5,-29.09 112.5,-29.09"/>
</a>
</g>
</g>
<!-- Node5 -->
<g id="Node000005" class="node">
<title>Node5</title>
<g id="a_Node000005"><a xlink:href="lnInclude_2HtoEthermo2T_8H.html" target="_top" xlink:title=" ">
<polygon fill="white" stroke="#666666" points="259.5,-19 162.5,-19 162.5,0 259.5,0 259.5,-19"/>
<text text-anchor="middle" x="211" y="-7" font-family="Helvetica,sans-Serif" font-size="10.00">HtoEthermo2T.H</text>
</a>
</g>
</g>
<!-- Node2&#45;&gt;Node5 -->
<g id="edge4_Node000002_Node000005" class="edge">
<title>Node2&#45;&gt;Node5</title>
<g id="a_edge4_Node000002_Node000005"><a xlink:title=" ">
<path fill="none" stroke="#63b8ff" d="M125.39,-54.98C141.57,-46.57 166.57,-33.59 185.38,-23.81"/>
<polygon fill="#63b8ff" stroke="#63b8ff" points="187.05,-26.89 194.31,-19.17 183.83,-20.68 187.05,-26.89"/>
</a>
</g>
</g>
</g>
</svg>
</svg>

<style type='text/css'>
<![CDATA[
[data-mouse-over-selected='false'] { opacity: 0.7; }
[data-mouse-over-selected='true']  { opacity: 1.0; }
]]>
</style>
<script type="application/ecmascript"><![CDATA[
document.addEventListener('DOMContentLoaded', (event) => {
  highlightEdges();
  highlightAdjacentNodes();
});
]]></script>
</svg>
