<?xml version="1.0" encoding="UTF-8" standalone="no"?>
<!DOCTYPE svg PUBLIC "-//W3C//DTD SVG 1.1//EN"
 "http://www.w3.org/Graphics/SVG/1.1/DTD/svg11.dtd">
<!-- Generated by graphviz version 2.43.0 (0)
 -->
<!-- Title: make2TThermo.H Pages: 1 -->
<svg width="238pt" height="82pt"
 viewBox="0.00 0.00 237.50 82.00" xmlns="http://www.w3.org/2000/svg" xmlns:xlink="http://www.w3.org/1999/xlink">
<g id="graph0" class="graph" transform="scale(1 1) rotate(0) translate(4 78)">
<title>make2TThermo.H</title>
<!-- Node1 -->
<g id="Node000001" class="node">
<title>Node1</title>
<g id="a_Node000001"><a xlink:title=" ">
<polygon fill="#999999" stroke="#666666" points="160.5,-74 56.5,-74 56.5,-55 160.5,-55 160.5,-74"/>
<text text-anchor="middle" x="108.5" y="-62" font-family="Helvetica,sans-Serif" font-size="10.00">make2TThermo.H</text>
</a>
</g>
</g>
<!-- Node2 -->
<g id="Node000002" class="node">
<title>Node2</title>
<g id="a_Node000002"><a xlink:href="lnInclude_2ne2TThermos_8C.html" target="_top" xlink:title=" ">
<polygon fill="white" stroke="#666666" points="93,-19 0,-19 0,0 93,0 93,-19"/>
<text text-anchor="middle" x="46.5" y="-7" font-family="Helvetica,sans-Serif" font-size="10.00">ne2TThermos.C</text>
</a>
</g>
</g>
<!-- Node1&#45;&gt;Node2 -->
<g id="edge1_Node000001_Node000002" class="edge">
<title>Node1&#45;&gt;Node2</title>
<g id="a_edge1_Node000001_Node000002"><a xlink:title=" ">
<path fill="none" stroke="#63b8ff" d="M90.75,-48.32C79.69,-38.87 65.87,-27.06 56.64,-19.17"/>
<polygon fill="#63b8ff" stroke="#63b8ff" points="88.66,-51.15 98.54,-54.98 93.21,-45.83 88.66,-51.15"/>
</a>
</g>
</g>
<!-- Node3 -->
<g id="Node000003" class="node">
<title>Node3</title>
<g id="a_Node000003"><a xlink:href="lnInclude_2ne2TZoneThermos_8C.html" target="_top" xlink:title=" ">
<polygon fill="white" stroke="#666666" points="229.5,-19 111.5,-19 111.5,0 229.5,0 229.5,-19"/>
<text text-anchor="middle" x="170.5" y="-7" font-family="Helvetica,sans-Serif" font-size="10.00">ne2TZoneThermos.C</text>
</a>
</g>
</g>
<!-- Node1&#45;&gt;Node3 -->
<g id="edge2_Node000001_Node000003" class="edge">
<title>Node1&#45;&gt;Node3</title>
<g id="a_edge2_Node000001_Node000003"><a xlink:title=" ">
<path fill="none" stroke="#63b8ff" d="M126.25,-48.32C137.31,-38.87 151.13,-27.06 160.36,-19.17"/>
<polygon fill="#63b8ff" stroke="#63b8ff" points="123.79,-45.83 118.46,-54.98 128.34,-51.15 123.79,-45.83"/>
</a>
</g>
</g>
</g>
</svg>
