<?xml version="1.0" encoding="UTF-8" standalone="no"?>
<!DOCTYPE svg PUBLIC "-//W3C//DTD SVG 1.1//EN"
 "http://www.w3.org/Graphics/SVG/1.1/DTD/svg11.dtd">
<!-- Generated by graphviz version 2.43.0 (0)
 -->
<!-- Title: CpTR Pages: 1 -->
<svg width="121pt" height="27pt"
 viewBox="0.00 0.00 121.00 27.00" xmlns="http://www.w3.org/2000/svg" xmlns:xlink="http://www.w3.org/1999/xlink">
<g id="graph0" class="graph" transform="scale(1 1) rotate(0) translate(4 23)">
<title>CpTR</title>
<!-- Node1 -->
<g id="Node000001" class="node">
<title>Node1</title>
<g id="a_Node000001"><a xlink:title=" ">
<polygon fill="#999999" stroke="#666666" points="42,-19 0,-19 0,0 42,0 42,-19"/>
<text text-anchor="middle" x="21" y="-7" font-family="Helvetica,sans-Serif" font-size="10.00">CpTR</text>
</a>
</g>
</g>
<!-- Node2 -->
<g id="Node000002" class="node">
<title>Node2</title>
<g id="a_Node000002"><a xlink:href="lnInclude_2HtoEthermo2T_8H.html#a9aa70b42d27cada92be491a2a1109f97" target="_top" xlink:title=" ">
<polygon fill="white" stroke="#666666" points="113,-19 78,-19 78,0 113,0 113,-19"/>
<text text-anchor="middle" x="95.5" y="-7" font-family="Helvetica,sans-Serif" font-size="10.00">CvT</text>
</a>
</g>
</g>
<!-- Node1&#45;&gt;Node2 -->
<g id="edge1_Node000001_Node000002" class="edge">
<title>Node1&#45;&gt;Node2</title>
<g id="a_edge1_Node000001_Node000002"><a xlink:title=" ">
<path fill="none" stroke="#63b8ff" d="M42.2,-3.38C50.09,-2.72 59.26,-2.58 67.69,-2.96"/>
<polygon fill="#63b8ff" stroke="#63b8ff" points="67.6,-6.46 77.84,-3.72 68.12,0.52 67.6,-6.46"/>
</a>
</g>
</g>
<!-- Node2&#45;&gt;Node1 -->
<g id="edge2_Node000002_Node000001" class="edge">
<title>Node2&#45;&gt;Node1</title>
<g id="a_edge2_Node000002_Node000001"><a xlink:title=" ">
<path fill="none" stroke="#63b8ff" d="M77.84,-15.28C70.29,-16.11 61.14,-16.41 52.44,-16.17"/>
<polygon fill="#63b8ff" stroke="#63b8ff" points="52.37,-12.66 42.2,-15.62 51.99,-19.65 52.37,-12.66"/>
</a>
</g>
</g>
</g>
</svg>
