<?xml version="1.0" encoding="UTF-8" standalone="no"?>
<!DOCTYPE svg PUBLIC "-//W3C//DTD SVG 1.1//EN"
 "http://www.w3.org/Graphics/SVG/1.1/DTD/svg11.dtd">
<!-- Generated by graphviz version 2.43.0 (0)
 -->
<!-- Title: he2TThermo.H Pages: 1 -->
<svg width="357pt" height="137pt"
 viewBox="0.00 0.00 356.50 137.00" xmlns="http://www.w3.org/2000/svg" xmlns:xlink="http://www.w3.org/1999/xlink">
<g id="graph0" class="graph" transform="scale(1 1) rotate(0) translate(4 133)">
<title>he2TThermo.H</title>
<!-- Node1 -->
<g id="Node000001" class="node">
<title>Node1</title>
<g id="a_Node000001"><a xlink:title=" ">
<polygon fill="#999999" stroke="#666666" points="153,-129 64,-129 64,-110 153,-110 153,-129"/>
<text text-anchor="middle" x="108.5" y="-117" font-family="Helvetica,sans-Serif" font-size="10.00">he2TThermo.H</text>
</a>
</g>
</g>
<!-- Node2 -->
<g id="Node000002" class="node">
<title>Node2</title>
<g id="a_Node000002"><a xlink:href="lnInclude_2he2TThermo_8C.html" target="_top" xlink:title=" ">
<polygon fill="white" stroke="#666666" points="96.5,-74 8.5,-74 8.5,-55 96.5,-55 96.5,-74"/>
<text text-anchor="middle" x="52.5" y="-62" font-family="Helvetica,sans-Serif" font-size="10.00">he2TThermo.C</text>
</a>
</g>
</g>
<!-- Node1&#45;&gt;Node2 -->
<g id="edge1_Node000001_Node000002" class="edge">
<title>Node1&#45;&gt;Node2</title>
<g id="a_edge1_Node000001_Node000002"><a xlink:title=" ">
<path fill="none" stroke="#63b8ff" d="M92.17,-103.04C82.24,-93.64 69.91,-81.98 61.66,-74.17"/>
<polygon fill="#63b8ff" stroke="#63b8ff" points="89.83,-105.65 99.5,-109.98 94.65,-100.57 89.83,-105.65"/>
</a>
</g>
</g>
<!-- Node3 -->
<g id="Node000003" class="node">
<title>Node3</title>
<g id="a_Node000003"><a xlink:href="lnInclude_2heNe2TThermo_8H.html" target="_top" xlink:title=" ">
<polygon fill="white" stroke="#666666" points="216.5,-74 114.5,-74 114.5,-55 216.5,-55 216.5,-74"/>
<text text-anchor="middle" x="165.5" y="-62" font-family="Helvetica,sans-Serif" font-size="10.00">heNe2TThermo.H</text>
</a>
</g>
</g>
<!-- Node1&#45;&gt;Node3 -->
<g id="edge2_Node000001_Node000003" class="edge">
<title>Node1&#45;&gt;Node3</title>
<g id="a_edge2_Node000001_Node000003"><a xlink:title=" ">
<path fill="none" stroke="#63b8ff" d="M125.12,-103.04C135.23,-93.64 147.78,-81.98 156.18,-74.17"/>
<polygon fill="#63b8ff" stroke="#63b8ff" points="122.6,-100.61 117.66,-109.98 127.36,-105.74 122.6,-100.61"/>
</a>
</g>
</g>
<!-- Node4 -->
<g id="Node000004" class="node">
<title>Node4</title>
<g id="a_Node000004"><a xlink:href="lnInclude_2heNe2TThermo_8C.html" target="_top" xlink:title=" ">
<polygon fill="white" stroke="#666666" points="101,-19 0,-19 0,0 101,0 101,-19"/>
<text text-anchor="middle" x="50.5" y="-7" font-family="Helvetica,sans-Serif" font-size="10.00">heNe2TThermo.C</text>
</a>
</g>
</g>
<!-- Node3&#45;&gt;Node4 -->
<g id="edge3_Node000003_Node000004" class="edge">
<title>Node3&#45;&gt;Node4</title>
<g id="a_edge3_Node000003_Node000004"><a xlink:title=" ">
<path fill="none" stroke="#63b8ff" d="M137.87,-50.77C116.66,-40.99 87.94,-27.75 69.31,-19.17"/>
<polygon fill="#63b8ff" stroke="#63b8ff" points="136.48,-53.98 147.02,-54.98 139.41,-47.62 136.48,-53.98"/>
</a>
</g>
</g>
<!-- Node5 -->
<g id="Node000005" class="node">
<title>Node5</title>
<g id="a_Node000005"><a xlink:href="lnInclude_2ne2TThermos_8C.html" target="_top" xlink:title=" ">
<polygon fill="white" stroke="#666666" points="212,-19 119,-19 119,0 212,0 212,-19"/>
<text text-anchor="middle" x="165.5" y="-7" font-family="Helvetica,sans-Serif" font-size="10.00">ne2TThermos.C</text>
</a>
</g>
</g>
<!-- Node3&#45;&gt;Node5 -->
<g id="edge4_Node000003_Node000005" class="edge">
<title>Node3&#45;&gt;Node5</title>
<g id="a_edge4_Node000003_Node000005"><a xlink:title=" ">
<path fill="none" stroke="#63b8ff" d="M165.5,-44.66C165.5,-35.93 165.5,-25.99 165.5,-19.09"/>
<polygon fill="#63b8ff" stroke="#63b8ff" points="162,-44.75 165.5,-54.75 169,-44.75 162,-44.75"/>
</a>
</g>
</g>
<!-- Node6 -->
<g id="Node000006" class="node">
<title>Node6</title>
<g id="a_Node000006"><a xlink:href="lnInclude_2ne2TZoneThermos_8C.html" target="_top" xlink:title=" ">
<polygon fill="white" stroke="#666666" points="348.5,-19 230.5,-19 230.5,0 348.5,0 348.5,-19"/>
<text text-anchor="middle" x="289.5" y="-7" font-family="Helvetica,sans-Serif" font-size="10.00">ne2TZoneThermos.C</text>
</a>
</g>
</g>
<!-- Node3&#45;&gt;Node6 -->
<g id="edge5_Node000003_Node000006" class="edge">
<title>Node3&#45;&gt;Node6</title>
<g id="a_edge5_Node000003_Node000006"><a xlink:title=" ">
<path fill="none" stroke="#63b8ff" d="M194.68,-51.03C217.61,-41.23 248.95,-27.83 269.21,-19.17"/>
<polygon fill="#63b8ff" stroke="#63b8ff" points="193.24,-47.84 185.42,-54.98 195.99,-54.27 193.24,-47.84"/>
</a>
</g>
</g>
</g>
</svg>
