<?xml version="1.0" encoding="UTF-8" standalone="no"?>
<!DOCTYPE svg PUBLIC "-//W3C//DTD SVG 1.1//EN"
 "http://www.w3.org/Graphics/SVG/1.1/DTD/svg11.dtd">
<!-- Generated by graphviz version 2.43.0 (0)
 -->
<!-- Title: thermo2T.H Pages: 1 -->
<svg width="333pt" height="137pt"
 viewBox="0.00 0.00 333.00 137.00" xmlns="http://www.w3.org/2000/svg" xmlns:xlink="http://www.w3.org/1999/xlink">
<g id="graph0" class="graph" transform="scale(1 1) rotate(0) translate(4 133)">
<title>thermo2T.H</title>
<!-- Node1 -->
<g id="Node000001" class="node">
<title>Node1</title>
<g id="a_Node000001"><a xlink:title=" ">
<polygon fill="#999999" stroke="#666666" points="166.5,-129 92.5,-129 92.5,-110 166.5,-110 166.5,-129"/>
<text text-anchor="middle" x="129.5" y="-117" font-family="Helvetica,sans-Serif" font-size="10.00">thermo2T.H</text>
</a>
</g>
</g>
<!-- Node2 -->
<g id="Node000002" class="node">
<title>Node2</title>
<g id="a_Node000002"><a xlink:href="lnInclude_2thermo2T_8C.html" target="_top" xlink:title=" ">
<polygon fill="white" stroke="#666666" points="73,-74 0,-74 0,-55 73,-55 73,-74"/>
<text text-anchor="middle" x="36.5" y="-62" font-family="Helvetica,sans-Serif" font-size="10.00">thermo2T.C</text>
</a>
</g>
</g>
<!-- Node1&#45;&gt;Node2 -->
<g id="edge1_Node000001_Node000002" class="edge">
<title>Node1&#45;&gt;Node2</title>
<g id="a_edge1_Node000001_Node000002"><a xlink:title=" ">
<path fill="none" stroke="#63b8ff" d="M105.75,-104.97C88.75,-95.28 66.37,-82.52 51.71,-74.17"/>
<polygon fill="#63b8ff" stroke="#63b8ff" points="104.14,-108.07 114.56,-109.98 107.6,-101.99 104.14,-108.07"/>
</a>
</g>
</g>
<!-- Node3 -->
<g id="Node000003" class="node">
<title>Node3</title>
<g id="a_Node000003"><a xlink:href="lnInclude_2thermo2TI_8H.html" target="_top" xlink:title=" ">
<polygon fill="white" stroke="#666666" points="168,-74 91,-74 91,-55 168,-55 168,-74"/>
<text text-anchor="middle" x="129.5" y="-62" font-family="Helvetica,sans-Serif" font-size="10.00">thermo2TI.H</text>
</a>
</g>
</g>
<!-- Node1&#45;&gt;Node3 -->
<g id="edge2_Node000001_Node000003" class="edge">
<title>Node1&#45;&gt;Node3</title>
<g id="a_edge2_Node000001_Node000003"><a xlink:title=" ">
<path fill="none" stroke="#63b8ff" d="M123.01,-99.66C122.41,-90.93 122.86,-80.99 124.37,-74.09"/>
<polygon fill="#63b8ff" stroke="#63b8ff" points="119.56,-100.29 124.33,-109.75 126.5,-99.38 119.56,-100.29"/>
</a>
</g>
</g>
<!-- Node4 -->
<g id="Node000004" class="node">
<title>Node4</title>
<g id="a_Node000004"><a xlink:href="lnInclude_2thermoPhysics2TTypes_8H.html" target="_top" xlink:title=" ">
<polygon fill="white" stroke="#666666" points="325,-74 186,-74 186,-55 325,-55 325,-74"/>
<text text-anchor="middle" x="255.5" y="-62" font-family="Helvetica,sans-Serif" font-size="10.00">thermoPhysics2TTypes.H</text>
</a>
</g>
</g>
<!-- Node1&#45;&gt;Node4 -->
<g id="edge4_Node000001_Node000004" class="edge">
<title>Node1&#45;&gt;Node4</title>
<g id="a_edge4_Node000001_Node000004"><a xlink:title=" ">
<path fill="none" stroke="#63b8ff" d="M159.15,-106.03C182.45,-96.23 214.3,-82.83 234.89,-74.17"/>
<polygon fill="#63b8ff" stroke="#63b8ff" points="157.6,-102.88 149.74,-109.98 160.32,-109.33 157.6,-102.88"/>
</a>
</g>
</g>
<!-- Node3&#45;&gt;Node1 -->
<g id="edge3_Node000003_Node000001" class="edge">
<title>Node3&#45;&gt;Node1</title>
<g id="a_edge3_Node000003_Node000001"><a xlink:title=" ">
<path fill="none" stroke="#63b8ff" d="M135.98,-84.13C136.6,-92.85 136.16,-102.8 134.67,-109.75"/>
<polygon fill="#63b8ff" stroke="#63b8ff" points="139.43,-83.53 134.63,-74.09 132.49,-84.47 139.43,-83.53"/>
</a>
</g>
</g>
<!-- Node5 -->
<g id="Node000005" class="node">
<title>Node5</title>
<g id="a_Node000005"><a xlink:href="lnInclude_2reaction2TTypes_8H.html" target="_top" xlink:title=" ">
<polygon fill="white" stroke="#666666" points="309,-19 202,-19 202,0 309,0 309,-19"/>
<text text-anchor="middle" x="255.5" y="-7" font-family="Helvetica,sans-Serif" font-size="10.00">reaction2TTypes.H</text>
</a>
</g>
</g>
<!-- Node4&#45;&gt;Node5 -->
<g id="edge5_Node000004_Node000005" class="edge">
<title>Node4&#45;&gt;Node5</title>
<g id="a_edge5_Node000004_Node000005"><a xlink:title=" ">
<path fill="none" stroke="#63b8ff" d="M255.5,-44.66C255.5,-35.93 255.5,-25.99 255.5,-19.09"/>
<polygon fill="#63b8ff" stroke="#63b8ff" points="252,-44.75 255.5,-54.75 259,-44.75 252,-44.75"/>
</a>
</g>
</g>
</g>
</svg>
