<?xml version="1.0" encoding="UTF-8" standalone="no"?>
<!DOCTYPE svg PUBLIC "-//W3C//DTD SVG 1.1//EN"
 "http://www.w3.org/Graphics/SVG/1.1/DTD/svg11.dtd">
<!-- Generated by graphviz version 2.43.0 (0)
 -->
<!-- Title: basic2TThermo.H Pages: 1 -->
<svg width="517pt" height="247pt"
 viewBox="0.00 0.00 516.50 247.00" xmlns="http://www.w3.org/2000/svg" xmlns:xlink="http://www.w3.org/1999/xlink">
<g id="graph0" class="graph" transform="scale(1 1) rotate(0) translate(4 243)">
<title>basic2TThermo.H</title>
<!-- Node1 -->
<g id="Node000001" class="node">
<title>Node1</title>
<g id="a_Node000001"><a xlink:title=" ">
<polygon fill="#999999" stroke="#666666" points="246.5,-239 144.5,-239 144.5,-220 246.5,-220 246.5,-239"/>
<text text-anchor="middle" x="195.5" y="-227" font-family="Helvetica,sans-Serif" font-size="10.00">basic2TThermo.H</text>
</a>
</g>
</g>
<!-- Node2 -->
<g id="Node000002" class="node">
<title>Node2</title>
<g id="a_Node000002"><a xlink:href="lnInclude_2basic2TThermo_8C.html" target="_top" xlink:title=" ">
<polygon fill="white" stroke="#666666" points="101,-184 0,-184 0,-165 101,-165 101,-184"/>
<text text-anchor="middle" x="50.5" y="-172" font-family="Helvetica,sans-Serif" font-size="10.00">basic2TThermo.C</text>
</a>
</g>
</g>
<!-- Node1&#45;&gt;Node2 -->
<g id="edge1_Node000001_Node000002" class="edge">
<title>Node1&#45;&gt;Node2</title>
<g id="a_edge1_Node000001_Node000002"><a xlink:title=" ">
<path fill="none" stroke="#63b8ff" d="M162.81,-216.55C135.88,-206.71 98.34,-192.98 74.22,-184.17"/>
<polygon fill="#63b8ff" stroke="#63b8ff" points="161.61,-219.84 172.2,-219.98 164.01,-213.26 161.61,-219.84"/>
</a>
</g>
</g>
<!-- Node3 -->
<g id="Node000003" class="node">
<title>Node3</title>
<g id="a_Node000003"><a xlink:href="lnInclude_2basic2TThermoTemplates_8C.html" target="_top" xlink:title=" ">
<polygon fill="white" stroke="#666666" points="271.5,-184 119.5,-184 119.5,-165 271.5,-165 271.5,-184"/>
<text text-anchor="middle" x="195.5" y="-172" font-family="Helvetica,sans-Serif" font-size="10.00">basic2TThermoTemplates.C</text>
</a>
</g>
</g>
<!-- Node1&#45;&gt;Node3 -->
<g id="edge2_Node000001_Node000003" class="edge">
<title>Node1&#45;&gt;Node3</title>
<g id="a_edge2_Node000001_Node000003"><a xlink:title=" ">
<path fill="none" stroke="#63b8ff" d="M195.5,-209.66C195.5,-200.93 195.5,-190.99 195.5,-184.09"/>
<polygon fill="#63b8ff" stroke="#63b8ff" points="192,-209.75 195.5,-219.75 199,-209.75 192,-209.75"/>
</a>
</g>
</g>
<!-- Node4 -->
<g id="Node000004" class="node">
<title>Node4</title>
<g id="a_Node000004"><a xlink:href="lnInclude_2fluid2TThermo_8H.html" target="_top" xlink:title=" ">
<polygon fill="white" stroke="#666666" points="387.5,-184 289.5,-184 289.5,-165 387.5,-165 387.5,-184"/>
<text text-anchor="middle" x="338.5" y="-172" font-family="Helvetica,sans-Serif" font-size="10.00">fluid2TThermo.H</text>
</a>
</g>
</g>
<!-- Node1&#45;&gt;Node4 -->
<g id="edge3_Node000001_Node000004" class="edge">
<title>Node1&#45;&gt;Node4</title>
<g id="a_edge3_Node000001_Node000004"><a xlink:title=" ">
<path fill="none" stroke="#63b8ff" d="M228.09,-216.42C254.62,-206.59 291.43,-192.95 315.11,-184.17"/>
<polygon fill="#63b8ff" stroke="#63b8ff" points="226.64,-213.23 218.48,-219.98 229.07,-219.79 226.64,-213.23"/>
</a>
</g>
</g>
<!-- Node5 -->
<g id="Node000005" class="node">
<title>Node5</title>
<g id="a_Node000005"><a xlink:href="lnInclude_2fluid2TThermo_8C.html" target="_top" xlink:title=" ">
<polygon fill="white" stroke="#666666" points="276,-129 179,-129 179,-110 276,-110 276,-129"/>
<text text-anchor="middle" x="227.5" y="-117" font-family="Helvetica,sans-Serif" font-size="10.00">fluid2TThermo.C</text>
</a>
</g>
</g>
<!-- Node4&#45;&gt;Node5 -->
<g id="edge4_Node000004_Node000005" class="edge">
<title>Node4&#45;&gt;Node5</title>
<g id="a_edge4_Node000004_Node000005"><a xlink:title=" ">
<path fill="none" stroke="#63b8ff" d="M311.55,-160.63C291.11,-150.87 263.55,-137.71 245.66,-129.17"/>
<polygon fill="#63b8ff" stroke="#63b8ff" points="310.13,-163.83 320.67,-164.98 313.15,-157.52 310.13,-163.83"/>
</a>
</g>
</g>
<!-- Node6 -->
<g id="Node000006" class="node">
<title>Node6</title>
<g id="a_Node000006"><a xlink:href="lnInclude_2make2TThermo_8H.html" target="_top" xlink:title=" ">
<polygon fill="white" stroke="#666666" points="508.5,-74 404.5,-74 404.5,-55 508.5,-55 508.5,-74"/>
<text text-anchor="middle" x="456.5" y="-62" font-family="Helvetica,sans-Serif" font-size="10.00">make2TThermo.H</text>
</a>
</g>
</g>
<!-- Node4&#45;&gt;Node6 -->
<g id="edge5_Node000004_Node000006" class="edge">
<title>Node4&#45;&gt;Node6</title>
<g id="a_edge5_Node000004_Node000006"><a xlink:title=" ">
<path fill="none" stroke="#63b8ff" d="M357.19,-158.39C367.47,-149.93 380.37,-139.08 391.5,-129 412.31,-110.15 435.61,-86.81 447.87,-74.34"/>
<polygon fill="#63b8ff" stroke="#63b8ff" points="354.79,-155.83 349.26,-164.86 359.22,-161.25 354.79,-155.83"/>
</a>
</g>
</g>
<!-- Node9 -->
<g id="Node000009" class="node">
<title>Node9</title>
<g id="a_Node000009"><a xlink:href="lnInclude_2ne2TThermo_8H.html" target="_top" xlink:title=" ">
<polygon fill="white" stroke="#666666" points="383,-129 294,-129 294,-110 383,-110 383,-129"/>
<text text-anchor="middle" x="338.5" y="-117" font-family="Helvetica,sans-Serif" font-size="10.00">ne2TThermo.H</text>
</a>
</g>
</g>
<!-- Node4&#45;&gt;Node9 -->
<g id="edge8_Node000004_Node000009" class="edge">
<title>Node4&#45;&gt;Node9</title>
<g id="a_edge8_Node000004_Node000009"><a xlink:title=" ">
<path fill="none" stroke="#63b8ff" d="M338.5,-154.66C338.5,-145.93 338.5,-135.99 338.5,-129.09"/>
<polygon fill="#63b8ff" stroke="#63b8ff" points="335,-154.75 338.5,-164.75 342,-154.75 335,-154.75"/>
</a>
</g>
</g>
<!-- Node7 -->
<g id="Node000007" class="node">
<title>Node7</title>
<g id="a_Node000007"><a xlink:href="lnInclude_2ne2TThermos_8C.html" target="_top" xlink:title=" ">
<polygon fill="white" stroke="#666666" points="347,-19 254,-19 254,0 347,0 347,-19"/>
<text text-anchor="middle" x="300.5" y="-7" font-family="Helvetica,sans-Serif" font-size="10.00">ne2TThermos.C</text>
</a>
</g>
</g>
<!-- Node6&#45;&gt;Node7 -->
<g id="edge6_Node000006_Node000007" class="edge">
<title>Node6&#45;&gt;Node7</title>
<g id="a_edge6_Node000006_Node000007"><a xlink:title=" ">
<path fill="none" stroke="#63b8ff" d="M421.68,-51.67C392.59,-41.79 351.8,-27.93 325.76,-19.08"/>
<polygon fill="#63b8ff" stroke="#63b8ff" points="420.84,-55.08 431.44,-54.98 423.09,-48.45 420.84,-55.08"/>
</a>
</g>
</g>
<!-- Node8 -->
<g id="Node000008" class="node">
<title>Node8</title>
<g id="a_Node000008"><a xlink:href="lnInclude_2ne2TZoneThermos_8C.html" target="_top" xlink:title=" ">
<polygon fill="white" stroke="#666666" points="483.5,-19 365.5,-19 365.5,0 483.5,0 483.5,-19"/>
<text text-anchor="middle" x="424.5" y="-7" font-family="Helvetica,sans-Serif" font-size="10.00">ne2TZoneThermos.C</text>
</a>
</g>
</g>
<!-- Node6&#45;&gt;Node8 -->
<g id="edge7_Node000006_Node000008" class="edge">
<title>Node6&#45;&gt;Node8</title>
<g id="a_edge7_Node000006_Node000008"><a xlink:title=" ">
<path fill="none" stroke="#63b8ff" d="M446,-46.1C440.53,-37.04 434.08,-26.37 429.69,-19.09"/>
<polygon fill="#63b8ff" stroke="#63b8ff" points="443.05,-48 451.22,-54.75 449.04,-44.38 443.05,-48"/>
</a>
</g>
</g>
<!-- Node9&#45;&gt;Node7 -->
<g id="edge14_Node000009_Node000007" class="edge">
<title>Node9&#45;&gt;Node7</title>
<g id="a_edge14_Node000009_Node000007"><a xlink:title=" ">
<path fill="none" stroke="#63b8ff" d="M333.53,-99.89C329.98,-87.14 324.89,-69.9 319.5,-55 314.93,-42.36 308.65,-28.14 304.58,-19.25"/>
<polygon fill="#63b8ff" stroke="#63b8ff" points="330.22,-101.04 336.22,-109.77 336.97,-99.2 330.22,-101.04"/>
</a>
</g>
</g>
<!-- Node9&#45;&gt;Node8 -->
<g id="edge15_Node000009_Node000008" class="edge">
<title>Node9&#45;&gt;Node8</title>
<g id="a_edge15_Node000009_Node000008"><a xlink:title=" ">
<path fill="none" stroke="#63b8ff" d="M351.88,-101.69C370.46,-78.37 403.36,-37.05 417.61,-19.16"/>
<polygon fill="#63b8ff" stroke="#63b8ff" points="349.03,-99.66 345.54,-109.66 354.51,-104.02 349.03,-99.66"/>
</a>
</g>
</g>
<!-- Node10 -->
<g id="Node000010" class="node">
<title>Node10</title>
<g id="a_Node000010"><a xlink:href="lnInclude_2heNe2TThermo_8H.html" target="_top" xlink:title=" ">
<polygon fill="white" stroke="#666666" points="204.5,-74 102.5,-74 102.5,-55 204.5,-55 204.5,-74"/>
<text text-anchor="middle" x="153.5" y="-62" font-family="Helvetica,sans-Serif" font-size="10.00">heNe2TThermo.H</text>
</a>
</g>
</g>
<!-- Node9&#45;&gt;Node10 -->
<g id="edge9_Node000009_Node000010" class="edge">
<title>Node9&#45;&gt;Node10</title>
<g id="a_edge9_Node000009_Node000010"><a xlink:title=" ">
<path fill="none" stroke="#63b8ff" d="M299,-107.18C264.4,-97.27 214.87,-83.08 183.46,-74.08"/>
<polygon fill="#63b8ff" stroke="#63b8ff" points="298.2,-110.6 308.78,-109.98 300.13,-103.87 298.2,-110.6"/>
</a>
</g>
</g>
<!-- Node12 -->
<g id="Node000012" class="node">
<title>Node12</title>
<g id="a_Node000012"><a xlink:href="lnInclude_2ne2TThermo_8C.html" target="_top" xlink:title=" ">
<polygon fill="white" stroke="#666666" points="310.5,-74 222.5,-74 222.5,-55 310.5,-55 310.5,-74"/>
<text text-anchor="middle" x="266.5" y="-62" font-family="Helvetica,sans-Serif" font-size="10.00">ne2TThermo.C</text>
</a>
</g>
</g>
<!-- Node9&#45;&gt;Node12 -->
<g id="edge13_Node000009_Node000012" class="edge">
<title>Node9&#45;&gt;Node12</title>
<g id="a_edge13_Node000009_Node000012"><a xlink:title=" ">
<path fill="none" stroke="#63b8ff" d="M318.63,-103.88C305.68,-94.34 289.2,-82.21 278.28,-74.17"/>
<polygon fill="#63b8ff" stroke="#63b8ff" points="316.8,-106.88 326.93,-109.98 320.95,-101.24 316.8,-106.88"/>
</a>
</g>
</g>
<!-- Node10&#45;&gt;Node7 -->
<g id="edge11_Node000010_Node000007" class="edge">
<title>Node10&#45;&gt;Node7</title>
<g id="a_edge11_Node000010_Node000007"><a xlink:title=" ">
<path fill="none" stroke="#63b8ff" d="M186.64,-51.55C213.94,-41.71 252,-27.98 276.45,-19.17"/>
<polygon fill="#63b8ff" stroke="#63b8ff" points="185.34,-48.3 177.12,-54.98 187.71,-54.89 185.34,-48.3"/>
</a>
</g>
</g>
<!-- Node10&#45;&gt;Node8 -->
<g id="edge12_Node000010_Node000008" class="edge">
<title>Node10&#45;&gt;Node8</title>
<g id="a_edge12_Node000010_Node000008"><a xlink:title=" ">
<path fill="none" stroke="#63b8ff" d="M206.86,-53.07C257.66,-43.13 333.21,-28.35 380.62,-19.08"/>
<polygon fill="#63b8ff" stroke="#63b8ff" points="206.18,-49.63 197.04,-54.98 207.53,-56.5 206.18,-49.63"/>
</a>
</g>
</g>
<!-- Node11 -->
<g id="Node000011" class="node">
<title>Node11</title>
<g id="a_Node000011"><a xlink:href="lnInclude_2heNe2TThermo_8C.html" target="_top" xlink:title=" ">
<polygon fill="white" stroke="#666666" points="204,-19 103,-19 103,0 204,0 204,-19"/>
<text text-anchor="middle" x="153.5" y="-7" font-family="Helvetica,sans-Serif" font-size="10.00">heNe2TThermo.C</text>
</a>
</g>
</g>
<!-- Node10&#45;&gt;Node11 -->
<g id="edge10_Node000010_Node000011" class="edge">
<title>Node10&#45;&gt;Node11</title>
<g id="a_edge10_Node000010_Node000011"><a xlink:title=" ">
<path fill="none" stroke="#63b8ff" d="M153.5,-44.66C153.5,-35.93 153.5,-25.99 153.5,-19.09"/>
<polygon fill="#63b8ff" stroke="#63b8ff" points="150,-44.75 153.5,-54.75 157,-44.75 150,-44.75"/>
</a>
</g>
</g>
</g>
</svg>
