<?xml version="1.0" encoding="UTF-8" standalone="no"?>
<!DOCTYPE svg PUBLIC "-//W3C//DTD SVG 1.1//EN"
 "http://www.w3.org/Graphics/SVG/1.1/DTD/svg11.dtd">
<!-- Generated by graphviz version 2.43.0 (0)
 -->
<!-- Title: CvR Pages: 1 -->
<svg width="243pt" height="64pt"
 viewBox="0.00 0.00 243.00 64.00" xmlns="http://www.w3.org/2000/svg" xmlns:xlink="http://www.w3.org/1999/xlink">
<g id="graph0" class="graph" transform="scale(1 1) rotate(0) translate(4 60)">
<title>CvR</title>
<!-- Node1 -->
<g id="Node000001" class="node">
<title>Node1</title>
<g id="a_Node000001"><a xlink:title=" ">
<polygon fill="#999999" stroke="#666666" points="235,-37 199,-37 199,-18 235,-18 235,-37"/>
<text text-anchor="middle" x="217" y="-25" font-family="Helvetica,sans-Serif" font-size="10.00">CvR</text>
</a>
</g>
</g>
<!-- Node2 -->
<g id="Node000002" class="node">
<title>Node2</title>
<g id="a_Node000002"><a xlink:href="classFoam_1_1he2TThermo.html#ace8909455881a23957d9381eb9ac8007" target="_top" xlink:title=" ">
<polygon fill="white" stroke="#666666" points="150,-56 13,-56 13,-37 150,-37 150,-56"/>
<text text-anchor="middle" x="81.5" y="-44" font-family="Helvetica,sans-Serif" font-size="10.00">Foam::he2TThermo::CvR</text>
</a>
</g>
</g>
<!-- Node1&#45;&gt;Node2 -->
<g id="edge1_Node000001_Node000002" class="edge">
<title>Node1&#45;&gt;Node2</title>
<g id="a_edge1_Node000001_Node000002"><a xlink:title=" ">
<path fill="none" stroke="#63b8ff" d="M188.67,-31.39C177.22,-33.02 163.37,-34.99 149.51,-36.96"/>
<polygon fill="#63b8ff" stroke="#63b8ff" points="189.41,-34.82 198.82,-29.95 188.43,-27.89 189.41,-34.82"/>
</a>
</g>
</g>
<!-- Node3 -->
<g id="Node000003" class="node">
<title>Node3</title>
<g id="a_Node000003"><a xlink:href="classFoam_1_1species_1_1thermo2T.html#a2a25c1a3320609e10ae04da1c8c6e4aa" target="_top" xlink:title=" ">
<polygon fill="white" stroke="#666666" points="163,-19 0,-19 0,0 163,0 163,-19"/>
<text text-anchor="middle" x="81.5" y="-7" font-family="Helvetica,sans-Serif" font-size="10.00">Foam::species::thermo2T::cvR</text>
</a>
</g>
</g>
<!-- Node1&#45;&gt;Node3 -->
<g id="edge2_Node000001_Node000003" class="edge">
<title>Node1&#45;&gt;Node3</title>
<g id="a_edge2_Node000001_Node000003"><a xlink:title=" ">
<path fill="none" stroke="#63b8ff" d="M188.73,-23.82C178.28,-22.41 165.8,-20.73 153.14,-19.02"/>
<polygon fill="#63b8ff" stroke="#63b8ff" points="188.44,-27.32 198.82,-25.18 189.38,-20.38 188.44,-27.32"/>
</a>
</g>
</g>
</g>
</svg>
