<?xml version="1.0" encoding="UTF-8" standalone="no"?>
<!DOCTYPE svg PUBLIC "-//W3C//DTD SVG 1.1//EN"
 "http://www.w3.org/Graphics/SVG/1.1/DTD/svg11.dtd">
<!-- Generated by graphviz version 2.43.0 (0)
 -->
<!-- Title: make2TThermo.H Pages: 1 -->
<!--zoomable 192 -->

<svg id="main" version="1.1" xmlns="http://www.w3.org/2000/svg" xmlns:xlink="http://www.w3.org/1999/xlink" xml:space="preserve" onload="init(evt)">
<style type="text/css"><![CDATA[
.node, .edge {opacity: 0.7;}
.node.selected, .edge.selected {opacity: 1;}
.edge:hover path { stroke: red; }
.edge:hover polygon { stroke: red; fill: red; }
]]></style>

<defs>
  <circle id="rim" cx="0" cy="0" r="7"/>
  <circle id="rim2" cx="0" cy="0" r="3.5"/>
  <g id="zoomPlus">
    <use xlink:href="#rim" fill="#404040"><set attributeName="fill" to="#808080" begin="zoomplus.mouseover" end="zoomplus.mouseout"/></use>
    <path d="M-4,0h8M0,-4v8" fill="none" stroke="white" stroke-width="1.5" pointer-events="none"/>
  </g>
  <g id="zoomMin">
    <use xlink:href="#rim" fill="#404040"><set attributeName="fill" to="#808080" begin="zoomminus.mouseover" end="zoomminus.mouseout"/></use>
    <path d="M-4,0h8" fill="none" stroke="white" stroke-width="1.5" pointer-events="none"/>
  </g>
  <g id="arrowUp" transform="translate(30 24)">
    <use xlink:href="#rim"/>
    <path pointer-events="none" fill="none" stroke="white" stroke-width="1.5" d="M0,-3.0v7 M-2.5,-0.5L0,-3.0L2.5,-0.5"/>
  </g>
  <g id="arrowRight" transform="rotate(90) translate(36 -43)">
    <use xlink:href="#rim"/>
    <path pointer-events="none" fill="none" stroke="white" stroke-width="1.5" d="M0,-3.0v7 M-2.5,-0.5L0,-3.0L2.5,-0.5"/>
  </g>
  <g id="arrowDown" transform="rotate(180) translate(-30 -48)">
    <use xlink:href="#rim"/>
    <path pointer-events="none" fill="none" stroke="white" stroke-width="1.5" d="M0,-3.0v7 M-2.5,-0.5L0,-3.0L2.5,-0.5"/>
  </g>
  <g id="arrowLeft" transform="rotate(270) translate(-36 17)">
    <use xlink:href="#rim"/>
    <path pointer-events="none" fill="none" stroke="white" stroke-width="1.5" d="M0,-3.0v7 M-2.5,-0.5L0,-3.0L2.5,-0.5"/>
  </g>
  <g id="resetDef">
    <use xlink:href="#rim2" fill="#404040"><set attributeName="fill" to="#808080" begin="reset.mouseover" end="reset.mouseout"/></use>
  </g>
</defs>
<script type="application/ecmascript">
var viewWidth = 540;
var viewHeight = 192;
var sectionId = 'dynsection-0';
</script>
<script type="application/ecmascript" xlink:href="svg.min.js"/>
<svg id="graph" class="graph">
<g id="viewport">
<title>make2TThermo.H</title>
<!-- Node1 -->
<g id="Node000001" class="node">
<title>Node1</title>
<g id="a_Node000001"><a xlink:title=" ">
<polygon fill="#999999" stroke="#666666" points="422.5,-184 318.5,-184 318.5,-165 422.5,-165 422.5,-184"/>
<text text-anchor="middle" x="370.5" y="-172" font-family="Helvetica,sans-Serif" font-size="10.00">make2TThermo.H</text>
</a>
</g>
</g>
<!-- Node2 -->
<g id="Node000002" class="node">
<title>Node2</title>
<g id="a_Node000002"><a xlink:href="lnInclude_2fluid2TThermo_8H.html" target="_top" xlink:title=" ">
<polygon fill="white" stroke="#666666" points="343.5,-129 245.5,-129 245.5,-110 343.5,-110 343.5,-129"/>
<text text-anchor="middle" x="294.5" y="-117" font-family="Helvetica,sans-Serif" font-size="10.00">fluid2TThermo.H</text>
</a>
</g>
</g>
<!-- Node1&#45;&gt;Node2 -->
<g id="edge1_Node000001_Node000002" class="edge">
<title>Node1&#45;&gt;Node2</title>
<g id="a_edge1_Node000001_Node000002"><a xlink:title=" ">
<path fill="none" stroke="#63b8ff" d="M358.29,-164.98C346.72,-156.92 329.12,-144.65 315.34,-135.03"/>
<polygon fill="#63b8ff" stroke="#63b8ff" points="317.14,-132.02 306.93,-129.17 313.13,-137.76 317.14,-132.02"/>
</a>
</g>
</g>
<!-- Node10 -->
<g id="Node000010" class="node">
<title>Node10</title>
<g id="a_Node000010"><a xlink:title=" ">
<polygon fill="#e0e0e0" stroke="#999999" points="531.5,-129 361.5,-129 361.5,-110 531.5,-110 531.5,-129"/>
<text text-anchor="middle" x="446.5" y="-117" font-family="Helvetica,sans-Serif" font-size="10.00">addToRunTimeSelectionTable.H</text>
</a>
</g>
</g>
<!-- Node1&#45;&gt;Node10 -->
<g id="edge9_Node000001_Node000010" class="edge">
<title>Node1&#45;&gt;Node10</title>
<g id="a_edge9_Node000001_Node000010"><a xlink:title=" ">
<path fill="none" stroke="#63b8ff" d="M382.71,-164.98C394.28,-156.92 411.88,-144.65 425.66,-135.03"/>
<polygon fill="#63b8ff" stroke="#63b8ff" points="427.87,-137.76 434.07,-129.17 423.86,-132.02 427.87,-137.76"/>
</a>
</g>
</g>
<!-- Node3 -->
<g id="Node000003" class="node">
<title>Node3</title>
<g id="a_Node000003"><a xlink:href="lnInclude_2basic2TThermo_8H.html" target="_top" xlink:title=" ">
<polygon fill="white" stroke="#666666" points="269.5,-74 167.5,-74 167.5,-55 269.5,-55 269.5,-74"/>
<text text-anchor="middle" x="218.5" y="-62" font-family="Helvetica,sans-Serif" font-size="10.00">basic2TThermo.H</text>
</a>
</g>
</g>
<!-- Node2&#45;&gt;Node3 -->
<g id="edge2_Node000002_Node000003" class="edge">
<title>Node2&#45;&gt;Node3</title>
<g id="a_edge2_Node000002_Node000003"><a xlink:title=" ">
<path fill="none" stroke="#63b8ff" d="M282.29,-109.98C270.72,-101.92 253.12,-89.65 239.34,-80.03"/>
<polygon fill="#63b8ff" stroke="#63b8ff" points="241.14,-77.02 230.93,-74.17 237.13,-82.76 241.14,-77.02"/>
</a>
</g>
</g>
<!-- Node9 -->
<g id="Node000009" class="node">
<title>Node9</title>
<g id="a_Node000009"><a xlink:title=" ">
<polygon fill="#e0e0e0" stroke="#999999" points="455,-74 288,-74 288,-55 455,-55 455,-74"/>
<text text-anchor="middle" x="371.5" y="-62" font-family="Helvetica,sans-Serif" font-size="10.00">compressibleTransportModel.H</text>
</a>
</g>
</g>
<!-- Node2&#45;&gt;Node9 -->
<g id="edge8_Node000002_Node000009" class="edge">
<title>Node2&#45;&gt;Node9</title>
<g id="a_edge8_Node000002_Node000009"><a xlink:title=" ">
<path fill="none" stroke="#63b8ff" d="M306.87,-109.98C318.59,-101.92 336.42,-89.65 350.39,-80.03"/>
<polygon fill="#63b8ff" stroke="#63b8ff" points="352.65,-82.72 358.9,-74.17 348.68,-76.96 352.65,-82.72"/>
</a>
</g>
</g>
<!-- Node4 -->
<g id="Node000004" class="node">
<title>Node4</title>
<g id="a_Node000004"><a xlink:title=" ">
<polygon fill="#e0e0e0" stroke="#999999" points="71,-19 0,-19 0,0 71,0 71,-19"/>
<text text-anchor="middle" x="35.5" y="-7" font-family="Helvetica,sans-Serif" font-size="10.00">volFields.H</text>
</a>
</g>
</g>
<!-- Node3&#45;&gt;Node4 -->
<g id="edge3_Node000003_Node000004" class="edge">
<title>Node3&#45;&gt;Node4</title>
<g id="a_edge3_Node000003_Node000004"><a xlink:title=" ">
<path fill="none" stroke="#63b8ff" d="M189.1,-54.98C158.11,-46.01 109.12,-31.82 74.83,-21.89"/>
<polygon fill="#63b8ff" stroke="#63b8ff" points="75.71,-18.5 65.13,-19.08 73.76,-25.23 75.71,-18.5"/>
</a>
</g>
</g>
<!-- Node5 -->
<g id="Node000005" class="node">
<title>Node5</title>
<g id="a_Node000005"><a xlink:title=" ">
<polygon fill="#e0e0e0" stroke="#999999" points="157.5,-19 89.5,-19 89.5,0 157.5,0 157.5,-19"/>
<text text-anchor="middle" x="123.5" y="-7" font-family="Helvetica,sans-Serif" font-size="10.00">typeInfo.H</text>
</a>
</g>
</g>
<!-- Node3&#45;&gt;Node5 -->
<g id="edge4_Node000003_Node000005" class="edge">
<title>Node3&#45;&gt;Node5</title>
<g id="a_edge4_Node000003_Node000005"><a xlink:title=" ">
<path fill="none" stroke="#63b8ff" d="M203.24,-54.98C188.37,-46.69 165.52,-33.94 148.08,-24.22"/>
<polygon fill="#63b8ff" stroke="#63b8ff" points="149.48,-20.99 139.04,-19.17 146.07,-27.1 149.48,-20.99"/>
</a>
</g>
</g>
<!-- Node6 -->
<g id="Node000006" class="node">
<title>Node6</title>
<g id="a_Node000006"><a xlink:title=" ">
<polygon fill="#e0e0e0" stroke="#999999" points="261,-19 176,-19 176,0 261,0 261,-19"/>
<text text-anchor="middle" x="218.5" y="-7" font-family="Helvetica,sans-Serif" font-size="10.00">IOdictionary.H</text>
</a>
</g>
</g>
<!-- Node3&#45;&gt;Node6 -->
<g id="edge5_Node000003_Node000006" class="edge">
<title>Node3&#45;&gt;Node6</title>
<g id="a_edge5_Node000003_Node000006"><a xlink:title=" ">
<path fill="none" stroke="#63b8ff" d="M218.5,-54.75C218.5,-47.8 218.5,-37.85 218.5,-29.13"/>
<polygon fill="#63b8ff" stroke="#63b8ff" points="222,-29.09 218.5,-19.09 215,-29.09 222,-29.09"/>
</a>
</g>
</g>
<!-- Node7 -->
<g id="Node000007" class="node">
<title>Node7</title>
<g id="a_Node000007"><a xlink:title=" ">
<polygon fill="#e0e0e0" stroke="#999999" points="341.5,-19 279.5,-19 279.5,0 341.5,0 341.5,-19"/>
<text text-anchor="middle" x="310.5" y="-7" font-family="Helvetica,sans-Serif" font-size="10.00">autoPtr.H</text>
</a>
</g>
</g>
<!-- Node3&#45;&gt;Node7 -->
<g id="edge6_Node000003_Node000007" class="edge">
<title>Node3&#45;&gt;Node7</title>
<g id="a_edge6_Node000003_Node000007"><a xlink:title=" ">
<path fill="none" stroke="#63b8ff" d="M233.28,-54.98C247.68,-46.69 269.81,-33.94 286.69,-24.22"/>
<polygon fill="#63b8ff" stroke="#63b8ff" points="288.53,-27.19 295.45,-19.17 285.04,-21.13 288.53,-27.19"/>
</a>
</g>
</g>
<!-- Node8 -->
<g id="Node000008" class="node">
<title>Node8</title>
<g id="a_Node000008"><a xlink:title=" ">
<polygon fill="#e0e0e0" stroke="#999999" points="439,-19 360,-19 360,0 439,0 439,-19"/>
<text text-anchor="middle" x="399.5" y="-7" font-family="Helvetica,sans-Serif" font-size="10.00">wordIOList.H</text>
</a>
</g>
</g>
<!-- Node3&#45;&gt;Node8 -->
<g id="edge7_Node000003_Node000008" class="edge">
<title>Node3&#45;&gt;Node8</title>
<g id="a_edge7_Node000003_Node000008"><a xlink:title=" ">
<path fill="none" stroke="#63b8ff" d="M247.58,-54.98C278.1,-46.05 326.26,-31.94 360.16,-22.02"/>
<polygon fill="#63b8ff" stroke="#63b8ff" points="361.58,-25.25 370.19,-19.08 359.61,-18.53 361.58,-25.25"/>
</a>
</g>
</g>
</g>
</svg>

<g id="navigator" transform="translate(0 0)" fill="#404254">
  <rect fill="#f2f5e9" fill-opacity="0.5" stroke="#606060" stroke-width=".5" x="0" y="0" width="60" height="60"/>
  <use id="zoomplus" xlink:href="#zoomPlus" x="17" y="9" onmousedown="handleZoom(evt,'in')"/>
  <use id="zoomminus" xlink:href="#zoomMin" x="42" y="9" onmousedown="handleZoom(evt,'out')"/>
  <use id="reset" xlink:href="#resetDef" x="30" y="36" onmousedown="handleReset()"/>
   <use id="arrowup" xlink:href="#arrowUp" x="0" y="0" onmousedown="handlePan(0,-1)"/>
  <use id="arrowright" xlink:href="#arrowRight" x="0" y="0" onmousedown="handlePan(1,0)"/>
  <use id="arrowdown" xlink:href="#arrowDown" x="0" y="0" onmousedown="handlePan(0,1)"/>
  <use id="arrowleft" xlink:href="#arrowLeft" x="0" y="0" onmousedown="handlePan(-1,0)"/>
</g>
<svg viewBox="0 0 15 15" width="100%" height="30px" preserveAspectRatio="xMaxYMin meet">
 <g id="arrow_out" transform="scale(0.3 0.3)">
  <a xlink:href="lnInclude_2make2TThermo_8H__incl_org.svg" target="_base">
   <rect id="button" ry="5" rx="5" y="6" x="6" height="38" width="38"
        fill="#f2f5e9" fill-opacity="0.5" stroke="#606060" stroke-width="1.0"/>
   <path id="arrow"
     d="M 11.500037,31.436501 C 11.940474,20.09759 22.043105,11.32322 32.158766,21.979434 L 37.068811,17.246167 C 37.068811,17.246167 37.088388,32 37.088388,32 L 22.160133,31.978069 C 22.160133,31.978069 26.997745,27.140456 26.997745,27.140456 C 18.528582,18.264221 13.291696,25.230495 11.500037,31.436501 z"
     style="fill:#404040;"/>
  </a>
 </g>
</svg>

<style type='text/css'>
<![CDATA[
[data-mouse-over-selected='false'] { opacity: 0.7; }
[data-mouse-over-selected='true']  { opacity: 1.0; }
]]>
</style>
<script type="application/ecmascript"><![CDATA[
document.addEventListener('DOMContentLoaded', (event) => {
  highlightEdges();
  highlightAdjacentNodes();
});
]]></script>
</svg>
