<?xml version="1.0" encoding="UTF-8" standalone="no"?>
<!DOCTYPE svg PUBLIC "-//W3C//DTD SVG 1.1//EN"
 "http://www.w3.org/Graphics/SVG/1.1/DTD/svg11.dtd">
<!-- Generated by graphviz version 2.43.0 (0)
 -->
<!-- Title: CvT Pages: 1 -->
<svg width="473pt" height="417pt"
 viewBox="0.00 0.00 473.00 416.50" xmlns="http://www.w3.org/2000/svg" xmlns:xlink="http://www.w3.org/1999/xlink">

<svg id="main" version="1.1" xmlns="http://www.w3.org/2000/svg" xmlns:xlink="http://www.w3.org/1999/xlink" xml:space="preserve" onload="init(evt)">
<style type="text/css"><![CDATA[
.node, .edge {opacity: 0.7;}
.node.selected, .edge.selected {opacity: 1;}
.edge:hover path { stroke: red; }
.edge:hover polygon { stroke: red; fill: red; }
]]></style>
<script type="application/ecmascript" xlink:href="svg.min.js"/>
<svg id="graph" class="graph">
<g id="graph0" class="graph" transform="scale(1 1) rotate(0) translate(4 412.5)">
<title>CvT</title>
<!-- Node1 -->
<g id="Node000001" class="node">
<title>Node1</title>
<g id="a_Node000001"><a xlink:title=" ">
<polygon fill="#999999" stroke="#666666" points="465,-130 430,-130 430,-111 465,-111 465,-130"/>
<text text-anchor="middle" x="447.5" y="-118" font-family="Helvetica,sans-Serif" font-size="10.00">CvT</text>
</a>
</g>
</g>
<!-- Node2 -->
<g id="Node000002" class="node">
<title>Node2</title>
<g id="a_Node000002"><a xlink:href="lnInclude_2EtoHthermo2T_8H.html#aa0b7c65135f8132343b868a05ac7ff86" target="_top" xlink:title=" ">
<polygon fill="white" stroke="#666666" points="325.5,-167 283.5,-167 283.5,-148 325.5,-148 325.5,-167"/>
<text text-anchor="middle" x="304.5" y="-155" font-family="Helvetica,sans-Serif" font-size="10.00">CpTR</text>
</a>
</g>
</g>
<!-- Node1&#45;&gt;Node2 -->
<g id="edge1_Node000001_Node000002" class="edge">
<title>Node1&#45;&gt;Node2</title>
<g id="a_edge1_Node000001_Node000002"><a xlink:title=" ">
<path fill="none" stroke="#63b8ff" d="M419.88,-122.4C411.66,-125 402.53,-128.1 394,-130.5 369.7,-137.33 340.96,-142.69 322.98,-147.96"/>
<polygon fill="#63b8ff" stroke="#63b8ff" points="421.1,-125.69 429.68,-119.48 419.1,-118.98 421.1,-125.69"/>
</a>
</g>
</g>
<!-- Node13 -->
<g id="Node000013" class="node">
<title>Node13</title>
<g id="a_Node000013"><a xlink:href="classFoam_1_1he2TThermo.html#ad7fc0d8d5a30d8ee59a5591adba6f13b" target="_top" xlink:title=" ">
<polygon fill="white" stroke="#666666" points="372.5,-130 236.5,-130 236.5,-111 372.5,-111 372.5,-130"/>
<text text-anchor="middle" x="304.5" y="-118" font-family="Helvetica,sans-Serif" font-size="10.00">Foam::he2TThermo::CvT</text>
</a>
</g>
</g>
<!-- Node1&#45;&gt;Node13 -->
<g id="edge14_Node000001_Node000013" class="edge">
<title>Node1&#45;&gt;Node13</title>
<g id="a_edge14_Node000001_Node000013"><a xlink:title=" ">
<path fill="none" stroke="#63b8ff" d="M419.43,-120.5C406.06,-120.5 389.28,-120.5 372.74,-120.5"/>
<polygon fill="#63b8ff" stroke="#63b8ff" points="419.77,-124 429.77,-120.5 419.77,-117 419.77,-124"/>
</a>
</g>
</g>
<!-- Node14 -->
<g id="Node000014" class="node">
<title>Node14</title>
<g id="a_Node000014"><a xlink:href="classFoam_1_1species_1_1thermo2T.html#ad6f68cdc2dcfe768260d0838ce8eb645" target="_top" xlink:title=" ">
<polygon fill="white" stroke="#666666" points="385.5,-93 223.5,-93 223.5,-74 385.5,-74 385.5,-93"/>
<text text-anchor="middle" x="304.5" y="-81" font-family="Helvetica,sans-Serif" font-size="10.00">Foam::species::thermo2T::cvT</text>
</a>
</g>
</g>
<!-- Node1&#45;&gt;Node14 -->
<g id="edge15_Node000001_Node000014" class="edge">
<title>Node1&#45;&gt;Node14</title>
<g id="a_edge15_Node000001_Node000014"><a xlink:title=" ">
<path fill="none" stroke="#63b8ff" d="M420.1,-110.76C411.81,-107.89 402.58,-104.88 394,-102.5 381.43,-99.01 367.71,-95.79 354.91,-93.02"/>
<polygon fill="#63b8ff" stroke="#63b8ff" points="419.04,-114.1 429.64,-114.15 421.38,-107.5 419.04,-114.1"/>
</a>
</g>
</g>
<!-- Node15 -->
<g id="Node000015" class="node">
<title>Node15</title>
<g id="a_Node000015"><a xlink:href="classFoam_1_1blottnerEucken2TTransport.html#a947fac3e1ddda0f9d4d818e58bc5e3b6" target="_top" xlink:title=" ">
<polygon fill="white" stroke="#666666" points="394,-55.5 215,-55.5 215,-25.5 394,-25.5 394,-55.5"/>
<text text-anchor="start" x="223" y="-43.5" font-family="Helvetica,sans-Serif" font-size="10.00">Foam::blottnerEucken2TTransport</text>
<text text-anchor="middle" x="304.5" y="-32.5" font-family="Helvetica,sans-Serif" font-size="10.00">::kappaTR</text>
</a>
</g>
</g>
<!-- Node1&#45;&gt;Node15 -->
<g id="edge16_Node000001_Node000015" class="edge">
<title>Node1&#45;&gt;Node15</title>
<g id="a_edge16_Node000001_Node000015"><a xlink:title=" ">
<path fill="none" stroke="#63b8ff" d="M433.69,-102.73C424.05,-90.59 409.83,-75.03 394,-65.5 387.57,-61.63 380.52,-58.34 373.29,-55.54"/>
<polygon fill="#63b8ff" stroke="#63b8ff" points="431.01,-104.99 439.85,-110.83 436.58,-100.75 431.01,-104.99"/>
</a>
</g>
</g>
<!-- Node2&#45;&gt;Node1 -->
<g id="edge5_Node000002_Node000001" class="edge">
<title>Node2&#45;&gt;Node1</title>
<g id="a_edge5_Node000002_Node000001"><a xlink:title=" ">
<path fill="none" stroke="#63b8ff" d="M335.79,-160.38C353,-158.34 374.87,-153.87 394,-148.5 410.05,-143.99 428.23,-136.96 438.44,-130.11"/>
<polygon fill="#63b8ff" stroke="#63b8ff" points="335.36,-156.91 325.74,-161.33 336.02,-163.88 335.36,-156.91"/>
</a>
</g>
</g>
<!-- Node3 -->
<g id="Node000003" class="node">
<title>Node3</title>
<g id="a_Node000003"><a xlink:href="classFoam_1_1blottnerEucken2TTransport.html#a38a4811379fc20ab3f2143e09ee6a8fd" target="_top" xlink:title=" ">
<polygon fill="white" stroke="#666666" points="179,-408.5 0,-408.5 0,-378.5 179,-378.5 179,-408.5"/>
<text text-anchor="start" x="8" y="-396.5" font-family="Helvetica,sans-Serif" font-size="10.00">Foam::blottnerEucken2TTransport</text>
<text text-anchor="middle" x="89.5" y="-385.5" font-family="Helvetica,sans-Serif" font-size="10.00">::alphah</text>
</a>
</g>
</g>
<!-- Node2&#45;&gt;Node3 -->
<g id="edge2_Node000002_Node000003" class="edge">
<title>Node2&#45;&gt;Node3</title>
<g id="a_edge2_Node000002_Node000003"><a xlink:title=" ">
<path fill="none" stroke="#63b8ff" d="M297.71,-176.87C284.18,-218.73 246.4,-318.02 179,-369.5 174.45,-372.98 169.42,-375.95 164.15,-378.5"/>
<polygon fill="#63b8ff" stroke="#63b8ff" points="301.06,-177.9 300.7,-167.31 294.37,-175.81 301.06,-177.9"/>
</a>
</g>
</g>
<!-- Node4 -->
<g id="Node000004" class="node">
<title>Node4</title>
<g id="a_Node000004"><a xlink:href="classFoam_1_1he2TThermo.html#a1aad86c98c4f28bbef3779356083f1e1" target="_top" xlink:title=" ">
<polygon fill="white" stroke="#666666" points="173.5,-360 5.5,-360 5.5,-319 173.5,-319 173.5,-360"/>
<text text-anchor="start" x="13.5" y="-348" font-family="Helvetica,sans-Serif" font-size="10.00">Foam::he2TThermo&lt; BasicNe2</text>
<text text-anchor="start" x="13.5" y="-337" font-family="Helvetica,sans-Serif" font-size="10.00">TThermo, MixtureType &gt;</text>
<text text-anchor="middle" x="89.5" y="-326" font-family="Helvetica,sans-Serif" font-size="10.00">::alphaheTR</text>
</a>
</g>
</g>
<!-- Node2&#45;&gt;Node4 -->
<g id="edge3_Node000002_Node000004" class="edge">
<title>Node2&#45;&gt;Node4</title>
<g id="a_edge3_Node000002_Node000004"><a xlink:title=" ">
<path fill="none" stroke="#63b8ff" d="M293.12,-175.99C274.38,-207.78 231.86,-272.89 179,-309.5 173.93,-313.01 168.42,-316.14 162.7,-318.92"/>
<polygon fill="#63b8ff" stroke="#63b8ff" points="296.19,-177.68 298.16,-167.27 290.13,-174.18 296.19,-177.68"/>
</a>
</g>
</g>
<!-- Node5 -->
<g id="Node000005" class="node">
<title>Node5</title>
<g id="a_Node000005"><a xlink:href="classFoam_1_1species_1_1thermo2T.html#a39b8976c5e48bdc34bdc2b65b43e69c7" target="_top" xlink:title=" ">
<polygon fill="white" stroke="#666666" points="159.5,-300.5 19.5,-300.5 19.5,-270.5 159.5,-270.5 159.5,-300.5"/>
<text text-anchor="start" x="27.5" y="-288.5" font-family="Helvetica,sans-Serif" font-size="10.00">Foam::species::thermo2T</text>
<text text-anchor="middle" x="89.5" y="-277.5" font-family="Helvetica,sans-Serif" font-size="10.00">::cpTR</text>
</a>
</g>
</g>
<!-- Node2&#45;&gt;Node5 -->
<g id="edge4_Node000002_Node000005" class="edge">
<title>Node2&#45;&gt;Node5</title>
<g id="a_edge4_Node000002_Node000005"><a xlink:title=" ">
<path fill="none" stroke="#63b8ff" d="M287.92,-174.47C265.86,-197.51 223.24,-238.45 179,-261.5 172.51,-264.88 165.49,-267.83 158.34,-270.38"/>
<polygon fill="#63b8ff" stroke="#63b8ff" points="290.53,-176.81 294.84,-167.13 285.44,-172.01 290.53,-176.81"/>
</a>
</g>
</g>
<!-- Node6 -->
<g id="Node000006" class="node">
<title>Node6</title>
<g id="a_Node000006"><a xlink:href="classFoam_1_1species_1_1thermo2T.html#a8a45da4feb57fed1ee52c4e5edff01f2" target="_top" xlink:title=" ">
<polygon fill="white" stroke="#666666" points="159.5,-252.5 19.5,-252.5 19.5,-222.5 159.5,-222.5 159.5,-252.5"/>
<text text-anchor="start" x="27.5" y="-240.5" font-family="Helvetica,sans-Serif" font-size="10.00">Foam::species::thermo2T</text>
<text text-anchor="middle" x="89.5" y="-229.5" font-family="Helvetica,sans-Serif" font-size="10.00">::gamma</text>
</a>
</g>
</g>
<!-- Node2&#45;&gt;Node6 -->
<g id="edge6_Node000002_Node000006" class="edge">
<title>Node2&#45;&gt;Node6</title>
<g id="a_edge6_Node000002_Node000006"><a xlink:title=" ">
<path fill="none" stroke="#63b8ff" d="M275.27,-171.74C250.37,-183.93 212.88,-201.37 179,-213.5 170.01,-216.72 160.37,-219.75 150.88,-222.5"/>
<polygon fill="#63b8ff" stroke="#63b8ff" points="277.06,-174.76 284.48,-167.19 273.96,-168.48 277.06,-174.76"/>
</a>
</g>
</g>
<!-- Node7 -->
<g id="Node000007" class="node">
<title>Node7</title>
<g id="a_Node000007"><a xlink:href="classFoam_1_1he2TThermo.html#a5191c7e700a900bcda2cb660a0f21c05" target="_top" xlink:title=" ">
<polygon fill="white" stroke="#666666" points="169,-204 10,-204 10,-185 169,-185 169,-204"/>
<text text-anchor="middle" x="89.5" y="-192" font-family="Helvetica,sans-Serif" font-size="10.00">Foam::he2TThermo::kappaEff</text>
</a>
</g>
</g>
<!-- Node2&#45;&gt;Node7 -->
<g id="edge7_Node000002_Node000007" class="edge">
<title>Node2&#45;&gt;Node7</title>
<g id="a_edge7_Node000002_Node000007"><a xlink:title=" ">
<path fill="none" stroke="#63b8ff" d="M273.48,-162.72C240.33,-168.47 186.26,-177.87 145.47,-184.95"/>
<polygon fill="#63b8ff" stroke="#63b8ff" points="274.21,-166.14 283.46,-160.98 273.01,-159.24 274.21,-166.14"/>
</a>
</g>
</g>
<!-- Node8 -->
<g id="Node000008" class="node">
<title>Node8</title>
<g id="a_Node000008"><a xlink:href="classFoam_1_1he2TThermo.html#a2f8385109155c52478cf3187516a8f7d" target="_top" xlink:title=" ">
<polygon fill="white" stroke="#666666" points="169,-167 10,-167 10,-148 169,-148 169,-167"/>
<text text-anchor="middle" x="89.5" y="-155" font-family="Helvetica,sans-Serif" font-size="10.00">Foam::he2TThermo::kappaEff</text>
</a>
</g>
</g>
<!-- Node2&#45;&gt;Node8 -->
<g id="edge8_Node000002_Node000008" class="edge">
<title>Node2&#45;&gt;Node8</title>
<g id="a_edge8_Node000002_Node000008"><a xlink:title=" ">
<path fill="none" stroke="#63b8ff" d="M273.46,-152.63C246.39,-150.96 205.39,-150.4 169.05,-150.96"/>
<polygon fill="#63b8ff" stroke="#63b8ff" points="273.23,-156.12 283.46,-153.35 273.74,-149.14 273.23,-156.12"/>
</a>
</g>
</g>
<!-- Node2&#45;&gt;Node8 -->
<g id="edge9_Node000002_Node000008" class="edge">
<title>Node2&#45;&gt;Node8</title>
<g id="a_edge9_Node000002_Node000008"><a xlink:title=" ">
<path fill="none" stroke="#63b8ff" d="M273.46,-162.37C246.39,-164.04 205.39,-164.6 169.05,-164.04"/>
<polygon fill="#63b8ff" stroke="#63b8ff" points="273.74,-165.86 283.46,-161.65 273.23,-158.88 273.74,-165.86"/>
</a>
</g>
</g>
<!-- Node9 -->
<g id="Node000009" class="node">
<title>Node9</title>
<g id="a_Node000009"><a xlink:href="classFoam_1_1he2TThermo.html#afc09b1e606341acd3182174d5a59828d" target="_top" xlink:title=" ">
<polygon fill="white" stroke="#666666" points="169,-130 10,-130 10,-111 169,-111 169,-130"/>
<text text-anchor="middle" x="89.5" y="-118" font-family="Helvetica,sans-Serif" font-size="10.00">Foam::he2TThermo::kappaTR</text>
</a>
</g>
</g>
<!-- Node2&#45;&gt;Node9 -->
<g id="edge10_Node000002_Node000009" class="edge">
<title>Node2&#45;&gt;Node9</title>
<g id="a_edge10_Node000002_Node000009"><a xlink:title=" ">
<path fill="none" stroke="#63b8ff" d="M273.48,-152.28C240.33,-146.53 186.26,-137.13 145.47,-130.05"/>
<polygon fill="#63b8ff" stroke="#63b8ff" points="273.01,-155.76 283.46,-154.02 274.21,-148.86 273.01,-155.76"/>
</a>
</g>
</g>
<!-- Node10 -->
<g id="Node000010" class="node">
<title>Node10</title>
<g id="a_Node000010"><a xlink:href="classFoam_1_1he2TThermo.html#afeac4c529f2254079e10ef85226f2852" target="_top" xlink:title=" ">
<polygon fill="white" stroke="#666666" points="169,-93 10,-93 10,-74 169,-74 169,-93"/>
<text text-anchor="middle" x="89.5" y="-81" font-family="Helvetica,sans-Serif" font-size="10.00">Foam::he2TThermo::kappaTR</text>
</a>
</g>
</g>
<!-- Node2&#45;&gt;Node10 -->
<g id="edge11_Node000002_Node000010" class="edge">
<title>Node2&#45;&gt;Node10</title>
<g id="a_edge11_Node000002_Node000010"><a xlink:title=" ">
<path fill="none" stroke="#63b8ff" d="M273.2,-155.8C255.36,-153.74 232.86,-149.25 215,-139.5 194.86,-128.5 199.08,-113.61 179,-102.5 171.99,-98.62 164.26,-95.53 156.37,-93.08"/>
<polygon fill="#63b8ff" stroke="#63b8ff" points="273.08,-159.31 283.36,-156.77 273.74,-152.34 273.08,-159.31"/>
</a>
</g>
</g>
<!-- Node11 -->
<g id="Node000011" class="node">
<title>Node11</title>
<g id="a_Node000011"><a xlink:href="classFoam_1_1he2TThermo.html#a83eedce94d7a4f8ae3dff5a6dc55e11d" target="_top" xlink:title=" ">
<polygon fill="white" stroke="#666666" points="170.5,-56 8.5,-56 8.5,-37 170.5,-37 170.5,-56"/>
<text text-anchor="middle" x="89.5" y="-44" font-family="Helvetica,sans-Serif" font-size="10.00">Foam::he2TThermo::kappaVib</text>
</a>
</g>
</g>
<!-- Node2&#45;&gt;Node11 -->
<g id="edge12_Node000002_Node000011" class="edge">
<title>Node2&#45;&gt;Node11</title>
<g id="a_edge12_Node000002_Node000011"><a xlink:title=" ">
<path fill="none" stroke="#63b8ff" d="M273.48,-157.89C254.91,-156.67 231.55,-152.33 215,-139.5 186.09,-117.09 207.79,-88.06 179,-65.5 174.18,-61.72 168.77,-58.65 163.07,-56.16"/>
<polygon fill="#63b8ff" stroke="#63b8ff" points="273.37,-161.39 283.5,-158.28 273.64,-154.39 273.37,-161.39"/>
</a>
</g>
</g>
<!-- Node12 -->
<g id="Node000012" class="node">
<title>Node12</title>
<g id="a_Node000012"><a xlink:href="classFoam_1_1he2TThermo.html#a3aed4c686d1ba111fef1c5df73f17af3" target="_top" xlink:title=" ">
<polygon fill="white" stroke="#666666" points="170.5,-19 8.5,-19 8.5,0 170.5,0 170.5,-19"/>
<text text-anchor="middle" x="89.5" y="-7" font-family="Helvetica,sans-Serif" font-size="10.00">Foam::he2TThermo::kappaVib</text>
</a>
</g>
</g>
<!-- Node2&#45;&gt;Node12 -->
<g id="edge13_Node000002_Node000012" class="edge">
<title>Node2&#45;&gt;Node12</title>
<g id="a_edge13_Node000002_Node000012"><a xlink:title=" ">
<path fill="none" stroke="#63b8ff" d="M273.18,-158.69C254.3,-157.81 230.7,-153.55 215,-139.5 176.05,-104.62 217.95,-62.38 179,-27.5 175.26,-24.15 171.08,-21.36 166.61,-19.04"/>
<polygon fill="#63b8ff" stroke="#63b8ff" points="273.32,-162.19 283.38,-158.86 273.44,-155.19 273.32,-162.19"/>
</a>
</g>
</g>
</g>
</svg>
</svg>

<style type='text/css'>
<![CDATA[
[data-mouse-over-selected='false'] { opacity: 0.7; }
[data-mouse-over-selected='true']  { opacity: 1.0; }
]]>
</style>
<script type="application/ecmascript"><![CDATA[
document.addEventListener('DOMContentLoaded', (event) => {
  highlightEdges();
  highlightAdjacentNodes();
});
]]></script>
</svg>
