<?xml version="1.0" encoding="UTF-8" standalone="no"?>
<!DOCTYPE svg PUBLIC "-//W3C//DTD SVG 1.1//EN"
 "http://www.w3.org/Graphics/SVG/1.1/DTD/svg11.dtd">
<!-- Generated by graphviz version 2.43.0 (0)
 -->
<!-- Title: CpTR Pages: 1 -->
<svg width="480pt" height="455pt"
 viewBox="0.00 0.00 480.00 454.50" xmlns="http://www.w3.org/2000/svg" xmlns:xlink="http://www.w3.org/1999/xlink">
<g id="graph0" class="graph" transform="scale(1 1) rotate(0) translate(4 450.5)">
<title>CpTR</title>
<!-- Node1 -->
<g id="Node000001" class="node">
<title>Node1</title>
<g id="a_Node000001"><a xlink:title=" ">
<polygon fill="#999999" stroke="#666666" points="472,-204 430,-204 430,-185 472,-185 472,-204"/>
<text text-anchor="middle" x="451" y="-192" font-family="Helvetica,sans-Serif" font-size="10.00">CpTR</text>
</a>
</g>
</g>
<!-- Node2 -->
<g id="Node000002" class="node">
<title>Node2</title>
<g id="a_Node000002"><a xlink:href="classFoam_1_1blottnerEucken2TTransport.html#a38a4811379fc20ab3f2143e09ee6a8fd" target="_top" xlink:title=" ">
<polygon fill="white" stroke="#666666" points="394,-446.5 215,-446.5 215,-416.5 394,-416.5 394,-446.5"/>
<text text-anchor="start" x="223" y="-434.5" font-family="Helvetica,sans-Serif" font-size="10.00">Foam::blottnerEucken2TTransport</text>
<text text-anchor="middle" x="304.5" y="-423.5" font-family="Helvetica,sans-Serif" font-size="10.00">::alphah</text>
</a>
</g>
</g>
<!-- Node1&#45;&gt;Node2 -->
<g id="edge1_Node000001_Node000002" class="edge">
<title>Node1&#45;&gt;Node2</title>
<g id="a_edge1_Node000001_Node000002"><a xlink:title=" ">
<path fill="none" stroke="#63b8ff" d="M450.9,-214.43C451.64,-256.29 447.17,-353.91 394,-407.5 390.64,-410.89 386.85,-413.82 382.77,-416.34"/>
<polygon fill="#63b8ff" stroke="#63b8ff" points="454.39,-214.07 450.59,-204.18 447.39,-214.28 454.39,-214.07"/>
</a>
</g>
</g>
<!-- Node3 -->
<g id="Node000003" class="node">
<title>Node3</title>
<g id="a_Node000003"><a xlink:href="classFoam_1_1he2TThermo.html#a1aad86c98c4f28bbef3779356083f1e1" target="_top" xlink:title=" ">
<polygon fill="white" stroke="#666666" points="388.5,-398 220.5,-398 220.5,-357 388.5,-357 388.5,-398"/>
<text text-anchor="start" x="228.5" y="-386" font-family="Helvetica,sans-Serif" font-size="10.00">Foam::he2TThermo&lt; BasicNe2</text>
<text text-anchor="start" x="228.5" y="-375" font-family="Helvetica,sans-Serif" font-size="10.00">TThermo, MixtureType &gt;</text>
<text text-anchor="middle" x="304.5" y="-364" font-family="Helvetica,sans-Serif" font-size="10.00">::alphaheTR</text>
</a>
</g>
</g>
<!-- Node1&#45;&gt;Node3 -->
<g id="edge2_Node000001_Node000003" class="edge">
<title>Node1&#45;&gt;Node3</title>
<g id="a_edge2_Node000001_Node000003"><a xlink:title=" ">
<path fill="none" stroke="#63b8ff" d="M448.18,-214.29C444.16,-246.59 431.66,-310.74 394,-347.5 390.4,-351.01 386.38,-354.12 382.08,-356.85"/>
<polygon fill="#63b8ff" stroke="#63b8ff" points="451.66,-214.61 449.27,-204.28 444.7,-213.84 451.66,-214.61"/>
</a>
</g>
</g>
<!-- Node4 -->
<g id="Node000004" class="node">
<title>Node4</title>
<g id="a_Node000004"><a xlink:href="classFoam_1_1species_1_1thermo2T.html#a39b8976c5e48bdc34bdc2b65b43e69c7" target="_top" xlink:title=" ">
<polygon fill="white" stroke="#666666" points="374.5,-338.5 234.5,-338.5 234.5,-308.5 374.5,-308.5 374.5,-338.5"/>
<text text-anchor="start" x="242.5" y="-326.5" font-family="Helvetica,sans-Serif" font-size="10.00">Foam::species::thermo2T</text>
<text text-anchor="middle" x="304.5" y="-315.5" font-family="Helvetica,sans-Serif" font-size="10.00">::cpTR</text>
</a>
</g>
</g>
<!-- Node1&#45;&gt;Node4 -->
<g id="edge3_Node000001_Node000004" class="edge">
<title>Node1&#45;&gt;Node4</title>
<g id="a_edge3_Node000001_Node000004"><a xlink:title=" ">
<path fill="none" stroke="#63b8ff" d="M444.81,-213.97C437.46,-237.71 421.74,-277.39 394,-299.5 388.27,-304.06 381.75,-307.76 374.89,-310.76"/>
<polygon fill="#63b8ff" stroke="#63b8ff" points="448.19,-214.88 447.61,-204.3 441.46,-212.93 448.19,-214.88"/>
</a>
</g>
</g>
<!-- Node5 -->
<g id="Node000005" class="node">
<title>Node5</title>
<g id="a_Node000005"><a xlink:href="lnInclude_2HtoEthermo2T_8H.html#a9aa70b42d27cada92be491a2a1109f97" target="_top" xlink:title=" ">
<polygon fill="white" stroke="#666666" points="322,-290 287,-290 287,-271 322,-271 322,-290"/>
<text text-anchor="middle" x="304.5" y="-278" font-family="Helvetica,sans-Serif" font-size="10.00">CvT</text>
</a>
</g>
</g>
<!-- Node1&#45;&gt;Node5 -->
<g id="edge4_Node000001_Node000005" class="edge">
<title>Node1&#45;&gt;Node5</title>
<g id="a_edge4_Node000001_Node000005"><a xlink:title=" ">
<path fill="none" stroke="#63b8ff" d="M434.55,-212.49C424.7,-225.62 410.66,-242.44 394,-252.5 371.53,-266.06 340.72,-270.01 322.01,-273.62"/>
<polygon fill="#63b8ff" stroke="#63b8ff" points="437.6,-214.25 440.68,-204.11 431.95,-210.11 437.6,-214.25"/>
</a>
</g>
</g>
<!-- Node9 -->
<g id="Node000009" class="node">
<title>Node9</title>
<g id="a_Node000009"><a xlink:href="classFoam_1_1species_1_1thermo2T.html#a8a45da4feb57fed1ee52c4e5edff01f2" target="_top" xlink:title=" ">
<polygon fill="white" stroke="#666666" points="374.5,-252.5 234.5,-252.5 234.5,-222.5 374.5,-222.5 374.5,-252.5"/>
<text text-anchor="start" x="242.5" y="-240.5" font-family="Helvetica,sans-Serif" font-size="10.00">Foam::species::thermo2T</text>
<text text-anchor="middle" x="304.5" y="-229.5" font-family="Helvetica,sans-Serif" font-size="10.00">::gamma</text>
</a>
</g>
</g>
<!-- Node1&#45;&gt;Node9 -->
<g id="edge9_Node000001_Node000009" class="edge">
<title>Node1&#45;&gt;Node9</title>
<g id="a_edge9_Node000001_Node000009"><a xlink:title=" ">
<path fill="none" stroke="#63b8ff" d="M420.05,-204.34C411.64,-207.05 402.48,-209.94 394,-212.5 383,-215.82 371.18,-219.25 359.88,-222.47"/>
<polygon fill="#63b8ff" stroke="#63b8ff" points="421.4,-207.59 429.84,-201.17 419.24,-200.93 421.4,-207.59"/>
</a>
</g>
</g>
<!-- Node10 -->
<g id="Node000010" class="node">
<title>Node10</title>
<g id="a_Node000010"><a xlink:href="classFoam_1_1he2TThermo.html#a5191c7e700a900bcda2cb660a0f21c05" target="_top" xlink:title=" ">
<polygon fill="white" stroke="#666666" points="384,-204 225,-204 225,-185 384,-185 384,-204"/>
<text text-anchor="middle" x="304.5" y="-192" font-family="Helvetica,sans-Serif" font-size="10.00">Foam::he2TThermo::kappaEff</text>
</a>
</g>
</g>
<!-- Node1&#45;&gt;Node10 -->
<g id="edge10_Node000001_Node000010" class="edge">
<title>Node1&#45;&gt;Node10</title>
<g id="a_edge10_Node000001_Node000010"><a xlink:title=" ">
<path fill="none" stroke="#63b8ff" d="M419.64,-194.5C409.1,-194.5 396.73,-194.5 384.11,-194.5"/>
<polygon fill="#63b8ff" stroke="#63b8ff" points="419.91,-198 429.91,-194.5 419.91,-191 419.91,-198"/>
</a>
</g>
</g>
<!-- Node11 -->
<g id="Node000011" class="node">
<title>Node11</title>
<g id="a_Node000011"><a xlink:href="classFoam_1_1he2TThermo.html#a2f8385109155c52478cf3187516a8f7d" target="_top" xlink:title=" ">
<polygon fill="white" stroke="#666666" points="384,-167 225,-167 225,-148 384,-148 384,-167"/>
<text text-anchor="middle" x="304.5" y="-155" font-family="Helvetica,sans-Serif" font-size="10.00">Foam::he2TThermo::kappaEff</text>
</a>
</g>
</g>
<!-- Node1&#45;&gt;Node11 -->
<g id="edge11_Node000001_Node000011" class="edge">
<title>Node1&#45;&gt;Node11</title>
<g id="a_edge11_Node000001_Node000011"><a xlink:title=" ">
<path fill="none" stroke="#63b8ff" d="M432.44,-180.13C421.49,-174.95 407.05,-170.03 394,-166.5 390.82,-165.64 387.57,-164.8 384.28,-163.99"/>
<polygon fill="#63b8ff" stroke="#63b8ff" points="430.91,-183.28 441.38,-184.92 434.22,-177.11 430.91,-183.28"/>
</a>
</g>
</g>
<!-- Node1&#45;&gt;Node11 -->
<g id="edge12_Node000001_Node000011" class="edge">
<title>Node1&#45;&gt;Node11</title>
<g id="a_edge12_Node000001_Node000011"><a xlink:title=" ">
<path fill="none" stroke="#63b8ff" d="M420.2,-192.26C411.8,-189.75 402.6,-186.82 394,-184.5 369.48,-177.88 340.55,-172.43 322.62,-167.04"/>
<polygon fill="#63b8ff" stroke="#63b8ff" points="419.4,-195.67 429.97,-195.04 421.31,-188.94 419.4,-195.67"/>
</a>
</g>
</g>
<!-- Node12 -->
<g id="Node000012" class="node">
<title>Node12</title>
<g id="a_Node000012"><a xlink:href="classFoam_1_1he2TThermo.html#afc09b1e606341acd3182174d5a59828d" target="_top" xlink:title=" ">
<polygon fill="white" stroke="#666666" points="384,-130 225,-130 225,-111 384,-111 384,-130"/>
<text text-anchor="middle" x="304.5" y="-118" font-family="Helvetica,sans-Serif" font-size="10.00">Foam::he2TThermo::kappaTR</text>
</a>
</g>
</g>
<!-- Node1&#45;&gt;Node12 -->
<g id="edge13_Node000001_Node000012" class="edge">
<title>Node1&#45;&gt;Node12</title>
<g id="a_edge13_Node000001_Node000012"><a xlink:title=" ">
<path fill="none" stroke="#63b8ff" d="M437.02,-176.84C426.76,-164.19 411.32,-147.81 394,-138.5 387.65,-135.09 380.72,-132.32 373.63,-130.07"/>
<polygon fill="#63b8ff" stroke="#63b8ff" points="434.36,-179.12 443.26,-184.87 439.89,-174.82 434.36,-179.12"/>
</a>
</g>
</g>
<!-- Node13 -->
<g id="Node000013" class="node">
<title>Node13</title>
<g id="a_Node000013"><a xlink:href="classFoam_1_1he2TThermo.html#afeac4c529f2254079e10ef85226f2852" target="_top" xlink:title=" ">
<polygon fill="white" stroke="#666666" points="384,-93 225,-93 225,-74 384,-74 384,-93"/>
<text text-anchor="middle" x="304.5" y="-81" font-family="Helvetica,sans-Serif" font-size="10.00">Foam::he2TThermo::kappaTR</text>
</a>
</g>
</g>
<!-- Node1&#45;&gt;Node13 -->
<g id="edge14_Node000001_Node000013" class="edge">
<title>Node1&#45;&gt;Node13</title>
<g id="a_edge14_Node000001_Node000013"><a xlink:title=" ">
<path fill="none" stroke="#63b8ff" d="M443.7,-175.11C435.67,-153.62 419.68,-119.63 394,-101.5 389.26,-98.15 384.04,-95.4 378.58,-93.14"/>
<polygon fill="#63b8ff" stroke="#63b8ff" points="440.48,-176.51 447.09,-184.79 447.09,-174.19 440.48,-176.51"/>
</a>
</g>
</g>
<!-- Node14 -->
<g id="Node000014" class="node">
<title>Node14</title>
<g id="a_Node000014"><a xlink:href="classFoam_1_1he2TThermo.html#a83eedce94d7a4f8ae3dff5a6dc55e11d" target="_top" xlink:title=" ">
<polygon fill="white" stroke="#666666" points="385.5,-56 223.5,-56 223.5,-37 385.5,-37 385.5,-56"/>
<text text-anchor="middle" x="304.5" y="-44" font-family="Helvetica,sans-Serif" font-size="10.00">Foam::he2TThermo::kappaVib</text>
</a>
</g>
</g>
<!-- Node1&#45;&gt;Node14 -->
<g id="edge15_Node000001_Node000014" class="edge">
<title>Node1&#45;&gt;Node14</title>
<g id="a_edge15_Node000001_Node000014"><a xlink:title=" ">
<path fill="none" stroke="#63b8ff" d="M447.28,-174.78C442.22,-145.91 428.52,-92.55 394,-64.5 389.86,-61.14 385.26,-58.35 380.4,-56.05"/>
<polygon fill="#63b8ff" stroke="#63b8ff" points="443.86,-175.53 448.87,-184.86 450.77,-174.44 443.86,-175.53"/>
</a>
</g>
</g>
<!-- Node15 -->
<g id="Node000015" class="node">
<title>Node15</title>
<g id="a_Node000015"><a xlink:href="classFoam_1_1he2TThermo.html#a3aed4c686d1ba111fef1c5df73f17af3" target="_top" xlink:title=" ">
<polygon fill="white" stroke="#666666" points="385.5,-19 223.5,-19 223.5,0 385.5,0 385.5,-19"/>
<text text-anchor="middle" x="304.5" y="-7" font-family="Helvetica,sans-Serif" font-size="10.00">Foam::he2TThermo::kappaVib</text>
</a>
</g>
</g>
<!-- Node1&#45;&gt;Node15 -->
<g id="edge16_Node000001_Node000015" class="edge">
<title>Node1&#45;&gt;Node15</title>
<g id="a_edge16_Node000001_Node000015"><a xlink:title=" ">
<path fill="none" stroke="#63b8ff" d="M449.42,-174.36C447.25,-139 437.43,-65.9 394,-27.5 390.24,-24.18 386.04,-21.4 381.56,-19.09"/>
<polygon fill="#63b8ff" stroke="#63b8ff" points="445.94,-174.97 449.9,-184.8 452.93,-174.64 445.94,-174.97"/>
</a>
</g>
</g>
<!-- Node5&#45;&gt;Node1 -->
<g id="edge5_Node000005_Node000001" class="edge">
<title>Node5&#45;&gt;Node1</title>
<g id="a_edge5_Node000005_Node000001"><a xlink:title=" ">
<path fill="none" stroke="#63b8ff" d="M332.1,-286.86C350.6,-286.46 375.22,-281.84 394,-270.5 420.48,-254.52 440.32,-221.46 447.28,-204.14"/>
<polygon fill="#63b8ff" stroke="#63b8ff" points="332.08,-283.36 322.01,-286.63 331.92,-290.36 332.08,-283.36"/>
</a>
</g>
</g>
<!-- Node6 -->
<g id="Node000006" class="node">
<title>Node6</title>
<g id="a_Node000006"><a xlink:href="classFoam_1_1he2TThermo.html#ad7fc0d8d5a30d8ee59a5591adba6f13b" target="_top" xlink:title=" ">
<polygon fill="white" stroke="#666666" points="157.5,-327 21.5,-327 21.5,-308 157.5,-308 157.5,-327"/>
<text text-anchor="middle" x="89.5" y="-315" font-family="Helvetica,sans-Serif" font-size="10.00">Foam::he2TThermo::CvT</text>
</a>
</g>
</g>
<!-- Node5&#45;&gt;Node6 -->
<g id="edge6_Node000005_Node000006" class="edge">
<title>Node5&#45;&gt;Node6</title>
<g id="a_edge6_Node000005_Node000006"><a xlink:title=" ">
<path fill="none" stroke="#63b8ff" d="M276.6,-285.17C243.74,-290.88 187.34,-300.68 145.22,-307.99"/>
<polygon fill="#63b8ff" stroke="#63b8ff" points="277.53,-288.56 286.79,-283.4 276.33,-281.67 277.53,-288.56"/>
</a>
</g>
</g>
<!-- Node7 -->
<g id="Node000007" class="node">
<title>Node7</title>
<g id="a_Node000007"><a xlink:href="classFoam_1_1species_1_1thermo2T.html#ad6f68cdc2dcfe768260d0838ce8eb645" target="_top" xlink:title=" ">
<polygon fill="white" stroke="#666666" points="170.5,-290 8.5,-290 8.5,-271 170.5,-271 170.5,-290"/>
<text text-anchor="middle" x="89.5" y="-278" font-family="Helvetica,sans-Serif" font-size="10.00">Foam::species::thermo2T::cvT</text>
</a>
</g>
</g>
<!-- Node5&#45;&gt;Node7 -->
<g id="edge7_Node000005_Node000007" class="edge">
<title>Node5&#45;&gt;Node7</title>
<g id="a_edge7_Node000005_Node000007"><a xlink:title=" ">
<path fill="none" stroke="#63b8ff" d="M276.73,-280.5C250.13,-280.5 208.02,-280.5 170.57,-280.5"/>
<polygon fill="#63b8ff" stroke="#63b8ff" points="276.79,-284 286.79,-280.5 276.79,-277 276.79,-284"/>
</a>
</g>
</g>
<!-- Node8 -->
<g id="Node000008" class="node">
<title>Node8</title>
<g id="a_Node000008"><a xlink:href="classFoam_1_1blottnerEucken2TTransport.html#a947fac3e1ddda0f9d4d818e58bc5e3b6" target="_top" xlink:title=" ">
<polygon fill="white" stroke="#666666" points="179,-252.5 0,-252.5 0,-222.5 179,-222.5 179,-252.5"/>
<text text-anchor="start" x="8" y="-240.5" font-family="Helvetica,sans-Serif" font-size="10.00">Foam::blottnerEucken2TTransport</text>
<text text-anchor="middle" x="89.5" y="-229.5" font-family="Helvetica,sans-Serif" font-size="10.00">::kappaTR</text>
</a>
</g>
</g>
<!-- Node5&#45;&gt;Node8 -->
<g id="edge8_Node000005_Node000008" class="edge">
<title>Node5&#45;&gt;Node8</title>
<g id="a_edge8_Node000005_Node000008"><a xlink:title=" ">
<path fill="none" stroke="#63b8ff" d="M276.97,-275.14C249.03,-269.5 203.76,-260.37 164.83,-252.51"/>
<polygon fill="#63b8ff" stroke="#63b8ff" points="276.29,-278.58 286.79,-277.13 277.68,-271.72 276.29,-278.58"/>
</a>
</g>
</g>
</g>
</svg>
