<?xml version="1.0" encoding="UTF-8" standalone="no"?>
<!DOCTYPE svg PUBLIC "-//W3C//DTD SVG 1.1//EN"
 "http://www.w3.org/Graphics/SVG/1.1/DTD/svg11.dtd">
<!-- Generated by graphviz version 2.43.0 (0)
 -->
<!-- Title: ne2TThermo.C Pages: 1 -->
<svg width="513pt" height="247pt"
 viewBox="0.00 0.00 513.00 247.00" xmlns="http://www.w3.org/2000/svg" xmlns:xlink="http://www.w3.org/1999/xlink">
<g id="graph0" class="graph" transform="scale(1 1) rotate(0) translate(4 243)">
<title>ne2TThermo.C</title>
<!-- Node1 -->
<g id="Node000001" class="node">
<title>Node1</title>
<g id="a_Node000001"><a xlink:title=" ">
<polygon fill="#999999" stroke="#666666" points="407.5,-239 319.5,-239 319.5,-220 407.5,-220 407.5,-239"/>
<text text-anchor="middle" x="363.5" y="-227" font-family="Helvetica,sans-Serif" font-size="10.00">ne2TThermo.C</text>
</a>
</g>
</g>
<!-- Node2 -->
<g id="Node000002" class="node">
<title>Node2</title>
<g id="a_Node000002"><a xlink:href="lnInclude_2ne2TThermo_8H.html" target="_top" xlink:title=" ">
<polygon fill="white" stroke="#666666" points="408,-184 319,-184 319,-165 408,-165 408,-184"/>
<text text-anchor="middle" x="363.5" y="-172" font-family="Helvetica,sans-Serif" font-size="10.00">ne2TThermo.H</text>
</a>
</g>
</g>
<!-- Node1&#45;&gt;Node2 -->
<g id="edge1_Node000001_Node000002" class="edge">
<title>Node1&#45;&gt;Node2</title>
<g id="a_edge1_Node000001_Node000002"><a xlink:title=" ">
<path fill="none" stroke="#63b8ff" d="M363.5,-219.75C363.5,-212.8 363.5,-202.85 363.5,-194.13"/>
<polygon fill="#63b8ff" stroke="#63b8ff" points="367,-194.09 363.5,-184.09 360,-194.09 367,-194.09"/>
</a>
</g>
</g>
<!-- Node3 -->
<g id="Node000003" class="node">
<title>Node3</title>
<g id="a_Node000003"><a xlink:href="lnInclude_2fluid2TThermo_8H.html" target="_top" xlink:title=" ">
<polygon fill="white" stroke="#666666" points="343.5,-129 245.5,-129 245.5,-110 343.5,-110 343.5,-129"/>
<text text-anchor="middle" x="294.5" y="-117" font-family="Helvetica,sans-Serif" font-size="10.00">fluid2TThermo.H</text>
</a>
</g>
</g>
<!-- Node2&#45;&gt;Node3 -->
<g id="edge2_Node000002_Node000003" class="edge">
<title>Node2&#45;&gt;Node3</title>
<g id="a_edge2_Node000002_Node000003"><a xlink:title=" ">
<path fill="none" stroke="#63b8ff" d="M352.41,-164.98C342.01,-157 326.24,-144.88 313.78,-135.31"/>
<polygon fill="#63b8ff" stroke="#63b8ff" points="315.85,-132.49 305.79,-129.17 311.59,-138.04 315.85,-132.49"/>
</a>
</g>
</g>
<!-- Node11 -->
<g id="Node000011" class="node">
<title>Node11</title>
<g id="a_Node000011"><a xlink:title=" ">
<polygon fill="#e0e0e0" stroke="#999999" points="505,-129 362,-129 362,-110 505,-110 505,-129"/>
<text text-anchor="middle" x="433.5" y="-117" font-family="Helvetica,sans-Serif" font-size="10.00">runTimeSelectionTables.H</text>
</a>
</g>
</g>
<!-- Node2&#45;&gt;Node11 -->
<g id="edge10_Node000002_Node000011" class="edge">
<title>Node2&#45;&gt;Node11</title>
<g id="a_edge10_Node000002_Node000011"><a xlink:title=" ">
<path fill="none" stroke="#63b8ff" d="M374.75,-164.98C385.3,-157 401.3,-144.88 413.94,-135.31"/>
<polygon fill="#63b8ff" stroke="#63b8ff" points="416.19,-138 422.05,-129.17 411.96,-132.42 416.19,-138"/>
</a>
</g>
</g>
<!-- Node4 -->
<g id="Node000004" class="node">
<title>Node4</title>
<g id="a_Node000004"><a xlink:href="lnInclude_2basic2TThermo_8H.html" target="_top" xlink:title=" ">
<polygon fill="white" stroke="#666666" points="269.5,-74 167.5,-74 167.5,-55 269.5,-55 269.5,-74"/>
<text text-anchor="middle" x="218.5" y="-62" font-family="Helvetica,sans-Serif" font-size="10.00">basic2TThermo.H</text>
</a>
</g>
</g>
<!-- Node3&#45;&gt;Node4 -->
<g id="edge3_Node000003_Node000004" class="edge">
<title>Node3&#45;&gt;Node4</title>
<g id="a_edge3_Node000003_Node000004"><a xlink:title=" ">
<path fill="none" stroke="#63b8ff" d="M282.29,-109.98C270.72,-101.92 253.12,-89.65 239.34,-80.03"/>
<polygon fill="#63b8ff" stroke="#63b8ff" points="241.14,-77.02 230.93,-74.17 237.13,-82.76 241.14,-77.02"/>
</a>
</g>
</g>
<!-- Node10 -->
<g id="Node000010" class="node">
<title>Node10</title>
<g id="a_Node000010"><a xlink:title=" ">
<polygon fill="#e0e0e0" stroke="#999999" points="455,-74 288,-74 288,-55 455,-55 455,-74"/>
<text text-anchor="middle" x="371.5" y="-62" font-family="Helvetica,sans-Serif" font-size="10.00">compressibleTransportModel.H</text>
</a>
</g>
</g>
<!-- Node3&#45;&gt;Node10 -->
<g id="edge9_Node000003_Node000010" class="edge">
<title>Node3&#45;&gt;Node10</title>
<g id="a_edge9_Node000003_Node000010"><a xlink:title=" ">
<path fill="none" stroke="#63b8ff" d="M306.87,-109.98C318.59,-101.92 336.42,-89.65 350.39,-80.03"/>
<polygon fill="#63b8ff" stroke="#63b8ff" points="352.65,-82.72 358.9,-74.17 348.68,-76.96 352.65,-82.72"/>
</a>
</g>
</g>
<!-- Node5 -->
<g id="Node000005" class="node">
<title>Node5</title>
<g id="a_Node000005"><a xlink:title=" ">
<polygon fill="#e0e0e0" stroke="#999999" points="71,-19 0,-19 0,0 71,0 71,-19"/>
<text text-anchor="middle" x="35.5" y="-7" font-family="Helvetica,sans-Serif" font-size="10.00">volFields.H</text>
</a>
</g>
</g>
<!-- Node4&#45;&gt;Node5 -->
<g id="edge4_Node000004_Node000005" class="edge">
<title>Node4&#45;&gt;Node5</title>
<g id="a_edge4_Node000004_Node000005"><a xlink:title=" ">
<path fill="none" stroke="#63b8ff" d="M189.1,-54.98C158.11,-46.01 109.12,-31.82 74.83,-21.89"/>
<polygon fill="#63b8ff" stroke="#63b8ff" points="75.71,-18.5 65.13,-19.08 73.76,-25.23 75.71,-18.5"/>
</a>
</g>
</g>
<!-- Node6 -->
<g id="Node000006" class="node">
<title>Node6</title>
<g id="a_Node000006"><a xlink:title=" ">
<polygon fill="#e0e0e0" stroke="#999999" points="157.5,-19 89.5,-19 89.5,0 157.5,0 157.5,-19"/>
<text text-anchor="middle" x="123.5" y="-7" font-family="Helvetica,sans-Serif" font-size="10.00">typeInfo.H</text>
</a>
</g>
</g>
<!-- Node4&#45;&gt;Node6 -->
<g id="edge5_Node000004_Node000006" class="edge">
<title>Node4&#45;&gt;Node6</title>
<g id="a_edge5_Node000004_Node000006"><a xlink:title=" ">
<path fill="none" stroke="#63b8ff" d="M203.24,-54.98C188.37,-46.69 165.52,-33.94 148.08,-24.22"/>
<polygon fill="#63b8ff" stroke="#63b8ff" points="149.48,-20.99 139.04,-19.17 146.07,-27.1 149.48,-20.99"/>
</a>
</g>
</g>
<!-- Node7 -->
<g id="Node000007" class="node">
<title>Node7</title>
<g id="a_Node000007"><a xlink:title=" ">
<polygon fill="#e0e0e0" stroke="#999999" points="261,-19 176,-19 176,0 261,0 261,-19"/>
<text text-anchor="middle" x="218.5" y="-7" font-family="Helvetica,sans-Serif" font-size="10.00">IOdictionary.H</text>
</a>
</g>
</g>
<!-- Node4&#45;&gt;Node7 -->
<g id="edge6_Node000004_Node000007" class="edge">
<title>Node4&#45;&gt;Node7</title>
<g id="a_edge6_Node000004_Node000007"><a xlink:title=" ">
<path fill="none" stroke="#63b8ff" d="M218.5,-54.75C218.5,-47.8 218.5,-37.85 218.5,-29.13"/>
<polygon fill="#63b8ff" stroke="#63b8ff" points="222,-29.09 218.5,-19.09 215,-29.09 222,-29.09"/>
</a>
</g>
</g>
<!-- Node8 -->
<g id="Node000008" class="node">
<title>Node8</title>
<g id="a_Node000008"><a xlink:title=" ">
<polygon fill="#e0e0e0" stroke="#999999" points="341.5,-19 279.5,-19 279.5,0 341.5,0 341.5,-19"/>
<text text-anchor="middle" x="310.5" y="-7" font-family="Helvetica,sans-Serif" font-size="10.00">autoPtr.H</text>
</a>
</g>
</g>
<!-- Node4&#45;&gt;Node8 -->
<g id="edge7_Node000004_Node000008" class="edge">
<title>Node4&#45;&gt;Node8</title>
<g id="a_edge7_Node000004_Node000008"><a xlink:title=" ">
<path fill="none" stroke="#63b8ff" d="M233.28,-54.98C247.68,-46.69 269.81,-33.94 286.69,-24.22"/>
<polygon fill="#63b8ff" stroke="#63b8ff" points="288.53,-27.19 295.45,-19.17 285.04,-21.13 288.53,-27.19"/>
</a>
</g>
</g>
<!-- Node9 -->
<g id="Node000009" class="node">
<title>Node9</title>
<g id="a_Node000009"><a xlink:title=" ">
<polygon fill="#e0e0e0" stroke="#999999" points="439,-19 360,-19 360,0 439,0 439,-19"/>
<text text-anchor="middle" x="399.5" y="-7" font-family="Helvetica,sans-Serif" font-size="10.00">wordIOList.H</text>
</a>
</g>
</g>
<!-- Node4&#45;&gt;Node9 -->
<g id="edge8_Node000004_Node000009" class="edge">
<title>Node4&#45;&gt;Node9</title>
<g id="a_edge8_Node000004_Node000009"><a xlink:title=" ">
<path fill="none" stroke="#63b8ff" d="M247.58,-54.98C278.1,-46.05 326.26,-31.94 360.16,-22.02"/>
<polygon fill="#63b8ff" stroke="#63b8ff" points="361.58,-25.25 370.19,-19.08 359.61,-18.53 361.58,-25.25"/>
</a>
</g>
</g>
</g>
</svg>
