<?xml version="1.0" encoding="UTF-8" standalone="no"?>
<!DOCTYPE svg PUBLIC "-//W3C//DTD SVG 1.1//EN"
 "http://www.w3.org/Graphics/SVG/1.1/DTD/svg11.dtd">
<!-- Generated by graphviz version 2.43.0 (0)
 -->
<!-- Title: fluid2TThermo.H Pages: 1 -->
<svg width="414pt" height="192pt"
 viewBox="0.00 0.00 414.00 192.00" xmlns="http://www.w3.org/2000/svg" xmlns:xlink="http://www.w3.org/1999/xlink">
<g id="graph0" class="graph" transform="scale(1 1) rotate(0) translate(4 188)">
<title>fluid2TThermo.H</title>
<!-- Node1 -->
<g id="Node000001" class="node">
<title>Node1</title>
<g id="a_Node000001"><a xlink:title=" ">
<polygon fill="#999999" stroke="#666666" points="285,-184 187,-184 187,-165 285,-165 285,-184"/>
<text text-anchor="middle" x="236" y="-172" font-family="Helvetica,sans-Serif" font-size="10.00">fluid2TThermo.H</text>
</a>
</g>
</g>
<!-- Node2 -->
<g id="Node000002" class="node">
<title>Node2</title>
<g id="a_Node000002"><a xlink:href="lnInclude_2fluid2TThermo_8C.html" target="_top" xlink:title=" ">
<polygon fill="white" stroke="#666666" points="173.5,-129 76.5,-129 76.5,-110 173.5,-110 173.5,-129"/>
<text text-anchor="middle" x="125" y="-117" font-family="Helvetica,sans-Serif" font-size="10.00">fluid2TThermo.C</text>
</a>
</g>
</g>
<!-- Node1&#45;&gt;Node2 -->
<g id="edge1_Node000001_Node000002" class="edge">
<title>Node1&#45;&gt;Node2</title>
<g id="a_edge1_Node000001_Node000002"><a xlink:title=" ">
<path fill="none" stroke="#63b8ff" d="M209.05,-160.63C188.61,-150.87 161.05,-137.71 143.16,-129.17"/>
<polygon fill="#63b8ff" stroke="#63b8ff" points="207.63,-163.83 218.17,-164.98 210.65,-157.52 207.63,-163.83"/>
</a>
</g>
</g>
<!-- Node3 -->
<g id="Node000003" class="node">
<title>Node3</title>
<g id="a_Node000003"><a xlink:href="lnInclude_2make2TThermo_8H.html" target="_top" xlink:title=" ">
<polygon fill="white" stroke="#666666" points="406,-74 302,-74 302,-55 406,-55 406,-74"/>
<text text-anchor="middle" x="354" y="-62" font-family="Helvetica,sans-Serif" font-size="10.00">make2TThermo.H</text>
</a>
</g>
</g>
<!-- Node1&#45;&gt;Node3 -->
<g id="edge2_Node000001_Node000003" class="edge">
<title>Node1&#45;&gt;Node3</title>
<g id="a_edge2_Node000001_Node000003"><a xlink:title=" ">
<path fill="none" stroke="#63b8ff" d="M254.69,-158.39C264.97,-149.93 277.87,-139.08 289,-129 309.81,-110.15 333.11,-86.81 345.37,-74.34"/>
<polygon fill="#63b8ff" stroke="#63b8ff" points="252.29,-155.83 246.76,-164.86 256.72,-161.25 252.29,-155.83"/>
</a>
</g>
</g>
<!-- Node6 -->
<g id="Node000006" class="node">
<title>Node6</title>
<g id="a_Node000006"><a xlink:href="lnInclude_2ne2TThermo_8H.html" target="_top" xlink:title=" ">
<polygon fill="white" stroke="#666666" points="280.5,-129 191.5,-129 191.5,-110 280.5,-110 280.5,-129"/>
<text text-anchor="middle" x="236" y="-117" font-family="Helvetica,sans-Serif" font-size="10.00">ne2TThermo.H</text>
</a>
</g>
</g>
<!-- Node1&#45;&gt;Node6 -->
<g id="edge5_Node000001_Node000006" class="edge">
<title>Node1&#45;&gt;Node6</title>
<g id="a_edge5_Node000001_Node000006"><a xlink:title=" ">
<path fill="none" stroke="#63b8ff" d="M236,-154.66C236,-145.93 236,-135.99 236,-129.09"/>
<polygon fill="#63b8ff" stroke="#63b8ff" points="232.5,-154.75 236,-164.75 239.5,-154.75 232.5,-154.75"/>
</a>
</g>
</g>
<!-- Node4 -->
<g id="Node000004" class="node">
<title>Node4</title>
<g id="a_Node000004"><a xlink:href="lnInclude_2ne2TThermos_8C.html" target="_top" xlink:title=" ">
<polygon fill="white" stroke="#666666" points="244.5,-19 151.5,-19 151.5,0 244.5,0 244.5,-19"/>
<text text-anchor="middle" x="198" y="-7" font-family="Helvetica,sans-Serif" font-size="10.00">ne2TThermos.C</text>
</a>
</g>
</g>
<!-- Node3&#45;&gt;Node4 -->
<g id="edge3_Node000003_Node000004" class="edge">
<title>Node3&#45;&gt;Node4</title>
<g id="a_edge3_Node000003_Node000004"><a xlink:title=" ">
<path fill="none" stroke="#63b8ff" d="M319.18,-51.67C290.09,-41.79 249.3,-27.93 223.26,-19.08"/>
<polygon fill="#63b8ff" stroke="#63b8ff" points="318.34,-55.08 328.94,-54.98 320.59,-48.45 318.34,-55.08"/>
</a>
</g>
</g>
<!-- Node5 -->
<g id="Node000005" class="node">
<title>Node5</title>
<g id="a_Node000005"><a xlink:href="lnInclude_2ne2TZoneThermos_8C.html" target="_top" xlink:title=" ">
<polygon fill="white" stroke="#666666" points="381,-19 263,-19 263,0 381,0 381,-19"/>
<text text-anchor="middle" x="322" y="-7" font-family="Helvetica,sans-Serif" font-size="10.00">ne2TZoneThermos.C</text>
</a>
</g>
</g>
<!-- Node3&#45;&gt;Node5 -->
<g id="edge4_Node000003_Node000005" class="edge">
<title>Node3&#45;&gt;Node5</title>
<g id="a_edge4_Node000003_Node000005"><a xlink:title=" ">
<path fill="none" stroke="#63b8ff" d="M343.5,-46.1C338.03,-37.04 331.58,-26.37 327.19,-19.09"/>
<polygon fill="#63b8ff" stroke="#63b8ff" points="340.55,-48 348.72,-54.75 346.54,-44.38 340.55,-48"/>
</a>
</g>
</g>
<!-- Node6&#45;&gt;Node4 -->
<g id="edge11_Node000006_Node000004" class="edge">
<title>Node6&#45;&gt;Node4</title>
<g id="a_edge11_Node000006_Node000004"><a xlink:title=" ">
<path fill="none" stroke="#63b8ff" d="M231.03,-99.89C227.48,-87.14 222.39,-69.9 217,-55 212.43,-42.36 206.15,-28.14 202.08,-19.25"/>
<polygon fill="#63b8ff" stroke="#63b8ff" points="227.72,-101.04 233.72,-109.77 234.47,-99.2 227.72,-101.04"/>
</a>
</g>
</g>
<!-- Node6&#45;&gt;Node5 -->
<g id="edge12_Node000006_Node000005" class="edge">
<title>Node6&#45;&gt;Node5</title>
<g id="a_edge12_Node000006_Node000005"><a xlink:title=" ">
<path fill="none" stroke="#63b8ff" d="M249.38,-101.69C267.96,-78.37 300.86,-37.05 315.11,-19.16"/>
<polygon fill="#63b8ff" stroke="#63b8ff" points="246.53,-99.66 243.04,-109.66 252.01,-104.02 246.53,-99.66"/>
</a>
</g>
</g>
<!-- Node7 -->
<g id="Node000007" class="node">
<title>Node7</title>
<g id="a_Node000007"><a xlink:href="lnInclude_2heNe2TThermo_8H.html" target="_top" xlink:title=" ">
<polygon fill="white" stroke="#666666" points="102,-74 0,-74 0,-55 102,-55 102,-74"/>
<text text-anchor="middle" x="51" y="-62" font-family="Helvetica,sans-Serif" font-size="10.00">heNe2TThermo.H</text>
</a>
</g>
</g>
<!-- Node6&#45;&gt;Node7 -->
<g id="edge6_Node000006_Node000007" class="edge">
<title>Node6&#45;&gt;Node7</title>
<g id="a_edge6_Node000006_Node000007"><a xlink:title=" ">
<path fill="none" stroke="#63b8ff" d="M196.5,-107.18C161.9,-97.27 112.37,-83.08 80.96,-74.08"/>
<polygon fill="#63b8ff" stroke="#63b8ff" points="195.7,-110.6 206.28,-109.98 197.63,-103.87 195.7,-110.6"/>
</a>
</g>
</g>
<!-- Node9 -->
<g id="Node000009" class="node">
<title>Node9</title>
<g id="a_Node000009"><a xlink:href="lnInclude_2ne2TThermo_8C.html" target="_top" xlink:title=" ">
<polygon fill="white" stroke="#666666" points="208,-74 120,-74 120,-55 208,-55 208,-74"/>
<text text-anchor="middle" x="164" y="-62" font-family="Helvetica,sans-Serif" font-size="10.00">ne2TThermo.C</text>
</a>
</g>
</g>
<!-- Node6&#45;&gt;Node9 -->
<g id="edge10_Node000006_Node000009" class="edge">
<title>Node6&#45;&gt;Node9</title>
<g id="a_edge10_Node000006_Node000009"><a xlink:title=" ">
<path fill="none" stroke="#63b8ff" d="M216.13,-103.88C203.18,-94.34 186.7,-82.21 175.78,-74.17"/>
<polygon fill="#63b8ff" stroke="#63b8ff" points="214.3,-106.88 224.43,-109.98 218.45,-101.24 214.3,-106.88"/>
</a>
</g>
</g>
<!-- Node7&#45;&gt;Node4 -->
<g id="edge8_Node000007_Node000004" class="edge">
<title>Node7&#45;&gt;Node4</title>
<g id="a_edge8_Node000007_Node000004"><a xlink:title=" ">
<path fill="none" stroke="#63b8ff" d="M84.14,-51.55C111.44,-41.71 149.5,-27.98 173.95,-19.17"/>
<polygon fill="#63b8ff" stroke="#63b8ff" points="82.84,-48.3 74.62,-54.98 85.21,-54.89 82.84,-48.3"/>
</a>
</g>
</g>
<!-- Node7&#45;&gt;Node5 -->
<g id="edge9_Node000007_Node000005" class="edge">
<title>Node7&#45;&gt;Node5</title>
<g id="a_edge9_Node000007_Node000005"><a xlink:title=" ">
<path fill="none" stroke="#63b8ff" d="M104.36,-53.07C155.16,-43.13 230.71,-28.35 278.12,-19.08"/>
<polygon fill="#63b8ff" stroke="#63b8ff" points="103.68,-49.63 94.54,-54.98 105.03,-56.5 103.68,-49.63"/>
</a>
</g>
</g>
<!-- Node8 -->
<g id="Node000008" class="node">
<title>Node8</title>
<g id="a_Node000008"><a xlink:href="lnInclude_2heNe2TThermo_8C.html" target="_top" xlink:title=" ">
<polygon fill="white" stroke="#666666" points="101.5,-19 0.5,-19 0.5,0 101.5,0 101.5,-19"/>
<text text-anchor="middle" x="51" y="-7" font-family="Helvetica,sans-Serif" font-size="10.00">heNe2TThermo.C</text>
</a>
</g>
</g>
<!-- Node7&#45;&gt;Node8 -->
<g id="edge7_Node000007_Node000008" class="edge">
<title>Node7&#45;&gt;Node8</title>
<g id="a_edge7_Node000007_Node000008"><a xlink:title=" ">
<path fill="none" stroke="#63b8ff" d="M51,-44.66C51,-35.93 51,-25.99 51,-19.09"/>
<polygon fill="#63b8ff" stroke="#63b8ff" points="47.5,-44.75 51,-54.75 54.5,-44.75 47.5,-44.75"/>
</a>
</g>
</g>
</g>
</svg>
