<?xml version="1.0" encoding="UTF-8" standalone="no"?>
<!DOCTYPE svg PUBLIC "-//W3C//DTD SVG 1.1//EN"
 "http://www.w3.org/Graphics/SVG/1.1/DTD/svg11.dtd">
<!-- Generated by graphviz version 2.43.0 (0)
 -->
<!-- Title: ne2TZoneThermos.C Pages: 1 -->
<!--zoomable 192 -->

<svg id="main" version="1.1" xmlns="http://www.w3.org/2000/svg" xmlns:xlink="http://www.w3.org/1999/xlink" xml:space="preserve" onload="init(evt)">
<style type="text/css"><![CDATA[
.node, .edge {opacity: 0.7;}
.node.selected, .edge.selected {opacity: 1;}
.edge:hover path { stroke: red; }
.edge:hover polygon { stroke: red; fill: red; }
]]></style>

<defs>
  <circle id="rim" cx="0" cy="0" r="7"/>
  <circle id="rim2" cx="0" cy="0" r="3.5"/>
  <g id="zoomPlus">
    <use xlink:href="#rim" fill="#404040"><set attributeName="fill" to="#808080" begin="zoomplus.mouseover" end="zoomplus.mouseout"/></use>
    <path d="M-4,0h8M0,-4v8" fill="none" stroke="white" stroke-width="1.5" pointer-events="none"/>
  </g>
  <g id="zoomMin">
    <use xlink:href="#rim" fill="#404040"><set attributeName="fill" to="#808080" begin="zoomminus.mouseover" end="zoomminus.mouseout"/></use>
    <path d="M-4,0h8" fill="none" stroke="white" stroke-width="1.5" pointer-events="none"/>
  </g>
  <g id="arrowUp" transform="translate(30 24)">
    <use xlink:href="#rim"/>
    <path pointer-events="none" fill="none" stroke="white" stroke-width="1.5" d="M0,-3.0v7 M-2.5,-0.5L0,-3.0L2.5,-0.5"/>
  </g>
  <g id="arrowRight" transform="rotate(90) translate(36 -43)">
    <use xlink:href="#rim"/>
    <path pointer-events="none" fill="none" stroke="white" stroke-width="1.5" d="M0,-3.0v7 M-2.5,-0.5L0,-3.0L2.5,-0.5"/>
  </g>
  <g id="arrowDown" transform="rotate(180) translate(-30 -48)">
    <use xlink:href="#rim"/>
    <path pointer-events="none" fill="none" stroke="white" stroke-width="1.5" d="M0,-3.0v7 M-2.5,-0.5L0,-3.0L2.5,-0.5"/>
  </g>
  <g id="arrowLeft" transform="rotate(270) translate(-36 17)">
    <use xlink:href="#rim"/>
    <path pointer-events="none" fill="none" stroke="white" stroke-width="1.5" d="M0,-3.0v7 M-2.5,-0.5L0,-3.0L2.5,-0.5"/>
  </g>
  <g id="resetDef">
    <use xlink:href="#rim2" fill="#404040"><set attributeName="fill" to="#808080" begin="reset.mouseover" end="reset.mouseout"/></use>
  </g>
</defs>
<script type="application/ecmascript">
var viewWidth = 1745;
var viewHeight = 192;
var sectionId = 'dynsection-0';
</script>
<script type="application/ecmascript" xlink:href="svg.min.js"/>
<svg id="graph" class="graph">
<g id="viewport">
<title>ne2TZoneThermos.C</title>
<!-- Node1 -->
<g id="Node000001" class="node">
<title>Node1</title>
<g id="a_Node000001"><a xlink:title=" ">
<polygon fill="#999999" stroke="#666666" points="787.32,-184 669.32,-184 669.32,-165 787.32,-165 787.32,-184"/>
<text text-anchor="middle" x="728.32" y="-172" font-family="Helvetica,sans-Serif" font-size="10.00">ne2TZoneThermos.C</text>
</a>
</g>
</g>
<!-- Node2 -->
<g id="Node000002" class="node">
<title>Node2</title>
<g id="a_Node000002"><a xlink:href="ne2TThermo_2ne2TThermo_8H.html" target="_top" xlink:title=" ">
<polygon fill="white" stroke="#666666" points="595.82,-74 506.82,-74 506.82,-55 595.82,-55 595.82,-74"/>
<text text-anchor="middle" x="551.32" y="-62" font-family="Helvetica,sans-Serif" font-size="10.00">ne2TThermo.H</text>
</a>
</g>
</g>
<!-- Node1&#45;&gt;Node2 -->
<g id="edge1_Node000001_Node000002" class="edge">
<title>Node1&#45;&gt;Node2</title>
<g id="a_edge1_Node000001_Node000002"><a xlink:title=" ">
<path fill="none" stroke="#63b8ff" d="M669.09,-172.05C500.21,-167.62 26.98,-153.1 4.32,-129 -1.46,-122.85 -1.4,-116.21 4.32,-110 37.22,-74.32 364.2,-67.25 496.34,-65.85"/>
<polygon fill="#63b8ff" stroke="#63b8ff" points="496.68,-69.34 506.64,-65.74 496.61,-62.34 496.68,-69.34"/>
</a>
</g>
</g>
<!-- Node5 -->
<g id="Node000005" class="node">
<title>Node5</title>
<g id="a_Node000005"><a xlink:title=" ">
<polygon fill="#e0e0e0" stroke="#999999" points="117.32,-129 13.32,-129 13.32,-110 117.32,-110 117.32,-129"/>
<text text-anchor="middle" x="65.32" y="-117" font-family="Helvetica,sans-Serif" font-size="10.00">make2TThermo.H</text>
</a>
</g>
</g>
<!-- Node1&#45;&gt;Node5 -->
<g id="edge4_Node000001_Node000005" class="edge">
<title>Node1&#45;&gt;Node5</title>
<g id="a_edge4_Node000001_Node000005"><a xlink:title=" ">
<path fill="none" stroke="#63b8ff" d="M669.25,-170.4C563,-164.56 332.43,-150.61 127.58,-129.07"/>
<polygon fill="#63b8ff" stroke="#63b8ff" points="127.85,-125.58 117.54,-128 127.12,-132.54 127.85,-125.58"/>
</a>
</g>
</g>
<!-- Node6 -->
<g id="Node000006" class="node">
<title>Node6</title>
<g id="a_Node000006"><a xlink:title=" ">
<polygon fill="#e0e0e0" stroke="#999999" points="194.82,-129 135.82,-129 135.82,-110 194.82,-110 194.82,-129"/>
<text text-anchor="middle" x="165.32" y="-117" font-family="Helvetica,sans-Serif" font-size="10.00">specie.H</text>
</a>
</g>
</g>
<!-- Node1&#45;&gt;Node6 -->
<g id="edge5_Node000001_Node000006" class="edge">
<title>Node1&#45;&gt;Node6</title>
<g id="a_edge5_Node000001_Node000006"><a xlink:title=" ">
<path fill="none" stroke="#63b8ff" d="M669.09,-170.98C573.55,-166.36 379.37,-154.71 205.18,-128.92"/>
<polygon fill="#63b8ff" stroke="#63b8ff" points="205.47,-125.42 195.06,-127.4 204.43,-132.34 205.47,-125.42"/>
</a>
</g>
</g>
<!-- Node7 -->
<g id="Node000007" class="node">
<title>Node7</title>
<g id="a_Node000007"><a xlink:title=" ">
<polygon fill="#e0e0e0" stroke="#999999" points="293.32,-129 213.32,-129 213.32,-110 293.32,-110 293.32,-129"/>
<text text-anchor="middle" x="253.32" y="-117" font-family="Helvetica,sans-Serif" font-size="10.00">perfectGas.H</text>
</a>
</g>
</g>
<!-- Node1&#45;&gt;Node7 -->
<g id="edge6_Node000001_Node000007" class="edge">
<title>Node1&#45;&gt;Node7</title>
<g id="a_edge6_Node000001_Node000007"><a xlink:title=" ">
<path fill="none" stroke="#63b8ff" d="M669.25,-168.6C588.88,-161.66 440.35,-147.82 303.64,-129.09"/>
<polygon fill="#63b8ff" stroke="#63b8ff" points="303.79,-125.58 293.4,-127.68 302.83,-132.52 303.79,-125.58"/>
</a>
</g>
</g>
<!-- Node8 -->
<g id="Node000008" class="node">
<title>Node8</title>
<g id="a_Node000008"><a xlink:title=" ">
<polygon fill="#e0e0e0" stroke="#999999" points="426.82,-129 311.82,-129 311.82,-110 426.82,-110 426.82,-129"/>
<text text-anchor="middle" x="369.32" y="-117" font-family="Helvetica,sans-Serif" font-size="10.00">PengRobinsonGas.H</text>
</a>
</g>
</g>
<!-- Node1&#45;&gt;Node8 -->
<g id="edge7_Node000001_Node000008" class="edge">
<title>Node1&#45;&gt;Node8</title>
<g id="a_edge7_Node000001_Node000008"><a xlink:title=" ">
<path fill="none" stroke="#63b8ff" d="M670.64,-164.98C606.92,-155.58 504.42,-140.44 436.96,-130.49"/>
<polygon fill="#63b8ff" stroke="#63b8ff" points="437.26,-126.99 426.86,-128.99 436.24,-133.92 437.26,-126.99"/>
</a>
</g>
</g>
<!-- Node9 -->
<g id="Node000009" class="node">
<title>Node9</title>
<g id="a_Node000009"><a xlink:title=" ">
<polygon fill="#e0e0e0" stroke="#999999" points="543.32,-129 445.32,-129 445.32,-110 543.32,-110 543.32,-129"/>
<text text-anchor="middle" x="494.32" y="-117" font-family="Helvetica,sans-Serif" font-size="10.00">hConstThermo.H</text>
</a>
</g>
</g>
<!-- Node1&#45;&gt;Node9 -->
<g id="edge8_Node000001_Node000009" class="edge">
<title>Node1&#45;&gt;Node9</title>
<g id="a_edge8_Node000001_Node000009"><a xlink:title=" ">
<path fill="none" stroke="#63b8ff" d="M690.73,-164.98C650.34,-155.84 586.04,-141.27 542.09,-131.32"/>
<polygon fill="#63b8ff" stroke="#63b8ff" points="542.74,-127.88 532.21,-129.08 541.19,-134.7 542.74,-127.88"/>
</a>
</g>
</g>
<!-- Node10 -->
<g id="Node000010" class="node">
<title>Node10</title>
<g id="a_Node000010"><a xlink:title=" ">
<polygon fill="#e0e0e0" stroke="#999999" points="659.32,-129 561.32,-129 561.32,-110 659.32,-110 659.32,-129"/>
<text text-anchor="middle" x="610.32" y="-117" font-family="Helvetica,sans-Serif" font-size="10.00">eConstThermo.H</text>
</a>
</g>
</g>
<!-- Node1&#45;&gt;Node10 -->
<g id="edge9_Node000001_Node000010" class="edge">
<title>Node1&#45;&gt;Node10</title>
<g id="a_edge9_Node000001_Node000010"><a xlink:title=" ">
<path fill="none" stroke="#63b8ff" d="M709.36,-164.98C690.3,-156.42 660.66,-143.11 638.78,-133.28"/>
<polygon fill="#63b8ff" stroke="#63b8ff" points="640.18,-130.07 629.63,-129.17 637.32,-136.46 640.18,-130.07"/>
</a>
</g>
</g>
<!-- Node11 -->
<g id="Node000011" class="node">
<title>Node11</title>
<g id="a_Node000011"><a xlink:title=" ">
<polygon fill="#e0e0e0" stroke="#999999" points="778.82,-129 677.82,-129 677.82,-110 778.82,-110 778.82,-129"/>
<text text-anchor="middle" x="728.32" y="-117" font-family="Helvetica,sans-Serif" font-size="10.00">janaf2TThermo.H</text>
</a>
</g>
</g>
<!-- Node1&#45;&gt;Node11 -->
<g id="edge10_Node000001_Node000011" class="edge">
<title>Node1&#45;&gt;Node11</title>
<g id="a_edge10_Node000001_Node000011"><a xlink:title=" ">
<path fill="none" stroke="#63b8ff" d="M728.32,-164.75C728.32,-157.8 728.32,-147.85 728.32,-139.13"/>
<polygon fill="#63b8ff" stroke="#63b8ff" points="731.82,-139.09 728.32,-129.09 724.82,-139.09 731.82,-139.09"/>
</a>
</g>
</g>
<!-- Node12 -->
<g id="Node000012" class="node">
<title>Node12</title>
<g id="a_Node000012"><a xlink:title=" ">
<polygon fill="#e0e0e0" stroke="#999999" points="919.32,-129 797.32,-129 797.32,-110 919.32,-110 919.32,-129"/>
<text text-anchor="middle" x="858.32" y="-117" font-family="Helvetica,sans-Serif" font-size="10.00">sensibleEnthalpy2T.H</text>
</a>
</g>
</g>
<!-- Node1&#45;&gt;Node12 -->
<g id="edge11_Node000001_Node000012" class="edge">
<title>Node1&#45;&gt;Node12</title>
<g id="a_edge11_Node000001_Node000012"><a xlink:title=" ">
<path fill="none" stroke="#63b8ff" d="M749.21,-164.98C770.41,-156.34 803.45,-142.87 827.62,-133.02"/>
<polygon fill="#63b8ff" stroke="#63b8ff" points="829.12,-136.19 837.06,-129.17 826.48,-129.7 829.12,-136.19"/>
</a>
</g>
</g>
<!-- Node13 -->
<g id="Node000013" class="node">
<title>Node13</title>
<g id="a_Node000013"><a xlink:title=" ">
<polygon fill="#e0e0e0" stroke="#999999" points="1011.32,-129 937.32,-129 937.32,-110 1011.32,-110 1011.32,-129"/>
<text text-anchor="middle" x="974.32" y="-117" font-family="Helvetica,sans-Serif" font-size="10.00">thermo2T.H</text>
</a>
</g>
</g>
<!-- Node1&#45;&gt;Node13 -->
<g id="edge12_Node000001_Node000013" class="edge">
<title>Node1&#45;&gt;Node13</title>
<g id="a_edge12_Node000001_Node000013"><a xlink:title=" ">
<path fill="none" stroke="#63b8ff" d="M767.85,-164.98C811.28,-155.63 881.02,-140.6 927.25,-130.64"/>
<polygon fill="#63b8ff" stroke="#63b8ff" points="928.27,-134 937.31,-128.47 926.8,-127.16 928.27,-134"/>
</a>
</g>
</g>
<!-- Node14 -->
<g id="Node000014" class="node">
<title>Node14</title>
<g id="a_Node000014"><a xlink:title=" ">
<polygon fill="#e0e0e0" stroke="#999999" points="1154.82,-129 1029.82,-129 1029.82,-110 1154.82,-110 1154.82,-129"/>
<text text-anchor="middle" x="1092.32" y="-117" font-family="Helvetica,sans-Serif" font-size="10.00">hPolynomialThermo.H</text>
</a>
</g>
</g>
<!-- Node1&#45;&gt;Node14 -->
<g id="edge13_Node000001_Node000014" class="edge">
<title>Node1&#45;&gt;Node14</title>
<g id="a_edge13_Node000001_Node000014"><a xlink:title=" ">
<path fill="none" stroke="#63b8ff" d="M786.81,-164.98C851.32,-155.59 955.04,-140.49 1023.44,-130.53"/>
<polygon fill="#63b8ff" stroke="#63b8ff" points="1024.29,-133.94 1033.68,-129.04 1023.28,-127.02 1024.29,-133.94"/>
</a>
</g>
</g>
<!-- Node15 -->
<g id="Node000015" class="node">
<title>Node15</title>
<g id="a_Node000015"><a xlink:href="ne2TThermo_2heNe2TThermo_8H.html" target="_top" xlink:title=" ">
<polygon fill="white" stroke="#666666" points="1275.32,-129 1173.32,-129 1173.32,-110 1275.32,-110 1275.32,-129"/>
<text text-anchor="middle" x="1224.32" y="-117" font-family="Helvetica,sans-Serif" font-size="10.00">heNe2TThermo.H</text>
</a>
</g>
</g>
<!-- Node1&#45;&gt;Node15 -->
<g id="edge14_Node000001_Node000015" class="edge">
<title>Node1&#45;&gt;Node15</title>
<g id="a_edge14_Node000001_Node000015"><a xlink:title=" ">
<path fill="none" stroke="#63b8ff" d="M787.5,-168.14C869.31,-160.57 1021.81,-145.91 1162.95,-129"/>
<polygon fill="#63b8ff" stroke="#63b8ff" points="1163.58,-132.45 1173.09,-127.78 1162.74,-125.5 1163.58,-132.45"/>
</a>
</g>
</g>
<!-- Node17 -->
<g id="Node000017" class="node">
<title>Node17</title>
<g id="a_Node000017"><a xlink:title=" ">
<polygon fill="#e0e0e0" stroke="#999999" points="1404.82,-129 1293.82,-129 1293.82,-110 1404.82,-110 1404.82,-129"/>
<text text-anchor="middle" x="1349.32" y="-117" font-family="Helvetica,sans-Serif" font-size="10.00">pureZoneMixture.H</text>
</a>
</g>
</g>
<!-- Node1&#45;&gt;Node17 -->
<g id="edge17_Node000001_Node000017" class="edge">
<title>Node1&#45;&gt;Node17</title>
<g id="a_edge17_Node000001_Node000017"><a xlink:title=" ">
<path fill="none" stroke="#63b8ff" d="M787.66,-169.73C887.64,-163.17 1096.25,-148.55 1283.64,-129.02"/>
<polygon fill="#63b8ff" stroke="#63b8ff" points="1284.1,-132.49 1293.68,-127.96 1283.37,-125.53 1284.1,-132.49"/>
</a>
</g>
</g>
<!-- Node18 -->
<g id="Node000018" class="node">
<title>Node18</title>
<g id="a_Node000018"><a xlink:title=" ">
<polygon fill="#e0e0e0" stroke="#999999" points="1561.82,-129 1422.82,-129 1422.82,-110 1561.82,-110 1561.82,-129"/>
<text text-anchor="middle" x="1492.32" y="-117" font-family="Helvetica,sans-Serif" font-size="10.00">thermoPhysics2TTypes.H</text>
</a>
</g>
</g>
<!-- Node1&#45;&gt;Node18 -->
<g id="edge18_Node000001_Node000018" class="edge">
<title>Node1&#45;&gt;Node18</title>
<g id="a_edge18_Node000001_Node000018"><a xlink:title=" ">
<path fill="none" stroke="#63b8ff" d="M787.58,-170.53C904.83,-164.47 1174.97,-149.55 1412.39,-129.13"/>
<polygon fill="#63b8ff" stroke="#63b8ff" points="1412.94,-132.6 1422.6,-128.25 1412.33,-125.63 1412.94,-132.6"/>
</a>
</g>
</g>
<!-- Node19 -->
<g id="Node000019" class="node">
<title>Node19</title>
<g id="a_Node000019"><a xlink:title=" ">
<polygon fill="#e0e0e0" stroke="#999999" points="1736.82,-129 1579.82,-129 1579.82,-110 1736.82,-110 1736.82,-129"/>
<text text-anchor="middle" x="1658.32" y="-117" font-family="Helvetica,sans-Serif" font-size="10.00">blottnerEucken2TTransport.H</text>
</a>
</g>
</g>
<!-- Node1&#45;&gt;Node19 -->
<g id="edge19_Node000001_Node000019" class="edge">
<title>Node1&#45;&gt;Node19</title>
<g id="a_edge19_Node000001_Node000019"><a xlink:title=" ">
<path fill="none" stroke="#63b8ff" d="M787.4,-171.29C923.43,-166 1269.5,-151.44 1569.42,-129.11"/>
<polygon fill="#63b8ff" stroke="#63b8ff" points="1569.91,-132.59 1579.62,-128.35 1569.38,-125.61 1569.91,-132.59"/>
</a>
</g>
</g>
<!-- Node3 -->
<g id="Node000003" class="node">
<title>Node3</title>
<g id="a_Node000003"><a xlink:title=" ">
<polygon fill="#e0e0e0" stroke="#999999" points="531.32,-19 433.32,-19 433.32,0 531.32,0 531.32,-19"/>
<text text-anchor="middle" x="482.32" y="-7" font-family="Helvetica,sans-Serif" font-size="10.00">fluid2TThermo.H</text>
</a>
</g>
</g>
<!-- Node2&#45;&gt;Node3 -->
<g id="edge2_Node000002_Node000003" class="edge">
<title>Node2&#45;&gt;Node3</title>
<g id="a_edge2_Node000002_Node000003"><a xlink:title=" ">
<path fill="none" stroke="#63b8ff" d="M540.24,-54.98C529.84,-47 514.06,-34.88 501.6,-25.31"/>
<polygon fill="#63b8ff" stroke="#63b8ff" points="503.67,-22.49 493.61,-19.17 499.41,-28.04 503.67,-22.49"/>
</a>
</g>
</g>
<!-- Node4 -->
<g id="Node000004" class="node">
<title>Node4</title>
<g id="a_Node000004"><a xlink:title=" ">
<polygon fill="#e0e0e0" stroke="#999999" points="692.82,-19 549.82,-19 549.82,0 692.82,0 692.82,-19"/>
<text text-anchor="middle" x="621.32" y="-7" font-family="Helvetica,sans-Serif" font-size="10.00">runTimeSelectionTables.H</text>
</a>
</g>
</g>
<!-- Node2&#45;&gt;Node4 -->
<g id="edge3_Node000002_Node000004" class="edge">
<title>Node2&#45;&gt;Node4</title>
<g id="a_edge3_Node000002_Node000004"><a xlink:title=" ">
<path fill="none" stroke="#63b8ff" d="M562.57,-54.98C573.12,-47 589.12,-34.88 601.77,-25.31"/>
<polygon fill="#63b8ff" stroke="#63b8ff" points="604.01,-28 609.87,-19.17 599.79,-22.42 604.01,-28"/>
</a>
</g>
</g>
<!-- Node15&#45;&gt;Node2 -->
<g id="edge15_Node000015_Node000002" class="edge">
<title>Node15&#45;&gt;Node2</title>
<g id="a_edge15_Node000015_Node000002"><a xlink:title=" ">
<path fill="none" stroke="#63b8ff" d="M1173.1,-111.11C1169.79,-110.71 1166.51,-110.34 1163.32,-110 958.28,-88.28 713.44,-73.97 606.2,-68.28"/>
<polygon fill="#63b8ff" stroke="#63b8ff" points="606.12,-64.77 595.95,-67.74 605.75,-71.76 606.12,-64.77"/>
</a>
</g>
</g>
<!-- Node16 -->
<g id="Node000016" class="node">
<title>Node16</title>
<g id="a_Node000016"><a xlink:title=" ">
<polygon fill="#e0e0e0" stroke="#999999" points="1268.82,-74 1179.82,-74 1179.82,-55 1268.82,-55 1268.82,-74"/>
<text text-anchor="middle" x="1224.32" y="-62" font-family="Helvetica,sans-Serif" font-size="10.00">he2TThermo.H</text>
</a>
</g>
</g>
<!-- Node15&#45;&gt;Node16 -->
<g id="edge16_Node000015_Node000016" class="edge">
<title>Node15&#45;&gt;Node16</title>
<g id="a_edge16_Node000015_Node000016"><a xlink:title=" ">
<path fill="none" stroke="#63b8ff" d="M1224.32,-109.75C1224.32,-102.8 1224.32,-92.85 1224.32,-84.13"/>
<polygon fill="#63b8ff" stroke="#63b8ff" points="1227.82,-84.09 1224.32,-74.09 1220.82,-84.09 1227.82,-84.09"/>
</a>
</g>
</g>
</g>
</svg>

<g id="navigator" transform="translate(0 0)" fill="#404254">
  <rect fill="#f2f5e9" fill-opacity="0.5" stroke="#606060" stroke-width=".5" x="0" y="0" width="60" height="60"/>
  <use id="zoomplus" xlink:href="#zoomPlus" x="17" y="9" onmousedown="handleZoom(evt,'in')"/>
  <use id="zoomminus" xlink:href="#zoomMin" x="42" y="9" onmousedown="handleZoom(evt,'out')"/>
  <use id="reset" xlink:href="#resetDef" x="30" y="36" onmousedown="handleReset()"/>
   <use id="arrowup" xlink:href="#arrowUp" x="0" y="0" onmousedown="handlePan(0,-1)"/>
  <use id="arrowright" xlink:href="#arrowRight" x="0" y="0" onmousedown="handlePan(1,0)"/>
  <use id="arrowdown" xlink:href="#arrowDown" x="0" y="0" onmousedown="handlePan(0,1)"/>
  <use id="arrowleft" xlink:href="#arrowLeft" x="0" y="0" onmousedown="handlePan(-1,0)"/>
</g>
<svg viewBox="0 0 15 15" width="100%" height="30px" preserveAspectRatio="xMaxYMin meet">
 <g id="arrow_out" transform="scale(0.3 0.3)">
  <a xlink:href="ne2TThermo_2ne2TZoneThermos_8C__incl_org.svg" target="_base">
   <rect id="button" ry="5" rx="5" y="6" x="6" height="38" width="38"
        fill="#f2f5e9" fill-opacity="0.5" stroke="#606060" stroke-width="1.0"/>
   <path id="arrow"
     d="M 11.500037,31.436501 C 11.940474,20.09759 22.043105,11.32322 32.158766,21.979434 L 37.068811,17.246167 C 37.068811,17.246167 37.088388,32 37.088388,32 L 22.160133,31.978069 C 22.160133,31.978069 26.997745,27.140456 26.997745,27.140456 C 18.528582,18.264221 13.291696,25.230495 11.500037,31.436501 z"
     style="fill:#404040;"/>
  </a>
 </g>
</svg>

<style type='text/css'>
<![CDATA[
[data-mouse-over-selected='false'] { opacity: 0.7; }
[data-mouse-over-selected='true']  { opacity: 1.0; }
]]>
</style>
<script type="application/ecmascript"><![CDATA[
document.addEventListener('DOMContentLoaded', (event) => {
  highlightEdges();
  highlightAdjacentNodes();
});
]]></script>
</svg>
