<?xml version="1.0" encoding="UTF-8" standalone="no"?>
<!DOCTYPE svg PUBLIC "-//W3C//DTD SVG 1.1//EN"
 "http://www.w3.org/Graphics/SVG/1.1/DTD/svg11.dtd">
<!-- Generated by graphviz version 2.43.0 (0)
 -->
<!-- Title: ne2TThermos.C Pages: 1 -->
<svg width="1576pt" height="192pt"
 viewBox="0.00 0.00 1575.81 192.00" xmlns="http://www.w3.org/2000/svg" xmlns:xlink="http://www.w3.org/1999/xlink">
<g id="graph0" class="graph" transform="scale(1 1) rotate(0) translate(4 188)">
<title>ne2TThermos.C</title>
<!-- Node1 -->
<g id="Node000001" class="node">
<title>Node1</title>
<g id="a_Node000001"><a xlink:title=" ">
<polygon fill="#999999" stroke="#666666" points="715.81,-184 622.81,-184 622.81,-165 715.81,-165 715.81,-184"/>
<text text-anchor="middle" x="669.31" y="-172" font-family="Helvetica,sans-Serif" font-size="10.00">ne2TThermos.C</text>
</a>
</g>
</g>
<!-- Node2 -->
<g id="Node000002" class="node">
<title>Node2</title>
<g id="a_Node000002"><a xlink:href="ne2TThermo_2ne2TThermo_8H.html" target="_top" xlink:title=" ">
<polygon fill="white" stroke="#666666" points="523.81,-74 434.81,-74 434.81,-55 523.81,-55 523.81,-74"/>
<text text-anchor="middle" x="479.31" y="-62" font-family="Helvetica,sans-Serif" font-size="10.00">ne2TThermo.H</text>
</a>
</g>
</g>
<!-- Node1&#45;&gt;Node2 -->
<g id="edge1_Node000001_Node000002" class="edge">
<title>Node1&#45;&gt;Node2</title>
<g id="a_edge1_Node000001_Node000002"><a xlink:title=" ">
<path fill="none" stroke="#63b8ff" d="M622.63,-173.97C478.3,-174.92 46.37,-173.97 4.31,-129 -1.46,-122.83 -1.38,-116.24 4.31,-110 32.12,-79.46 305,-69.5 424.13,-66.58"/>
<polygon fill="#63b8ff" stroke="#63b8ff" points="424.58,-70.07 434.49,-66.34 424.41,-63.08 424.58,-70.07"/>
</a>
</g>
</g>
<!-- Node5 -->
<g id="Node000005" class="node">
<title>Node5</title>
<g id="a_Node000005"><a xlink:title=" ">
<polygon fill="#e0e0e0" stroke="#999999" points="117.31,-129 13.31,-129 13.31,-110 117.31,-110 117.31,-129"/>
<text text-anchor="middle" x="65.31" y="-117" font-family="Helvetica,sans-Serif" font-size="10.00">make2TThermo.H</text>
</a>
</g>
</g>
<!-- Node1&#45;&gt;Node5 -->
<g id="edge4_Node000001_Node000005" class="edge">
<title>Node1&#45;&gt;Node5</title>
<g id="a_edge4_Node000001_Node000005"><a xlink:title=" ">
<path fill="none" stroke="#63b8ff" d="M622.73,-170.58C530.38,-164.59 317.3,-149.8 127.68,-129.09"/>
<polygon fill="#63b8ff" stroke="#63b8ff" points="127.85,-125.59 117.52,-127.97 127.08,-132.55 127.85,-125.59"/>
</a>
</g>
</g>
<!-- Node6 -->
<g id="Node000006" class="node">
<title>Node6</title>
<g id="a_Node000006"><a xlink:title=" ">
<polygon fill="#e0e0e0" stroke="#999999" points="194.81,-129 135.81,-129 135.81,-110 194.81,-110 194.81,-129"/>
<text text-anchor="middle" x="165.31" y="-117" font-family="Helvetica,sans-Serif" font-size="10.00">specie.H</text>
</a>
</g>
</g>
<!-- Node1&#45;&gt;Node6 -->
<g id="edge5_Node000001_Node000006" class="edge">
<title>Node1&#45;&gt;Node6</title>
<g id="a_edge5_Node000001_Node000006"><a xlink:title=" ">
<path fill="none" stroke="#63b8ff" d="M622.55,-170.87C540.19,-165.85 363.77,-153.29 205,-128.91"/>
<polygon fill="#63b8ff" stroke="#63b8ff" points="205.47,-125.44 195.05,-127.36 204.39,-132.36 205.47,-125.44"/>
</a>
</g>
</g>
<!-- Node7 -->
<g id="Node000007" class="node">
<title>Node7</title>
<g id="a_Node000007"><a xlink:title=" ">
<polygon fill="#e0e0e0" stroke="#999999" points="293.31,-129 213.31,-129 213.31,-110 293.31,-110 293.31,-129"/>
<text text-anchor="middle" x="253.31" y="-117" font-family="Helvetica,sans-Serif" font-size="10.00">perfectGas.H</text>
</a>
</g>
</g>
<!-- Node1&#45;&gt;Node7 -->
<g id="edge6_Node000001_Node000007" class="edge">
<title>Node1&#45;&gt;Node7</title>
<g id="a_edge6_Node000001_Node000007"><a xlink:title=" ">
<path fill="none" stroke="#63b8ff" d="M622.57,-168.61C554.64,-161.32 424.45,-146.73 303.56,-129.12"/>
<polygon fill="#63b8ff" stroke="#63b8ff" points="303.79,-125.61 293.39,-127.63 302.78,-132.54 303.79,-125.61"/>
</a>
</g>
</g>
<!-- Node8 -->
<g id="Node000008" class="node">
<title>Node8</title>
<g id="a_Node000008"><a xlink:title=" ">
<polygon fill="#e0e0e0" stroke="#999999" points="426.81,-129 311.81,-129 311.81,-110 426.81,-110 426.81,-129"/>
<text text-anchor="middle" x="369.31" y="-117" font-family="Helvetica,sans-Serif" font-size="10.00">PengRobinsonGas.H</text>
</a>
</g>
</g>
<!-- Node1&#45;&gt;Node8 -->
<g id="edge7_Node000001_Node000008" class="edge">
<title>Node1&#45;&gt;Node8</title>
<g id="a_edge7_Node000001_Node000008"><a xlink:title=" ">
<path fill="none" stroke="#63b8ff" d="M622.76,-165.28C570.13,-155.98 484.36,-140.83 427.39,-130.76"/>
<polygon fill="#63b8ff" stroke="#63b8ff" points="427.91,-127.3 417.45,-129.01 426.69,-134.19 427.91,-127.3"/>
</a>
</g>
</g>
<!-- Node9 -->
<g id="Node000009" class="node">
<title>Node9</title>
<g id="a_Node000009"><a xlink:title=" ">
<polygon fill="#e0e0e0" stroke="#999999" points="543.31,-129 445.31,-129 445.31,-110 543.31,-110 543.31,-129"/>
<text text-anchor="middle" x="494.31" y="-117" font-family="Helvetica,sans-Serif" font-size="10.00">hConstThermo.H</text>
</a>
</g>
</g>
<!-- Node1&#45;&gt;Node9 -->
<g id="edge8_Node000001_Node000009" class="edge">
<title>Node1&#45;&gt;Node9</title>
<g id="a_edge8_Node000001_Node000009"><a xlink:title=" ">
<path fill="none" stroke="#63b8ff" d="M641.19,-164.98C611.68,-156.05 565.11,-141.94 532.34,-132.02"/>
<polygon fill="#63b8ff" stroke="#63b8ff" points="533.23,-128.63 522.64,-129.08 531.2,-135.33 533.23,-128.63"/>
</a>
</g>
</g>
<!-- Node10 -->
<g id="Node000010" class="node">
<title>Node10</title>
<g id="a_Node000010"><a xlink:title=" ">
<polygon fill="#e0e0e0" stroke="#999999" points="659.31,-129 561.31,-129 561.31,-110 659.31,-110 659.31,-129"/>
<text text-anchor="middle" x="610.31" y="-117" font-family="Helvetica,sans-Serif" font-size="10.00">eConstThermo.H</text>
</a>
</g>
</g>
<!-- Node1&#45;&gt;Node10 -->
<g id="edge9_Node000001_Node000010" class="edge">
<title>Node1&#45;&gt;Node10</title>
<g id="a_edge9_Node000001_Node000010"><a xlink:title=" ">
<path fill="none" stroke="#63b8ff" d="M659.83,-164.98C651.1,-157.15 637.96,-145.34 627.41,-135.86"/>
<polygon fill="#63b8ff" stroke="#63b8ff" points="629.74,-133.25 619.96,-129.17 625.06,-138.46 629.74,-133.25"/>
</a>
</g>
</g>
<!-- Node11 -->
<g id="Node000011" class="node">
<title>Node11</title>
<g id="a_Node000011"><a xlink:title=" ">
<polygon fill="#e0e0e0" stroke="#999999" points="778.81,-129 677.81,-129 677.81,-110 778.81,-110 778.81,-129"/>
<text text-anchor="middle" x="728.31" y="-117" font-family="Helvetica,sans-Serif" font-size="10.00">janaf2TThermo.H</text>
</a>
</g>
</g>
<!-- Node1&#45;&gt;Node11 -->
<g id="edge10_Node000001_Node000011" class="edge">
<title>Node1&#45;&gt;Node11</title>
<g id="a_edge10_Node000001_Node000011"><a xlink:title=" ">
<path fill="none" stroke="#63b8ff" d="M678.78,-164.98C687.51,-157.15 700.65,-145.34 711.2,-135.86"/>
<polygon fill="#63b8ff" stroke="#63b8ff" points="713.55,-138.46 718.65,-129.17 708.88,-133.25 713.55,-138.46"/>
</a>
</g>
</g>
<!-- Node12 -->
<g id="Node000012" class="node">
<title>Node12</title>
<g id="a_Node000012"><a xlink:title=" ">
<polygon fill="#e0e0e0" stroke="#999999" points="919.31,-129 797.31,-129 797.31,-110 919.31,-110 919.31,-129"/>
<text text-anchor="middle" x="858.31" y="-117" font-family="Helvetica,sans-Serif" font-size="10.00">sensibleEnthalpy2T.H</text>
</a>
</g>
</g>
<!-- Node1&#45;&gt;Node12 -->
<g id="edge11_Node000001_Node000012" class="edge">
<title>Node1&#45;&gt;Node12</title>
<g id="a_edge11_Node000001_Node000012"><a xlink:title=" ">
<path fill="none" stroke="#63b8ff" d="M699.67,-164.98C731.68,-156.01 782.27,-141.82 817.69,-131.89"/>
<polygon fill="#63b8ff" stroke="#63b8ff" points="819.02,-135.15 827.7,-129.08 817.13,-128.41 819.02,-135.15"/>
</a>
</g>
</g>
<!-- Node13 -->
<g id="Node000013" class="node">
<title>Node13</title>
<g id="a_Node000013"><a xlink:title=" ">
<polygon fill="#e0e0e0" stroke="#999999" points="1011.31,-129 937.31,-129 937.31,-110 1011.31,-110 1011.31,-129"/>
<text text-anchor="middle" x="974.31" y="-117" font-family="Helvetica,sans-Serif" font-size="10.00">thermo2T.H</text>
</a>
</g>
</g>
<!-- Node1&#45;&gt;Node13 -->
<g id="edge12_Node000001_Node000013" class="edge">
<title>Node1&#45;&gt;Node13</title>
<g id="a_edge12_Node000001_Node000013"><a xlink:title=" ">
<path fill="none" stroke="#63b8ff" d="M716.13,-165.64C765.89,-157.24 847.18,-143.41 926.93,-129.23"/>
<polygon fill="#63b8ff" stroke="#63b8ff" points="927.92,-132.61 937.16,-127.41 926.7,-125.71 927.92,-132.61"/>
</a>
</g>
</g>
<!-- Node14 -->
<g id="Node000014" class="node">
<title>Node14</title>
<g id="a_Node000014"><a xlink:href="ne2TThermo_2heNe2TThermo_8H.html" target="_top" xlink:title=" ">
<polygon fill="white" stroke="#666666" points="1131.31,-129 1029.31,-129 1029.31,-110 1131.31,-110 1131.31,-129"/>
<text text-anchor="middle" x="1080.31" y="-117" font-family="Helvetica,sans-Serif" font-size="10.00">heNe2TThermo.H</text>
</a>
</g>
</g>
<!-- Node1&#45;&gt;Node14 -->
<g id="edge13_Node000001_Node000014" class="edge">
<title>Node1&#45;&gt;Node14</title>
<g id="a_edge13_Node000001_Node000014"><a xlink:title=" ">
<path fill="none" stroke="#63b8ff" d="M715.89,-167.81C781.24,-159.79 904.12,-144.52 1019.21,-129.13"/>
<polygon fill="#63b8ff" stroke="#63b8ff" points="1019.8,-132.58 1029.25,-127.78 1018.87,-125.64 1019.8,-132.58"/>
</a>
</g>
</g>
<!-- Node16 -->
<g id="Node000016" class="node">
<title>Node16</title>
<g id="a_Node000016"><a xlink:title=" ">
<polygon fill="#e0e0e0" stroke="#999999" points="1235.31,-129 1149.31,-129 1149.31,-110 1235.31,-110 1235.31,-129"/>
<text text-anchor="middle" x="1192.31" y="-117" font-family="Helvetica,sans-Serif" font-size="10.00">pureMixture.H</text>
</a>
</g>
</g>
<!-- Node1&#45;&gt;Node16 -->
<g id="edge16_Node000001_Node000016" class="edge">
<title>Node1&#45;&gt;Node16</title>
<g id="a_edge16_Node000001_Node000016"><a xlink:title=" ">
<path fill="none" stroke="#63b8ff" d="M715.88,-170.15C798.83,-163.96 977.79,-149.57 1139.1,-129.07"/>
<polygon fill="#63b8ff" stroke="#63b8ff" points="1139.73,-132.52 1149.21,-127.78 1138.84,-125.58 1139.73,-132.52"/>
</a>
</g>
</g>
<!-- Node17 -->
<g id="Node000017" class="node">
<title>Node17</title>
<g id="a_Node000017"><a xlink:title=" ">
<polygon fill="#e0e0e0" stroke="#999999" points="1392.81,-129 1253.81,-129 1253.81,-110 1392.81,-110 1392.81,-129"/>
<text text-anchor="middle" x="1323.31" y="-117" font-family="Helvetica,sans-Serif" font-size="10.00">thermoPhysics2TTypes.H</text>
</a>
</g>
</g>
<!-- Node1&#45;&gt;Node17 -->
<g id="edge17_Node000001_Node000017" class="edge">
<title>Node1&#45;&gt;Node17</title>
<g id="a_edge17_Node000001_Node000017"><a xlink:title=" ">
<path fill="none" stroke="#63b8ff" d="M715.93,-170.37C812.24,-163.79 1040.41,-147.69 1243.28,-129.07"/>
<polygon fill="#63b8ff" stroke="#63b8ff" points="1243.89,-132.53 1253.53,-128.12 1243.25,-125.55 1243.89,-132.53"/>
</a>
</g>
</g>
<!-- Node18 -->
<g id="Node000018" class="node">
<title>Node18</title>
<g id="a_Node000018"><a xlink:title=" ">
<polygon fill="#e0e0e0" stroke="#999999" points="1567.81,-129 1410.81,-129 1410.81,-110 1567.81,-110 1567.81,-129"/>
<text text-anchor="middle" x="1489.31" y="-117" font-family="Helvetica,sans-Serif" font-size="10.00">blottnerEucken2TTransport.H</text>
</a>
</g>
</g>
<!-- Node1&#45;&gt;Node18 -->
<g id="edge18_Node000001_Node000018" class="edge">
<title>Node1&#45;&gt;Node18</title>
<g id="a_edge18_Node000001_Node000018"><a xlink:title=" ">
<path fill="none" stroke="#63b8ff" d="M716.08,-171.26C830.8,-165.63 1135.49,-149.91 1400.4,-129.13"/>
<polygon fill="#63b8ff" stroke="#63b8ff" points="1400.9,-132.6 1410.6,-128.32 1400.35,-125.62 1400.9,-132.6"/>
</a>
</g>
</g>
<!-- Node3 -->
<g id="Node000003" class="node">
<title>Node3</title>
<g id="a_Node000003"><a xlink:title=" ">
<polygon fill="#e0e0e0" stroke="#999999" points="459.31,-19 361.31,-19 361.31,0 459.31,0 459.31,-19"/>
<text text-anchor="middle" x="410.31" y="-7" font-family="Helvetica,sans-Serif" font-size="10.00">fluid2TThermo.H</text>
</a>
</g>
</g>
<!-- Node2&#45;&gt;Node3 -->
<g id="edge2_Node000002_Node000003" class="edge">
<title>Node2&#45;&gt;Node3</title>
<g id="a_edge2_Node000002_Node000003"><a xlink:title=" ">
<path fill="none" stroke="#63b8ff" d="M468.22,-54.98C457.82,-47 442.04,-34.88 429.58,-25.31"/>
<polygon fill="#63b8ff" stroke="#63b8ff" points="431.66,-22.49 421.59,-19.17 427.39,-28.04 431.66,-22.49"/>
</a>
</g>
</g>
<!-- Node4 -->
<g id="Node000004" class="node">
<title>Node4</title>
<g id="a_Node000004"><a xlink:title=" ">
<polygon fill="#e0e0e0" stroke="#999999" points="620.81,-19 477.81,-19 477.81,0 620.81,0 620.81,-19"/>
<text text-anchor="middle" x="549.31" y="-7" font-family="Helvetica,sans-Serif" font-size="10.00">runTimeSelectionTables.H</text>
</a>
</g>
</g>
<!-- Node2&#45;&gt;Node4 -->
<g id="edge3_Node000002_Node000004" class="edge">
<title>Node2&#45;&gt;Node4</title>
<g id="a_edge3_Node000002_Node000004"><a xlink:title=" ">
<path fill="none" stroke="#63b8ff" d="M490.55,-54.98C501.1,-47 517.11,-34.88 529.75,-25.31"/>
<polygon fill="#63b8ff" stroke="#63b8ff" points="531.99,-28 537.85,-19.17 527.77,-22.42 531.99,-28"/>
</a>
</g>
</g>
<!-- Node14&#45;&gt;Node2 -->
<g id="edge14_Node000014_Node000002" class="edge">
<title>Node14&#45;&gt;Node2</title>
<g id="a_edge14_Node000014_Node000002"><a xlink:title=" ">
<path fill="none" stroke="#63b8ff" d="M1029.27,-111.06C1026.24,-110.69 1023.23,-110.33 1020.31,-110 842.97,-90.16 631.99,-75.33 534.16,-68.94"/>
<polygon fill="#63b8ff" stroke="#63b8ff" points="534.13,-65.44 523.92,-68.28 533.68,-72.42 534.13,-65.44"/>
</a>
</g>
</g>
<!-- Node15 -->
<g id="Node000015" class="node">
<title>Node15</title>
<g id="a_Node000015"><a xlink:title=" ">
<polygon fill="#e0e0e0" stroke="#999999" points="1124.81,-74 1035.81,-74 1035.81,-55 1124.81,-55 1124.81,-74"/>
<text text-anchor="middle" x="1080.31" y="-62" font-family="Helvetica,sans-Serif" font-size="10.00">he2TThermo.H</text>
</a>
</g>
</g>
<!-- Node14&#45;&gt;Node15 -->
<g id="edge15_Node000014_Node000015" class="edge">
<title>Node14&#45;&gt;Node15</title>
<g id="a_edge15_Node000014_Node000015"><a xlink:title=" ">
<path fill="none" stroke="#63b8ff" d="M1080.31,-109.75C1080.31,-102.8 1080.31,-92.85 1080.31,-84.13"/>
<polygon fill="#63b8ff" stroke="#63b8ff" points="1083.81,-84.09 1080.31,-74.09 1076.81,-84.09 1083.81,-84.09"/>
</a>
</g>
</g>
</g>
</svg>
