<?xml version="1.0" encoding="UTF-8" standalone="no"?>
<!DOCTYPE svg PUBLIC "-//W3C//DTD SVG 1.1//EN"
 "http://www.w3.org/Graphics/SVG/1.1/DTD/svg11.dtd">
<!-- Generated by graphviz version 2.43.0 (0)
 -->
<!-- Title: thermo2TI.H Pages: 1 -->
<svg width="85pt" height="137pt"
 viewBox="0.00 0.00 85.00 137.00" xmlns="http://www.w3.org/2000/svg" xmlns:xlink="http://www.w3.org/1999/xlink">
<g id="graph0" class="graph" transform="scale(1 1) rotate(0) translate(4 133)">
<title>thermo2TI.H</title>
<!-- Node1 -->
<g id="Node000001" class="node">
<title>Node1</title>
<g id="a_Node000001"><a xlink:title=" ">
<polygon fill="#999999" stroke="#666666" points="77,-129 0,-129 0,-110 77,-110 77,-129"/>
<text text-anchor="middle" x="38.5" y="-117" font-family="Helvetica,sans-Serif" font-size="10.00">thermo2TI.H</text>
</a>
</g>
</g>
<!-- Node2 -->
<g id="Node000002" class="node">
<title>Node2</title>
<g id="a_Node000002"><a xlink:href="thermo_2thermo2T_2thermo2T_8H.html" target="_top" xlink:title=" ">
<polygon fill="white" stroke="#666666" points="75.5,-74 1.5,-74 1.5,-55 75.5,-55 75.5,-74"/>
<text text-anchor="middle" x="38.5" y="-62" font-family="Helvetica,sans-Serif" font-size="10.00">thermo2T.H</text>
</a>
</g>
</g>
<!-- Node1&#45;&gt;Node2 -->
<g id="edge1_Node000001_Node000002" class="edge">
<title>Node1&#45;&gt;Node2</title>
<g id="a_edge1_Node000001_Node000002"><a xlink:title=" ">
<path fill="none" stroke="#63b8ff" d="M32.01,-99.66C31.41,-90.93 31.86,-80.99 33.37,-74.09"/>
<polygon fill="#63b8ff" stroke="#63b8ff" points="28.56,-100.29 33.33,-109.75 35.5,-99.38 28.56,-100.29"/>
</a>
</g>
</g>
<!-- Node2&#45;&gt;Node1 -->
<g id="edge3_Node000002_Node000001" class="edge">
<title>Node2&#45;&gt;Node1</title>
<g id="a_edge3_Node000002_Node000001"><a xlink:title=" ">
<path fill="none" stroke="#63b8ff" d="M44.98,-84.13C45.6,-92.85 45.16,-102.8 43.67,-109.75"/>
<polygon fill="#63b8ff" stroke="#63b8ff" points="48.43,-83.53 43.63,-74.09 41.49,-84.47 48.43,-83.53"/>
</a>
</g>
</g>
<!-- Node3 -->
<g id="Node000003" class="node">
<title>Node3</title>
<g id="a_Node000003"><a xlink:href="thermo_2thermo2T_2thermo2T_8C.html" target="_top" xlink:title=" ">
<polygon fill="white" stroke="#666666" points="75,-19 2,-19 2,0 75,0 75,-19"/>
<text text-anchor="middle" x="38.5" y="-7" font-family="Helvetica,sans-Serif" font-size="10.00">thermo2T.C</text>
</a>
</g>
</g>
<!-- Node2&#45;&gt;Node3 -->
<g id="edge2_Node000002_Node000003" class="edge">
<title>Node2&#45;&gt;Node3</title>
<g id="a_edge2_Node000002_Node000003"><a xlink:title=" ">
<path fill="none" stroke="#63b8ff" d="M38.5,-44.66C38.5,-35.93 38.5,-25.99 38.5,-19.09"/>
<polygon fill="#63b8ff" stroke="#63b8ff" points="35,-44.75 38.5,-54.75 42,-44.75 35,-44.75"/>
</a>
</g>
</g>
</g>
</svg>
