<?xml version="1.0" encoding="UTF-8" standalone="no"?>
<!DOCTYPE svg PUBLIC "-//W3C//DTD SVG 1.1//EN"
 "http://www.w3.org/Graphics/SVG/1.1/DTD/svg11.dtd">
<!-- Generated by graphviz version 2.43.0 (0)
 -->
<!-- Title: thermo2T.H Pages: 1 -->
<svg width="256pt" height="82pt"
 viewBox="0.00 0.00 256.00 82.00" xmlns="http://www.w3.org/2000/svg" xmlns:xlink="http://www.w3.org/1999/xlink">
<g id="graph0" class="graph" transform="scale(1 1) rotate(0) translate(4 78)">
<title>thermo2T.H</title>
<!-- Node1 -->
<g id="Node000001" class="node">
<title>Node1</title>
<g id="a_Node000001"><a xlink:title=" ">
<polygon fill="#999999" stroke="#666666" points="246.5,-74 172.5,-74 172.5,-55 246.5,-55 246.5,-74"/>
<text text-anchor="middle" x="209.5" y="-62" font-family="Helvetica,sans-Serif" font-size="10.00">thermo2T.H</text>
</a>
</g>
</g>
<!-- Node2 -->
<g id="Node000002" class="node">
<title>Node2</title>
<g id="a_Node000002"><a xlink:title=" ">
<polygon fill="#e0e0e0" stroke="#999999" points="153,-19 0,-19 0,0 153,0 153,-19"/>
<text text-anchor="middle" x="76.5" y="-7" font-family="Helvetica,sans-Serif" font-size="10.00">thermodynamicConstants.H</text>
</a>
</g>
</g>
<!-- Node1&#45;&gt;Node2 -->
<g id="edge1_Node000001_Node000002" class="edge">
<title>Node1&#45;&gt;Node2</title>
<g id="a_edge1_Node000001_Node000002"><a xlink:title=" ">
<path fill="none" stroke="#63b8ff" d="M188.13,-54.98C166.35,-46.3 132.34,-32.75 107.58,-22.88"/>
<polygon fill="#63b8ff" stroke="#63b8ff" points="108.84,-19.62 98.26,-19.17 106.25,-26.12 108.84,-19.62"/>
</a>
</g>
</g>
<!-- Node3 -->
<g id="Node000003" class="node">
<title>Node3</title>
<g id="a_Node000003"><a xlink:href="thermo_2thermo2T_2thermo2TI_8H.html" target="_top" xlink:title=" ">
<polygon fill="white" stroke="#666666" points="248,-19 171,-19 171,0 248,0 248,-19"/>
<text text-anchor="middle" x="209.5" y="-7" font-family="Helvetica,sans-Serif" font-size="10.00">thermo2TI.H</text>
</a>
</g>
</g>
<!-- Node1&#45;&gt;Node3 -->
<g id="edge2_Node000001_Node000003" class="edge">
<title>Node1&#45;&gt;Node3</title>
<g id="a_edge2_Node000001_Node000003"><a xlink:title=" ">
<path fill="none" stroke="#63b8ff" d="M204.33,-54.75C202.84,-47.8 202.4,-37.85 203.02,-29.13"/>
<polygon fill="#63b8ff" stroke="#63b8ff" points="206.51,-29.47 204.37,-19.09 199.57,-28.53 206.51,-29.47"/>
</a>
</g>
</g>
<!-- Node3&#45;&gt;Node1 -->
<g id="edge3_Node000003_Node000001" class="edge">
<title>Node3&#45;&gt;Node1</title>
<g id="a_edge3_Node000003_Node000001"><a xlink:title=" ">
<path fill="none" stroke="#63b8ff" d="M214.63,-19.09C216.14,-25.99 216.59,-35.93 215.99,-44.66"/>
<polygon fill="#63b8ff" stroke="#63b8ff" points="212.5,-44.38 214.67,-54.75 219.44,-45.29 212.5,-44.38"/>
</a>
</g>
</g>
</g>
</svg>
