<?xml version="1.0" encoding="UTF-8" standalone="no"?>
<!DOCTYPE svg PUBLIC "-//W3C//DTD SVG 1.1//EN"
 "http://www.w3.org/Graphics/SVG/1.1/DTD/svg11.dtd">
<!-- Generated by graphviz version 2.43.0 (0)
 -->
<!-- Title: thermo2T.H Pages: 1 -->
<svg width="176pt" height="82pt"
 viewBox="0.00 0.00 176.00 82.00" xmlns="http://www.w3.org/2000/svg" xmlns:xlink="http://www.w3.org/1999/xlink">
<g id="graph0" class="graph" transform="scale(1 1) rotate(0) translate(4 78)">
<title>thermo2T.H</title>
<!-- Node1 -->
<g id="Node000001" class="node">
<title>Node1</title>
<g id="a_Node000001"><a xlink:title=" ">
<polygon fill="#999999" stroke="#666666" points="166.5,-74 92.5,-74 92.5,-55 166.5,-55 166.5,-74"/>
<text text-anchor="middle" x="129.5" y="-62" font-family="Helvetica,sans-Serif" font-size="10.00">thermo2T.H</text>
</a>
</g>
</g>
<!-- Node2 -->
<g id="Node000002" class="node">
<title>Node2</title>
<g id="a_Node000002"><a xlink:href="thermo_2thermo2T_2thermo2T_8C.html" target="_top" xlink:title=" ">
<polygon fill="white" stroke="#666666" points="73,-19 0,-19 0,0 73,0 73,-19"/>
<text text-anchor="middle" x="36.5" y="-7" font-family="Helvetica,sans-Serif" font-size="10.00">thermo2T.C</text>
</a>
</g>
</g>
<!-- Node1&#45;&gt;Node2 -->
<g id="edge1_Node000001_Node000002" class="edge">
<title>Node1&#45;&gt;Node2</title>
<g id="a_edge1_Node000001_Node000002"><a xlink:title=" ">
<path fill="none" stroke="#63b8ff" d="M105.75,-49.97C88.75,-40.28 66.37,-27.52 51.71,-19.17"/>
<polygon fill="#63b8ff" stroke="#63b8ff" points="104.14,-53.07 114.56,-54.98 107.6,-46.99 104.14,-53.07"/>
</a>
</g>
</g>
<!-- Node3 -->
<g id="Node000003" class="node">
<title>Node3</title>
<g id="a_Node000003"><a xlink:href="thermo_2thermo2T_2thermo2TI_8H.html" target="_top" xlink:title=" ">
<polygon fill="white" stroke="#666666" points="168,-19 91,-19 91,0 168,0 168,-19"/>
<text text-anchor="middle" x="129.5" y="-7" font-family="Helvetica,sans-Serif" font-size="10.00">thermo2TI.H</text>
</a>
</g>
</g>
<!-- Node1&#45;&gt;Node3 -->
<g id="edge2_Node000001_Node000003" class="edge">
<title>Node1&#45;&gt;Node3</title>
<g id="a_edge2_Node000001_Node000003"><a xlink:title=" ">
<path fill="none" stroke="#63b8ff" d="M123.01,-44.66C122.41,-35.93 122.86,-25.99 124.37,-19.09"/>
<polygon fill="#63b8ff" stroke="#63b8ff" points="119.56,-45.29 124.33,-54.75 126.5,-44.38 119.56,-45.29"/>
</a>
</g>
</g>
<!-- Node3&#45;&gt;Node1 -->
<g id="edge3_Node000003_Node000001" class="edge">
<title>Node3&#45;&gt;Node1</title>
<g id="a_edge3_Node000003_Node000001"><a xlink:title=" ">
<path fill="none" stroke="#63b8ff" d="M135.98,-29.13C136.6,-37.85 136.16,-47.8 134.67,-54.75"/>
<polygon fill="#63b8ff" stroke="#63b8ff" points="139.43,-28.53 134.63,-19.09 132.49,-29.47 139.43,-28.53"/>
</a>
</g>
</g>
</g>
</svg>
