<?xml version="1.0" encoding="UTF-8" standalone="no"?>
<!DOCTYPE svg PUBLIC "-//W3C//DTD SVG 1.1//EN"
 "http://www.w3.org/Graphics/SVG/1.1/DTD/svg11.dtd">
<!-- Generated by graphviz version 2.43.0 (0)
 -->
<!-- Title: janaf2TThermo.C Pages: 1 -->
<svg width="390pt" height="192pt"
 viewBox="0.00 0.00 390.00 192.00" xmlns="http://www.w3.org/2000/svg" xmlns:xlink="http://www.w3.org/1999/xlink">
<g id="graph0" class="graph" transform="scale(1 1) rotate(0) translate(4 188)">
<title>janaf2TThermo.C</title>
<!-- Node1 -->
<g id="Node000001" class="node">
<title>Node1</title>
<g id="a_Node000001"><a xlink:title=" ">
<polygon fill="#999999" stroke="#666666" points="314.5,-184 213.5,-184 213.5,-165 314.5,-165 314.5,-184"/>
<text text-anchor="middle" x="264" y="-172" font-family="Helvetica,sans-Serif" font-size="10.00">janaf2TThermo.C</text>
</a>
</g>
</g>
<!-- Node2 -->
<g id="Node000002" class="node">
<title>Node2</title>
<g id="a_Node000002"><a xlink:href="thermo_2janaf2T_2janaf2TThermo_8H.html" target="_top" xlink:title=" ">
<polygon fill="white" stroke="#666666" points="261.5,-129 160.5,-129 160.5,-110 261.5,-110 261.5,-129"/>
<text text-anchor="middle" x="211" y="-117" font-family="Helvetica,sans-Serif" font-size="10.00">janaf2TThermo.H</text>
</a>
</g>
</g>
<!-- Node1&#45;&gt;Node2 -->
<g id="edge1_Node000001_Node000002" class="edge">
<title>Node1&#45;&gt;Node2</title>
<g id="a_edge1_Node000001_Node000002"><a xlink:title=" ">
<path fill="none" stroke="#63b8ff" d="M255.25,-164.75C247.53,-157.03 236.1,-145.6 226.78,-136.28"/>
<polygon fill="#63b8ff" stroke="#63b8ff" points="229.14,-133.69 219.59,-129.09 224.19,-138.64 229.14,-133.69"/>
</a>
</g>
</g>
<!-- Node8 -->
<g id="Node000008" class="node">
<title>Node8</title>
<g id="a_Node000008"><a xlink:title=" ">
<polygon fill="#e0e0e0" stroke="#999999" points="356.5,-129 279.5,-129 279.5,-110 356.5,-110 356.5,-129"/>
<text text-anchor="middle" x="318" y="-117" font-family="Helvetica,sans-Serif" font-size="10.00">IOstreams.H</text>
</a>
</g>
</g>
<!-- Node1&#45;&gt;Node8 -->
<g id="edge8_Node000001_Node000008" class="edge">
<title>Node1&#45;&gt;Node8</title>
<g id="a_edge8_Node000001_Node000008"><a xlink:title=" ">
<path fill="none" stroke="#63b8ff" d="M272.92,-164.75C280.78,-157.03 292.43,-145.6 301.92,-136.28"/>
<polygon fill="#63b8ff" stroke="#63b8ff" points="304.56,-138.59 309.25,-129.09 299.66,-133.6 304.56,-138.59"/>
</a>
</g>
</g>
<!-- Node3 -->
<g id="Node000003" class="node">
<title>Node3</title>
<g id="a_Node000003"><a xlink:title=" ">
<polygon fill="#e0e0e0" stroke="#999999" points="56,-74 0,-74 0,-55 56,-55 56,-74"/>
<text text-anchor="middle" x="28" y="-62" font-family="Helvetica,sans-Serif" font-size="10.00">scalar.H</text>
</a>
</g>
</g>
<!-- Node2&#45;&gt;Node3 -->
<g id="edge2_Node000002_Node000003" class="edge">
<title>Node2&#45;&gt;Node3</title>
<g id="a_edge2_Node000002_Node000003"><a xlink:title=" ">
<path fill="none" stroke="#63b8ff" d="M181.6,-109.98C150.15,-100.88 100.17,-86.4 65.81,-76.45"/>
<polygon fill="#63b8ff" stroke="#63b8ff" points="66.71,-73.07 56.13,-73.65 64.76,-79.79 66.71,-73.07"/>
</a>
</g>
</g>
<!-- Node4 -->
<g id="Node000004" class="node">
<title>Node4</title>
<g id="a_Node000004"><a xlink:title=" ">
<polygon fill="#e0e0e0" stroke="#999999" points="144,-74 74,-74 74,-55 144,-55 144,-74"/>
<text text-anchor="middle" x="109" y="-62" font-family="Helvetica,sans-Serif" font-size="10.00">FixedList.H</text>
</a>
</g>
</g>
<!-- Node2&#45;&gt;Node4 -->
<g id="edge3_Node000002_Node000004" class="edge">
<title>Node2&#45;&gt;Node4</title>
<g id="a_edge3_Node000002_Node000004"><a xlink:title=" ">
<path fill="none" stroke="#63b8ff" d="M194.61,-109.98C178.43,-101.57 153.43,-88.59 134.62,-78.81"/>
<polygon fill="#63b8ff" stroke="#63b8ff" points="136.17,-75.68 125.69,-74.17 132.95,-81.89 136.17,-75.68"/>
</a>
</g>
</g>
<!-- Node5 -->
<g id="Node000005" class="node">
<title>Node5</title>
<g id="a_Node000005"><a xlink:title=" ">
<polygon fill="#e0e0e0" stroke="#999999" points="259.5,-74 162.5,-74 162.5,-55 259.5,-55 259.5,-74"/>
<text text-anchor="middle" x="211" y="-62" font-family="Helvetica,sans-Serif" font-size="10.00">HtoEthermo2T.H</text>
</a>
</g>
</g>
<!-- Node2&#45;&gt;Node5 -->
<g id="edge4_Node000002_Node000005" class="edge">
<title>Node2&#45;&gt;Node5</title>
<g id="a_edge4_Node000002_Node000005"><a xlink:title=" ">
<path fill="none" stroke="#63b8ff" d="M211,-109.75C211,-102.8 211,-92.85 211,-84.13"/>
<polygon fill="#63b8ff" stroke="#63b8ff" points="214.5,-84.09 211,-74.09 207.5,-84.09 214.5,-84.09"/>
</a>
</g>
</g>
<!-- Node6 -->
<g id="Node000006" class="node">
<title>Node6</title>
<g id="a_Node000006"><a xlink:href="thermo_2janaf2T_2janaf2TThermoI_8H.html" target="_top" xlink:title=" ">
<polygon fill="white" stroke="#666666" points="382,-74 278,-74 278,-55 382,-55 382,-74"/>
<text text-anchor="middle" x="330" y="-62" font-family="Helvetica,sans-Serif" font-size="10.00">janaf2TThermoI.H</text>
</a>
</g>
</g>
<!-- Node2&#45;&gt;Node6 -->
<g id="edge5_Node000002_Node000006" class="edge">
<title>Node2&#45;&gt;Node6</title>
<g id="a_edge5_Node000002_Node000006"><a xlink:title=" ">
<path fill="none" stroke="#63b8ff" d="M225,-109.98C242.5,-101.34 272.51,-87.87 296.06,-78.02"/>
<polygon fill="#63b8ff" stroke="#63b8ff" points="297.48,-81.22 305.38,-74.17 294.8,-74.75 297.48,-81.22"/>
</a>
</g>
</g>
<!-- Node6&#45;&gt;Node2 -->
<g id="edge6_Node000006_Node000002" class="edge">
<title>Node6&#45;&gt;Node2</title>
<g id="a_edge6_Node000006_Node000002"><a xlink:title=" ">
<path fill="none" stroke="#63b8ff" d="M315.68,-74.17C298.04,-82.87 267.99,-96.35 244.51,-106.16"/>
<polygon fill="#63b8ff" stroke="#63b8ff" points="243.15,-102.94 235.23,-109.98 245.81,-109.41 243.15,-102.94"/>
</a>
</g>
</g>
<!-- Node7 -->
<g id="Node000007" class="node">
<title>Node7</title>
<g id="a_Node000007"><a xlink:title=" ">
<polygon fill="#e0e0e0" stroke="#999999" points="359.5,-19 300.5,-19 300.5,0 359.5,0 359.5,-19"/>
<text text-anchor="middle" x="330" y="-7" font-family="Helvetica,sans-Serif" font-size="10.00">specie.H</text>
</a>
</g>
</g>
<!-- Node6&#45;&gt;Node7 -->
<g id="edge7_Node000006_Node000007" class="edge">
<title>Node6&#45;&gt;Node7</title>
<g id="a_edge7_Node000006_Node000007"><a xlink:title=" ">
<path fill="none" stroke="#63b8ff" d="M330,-54.75C330,-47.8 330,-37.85 330,-29.13"/>
<polygon fill="#63b8ff" stroke="#63b8ff" points="333.5,-29.09 330,-19.09 326.5,-29.09 333.5,-29.09"/>
</a>
</g>
</g>
</g>
</svg>
